<svg version="1.0" id="Layer_1" xmlns="http://www.w3.org/2000/svg" x="0" y="0" viewBox="0 0 1000 1000" xml:space="preserve"><style>@keyframes translate{0%{transform:translateY(0)}50%{transform:translateY(-50px)}}.st1{fill:#6442fb}.st3{fill:#6c6c7a}.st4{fill:#41404f}.st5{fill:#998def}.st7{fill:#6d5bef}.st8{fill:#e6e7e8}.st9{fill:#565668}.st10{fill:#878796}.st11{opacity:.2;fill:#2b3990}.st12{fill:#363142}.st13{fill:#a55932}.st14{fill:#f7ca82}.st15{fill:#d1d3d4}.st16{fill:#f7b378}.st17{fill:#f1f2f2}.st18{fill:#1c75bc}.st19{fill:#b64d50}.st20{fill:#9d5932}.st23{fill:#ef4661}.st24{fill:#ef5f61}.st28{fill:#414042}</style><g opacity=".1"><path class="st1" d="M394 275.7l8 3 2.9-.6-1.8-4.2-9.3-5.4h-9.1l-6.4 1.8 4.3 3.8zM390.3 294.7l8.7 1.2 11.7-2.9 3-2.3-5.5-1.4-3.4-3.6-.1-.2-2.7-1.6-8-4.6-1.5-.8-9-.7-.9.2-4.3 1.3-3.2 1 10.1 8zM429.7 302.5l3.1-1.8-11.8-3.3c-.4-.1-5.4.3-5.7.3l2 4.5 12.4.3zM457.4 315.9l.6.4 1 .5.8.4 5.1 2.7 5 2.6.1.1.7-2-.8-.5-4.9-3.3-5.2-3.4-.8-.6.8-1.4 5.2.8-1.1-3.5-6.9-3.1-1.7 1 2.1 2.2-2.1.6-1.3.4-2.2 2.3 3.4 2.3zM480.8 322.4l.9.4 2.9 1.5 3.5.9 6.6 3.1 5.7-.6 6.9 2.2 6.9 4 6.3-1.1 11.4 4.6 7.3 1.4-2.5-4.7-10.1-7.1-9.8-2.2-1.8 1.8-8.4-2.5-5.1-2.5-6.2-1.5-7.2-.6-4.2-3.3-3.1.1.9 2.3-.9-.4-7.7-3.5-3.2.3 3.5 3.7zM431.2 312.4l-.9.6-3 2.3 10.2 7.9-.4 10.6v.3l-9 1-7.7-2.8-4.8-1.1-1.3 4.7 4.5 10.6 5-1.4 11.2 2.1 10.3-3.5 8.7-2.8 6.2-3.5-4.5-11.8-.8-2.1-3.1-1.3-9.6-4-.5-4.5-10.4-1.3zM374.3 374.2l-2.1-.1.1 2.2.2 3.6 6.8 2.4 1.8 4.4 7.4.5.5-6.2V375.2l-2.9-.5-1.4-.1zM214.7 384.7l.8 2.5.7.1 2.5.5 2-1.1V384l.2-3.9-.5-.6-1.6-2.3-1.9-2.7-6.4-2.8-2 .1 7.1 6.2.7 3.5-.7 1.5zM534.5 342.7l-2.7-.6-11-2.7-.3-.2-6.4-2.7-2.4-1.1-3.8 3.1-.6.2-3.4 1-3.5 1 6.8 8.3-6.8 1.5-1.9.4-3.9 3 1.2 1.7-1.2 1.2-3.7 3.5-17.6-.4-17.1 6.5-.5 10.6 7 4.1 16-4.6 23 5.3 16.9 4.3 11.3 6.2h6l1.5-4.4 5.5.3 16.7 3.7 15.8-2 15.9-5.8 2-.7 5.4.7 2.3.4-.4-1.7-1.9-.8-8.4-3.7-3.6-7 12 5-2-4.8-7.5-4.3-3.9-3.7-21.2-8.7-5.4-.9-8-5.6-11.5-4zM222.3 402.3l.2.1.5.1.7.2.7.2.2.1.2.1.2.1.8.2h.2l.3.1h.1l.3.1h.1l.6.2h.5l.1-.1.1-.2.1-.1.1-.2.1-.2.1-.2.1-.2.1-.2v-.1l.1-.2v-.1l.1-.2v-.1-.1l1.2-2.9-2.9-3.9-6.5-1.7h-.2l-2 .1-3.2.1h-.1l-.8.3-3.3 1.3 1.2 2.1 10 5.3zM537.5 404.8l-6.4-1.6-1.3-.3-1.1-.3-.6-.2-3.2-1-.7-.3.2-.9.5-1.6-4.2-1-.3.4-3.6 4.3.5 5.1 6.8 2 .7.2 9.3 2.8 5.8-1.9zM514.3 440.4l.1-3.7-6-2-7 2.1-1.8 1.1 6.2 4z"/><path class="st1" d="M530.3 432.8l-8.1 3.5-1.6 3 .8 2.4-.8.5-2.2 1.2-4-.1h-1.6l-3.1 1.7 1 2.1-1 .4-1.2.4-2.7-1-3.4-1.2.6 2.6 2.8 1.3 3.9 2 .7.4.3.2.5.2 9.5.6 3.8-1.5.9-.3-.9-1.8 3.3-3.2.5-4.4 4.1-2.3.3-.2-.3-3.2 2.5-2.8zM291.1 362.3l21.5 1.3 3.9 1.6 2.9.3 4.7-2.4 6.1-.2 6.6 3.8 7.6.4h.3l2.8.8-.2.4-.3.7-2.5.9h-.1l-5.1-.2-2.5.8-.4.1-.1 1.8.5.2 3.2.9 4.4-.3 3.1-.2 1.2-.1 3.2-1.8 1.2-3 .2-.7 6.6-1.5.2-2.4-5.8-3.3-2.4-.4-5.3-.9-1.9-1.2 7.2-.8 10.5 2.7 11.9 6.9 10.5 3.6 8.3-.1 7-1.4h.3l.4-.1-.4-1.9-.3-1.5.3-2.4 12-8.2-.3-2-4.2-.7-3.2-.5h-1.1l-3.3.3-2.8-.8-1.2-.3-2.7-2.2 3.9-2.5 6.1-.6 4.3-2.9-1.8-6.6-8-4.3-3.9.4-3.9 2.2-8.2.8-6.6 2.9-7.2 1.6-7.5-.6-3.8-1.5-3.9.3-2 1-2.6 1.2-1 .5-4.9 1-.7-.6-.8-.7.8-2.3 6.6-4.4 3.3-7 .2-.6-.2-7.2 2.5-5.1 5.7-2.4 22.2 3.8 14.5.1 9.7 4.7 8.1-1.2h.1l-.1-3.5 2.6-1.9h.1l5.5-3.9-1-1.8-4.5-.4-2-.2-7.6-.6-3.2-.6-5.4-1-2.9-.5-5.8-3.6-2.8-1.8-2.4-3.7-.3-.6-9.8-6.8-2.2-1.5-6.7-8-1.4-6.9-5.8-6.5-18-12.3-3.6-5.7-.1-.1.1-5.3-10.5-6.7-.4-.3.4-3.6-15.9-11-13.4-6.3-10.5-2.9-3.7 1.3-9.5-3.1-10.9-1.3-.8 1.5 6.4 4.7-.9 1.1-5.5-1.4-1.4-.4-10.6-4.8-11.8.1-4.8 1.3-3.8 1.5 1 2.6-1 .8-2 1.8-15.2-3.1-2.9.9 4.2 2.3 8.8 3.3 7.1.7.9.1 7 .8 11.3 5.7 9.6 1.7.3 1-.3.1-6.8 1.4 3.2 1.4h9.2l2.9 1.5-.9 3.8.9.8 2.7 2.3 1 3.5-1 .8-3.1 2.2 1.5 2.6-.1.4-.7 3.7-.7.4-20.7 12.6-2.7 6-7.2 4.4-5.2 1.2-.5-.2-1.5-.7 1.5-2.6-3.3-.8-4.4 1.7-9.7.6-6.5 2.7-9.9 1.6-12.9 5.1-11.6 8-4.2 7.8-6 6.9-10.4 4.4-5.1 5.8-6.5 4.3-.9 4.3 2.6 1.5 3-.2.8-3.8 5.5-3.1 2.5-3.1 14.8-8.5 1.8 1.7-1.8 1.7-.9.8-6.4 3.7-.9 3.4-6.6 4.3-2.5 1.6-2.3 1.5-3.2 4.7-.1 1-.1 2-.2 1.6-.2.2-.3.2-1.3 1.1-1 .8-2.4.5-3.7 8.5 5.7 9 9.9 7.8 1.3 12.5 4.4 3.5-4.5 3.5-.3.3-2.3 1.7.2 13.7 2.3 3.2 4.6-.7 1.6-.3 2.2 2.2.8.8-3.1 1.8-6.1 3.9-1.6 1-2.2 1.4-7.5 2-7.4.8-15.8 8.7-8.9.6-3.8 2.3-1.2 13.3-5 3.5-1.4 5.2-3.9 3.6 1.2 21.5-.6.4L55.3 501l-3.3 5.4-23.5 14.5-1.2 7.9-7.3 6.5-4.4.6-7.6 9.2 1.7 10.8 5.7 1.4 7.8-5.9 7.7-4.5 1.2-4 15-2.7 2.1-1.5 1.2-2.8 6.5.7 4.7-1.7 7.2 1.8 4.8 2.6 5.2-1.1 6-7.8 1.5-3.4 6.4 4.8 7.7.7 9.3-4.1 10.2.7 12.5-4.6 12.4-1.9 11.1 1.6 15.6.1 15.9-5.2 17.2-8.9 17.2-2.1 10.8-8.6-4-13.3-10.4-9-2.1-7-.3-1-1-3.3-3.9-3.2 4.9-2.9 4.4-8.2-7.1-7.1-.7-14.2-11.6-10.8-4.3-4.2-3-.8-1 .2-4 .6-.3.1-3.3-.5-.6-1.9 4.2-.9 4-2.1-3.3-1.4-4.2-.3-6.6-.8-5.9.1-2.8-1.6-4.1-2.8-.2-.2-8.1-5.4 14-9.5 1.1-3.7.6-2-7.4-4.9 9.2-5.3 12.5-1.3 2.4-1.5-5.7-3.9-13.9-.9-4.3-1.1-2.6-.7-2.8-7.1 19.1-10.8 16.5-.2 12.1 2.6 11.5 5.7 4.2-.4 6.4 2.4 2.9 5.5-3 3.4-.4.5-1.5.8-7.5 3.9-1.9 2.8 1.6 1.3 3.6-.6 7.7-3.7 1.3-.7 1.3-.6 12.4-3.2 20-.6 10-1.6 6.6-3.8 6.4-.6 1.4 1.2-1.4.9-1.4.7 1.3.9 1.3.8zM874.7 625.8l-2.9 9.9-3.6 3.7-1.1 1v.7l.1 5.9 3.1-.1 2.7-6.9 3.9-2.7-.6-11.7zM867.1 656.7l-.7-.6-1.1-5-2.6-1.5-2.1 1.2-.4 2.9-5.2 1.4-3.2 1.7 1.3 2.8 1.5.5 1.1-1.8 6.2 3 8.2.3 1.2-1.7-2.6-2zM417.6 646.3l-19.7 6.9-6.9 5.6-1.4 1.6 3.5 2 7.4 1.3 13-2.9 12.4-4.5 7.8-.9 9.2-4.3 2-3.7-12.7-1.7zM811.9 670.8l-3-1.7h-.3l-4.8.2 2.7 2.6-2.5 1.2.2 1.8v1.1l2.3-.2.3-.1 1.8-.2h.1l1.1-.6 2.5-1.5-.2-1.2zM854.6 663.4l-1.2-1.3h-.3l-1.3-.1-2.8-.3.2 3.3-.2.1-3.7 2.4-10.3 1.7-12.6-.3-3.1-1.1-5.6 1.4 2.7 1.1 5.2 1.2 5 2.4c.2.1 1.7 1.8 2.7 2.3l.2.1H836.1l.5-.1h1.3l.7-.1H839.3l1.5-.2H842.1l7.4-4.3.2-.1.6-.3 2.3-2.1 1-.9 1.5-1.4 1.1-1 .3-.2-.3-.3-1.6-1.9zM752.1 682l-1.7 2.6-.3 3.1 3.9-.8 4-4.3 1.2-1.4-1.2.1z"/><path class="st1" d="M985.3 614.3l-34.5-20.9-12.2-.4-20.6-15.8-42.2-24.4-8.6-.9-5.4-2.5-8.2-.8-4.6-9.6-7.8-4.4-7.1-1.4c-1-.6-20.2-11.8-20.6-12.2l-2.7-.5-9-.9-.6-3 9.6-4-11.8-8.9-12.5-2.6-22.1-8.2-4.8 2.8-8.8-.8-1.9 2.4-10 .6-2.2 5.2-6.8 1h-1.6l-4.2-.1-5.4-.2 1.2-1.2.8-.8 3.5-3.4 8-9.9-8.4-3.7-6.4 3.1 3.3 5.1-3.3 1.9-1.9 1.1-11.7-8.7-10.1-1.1-23.8-9-1.3-5.5-5.5-.5-6.8 3.3-1.8-.2-3.4-.3-8.9-.8-2.7-.2-4-6.7 6.7-.1 8.9 4.2 3.4-1-.2-3.7-8.7-7.9-1.6-9-8.1-4.2-8.6-.9-15.5-2.1-7.3-2-15.3.2-4.4 1-17.7.9-10.8 3.6-.9 3.3 5.6 3.3 5.8 1.3-.4 4.5-4.8 2.9 1.2 2.6h.1l3.8-.4h.2l4 1.2 7.4-2.4 7.4-.6 3.7-4.2 9.7-2 8.1-1 4-2 5.4 1.8 1.4 1.3-1.4 1-2.6 1.9-2.8.4-4 .6-1.2.2-6.9 2.1-1.9.6-1.5 3.4 1.1 1.1 1.2 1.2 4.5.9 8.5 4.4.7 1.5-.7.3-2.3.9-6.2-4-1.5-1-3-.5-.9-.2-1.4.3-1.2.3.2 1.5-.2.1-3.7 2-1.4-1.4v-1.7l-2.6-.2-1.2-.1-2-.1-4.4 1.9-1 .1-6.1.5-1.3-.7-4-2.2-4.1-2.2-1.3-.7-2.8-1.5-2.6-1.4-3.4-1.8-1.7-2.5 4.2-1.3.9-.3 2.6-2.2-1.9-1-1.6.2-4 .6-3.6 2.3-4.3 1-6.2-2-9.3-.4h-.1l-2.4-.1h-.8l-3.8-.2-8.8-.4-.8-.4-.5-.2-1-.5-1.9-.9-3.9.3-.8-.4-.6-.3-4.2-1.9-3.4.8 1.5 2.4.4 3.7-.4.2-1.5.9-4.4 2.7-10.4-1.4-10.2-5.5-5.2-1.4-14.1 8.2-2.2 4.1 3.4 2.3 1.7 3.5H461.2l5.5 2.6 7.9.1 3.2-1.1 13.6-.2 3.1 1.9 4.7-1.9 8 4 8 1.5 2 1.8-2 1.7-1.5 1.3-.1 4.6 1.4 1.5 1.8 1.9-.7 2.2-1.5 2.2-1 .4-3.1 1.3 1.2 1.8 2.2.1 2.8.1h.1l2.8-2.8 1.6-1 1.2 1.5.1.1.1.1 1.1.9 1.1-1.4-.1-3.7v-.8l-1.7-4.2-.5-1.2.5-3.5 4.5-3.1 2.3-.1 1.2 1-.8 1.2-.4.2-1.8 1.1.8 3.2 1 .5 1.2.7.4.2 2.1 7.5-2.1 1.6-1.4 1.1-2.1 1.6-1.5 3.9-.1 1.8 2.7 2.3-1.1 1.1-1.6.4-2.7.7-.4 1.6 1.3 1.4 1.8-.2h.5l2.2-1.4 3.3-2.1.6-1.9 2.6-1.1 3.4-.1 3.9-.4 4.4 2.9 7-.1 2.2-1.8 6-3.3 12.1-.1 7.2 2.4-.7 1.4-3 .8-2.3 1.3.5 2 5.4 1.2.3.1 3-2.6 5.1-1.2 6.4 3.9-1.8 1.3-4.2.2-.4.1-4.5 1.5-.4 3.6 1.4 1.1 3.1 2.5v2.5l-4 2.3-.5-.2-11.2-5.5-3.1-3.7-8.6-3.9-3.6-1.6-2.4-.4-2.2-.4-4.5-.8-2.5.4-4.4.8-.4.1-3.6 2-.7.4.7 1.1.7 1.1.3.4 5.8 6.5 11.4 4.3 1.4 3.5-1.4.9-4.8 3.2-2.6.4-3.3.6-8.6.2-10.4-4.7-3.8-1-11.2-7-2.8-6.5-5.3-2.2-6.6 2.5-2.9-.2-.8-3.2-2.5-3.2-.1-3.3-2-1.5-.3-.2-6.2-4.9-.3-.2.3-2 6.3-2.9 1.6-3.8-15.4-8-.8-.4-7.9-4.1-.5-.2-5-.5h-.5l-1.5-.1-5.2-3.5-.7-.5-1.7-1.1-.8-1.8-2.5-.2-6.6-.4-17.5.8-7.1 2.3-11.2.7-28.1 4.7-2.9 2.3-23.7 7.9-3.1 3.6-6.3 3.3.6 6.2-.6.4-6 4.2 1 15.6 4.5 1.7 8.1.2 6.5 3.6.6 3.7 11.8 1.3 8.5 4.9 1.4 7.5 7.4 5.1-7.5 4.8-.2.1-3.3 2.1-6 1.3L366 574l-16.5 9.6-1.3 6.2-14.9 3.7-12.4 7.4-.2 4.1-6.3 3.3-1.8 3.6-10.5 7.7-2 5.5-5.2 3-.7 5.2-4.8 2.8 1.6 7.5 19.5 6.7 25.8.2 7.8-1.2 5.9-2.8 9.7-.6 11.8-3.7 7.9-4.3 15.6.8 9.1 1.7 19.5-10.1 1.3-3.8 15.9-10 5.7-1.3 6.3 1.4 3.6-2 29-.2 14-.8 9.2-4.1 6.4-.6 4-2-1.3-3.2-.1-.2-6.7-3.9-3.1-1.8-.4-.1-4.6-.7h-.2l-2.1-.3-.5-3.4 2.7-1.5.5-14.9 3.6-2.1 2.2-6.1 7.9-5.7.2-.1-.2-5.2 4.2-3.4 3.5-10.8 1.6-2.3 3 1 1.5 3.2 2 .9-2 1.6-.5.4-.8 4.9v.2l-.6 2.9-4.2 2.4-.5 5.4-3.2 2.4-.8 9.4-2.6 3.4-7.4 4.2v3.1l-2.8 2.7 2.8 2.1.7.5 10.6 1.1 8 3.6 14.6.8 2 1.1 17.7 1.2 12.1-1.5 4-4.3-.4-3.3-.5-4.4v-.4l-1.8-1.2-.2-.1-1.2-.8-6.8-1.1-1.8-.3-.6-.7-.4-.4-.2-.2.2-.4.7-1.1 1.1-1.7 1-1.6-1.9.6-.9.3-.7.2-2.2-1 2.9-3 .9-5.9 4.8-2.6h2.9l1.4 4.2 1.1 5.4 1.9 4.9 5.2 4.6 1.6 4.3 17.1 10.4 1.9 5.4a27.3 27.3 0 004.5 2.7l-.3 4-4 1.5.4 2.7 3.8.7 2.2.4 2.4 1.7-2.4.8-5.6 1.9-.5.4-.4.4-4.1 3.9-1.9 4-1.1 2.6-5.8 3.8-1.7 4.7-1.4 3.1-5.9 5.4 3.5 3 4.4.5 8.3-1.3 11.2-4.6 10.9-2.5 10.6-.8 14.9-1 7.4-2.9 4.1.3 4.9 2.5 3.8.4 1.3 3.5.5 7.3-.5.5-.9.8-3.1 2.7-5.1 2.8-.5 2.7 1.7 1.5 3.8.9 2.1 2-1.1 2.1-1 .9-3.4 3-.4 2-.7 3.3-14.3 8.3-2.6 3.6-1 3.5-4.4 3.4-1.2 3.6-.3 3 2.1 1.1 4.7-1.4 5.5-4.4.4-9.4 7.5-6 9.6-3.3 3.3 1.9.7 9.1-.8.4-1.1.7-2.3 1.4 3.6.6.7.1 6.6 1.1 16.4-5.9 4.2-6.7 1.3-10.2 4.1-1.6 9.5.4 4.5 2.6.6 2.7 5.1.6 18.6 1.4L758 676l11.1-3.7 4.9-3.8 1.8-3.1 3.5-3.7.9-9.9 2.8-1.8.9-.6.8-.5 5.4 1 2.7-.8-1.1-2.2-7.7-4.5-.9-.5.9-2.3 11.4-.6 4.2 1v1.6l-4.3 1.1-.7.2.1 1.5h.5l4.3.3 2.2.2 4.7 2.7-3.1 2.1-.8 3 1.9 1.4-1.5 2.3-.4.6-1.9 2.8 1.8 2.6.8 1.1 1.1.4 4.2 1.3 4.9-5.7.1-7.7 2.9-2.1 4.8-1 5.1-2.8 5.7-.2 3.5 2 6.7-.8 7.3-2.9 8.7-5.1 6.4-4.8 4.6-7.3-1.6-7.2-.1-.3-5.1-4.9 5.7-6.2 10.3-2.8 15.4 4 11.1 5h9.9l8.1-2.8 10.4 3.3-1.2 4.4-6.1 4.2-5.8 4-6.8 12.7 3.6 5.2 7.3-1.5 7.9-7.6 1.5-7.7 10.7-4 9.8 3.3 13.4-1.5 1.2-.1-1.1-7.9 6.9.2 8.5 2.7 8.9-1.7-6.7-5.3zM735.4 698.9l-9.1 2.7.9 2-.9.8-2.1 1.6 2.1 1.5.9.6.2.1 2.1 2.7-.9 2.1.9.1 2 .4 1.9-1.2 1.9-1-1.9-3 1.9-3.8 5-2.8 2.6-4.4-3-1zM724.5 720.6l.6-2.1-2.4-1.5-5 1.3-2.1 3 3.4-.6z"/><path class="st1" d="M626.8 688.6l-2.7 1.6-1.1 9.4-3.9 2.7-1 6.3-4 3.1v11.4l3.6 2.1 4.8-1 5.3-4.1.3-8.6 2-2.3 1.5-10-2.5-9.3zM707.2 728.9l.6 2H710.7l.3-.1 3.2-1.2-.1 2.3h.1l1.4-.1 1.5-.2 1.9-.9 5.3-2.7.2-1.4.3-1.5h-.3l-5.5-.8-1.4-.2-2-1.2-.3-.2-5.5.2-1.3 1.3 2.5 2.6-2.5 1.4zM688.3 719l-9.9-.7-22.5.3-6.9-.2-6.9 5.5v5.2l7.6 5.7 5 .4 8.7-2.9 7.5-.1 3.9-1.8 2.1-3.7 6.6-3.5 4.9.1.1-.1.1-.2.1-.1.2-.2.1-.1.2-.3v-.1l.1-.1.2-.2.1-.1.1-.1.1-.2v-.1-.1l.1-.2v-.1-.1c.1-.2-1.6-1.8-1.6-1.9zM625.7 731.9l-3.2-2.2-1.3-.9-3.5-.5-1.7-.3-1.3 1.8 2.4 1.9.6.4 4.5 3.1 3.1 2.1.4.3 3.1 2.1 3 1.8 3.5-.2-.5-2.5-2.6-2.5-2.7-.6-3.8-2.1-.4-.3.2-.5zM637.8 742.6l-1.6.6.3 2.7 3.7.4 2-1.2-2.3-2.2zM677.4 737.8l2.9.5 4.5 2.6 5.4 1.9 4.6-.8.1-.9-5-.8-7-4-2.5-.3-3.3-.5-1.2-.2-.9.3-3.9 1.1h-.1l-3.7 2.2-3.7 1.1-1.8.5-1 2-5.3 2.8-.5.9-.3.4 1.4.8 3.7-1.1 6.2-3 .5-.3 1.9.1v1.2l-1.9 1.2-1.8 1.2-.9 1.9 1.6.9 1.1-.3 1.7-.4.2-.1 4.6-3 .5-1.5 1.3-1.5h1.1l.9-.1.6.4 2.8 1.6h.1l1.5.4.7-1-2.2-1.4-2.8-1.8-.1-.1-1.1-1.6-.4-.5.9-.4zM702.5 750.2l2.8-1.7-4-2.8-2.7.1-3.8 1.3-1.7.6.9 1.9.8-.1 4-.5zM647.5 751.3l-3.5-1.1v2.4l7.4 4.2 3.3.6.5.1.3-1.6-.8-.5zM721.1 770.6l-3.4-2-7.1-1.1-1.1-.2-3.5-.6-.6-1.9 4.1-2.3 1.1-2.9-5.3-2.3-.3-.2-2.2.1-.4.7-.4 1 .4 1 .5.9.2.5-.6 1.1-.5-.1-2.5-.6-3 1.2-.1 1.4 4.3 3.6 2.1 3.7.2.4v.1l-.9 7.7-.5.6-3.6 4.4.8 4.2 5.5 1.3 3.6-1.2 4.1 3.1 1.6 9.6 4.1 3.5 2.4-.4 2.4-9 3.2-3 .8-12.9-4.4-4.9zM688.3 793.5l-13.4 7.5-11.3 2.5-2-1.7-.3-.3-2.4-2.1 2.4-8.4 6.6-3.1 5.5-1 .8-2.2-12.3-5.5-14.8-1.1-4.3 1.7-2.9-3-21-2.9-25.3-1.3-14.2-4.2-9.7.9-14.1 6.7-19.5 9.7-9 2.6.4 6.2 9.7 1.3 10.9 5.1 16.1 4.1 10.9 9.1-1.8 6.8 1.8 2.2 1.1 1.4-2.9 2.9-7.3 7.1 6 7.3 15.8 6.5 22.8-3 31.7-2.8 17.4-13.2 9-6 2.2-5.6 10.1-6.5 5.5-9.4 8.1-5.8-.6-3.7zM550.6 846.2l.8 6.8 8-2.3 6.1-2.1-3.7-5.4z"/></g><path d="M874.7 490l-39 24.9-17.4 16L155 673.5l-11.1-10.2L94.8 653v38.2c-.1 2.2 1 4.4 3.2 5.7l7.9 4.6 240.4 139.1c3.6 2.1 8 2.1 11.6 0l495.5-286.1 30.2-17.4c3.9-2.3 5.8-6.3 5.6-10.2v-38.2l-14.5 1.3z" fill="#5d5d6d"/><path class="st3" d="M889.3 526.7v-38.2l-14.7 1.5-39 24.9-17.4 16-218 46.8-246.6 213v51c1.4-.2 2.8-.7 4.1-1.4l495.5-286.1 30.2-17.4c4.2-2.1 6.1-6.1 5.9-10.1z"/><path class="st4" d="M125.2 686.2v14.7l-13.6-7.8v-14.7zM143.6 696.8v14.7l-13.5-7.8V689zM162 707.4v14.7l-13.5-7.8v-14.7zM334.1 807.6v14.7l-42-24.4v-14.7zM414.6 781.4v14.7l42.1-24.4V757z"/><path class="st5" d="M153.2 629.2l454-262.1 240.4 139-454 262.2z"/><path fill="#7c87ef" d="M607.2 367.1L393.6 768.3 153.2 629.2z"/><path class="st7" d="M828.9 516.9l18.7-10.8-240.4-139-18.7 10.8zM393.6 768.3l18.7-10.8-240.4-139.1-18.7 10.8z"/><path class="st8" d="M842.1 506l-7.4-4.3-12.9 7.4 7.4 4.3zM833 500.8l-7.4-4.3-12.9 7.4 7.4 4.3zM823.9 495.5l-7.4-4.3-12.9 7.4 7.4 4.3zM814.8 490.2l-7.4-4.2-12.9 7.4 7.4 4.3zM733.9 443.7l-21.1-12.3-12.8 7.5 21.1 12.3zM405.4 756.6l-21.1-12.3-12.9 7.5 21.1 12.3zM293.4 692l-21.1-12.3-12.9 7.4 21.1 12.3zM194.1 634.4L173 622.1l-12.9 7.5 21.1 12.2z"/><path class="st4" d="M883.7 479.1l-.4-.3-240.5-139c-3.6-2.1-8-2.1-11.6 0L147.4 619.1 98 647.7c-4.2 2.5-4.3 8.6 0 11l7.9 4.6 240.4 139.1c3.6 2.1 8 2.1 11.6 0l495.5-286.1 30.2-17.4c7.6-4.5 7.6-15.4.1-19.8zM393.6 768.3L153.2 629.2l454-262.2 240.4 139.1-454 262.2z"/><path class="st9" d="M830.5 557.4s-.1 0 0 0l-.3-.2-.2-.2-.1-.1-.1-.2-.1-.1-.1-.2v-.1l-.2-.3-.2-.3v-.1l-.1-.3v-.1l-.1-.2-.1-.3v-.2l-.1-.2v-.2-.2-.2-.2-.2-.2-.3-.1-.5-.4-.1-.3-.2-.3-.1l.1-.5v-.1l.1-.4v-.2l.1-.3v-.2l.1-.3v-.2l.1-.3v-.2l.2-.5.2-.4.1-.1.1-.3.1-.2.1-.3.1-.1.2-.5.1-.1.2-.3.1-.2.1-.2.4-.6.1-.2.2-.3.1-.2.2-.2.1-.2.5-.7.3-.4.3-.3.1-.1.3-.4.1-.1.2-.3.1-.1.2-.2.2-.1.2-.2.2-.2.2-.2.2-.1.2-.2.2-.1.2-.2.2-.1.3-.2.1-.1.4-.3.4-.2.4-.2.1-.1.3-.1.1-.1.4-.2.4-.1h.1l.3-.1h.1l.2-.1h2l.3.1h.1l.2.1h.1l.2.1.2.1h.1l.3.2-3.9-2.3-.3-.2-.1-.1a5.2 5.2 0 00-3.7 0c-1.2.4-2.3 1-3.2 1.8l-.1.1-.2.1c-3.5 2.9-6 7.5-6.4 12-.1 1.6.1 3.4.9 4.7v.1l.1.2.1.1.1.2.1.1.2.2.2.2.1.1.2.1h.1l.2.2 3.9 2.3-.2-.2-.1-.1-.5-.2z"/><path class="st10" d="M836.7 538.4a18 18 0 00-8.2 14.1c0 5.2 3.7 7.3 8.2 4.7a18 18 0 008.2-14.1c0-5.2-3.6-7.3-8.2-4.7z"/><path class="st9" d="M788.2 581.8l-.3-.2-.2-.2-.1-.1-.1-.2-.1-.1-.1-.2v-.1l-.2-.3-.2-.3-.1-.3v-.1l-.1-.2-.1-.3v-.2l-.1-.2v-.2-.2-.2-.2-.2-.2-.3-.1-.5-.4-.1-.3-.2-.3-.1l.1-.5v-.1l.1-.4v-.2l.1-.3v-.2l.1-.3.1-.2.1-.3v-.2l.2-.5.2-.4.1-.1.1-.3.1-.2.1-.3.1-.1.2-.5.1-.1.2-.4.1-.2.1-.2.4-.6.1-.2.2-.3.1-.2.2-.3.1-.2.5-.7.3-.5.3-.3.1-.1.3-.4.1-.1.2-.3.1-.1.2-.2.2-.2.2-.2.2-.2.2-.2.2-.1.2-.2.2-.1.2-.2.2-.1.3-.2.1-.1.4-.3.4-.2.4-.2.1-.1.3-.1.1-.1.4-.2.4-.1h.1l.3-.1h.1l.2-.1h2.4l.2.1h.1l.2.1.2.1h.1l.3.2-3.9-2.3-.3-.2h-.1a5.2 5.2 0 00-3.7 0c-1.2.4-2.3 1-3.2 1.8l-.1.1-.2.1c-3.5 2.9-6 7.5-6.4 12-.1 1.6.1 3.4.9 4.7v.1l.1.2.1.1.1.2.1.1.2.2.2.2.1.1.2.1h.1l.2.2 3.9 2.3a.2.2 0 01-.2-.2h-.7z"/><path class="st10" d="M794.5 562.8a18 18 0 00-8.2 14.1c0 5.2 3.7 7.3 8.2 4.7a18 18 0 008.2-14.1c0-5.2-3.7-7.3-8.2-4.7z"/><path class="st8" d="M762.8 522.2l-33.3-19.4a11.7 11.7 0 00-11.7 0L683 522.9a7.5 7.5 0 00-3.8 6.6c0 2.7 1.4 5.2 3.8 6.6l31.4 18.3a14.1 14.1 0 0013.9.1l34.5-19.9a7 7 0 003.5-6.1 7 7 0 00-3.5-6.3zm-2.2 8.5l-34.5 19.9a9.7 9.7 0 01-9.6 0l-31.4-18.3a3.2 3.2 0 01-1.7-2.9c0-1.2.6-2.3 1.7-2.9l34.8-20.1c1.1-.7 2.4-1 3.7-1 1.3 0 2.6.3 3.7 1l33.3 19.4c.9.5 1.4 1.4 1.4 2.4 0 1.1-.5 2-1.4 2.5zM687.1 482.4a7 7 0 00-3.5-6.1l-33.3-19.4a11.7 11.7 0 00-11.7 0L603.9 477a7.5 7.5 0 00-3.8 6.6c0 2.7 1.4 5.2 3.8 6.6l31.4 18.3a14.1 14.1 0 0013.9.1l34.5-19.9a7.5 7.5 0 003.4-6.3zm-5.6 2.5L647 504.8a9.7 9.7 0 01-9.6 0L606 486.5a3.2 3.2 0 01-1.7-2.9c0-1.2.6-2.3 1.7-2.9l34.8-20.1c1.1-.7 2.4-1 3.7-1 1.3 0 2.6.3 3.7 1l33.3 19.4c.9.5 1.4 1.4 1.4 2.4 0 1.1-.5 1.9-1.4 2.5zM608 436.6a7 7 0 00-3.5-6.1l-33.3-19.4a11.7 11.7 0 00-11.7 0l-34.8 20.1a7.5 7.5 0 00-3.8 6.6c0 2.7 1.4 5.2 3.8 6.6l31.4 18.3a14 14 0 0013.9.1l34.5-19.9a7.6 7.6 0 003.5-6.3zm-5.7 2.4l-34.5 19.9a9.7 9.7 0 01-9.6 0l-31.4-18.3a3.2 3.2 0 01-1.7-2.9c0-1.2.6-2.3 1.7-2.9l34.8-20.1c1.1-.7 2.4-1 3.7-1 1.3 0 2.6.3 3.7 1l33.3 19.4c.9.5 1.4 1.4 1.4 2.4 0 1.1-.5 2-1.4 2.5zM796.5 483.4c0-.6-.2-1.2-.3-1.6l-.4-1-1.3-1.9c-.8-.9-1.8-1.6-2.8-2.2a26.3 26.3 0 00-10-2.7h-2.9a2 2 0 00-1.1.3c-.2.1-.5.4-.5.7 0 .3.2.5.5.7.7.4 1.6.3 2.4.3 3.2 0 6.6.6 9.4 2.2 2.2 1.3 3.7 3.1 3.8 5l-.1.7c0 .3.2.5.5.7.3.2.8.3 1.2.3.4 0 .9-.1 1.3-.4.2-.2.3-.6.3-1.1z"/><path class="st8" d="M790.2 483.3c0-.8-.4-1.6-.9-2.2a6.5 6.5 0 00-2-1.7 13.6 13.6 0 00-6.8-1.6c-.7 0-1.6-.1-2.3.1-.5.1-1.1.4-1.1 1 0 .3.2.6.6.8.3.2.8.3 1.4.4l1.4-.1c1.7 0 3.2.4 4.3 1a4 4 0 011.5 1.4c.1.3.3.5.3.8v1.1c.1.3.3.4.5.6 1 .6 3.1.5 3.2-.9l-.1-.7z"/><path class="st8" d="M782.2 482.2a4.5 4.5 0 00-4.2 0c-1.2.7-1.2 1.8 0 2.5s3.1.6 4.2 0c1.2-.8 1.2-1.8 0-2.5z"/><path class="st11" d="M456.2 706.6L410 679.9c-1.4-.8-3-.8-4.4 0l-45.9 26.4a4.4 4.4 0 000 7.6l46.2 26.7c1.4.8 3 .8 4.4 0l45.9-26.4a4.4 4.4 0 000-7.6zM303.3 614.7L257.1 588c-1.4-.8-3-.8-4.4 0l-45.9 26.4a4.4 4.4 0 000 7.6l46.2 26.7c1.4.8 3 .8 4.4 0l45.9-26.4c3-1.7 3-5.9 0-7.6zM398.8 559.1l-46.2-26.7c-1.4-.8-3-.8-4.4 0l-45.9 26.4a4.4 4.4 0 000 7.6l46.2 26.7c1.4.8 3 .8 4.4 0l45.9-26.4c3-1.7 3-5.9 0-7.6zM483.9 509.6l-46.2-26.7c-1.4-.8-3-.8-4.4 0l-45.9 26.4a4.4 4.4 0 000 7.6l46.2 26.7c1.4.8 3 .8 4.4 0l45.9-26.4a4.4 4.4 0 000-7.6zM552.4 649.6l-46.2-26.7c-1.4-.8-3-.8-4.4 0l-45.9 26.4a4.4 4.4 0 000 7.6l46.2 26.7c1.4.8 3 .8 4.4 0l45.9-26.4c2.9-1.7 2.9-6 0-7.6zM639 600l-46.2-26.7c-1.4-.8-3-.8-4.4 0l-45.9 26.4a4.4 4.4 0 000 7.6l46.2 26.7c1.4.8 3 .8 4.4 0l45.9-26.4a4.4 4.4 0 000-7.6z"/><g><path class="st12" d="M457.2 487.8s4.9.1 7.3-1.5c2.3-1.6 7.8 5 2.4 8.5s-11 7-13.9 6.5c-2.9-.5-4.5-1-4.7-1.7-.2-.7-.3-12.3-.3-12.3l9.2.5z"/><path class="st13" d="M459.2 479v13.3s-7.5 3.3-12.4 1.4l-1.9-8.8 14.3-5.9z"/><path class="st12" d="M478.4 495.4s4.9.1 7.3-1.5c2.3-1.6 7.8 5 2.4 8.5s-11 7-13.9 6.5c-2.9-.5-4.5-1-4.7-1.7-.2-.7-.3-12.3-.3-12.3l9.2.5z"/><path class="st14" d="M477.2 437.7s2.1-3.6 3.7-5.7 3.9-5.5 1.8-7.3c-2-1.7-5.9-3.8-7.7-3.7-1.8.1-4.8 2.5-3.8 3.7 1 1.2-.9 7-.9 7l6.9 6z"/><path class="st8" d="M406.9 399.9a7.6 7.6 0 017.7-2.1l5.8 1.7 15.8 7.3 10.9 5.7.9 34.9 1.1 17-6.5 5.5c-7.7 7.2-31.4-5.5-31.4-5.5-4-13.2-9.8-49.6-9.8-49.6.2-7.3 3.1-12.1 5.5-14.9z"/><path class="st13" d="M446.5 455.6s16.5-3.5 26.6-4.4a6.6 6.6 0 017.1 6.1c.4 9.2 1 26.8-.3 40.6l-6.1 3.8a4.4 4.4 0 01-6.6-3.4l-1.1-22.5c-.1-1.9-2.4.4-3.9 1.7-4.6 4-15.7 8.4-22.5 6 0 0-20.2-6.2-25.1-19.4l31.9-8.5z"/><path class="st15" d="M436.6 487.8l5.7-2.9-3.3 50.3a3 3 0 01-1 2.1c-.8.7-1.5 1-2.1 1.1-1.4.2-2.7-1.3-2.6-3.1l3.3-47.5zM395.4 466.7l5.6-2.9-3.7 46.3c-.1.9-.4 1.7-1 2.2a5 5 0 01-1.7 1c-1.6.5-3-1.3-2.8-3.3l3.6-43.3zM471.7 476.8l6.6 40.3c.2.9-.1 1.9-.7 2.4-.4.4-.8.6-1.2.7-.9.3-1.8-.5-2-1.7l-8-39.9 5.3-1.8z"/><path class="st14" d="M425.7 369.3c3.8-.6 5.9-1.3 9.5-.3 6.1 1.8 9.4 7.6 10.9 13.4 1.5 5.9 1.9 14.4-1.4 19.8-2.1 3.4-6.8 2.8-10.1 1.9-4-1.1-9.3-2.8-12.6-5.3-4.6-3.5-7-11.1-7.3-16.6-.3-4.6 5.3-11.9 11-12.9z"/><path class="st16" d="M420.4 397.5l1.6 1.4a40.2 40.2 0 0014.7 5.7l-.5 2.2c-4.3 1.2-8.7 1-11.7.7-2.3-.3-4-2.2-4-4.5l-.1-5.5z"/><path class="st17" d="M441.3 411.6s9.1-.2 11.3 6.1c2.2 6.4 7.3 19.1 7.3 19.1s7.7-6 10.6-6.7c0 0 6.3 3.2 7.8 6.7 0 0-9.6 16.6-21.3 21.4 0 0-12.7-11.8-18.8-28.9.1 0-7.5-12.6 3.1-17.7z"/><path class="st18" d="M397.5 417a67.4 67.4 0 0139.7 22.4 6.2 6.2 0 011.4 3.9V489c-31.9-5.3-45.5-24.1-45.5-24.1v-44.4c0-2.3 2.2-4 4.4-3.5z"/><path class="st18" d="M438.6 489s27.5-2.7 35.9-12.2c0 0 .6-6.4-2-5.5-2.6.9-15 8.5-34 10.5v7.2z"/><path class="st19" d="M444.3 372.2l4.2-1.8a32.6 32.6 0 00-25.8-1c-4.1 2.1-8.2 8.2-8 12.9.3 5.5 2.7 13.1 7.3 16.6 2.5 1.9 6.3 3.4 9.7 4.5.9-.4 2.4-5.6 2.4-5.6-1.9-1.1-3.4-7.5-1.4-8.7 2.1-1.1 3.4 2.9 3.4 2.9 1.2-.4 3-1.8 2-4.2-.3-.8-.4-1.6-.4-2.3 0-1.4 1.1-2.5 2.5-2.6l1.8-.2c6.3-.3 10.2.3 10.2.3-2.6-5.9-7.9-10.8-7.9-10.8z"/><g><path class="st20" d="M611.7 578.3s4.9.1 7.3-1.5c2.3-1.6 7.8 5 2.4 8.5s-11 7-13.9 6.5c-2.9-.5-4.5-1-4.7-1.7-.2-.7-.3-12.3-.3-12.3l9.2.5z"/><path class="st12" d="M613.8 569.5v13.3s-7.5 3.3-12.4 1.4l-1.9-8.8 14.3-5.9z"/><path class="st20" d="M633 585.9s4.9.1 7.3-1.5c2.3-1.6 7.8 5 2.4 8.5s-11 7-13.9 6.5c-2.9-.5-4.5-1-4.7-1.7-.2-.7-.3-12.3-.3-12.3l9.2.5z"/><path d="M562.2 491.1a8.1 8.1 0 017.9-2.5l4.9 1.4 15.8 7.3 10.9 5.7.9 34.9 1.1 17-6.5 5.5c-7.7 7.2-31.4-5.5-31.4-5.5-4-13.2-8.3-49.1-8.3-49.1.3-7.4 2.2-11.9 4.7-14.7z" fill="#c49a6c"/><path class="st4" d="M601.1 546.1s18.9-3.9 29-4.8a6.6 6.6 0 017.1 6.1c.4 9.2-1.4 27.2-2.7 41l-6.1 3.8a4.3 4.3 0 01-6.6-3.4l-1.1-22.5c-.1-1.9-2.4.4-3.9 1.7-4.6 4-15.7 8.4-22.5 6.1 0 0-20.2-6.2-25.1-19.4l31.9-8.6z"/><path class="st15" d="M591.2 578.3l5.7-3-3.3 50.3a3 3 0 01-1 2.1c-.8.7-1.5 1-2.1 1.1-1.4.2-2.7-1.3-2.6-3.1l3.3-47.4zM550 557.2l5.6-2.9-3.7 46.3c-.1.9-.4 1.7-1 2.2-.6.5-1.1.8-1.6 1-1.6.5-3-1.3-2.8-3.3l3.5-43.3zM626.3 567.3l6.6 40.3c.2.9-.1 1.9-.7 2.4-.4.4-.8.6-1.2.7-.9.2-1.8-.5-2-1.7l-8-39.9 5.3-1.8z"/><path class="st14" d="M580.3 459.8c3.8-.6 5.9-1.3 9.5-.3 6.1 1.8 9.4 7.6 10.9 13.4 1.5 5.9 1.9 14.4-1.4 19.8-2.1 3.4-6.8 2.8-10.1 1.9-4-1.1-9.3-2.8-12.6-5.3-4.6-3.5-7-11.1-7.3-16.6-.3-4.6 5.3-11.9 11-12.9z"/><path class="st16" d="M589.2 494.7c-4-1.1-9.3-2.8-12.6-5.3L575 488v5.5c1.1 2.2 3.7 3.1 6 3.3 3.1.3 5.5 1.7 9.8.5l.5-2.2-2.1-.4z"/><path class="st18" d="M552.1 507.4a68 68 0 0139.7 22.4 6.2 6.2 0 011.4 3.9v45.7c-31.9-5.3-45.5-24.1-45.5-24.1V511c0-2.3 2.1-4 4.4-3.6z"/><path class="st18" d="M593.2 579.5s27.5-2.7 35.9-12.2c0 0 .6-6.4-2-5.5-2.6.9-15 8.5-34 10.5v7.2z"/><path class="st8" d="M574.7 489l-1.2 3.7s7.2 10.1 19.4 5.7l-1.8-2.2c0 .1-11.4.4-16.4-7.2z"/><path class="st14" d="M631.3 536.9s2.4-.6 3.8-.5c1.4.1 2.4 1.8 3.5 2.5a7 7 0 013.1 5.3c0 2.5-1.1 5.1-2.5 5.1-1.3 0-1.6.3-2.1-.7s-2.8-4.5-2.8-4.5l-3-7.2z"/><path class="st8" d="M632.6 535.5c-2.9.7-18.8 1.9-18.8 1.9s-1.9-20.2-4.2-26.6c-2.2-6.3-8.3-7.8-8.3-7.8-10.6 5.1-5.1 18.3-5.1 18.3 4.1 11.4 6.1 20.8 7 25.8a4 4 0 004.7 3.3c14.1-2.3 27.4-5.5 27.4-5.5 0-5.5-2.7-9.4-2.7-9.4z"/><path d="M600.4 462.3c-8.7-7.2-20.6-3.3-20.6-3.3-1 .2-1.8.5-2.6.9-4.1 2.1-8.2 8.2-8 12.9.3 5.5 2.7 13.1 7.3 16.6 2.5 1.9 6.3 3.4 9.7 4.5.9-.4 2.4-5.6 2.4-5.6-1.9-1.1-3.4-7.5-1.4-8.7 2.1-1.1 3.4 2.9 3.4 2.9 1.2-.4 3-1.8 2-4.2-1-2.4 0-4.9 0-4.9 8.6-.2 9.7 2.8 9.7 2.8 3.7-7.9-1.9-13.9-1.9-13.9z" fill="#8e4d50"/></g><g><path class="st18" d="M371.1 537.3s4.9.1 7.3-1.5c2.3-1.6 7.8 5 2.4 8.5s-11 7-13.9 6.5c-2.9-.5-4.5-1-4.7-1.7-.3-.7-.3-12.3-.3-12.3l9.2.5z"/><path class="st12" d="M373.1 528.5v13.3s-7.5 3.3-12.4 1.4l-1.9-8.8 14.3-5.9z"/><path class="st18" d="M392.3 544.9s4.9.1 7.3-1.5c2.3-1.6 7.8 5 2.4 8.5s-11 7-13.9 6.5c-2.9-.5-4.5-1-4.7-1.7-.2-.7-.3-12.3-.3-12.3l9.2.5z"/><path class="st23" d="M320.9 449.4a7.6 7.6 0 017.7-2.1l5.8 1.7 15.8 7.3 10.9 5.7.9 34.9 1.1 17-6.5 5.5c-7.7 7.2-31.4-5.5-31.4-5.5-4-13.2-9.8-49.6-9.8-49.6.2-7.3 3-12.1 5.5-14.9z"/><path class="st12" d="M360.4 505.1s16.5-3.5 26.6-4.4a6.6 6.6 0 017.1 6.1c.4 9.2 1 26.8-.3 40.6l-6.1 3.8a4.3 4.3 0 01-6.6-3.4l-1.1-22.5c-.1-1.9-2.4.4-3.9 1.7-4.6 4-15.7 8.4-22.5 6.1 0 0-20.2-6.2-25.1-19.4l31.9-8.6z"/><path class="st15" d="M350.5 537.3l5.7-2.9-3.3 50.3a3 3 0 01-1 2.1c-.8.7-1.5 1-2.1 1.1-1.4.2-2.7-1.3-2.6-3.1l3.3-47.5zM309.3 516.2l5.6-2.9-3.7 46.3c-.1.9-.4 1.7-1 2.2a5 5 0 01-1.7 1c-1.6.5-3-1.3-2.8-3.3l3.6-43.3zM385.7 526.3l6.6 40.3c.1.9-.1 1.9-.7 2.4-.4.4-.8.6-1.2.7-.9.2-1.8-.5-2-1.7l-8-39.9 5.3-1.8z"/><path class="st14" d="M339.7 418.8c3.8-.6 5.9-1.3 9.5-.3 6.1 1.8 9.4 7.6 10.9 13.4 1.5 5.9 1.9 14.4-1.4 19.8-2.1 3.4-6.8 2.8-10.1 1.9-4-1.1-9.3-2.8-12.6-5.3-4.6-3.5-7-11.1-7.3-16.6-.4-4.6 5.2-11.9 11-12.9z"/><path class="st16" d="M334.3 447l1.6 1.4a40.2 40.2 0 0014.7 5.7l-.5 2.2c-4.3 1.2-6.5.2-9.6-.1-2.3-.3-6.2-1.4-6.2-3.7V447z"/><path class="st18" d="M311.5 466.4a67.4 67.4 0 0139.7 22.4 6.2 6.2 0 011.4 3.9v45.7c-31.9-5.3-45.5-24.1-45.5-24.1V470c-.1-2.3 2.1-4 4.4-3.6z"/><path class="st18" d="M352.5 538.5s27.5-2.7 35.9-12.2c0 0 .6-6.4-2-5.5-2.6.9-15 8.5-34 10.5v7.2z"/><path class="st14" d="M389.9 494.3s2.4-.6 3.8-.5c1.4.1 2.4 1.8 3.5 2.5a7 7 0 013.1 5.3c0 2.5-1.1 5.1-2.5 5.1-1.3 0-1.6.3-2.1-.7-.4-1-2.8-4.5-2.8-4.5l-3-7.2z"/><path class="st8" d="M388.3 493.5l2.8-.6s2.6 4.9 2.4 8.9l-2.4.6-2.8-8.9z"/><path class="st24" d="M389.2 493.1c-2.9.7-18.8 1.9-18.8 1.9s-1.9-20.2-4.2-26.6c-2.2-6.4-8.3-7.8-8.3-7.8-10.6 5.1-5.1 18.3-5.1 18.3 4.1 11.4 6.1 20.8 6.9 25.9a4 4 0 004.7 3.3c14.1-2.3 27.4-5.5 27.4-5.5.1-5.6-2.6-9.5-2.6-9.5z"/><path d="M359.8 431.1s10.6-11.1 0-14.2a39.6 39.6 0 00-28.2.8c-7.6 3.7-6.7 14.9-5.3 17.6a48.7 48.7 0 009.2 12.7l.5.4c2.5 1.9 6.3 3.4 9.7 4.5.9-.5 2.4-5.6 2.4-5.6-1.9-1.1-3.4-7.5-1.4-8.7 2.1-1.1 3.4 2.9 3.4 2.9 1.2-.4 3-1.8 2-4.2-1-2.4 0-4.9 0-4.9 3.5.1 6.5-.7 7.7-1.3z" fill="#fba140"/><path class="st8" d="M334.3 448l-1.7 3.8a15 15 0 0018.8 5.3l-.9-2.3s-11.1.7-16.2-6.8z"/></g><g><path class="st20" d="M525.7 627.8s4.9.1 7.3-1.5c2.3-1.6 7.8 5 2.4 8.5s-11 7-13.9 6.5c-2.9-.5-4.5-1-4.7-1.7-.2-.7-.3-12.3-.3-12.3l9.2.5z"/><path class="st12" d="M527.7 619v13.3s-7.5 3.3-12.4 1.4l-1.9-8.8 14.3-5.9z"/><path class="st20" d="M546.9 635.4s4.9.1 7.3-1.5c2.3-1.6 7.8 5 2.4 8.5s-11 7-13.9 6.5c-2.9-.5-4.5-1-4.7-1.7-.3-.7-.3-12.3-.3-12.3l9.2.5z"/><path class="st14" d="M545.8 577.7s2-3.6 3.7-5.7c1.6-2.1 3.9-5.5 1.8-7.3-2-1.7-5.9-3.8-7.7-3.7-1.8.1-4.8 2.5-3.8 3.7 1 1.2-.9 7-.9 7l6.9 6z"/><path d="M475.4 539.9a7.6 7.6 0 017.7-2.1l5.8 1.7 15.8 7.4 10.9 5.7.9 34.9 1.1 17-6.5 5.5c-7.7 7.2-31.4-5.5-31.4-5.5-4-13.2-9.8-49.6-9.8-49.6a24 24 0 015.5-15z" fill="#f9dc32"/><path class="st12" d="M515 595.5s16.5-3.5 26.6-4.4a6.6 6.6 0 017.1 6.1c.4 9.2 1 26.8-.3 40.6l-6.1 3.8a4.4 4.4 0 01-6.6-3.4l-1.1-22.5c-.1-1.9-2.4.4-3.9 1.7-4.6 4-15.7 8.4-22.5 6.1 0 0-20.3-6.2-25.1-19.4l31.9-8.6z"/><path class="st15" d="M505.1 627.8l5.7-2.9-3.3 50.3a3 3 0 01-1 2.1c-.8.7-1.5 1-2.1 1.1-1.4.2-2.7-1.3-2.6-3.1l3.3-47.5zM463.9 606.7l5.6-2.9-3.7 46.3c-.1.9-.4 1.7-1 2.2-.6.5-1.1.8-1.7.9-1.6.5-3-1.2-2.8-3.3l3.6-43.2zM540.2 616.7l6.6 40.3c.2.9-.1 1.9-.7 2.4-.4.4-.8.6-1.2.7-.9.2-1.8-.5-2-1.7l-8-39.9 5.3-1.8z"/><path class="st14" d="M494.2 509.3c3.8-.6 5.9-1.3 9.5-.3 6.1 1.8 9.4 7.6 10.9 13.4 1.5 5.9 1.9 14.4-1.4 19.8-2.1 3.4-6.8 2.8-10.1 1.9-4-1.1-9.3-2.8-12.6-5.3-4.6-3.5-7-11.1-7.3-16.6-.3-4.7 5.3-11.9 11-12.9z"/><path class="st16" d="M488.9 537.5l1.6 1.4a40.2 40.2 0 0014.7 5.7l-.5 2.2c-4.3 1.2-8.7 1-11.7.7-2.3-.3-4-2.2-4-4.5l-.1-5.5z"/><path d="M509.8 551.6s9.1-.3 11.3 6.1c2.2 6.3 7.3 19 7.3 19s7.7-6 10.6-6.7c0 0 6.3 3.2 7.8 6.7 0 0-9.6 16.6-21.3 21.4 0 0-12.7-11.8-18.8-28.9.1 0-7.5-12.5 3.1-17.6z" fill="#ffe252"/><path class="st18" d="M466 556.9a67.4 67.4 0 0139.7 22.4 6.2 6.2 0 011.4 3.9V629c-31.9-5.3-45.5-24.1-45.5-24.1v-44.4c0-2.3 2.2-4.1 4.4-3.6z"/><path class="st18" d="M507.1 629s27.5-2.7 35.9-12.2c0 0 .6-6.4-2-5.5-2.6.9-15 8.5-34 10.5v7.2z"/><path class="st28" d="M514.4 521.5s6.7-5.8 2.1-9c-1.5-1-3-1.1-4.1-2.5a13 13 0 00-4.3-4.1c-1.6-.8-3 .8-4.6 1.2-2.9.8-5-2.6-7.8-1.8-1 .3-1.7 1-2.5 1.5-2.2 1.3-7.7.3-7.5 4 .1 2-.8 4-2.5 5.1-1.6 1.1-2.8 2.8-2.5 4.9.2.9.8 1.5 1.1 2.3.4 1 .5 2.1.6 3.1.2 2.4.7 4.4 2.2 6.4 1.7 2.2 3.7 4.6 5.9 6.3 2.5 1.9 6.3 3.4 9.7 4.5.9-.5 2.4-5.6 2.4-5.6-1.9-1.1-3.4-7.5-1.4-8.7 2.1-1.1 3.4 2.9 3.4 2.9 1.2-.4 3-1.8 2-4.2-1-2.4 0-4.9 0-4.9 3.6.1 6.6-.7 7.8-1.4z"/></g><g><path class="st20" d="M273.7 594.3s4.9.1 7.3-1.5c2.3-1.6 7.8 5 2.4 8.5s-11 7-13.9 6.5c-2.9-.5-4.5-1-4.7-1.7-.2-.7-.3-12.3-.3-12.3l9.2.5z"/><path class="st12" d="M275.7 585.6v13.3s-7.5 3.3-12.4 1.4l-1.9-8.8 14.3-5.9z"/><path class="st20" d="M294.9 602s4.9.1 7.3-1.5c2.3-1.6 7.8 5 2.4 8.5s-11 7-13.9 6.5c-2.9-.5-4.5-1-4.7-1.7-.2-.7-.3-12.3-.3-12.3l9.2.5z"/><path class="st14" d="M293.8 544.3s2-3.6 3.7-5.7c1.6-2.1 3.9-5.5 1.8-7.3-2-1.7-5.9-3.8-7.7-3.7-1.8.1-4.8 2.5-3.8 3.7 1 1.2-.9 7-.9 7l6.9 6z"/><path d="M223.4 506.5a7.6 7.6 0 017.7-2.1l5.8 1.7 15.8 7.3 10.9 5.7.9 34.9 1.1 17-6.5 5.5c-7.7 7.2-31.4-5.5-31.4-5.5-4-13.2-9.8-49.6-9.8-49.6.2-7.4 3.1-12.2 5.5-14.9z" fill="#00a79d"/><path class="st12" d="M263 562.1s16.5-3.5 26.6-4.4a6.6 6.6 0 017.1 6.1c.4 9.2 1 26.8-.3 40.6l-6.1 3.8a4.4 4.4 0 01-6.6-3.4l-1.1-22.5c-.1-1.9-2.4.4-3.9 1.7-4.6 4-15.7 8.4-22.5 6 0 0-20.2-6.2-25.1-19.4l31.9-8.5z"/><path class="st15" d="M253.1 594.4l5.7-2.9-3.3 50.3a3 3 0 01-1 2.1c-.8.7-1.5 1-2.1 1.1-1.4.2-2.7-1.3-2.6-3.1l3.3-47.5zM211.9 573.2l5.6-3-3.7 46.3c-.1.9-.4 1.7-1 2.2a5 5 0 01-1.7 1c-1.6.5-3-1.3-2.8-3.3l3.6-43.2zM288.2 583.3l6.6 40.3c.2.9-.1 1.9-.7 2.4-.4.4-.8.6-1.2.7-.9.2-1.8-.5-2-1.7l-8-39.9 5.3-1.8z"/><path class="st14" d="M242.2 475.9c3.8-.6 5.9-1.3 9.5-.3 6.1 1.8 9.4 7.6 10.9 13.4 1.5 5.9 1.9 14.4-1.4 19.8-2.1 3.4-6.8 2.8-10.1 1.9-4-1.1-9.3-2.8-12.6-5.3-4.6-3.5-7-11.1-7.3-16.6-.3-4.7 5.3-12 11-12.9z"/><path class="st19" d="M239.1 475.9c3.4-1.7 9-1.4 12.6-.3 5.8 1.7 9 7.1 10.6 12.5-1.2.7-4.2 1.5-7.8 1.4 0 0-1 2.5 0 4.9 1 2.4-.8 3.7-2 4.2 0 0-1.4-4-3.4-2.9-2.1 1.1-.6 7.5 1.4 8.7 0 0-1.4 5.1-2.4 5.6a33.3 33.3 0 01-9.7-4.5c-4.6-3.5-7-11.1-7.3-16.6-.2-4.8 4-10.9 8-13z"/><path class="st16" d="M236.9 504l1.6 1.4a40.2 40.2 0 0014.7 5.7l-.5 2.2a30.2 30.2 0 01-11.7.7c-2.3-.3-4-2.2-4-4.5l-.1-5.5z"/><path d="M257.8 518.2s9.1-.2 11.3 6.1c2.2 6.4 7.3 19 7.3 19s7.7-6 10.6-6.7c0 0 6.4 3.2 7.8 6.7 0 0-9.6 16.6-21.3 21.4 0 0-12.7-11.8-18.8-28.9.1 0-7.5-12.5 3.1-17.6z" fill="#10c1b0"/><path class="st18" d="M214 523.5a67.4 67.4 0 0139.7 22.4 6.2 6.2 0 011.4 3.9v45.7c-31.9-5.3-45.5-24.1-45.5-24.1V527c0-2.2 2.2-4 4.4-3.5z"/><path class="st18" d="M255.1 595.6s27.5-2.7 35.9-12.2c0 0 .6-6.4-2-5.5-2.6.9-15 8.5-34 10.5v7.2z"/></g><g><path class="st14" d="M446.4 641.7s2.4-.6 3.8-.5c1.4.1 2.4 1.8 3.5 2.5a7 7 0 013.1 5.3c0 2.5-1.1 5.1-2.5 5.1-1.3 0-1.6.3-2.1-.7-.4-1-2.8-4.5-2.8-4.5l-3-7.2z"/><path class="st4" d="M428.3 684.8s4.9.1 7.3-1.5c2.3-1.6 7.8 5 2.4 8.5s-11 7-13.9 6.5c-2.9-.5-4.5-1-4.7-1.7-.2-.7-.3-12.3-.3-12.3l9.2.5z"/><path class="st12" d="M430.3 676.1v13.3s-7.5 3.3-12.4 1.4L416 682l14.3-5.9z"/><path class="st4" d="M449.5 692.4s4.9.1 7.3-1.5c2.3-1.6 7.8 5 2.4 8.5s-11 7-13.9 6.5c-2.9-.5-4.5-1-4.7-1.7s-.3-12.3-.3-12.3l9.2.5zM378 596.9a7.4 7.4 0 017.7-2.1l5.8 1.7 15.8 7.3 7.1 4 4.7 36.6 1.1 17-6.5 5.5c-7.7 7.2-31.4-5.5-31.4-5.5-4-13.2-9.8-49.6-9.8-49.6.2-7.3 3-12.1 5.5-14.9z"/><path class="st12" d="M417.6 652.6s18.2-3.5 28.3-4.4a6.6 6.6 0 017.1 6.1c.4 9.2-.7 26.8-2 40.6l-6.1 3.8a4.4 4.4 0 01-6.6-3.4l-1.1-22.5c-.1-1.9-2.4.4-3.9 1.7-4.6 4-15.7 8.4-22.5 6 0 0-20.2-6.2-25.1-19.4l31.9-8.5z"/><path class="st15" d="M407.7 684.8l5.7-2.9-3.3 50.3a3 3 0 01-1 2.1c-.8.7-1.5 1-2.1 1.1-1.4.2-2.7-1.3-2.6-3.1l3.3-47.5zM366.5 663.7l5.6-3-3.7 46.3c-.1.9-.4 1.7-1 2.2a5 5 0 01-1.7 1c-1.6.5-3-1.3-2.8-3.3l3.6-43.2zM442.8 673.8l6.6 40.3c.2.9-.1 1.9-.7 2.4-.4.4-.8.6-1.2.7-.9.2-1.8-.5-2-1.7l-8-39.9 5.3-1.8z"/><path class="st14" d="M396.8 566.4c3.8-.6 5.9-1.3 9.5-.3 6.1 1.8 9.4 7.6 10.9 13.4 1.5 5.9 1.9 14.4-1.4 19.9-2.1 3.4-6.8 2.8-10.1 1.9-4-1.1-9.3-2.8-12.6-5.3-4.6-3.5-7-11.1-7.3-16.6-.3-4.8 5.3-12.1 11-13z"/><path class="st16" d="M391.5 594.5l1.6 1.4a40.2 40.2 0 0014.7 5.7l-.5 2.2c-4.3 1.2-7.5-.6-10.5-1-2.3-.3-4.6-.8-5.2-2.9l-.1-5.4z"/><path class="st18" d="M368.6 614a67.4 67.4 0 0139.7 22.4 6.2 6.2 0 011.4 3.9V686c-31.9-5.3-45.5-24.1-45.5-24.1v-44.4c0-2.3 2.1-4 4.4-3.5z"/><path class="st18" d="M409.7 686s27.5-2.7 35.9-12.2c0 0 .6-6.4-2-5.5-2.6.9-15 8.5-34 10.5v7.2z"/><path class="st28" d="M420.2 565.5s-4.4 4.7-9.8 0-26.6-3.3-25.4 16.1l2.5 6.2a18 18 0 005.5 8.1c2.5 1.9 6.3 3.4 9.7 4.5.9-.4 2.4-5.6 2.4-5.6-1.9-1.1-3.4-7.5-1.4-8.7 2.1-1.1 3.4 2.9 3.4 2.9 1.2-.4 3-1.8 2-4.2-1-2.4 0-4.9 0-4.9 3.6.1 6.6-.7 7.8-1.4 0 .1 6.1-5.3 3.3-13z"/><path class="st8" d="M391.2 596.1s4 5.5 16.4 6.3l1.9 2.6s-10.7-.3-14.4-1.8c-3.4-1.3-4.3-2.4-4.4-4.9l.5-2.2zM444.8 640.9l2.8-.6s2.6 4.9 2.4 8.8l-2.5.6-2.7-8.8z"/><path d="M445.7 640.5c-2.9.7-18.8 1.9-18.8 1.9s-1.9-20.2-4.2-26.6c-2.2-6.4-8.3-7.8-8.3-7.8-10.6 5.1-5.1 18.3-5.1 18.3a160 160 0 017 25.9 4 4 0 004.7 3.3c14.1-2.3 27.4-5.5 27.4-5.5 0-5.7-2.7-9.5-2.7-9.5z" fill="#585866"/></g></g><path class="st11" d="M642.8 413.8c23.6 0 42.7 5.8 42.7 13s-19.1 13-42.7 13-42.7-5.8-42.7-13 19.1-13 42.7-13z"/><g><path class="st14" d="M599.4 325.6c.2-.5.4-1.1.3-1.6 0-.6-.5-.2-.8.2-.8 1-1.4 2.1-2.3 3.1-.3.3-.9.7-1 0-.2-1.9 1-3.8 1.9-5.4l2-3.2 1.2-1.6c.3-.3.9-.8 1-1.2l.1-.5 7.9 1 .3 3.3c0 2.7-.4 3.9-1.5 6.3-.7 1.4-.6 2.8-.6 4.3 0 1.6 1 2.6.3 4.1-.7 1.6-5 1.9-7.6-.5-1.3-1.2-1.7-3.2-1.7-4.9l.2-2.7.3-.7z"/><path class="st8" d="M601.1 313l-.6 3s5.3 2.6 10.3 1.9l.8-3.5-10.5-1.4z"/><path class="st23" d="M609.8 244.5s-3.7 39.7-9.3 69.2c0 0 4.6 3.1 11.1 2l6.1-32.4-7.9-38.8z"/><path class="st16" d="M661.1 305.7s-1.4.3-2.2 2.3c-.8 2-3.5 5.4-4.4 4.8-.9-.5 0-8.9 0-8.9l1.6-3.6 5 5.4z"/><path class="st8" d="M663.3 305.4l-1.7 2.2-7.2-7.6 2.1-2.4z"/><path class="st12" d="M668.2 410.2s.5 6.4 3.4 8.7c6.9 5.6 9.9 10.8 3.8 12.7-6.1 1.8-18.9-5.1-20.1-9.8l.9-14 12 2.4zM618.2 410.2s-.5 6.4-3.4 8.7c-6.9 5.6-9.9 10.8-3.8 12.7 6.1 1.8 18.9-5.1 20.1-9.8l-.9-14-12 2.4z"/><path class="st13" d="M613.1 304.6v111.1s10.7 4.1 19.6-1.4c0 0-.5-53 1.4-80.6 0 0 1.4-1.8 2.4 1.5 0 0 13 54.3 16.4 80.1 0 0 10.3 2.4 18.5-2.4 0 0-8.2-47.4-9.1-53.4l-7.9-52.1s-29.1-6.8-41.3-2.8z"/><path class="st16" d="M650.2 223.8l-3.2.9-.4 5.2c4.2.3 3.6-6.1 3.6-6.1zM621.3 223.8l3.2.9.4 5.2c-4.2.3-3.6-6.1-3.6-6.1z"/><path d="M626 236.1s6.6-2.2 19.3-.2l-1.1 3.1-14.2 2.9-3.5-3.6-.5-2.2z" fill="#bcbec0"/><path class="st24" d="M645 238s16.6 3.5 18.3 5.3c1.7 1.8-2.4 26.6-4.3 31.9-1.8 5.3-4.7 32.1-4.7 32.1s-18.7 8-41.3-2.7c0 0-1.1-19.3-2-29.4-.8-8.9-1.2-30.7-1.2-30.7s6-4.7 16.2-5.9c10.3-1.2 19-.6 19-.6z"/><path class="st24" d="M663.3 243.3s17.3 26.4 22.3 39.6l-22.3 23.5-7.6-8.4 14.9-15-8.6-15-10.9-14.9 12.2-9.8z"/><path class="st16" d="M644.6 225.5l-.7 13.1s-6.2 6-16.7 0v-14l17.4.9z"/><path class="st14" d="M648.1 220.4c0 9.6-5.6 17.3-12.5 17.3s-12.5-7.7-12.5-17.3c0-9.6 5.6-17.3 12.5-17.3s12.5 7.8 12.5 17.3z"/><path class="st19" d="M635.1 215.7s9.6-4.7 10.1 9.8c0 0 2.9 1 5.8-1 0 0 4.7-25.4-15.7-23 0 0-17.5-1.6-14.9 23.4 0 0 2.8 1.6 6.4.3 0 .1-1.2-11.3 8.3-9.5z"/><path class="st16" d="M627.4 238.9l8.3 6.5 6.6-4.7-.9-1.6z"/><path class="st17" d="M645.3 235.9l-9.6 9.5 7.2 4.5 3.5-11.6z"/><path class="st17" d="M626 236.1l9.7 9.3-7.2 4.5-4.3-11.1zM612.4 292l.1 2.2a88 88 0 0042.8 2l.2-2.3c-23.3 4-37.2.4-43.1-1.9zM612.8 298.5l.1 2.2a88.3 88.3 0 0041.9 2l.2-2.3a83.4 83.4 0 01-42.2-1.9z"/><path class="st14" d="M655.6 300.3s.8 1.4.7 2.5c-.7 3.9.4 4.1.6 6.2.1 1.3-.2 2.5-.9 3.6-.4.7-1.2 1.9-2.2 1.8-2-.2-4.1-3.8-3.2-5.5.7-1.3 1-2.9.7-4.4-.3-1.6.3-2.1 1.6-2.9.2-.1 2.5-1.6 2.7-1.3z"/></g><g style="animation:translate 10000ms ease 500ms infinite"><path class="st5" d="M311.6 249.5v114l176.1-101.9V147.7z"/><path class="st8" d="M320.7 280.5l13.2-7.6v66.6l-13.2 7.6zM339.5 269.8l13.1-7.7v66.6l-13.1 7.7zM358.2 259l13.2-7.6V318l-13.2 7.6zM377 248.2l13.2-7.6v66.6l-13.2 7.6zM478.8 163.4v4.1l-37.3 21.6v-4.2zM478.8 175.5l-37.3 21.6v-4.2l37.3-21.6zM478.8 183.5l-37.3 21.6v-4.2l37.3-21.6zM478.8 191.4L441.5 213v-4.1l37.3-21.6z"/><g><path class="st8" d="M478.8 205.1v4.1l-37.3 21.6v-4.2zM478.8 217.2l-37.3 21.6v-4.2l37.3-21.6zM478.8 225.2l-37.3 21.5v-4.1l37.3-21.6zM478.8 233.1l-37.3 21.6v-4.1l37.3-21.6z"/></g></g><g style="animation:translate 15000ms ease 0ms infinite"><path class="st5" d="M83.3 439.3v113.9l176.1-101.9V337.4z"/><path class="st8" d="M130.3 425.6v4.1L93 451.3v-4.1zM130.3 437.7L93 459.3v-4.2l37.3-21.6zM130.3 445.7L93 467.3v-4.2l37.3-21.6zM130.3 453.7L93 475.2v-4.1l37.3-21.6z"/><g><path class="st8" d="M130.3 463.7v4.2L93 489.5v-4.2zM130.3 475.9L93 497.5v-4.2l37.3-21.6zM130.3 483.9L93 505.4v-4.1l37.3-21.6zM130.3 491.8L93 513.4v-4.1l37.3-21.6z"/></g><path class="st8" d="M89.6 533.9v7.5l164.3-95v-7.5z"/><g><path class="st8" d="M220.8 385.4a50.2 50.2 0 00-22.7 39.3c0 14.5 10.3 20.3 22.9 13a50.2 50.2 0 0022.7-39.3c-.1-14.4-10.3-20.2-22.9-13z"/></g></g><g style="animation:translate 8000ms ease 0ms infinite"><path class="st5" d="M871.7 298.7v113.9L695.5 310.7V196.8z"/><path class="st3" d="M877 279.2L703.4 178.7a3.4 3.4 0 00-3.5 0l-6.6 3.9 4.9 17.5V315c0 4.2 2.2 8.1 5.9 10.1l167.2 96.8 1.9 5.3 6.7-3.9a6.3 6.3 0 003.2-5.6v-128c0-4.3-2.4-8.4-6.1-10.5z"/><path class="st4" d="M876.4 293.6v128c0 4.9-5.3 8-9.6 5.5L697.2 329c-3.6-2.1-5.9-6-5.9-10.1V185.7c0-2.7 3-4.4 5.3-3.1L870.2 283c3.8 2.2 6.2 6.3 6.2 10.6z"/><path class="st1" d="M871.7 298.7v113.9L695.5 310.7V196.8z"/><path id="XMLID_14_" d="M780.8 254l5.5 2.6c10 6 19.3 17.8 24.2 31.4 7.2 18.8 5.4 39.8-4.4 48.8-2.7 2.6-8-.9-9.4-6.4-2.4-8.6-4.2-17.3-6.4-26-2.6 6.1-4.9 12.4-7.5 18.4-1.2 3.3-4.8 4-7.8.8a17.8 17.8 0 01-3.9-8.7l-9.1-37.2 8.2 3.9 7.3 30 6.7-16.6c1-2.5 2.3-5.2 4.9-5 2.9 0 5.8 4 6.8 7.9 2.4 9.2 4.4 18.4 6.8 27.5a32.6 32.6 0 004.7-17.3 52.9 52.9 0 00-20.3-40.9c-13.6-9.3-28-3.9-32.5 11.1-4.4 13.1-.5 32.8 9 47 6.9 10.8 16.5 17.8 25.4 18.8l-.3 10-4.9-1.3-5.6-2.7a67.6 67.6 0 01-24.3-27.8 83.5 83.5 0 01-8.6-33.2l.2-6.9a37.8 37.8 0 0110.5-24.4c6.4-5.8 15.6-6.9 24.8-3.8z" fill="#fff"/></g></svg>