<svg version="1.0" id="Layer_1" xmlns="http://www.w3.org/2000/svg" x="0" y="0" viewBox="0 0 1000 1000" xml:space="preserve">
	<style>
		.st0{fill:#c2c2ff}.st2{fill:#b8b8ff}.st6{fill:#e92f48}.st7{fill:#534ee1}.st8{fill:#fff}.st9{fill:#f7f4f1}.st10{fill:#3822b4}.st11{fill:#ead3b8}.st14{fill:#2a2249}.st15{fill:#e9fcea}.st16{fill:#cdc6e8}.st17{fill:#848a8c}.st19{fill:#b8c0c1}.st20{fill:#423c2e}.st22{fill:#4e389e}.st23{fill:#a094c9}.st24{fill:#2027d1}
		#HEART1 {
		animation: beat .5s infinite alternate;
		transform-origin: 2.58% 37.3%;
		}
		#LIKE1 {
		animation: beat 1s infinite alternate;
		transform-origin: 13.2% 26.6%;
		}
		#LIKE2 {
		animation: beat 0.3s infinite alternate;
		transform-origin: 28.4% 29.7%;
		}
		@keyframes beat{
		to { transform: scale(1.2); }
		}
		@keyframes translate{
		0%{transform: translateY(-50px);}
		50%{transform: translateY(0px);}
		100%{transform: translateY(-50px);}
		}
		#MESSAGE1 {
		animation:translate 5000ms ease-out 0ms infinite;
		}
		#MESSAGE2 {
		animation:translate 10000ms ease-out 200ms infinite;
		}
	</style>
	<g id="Graphic">
		<path class="st0" d="M561.6 855.8l3.9 3.9c125.1-122.8 178.8-254.5 201.9-343.4 25-96.4 20.3-164.7 20.3-165.4l-5.5.4c0 .7 4.7 68.3-20.2 163.9-22.9 88.1-76.3 218.8-200.4 340.6zM615.3 842.2s84-16.9 121.6-9.1c37.6 7.7 76 24 67.2 58.5-8.8 34.6-65.4 20.4-103.1 1.6-37.6-18.9-85.7-51-85.7-51zM666.2 790.8s89.8-59.7 137.3-68.7c47.5-9 99.9-8.3 106.1 36.1 6.2 44.5-66.4 55-119.3 51-52.9-4-124.1-18.4-124.1-18.4zM767.8 585.6s67.6-76.4 108.8-96.1c41.2-19.7 89.3-31.9 105.8 7.3 16.5 39.1-47.3 66.4-96.7 75.6-49.3 9.2-117.9 13.2-117.9 13.2zM798.4 473.4s39.7-82.8 70.5-110.1c30.9-27.3 69.5-49.6 93.4-19.8 23.9 29.8-24.6 69.1-65.1 89.3-40.5 20.1-98.8 40.6-98.8 40.6zM717.6 693.7s90.7-82.5 142.6-100.7c51.9-18.2 110.9-26.5 125.5 22.4 14.6 48.9-65.2 73.2-125.4 77.7-60.2 4.6-142.7.6-142.7.6z" />
		<path class="st0" d="M581.4 813.6s3.4-85.6-10.2-121.5c-13.6-35.9-35.7-71.3-68.4-57.1-32.7 14.2-9.9 67.8 14.7 102 24.7 34.3 63.9 76.6 63.9 76.6zM653.8 729.9s13.5-107 .4-153.5-37-93.2-79.6-79c-42.6 14.2-19.7 83.9 7.5 129.5 27 45.7 71.7 103 71.7 103zM762.5 454.3s2.9-77.5-9.4-110.1c-12.3-32.5-32.4-64.5-62-51.6-29.6 12.9-8.8 61.4 13.5 92.4 22.3 31.1 57.9 69.3 57.9 69.3zM787 386.4s20.7-60.5 18.7-89.1c-2-28.6-10.3-58.5-36.7-55.4-26.4 3.1-21.5 46.3-11.3 76.1 10.3 29.8 29.3 68.4 29.3 68.4zM707.6 617.5s18.3-92.1 9.8-133.3c-8.5-41.2-26.4-83.2-64.3-73.4-37.9 9.7-22.2 71.6-1.5 112.9 20.8 41.3 56 93.8 56 93.8z" />
		<g opacity=".5">
			<path class="st2" d="M595.1 827.8c-82.9-54.6-155.8-119.4-216.7-192.5a916.48 916.48 0 01-122.2-190C201 330.1 190 243 189.9 242.1l5.5-.7c.1.9 11 87.3 65.9 201.7C312 548.6 411.5 700.2 598.2 823.2l-3.1 4.6zM417 713.3s-85.4-6.2-121.8 6.2c-36.4 12.4-72.4 33.3-59.3 66.5 13.1 33.2 67.4 12.1 102.4-11.4 35.1-23.5 78.7-61.3 78.7-61.3zM356 656.7s-96.6-48-144.9-50.9c-48.3-2.9-100.2 4.3-100.8 49.2-.6 44.9 72.8 46.2 124.8 35.6C287.2 680 356 656.7 356 656.7zM240.5 464.6s-76.6-67.3-120-81.7c-43.4-14.4-92.6-20.4-104 20.5-11.5 40.9 55.2 59.9 105.3 62.8 50.1 2.9 118.7-1.6 118.7-1.6zM196.1 357.1s-49.8-77.2-83.8-100.3c-34-23.2-75.2-40.5-95.1-7.9-20 32.6 33.1 65.5 75.8 80.4 42.6 14.8 103.1 27.8 103.1 27.8z" />
			<path class="st2" d="M198.5 277.3s21.2-76 16.6-111.1c-4.5-35.1-16.9-71.4-49.2-65.6s-23.2 58.6-8.4 94.5c14.8 35.9 41 82.2 41 82.2zM300 571.9s-100.4-70.4-154.1-82c-53.7-11.6-113.4-12.4-121.7 38-8.3 50.4 73.9 64.4 134.2 61.4 60.2-3 141.6-17.4 141.6-17.4zM457.7 684.1s20.9-83.1 44.1-113.7c23.2-30.7 54.3-58.3 81.7-35.4 27.4 22.8-9.7 67.8-42.9 93.7-33.3 25.8-82.9 55.4-82.9 55.4zM409.4 627.2s-2.5-107.8 15.3-152.8c17.8-44.9 46.4-88.9 87.3-70.4s11 85.5-20.7 128.1c-31.6 42.6-81.9 95.1-81.9 95.1zM289.3 429.9s-13-92.9-2.1-133.6c10.9-40.7 31.1-81.5 68.3-69.7 37.2 11.9 18.1 72.8-5 112.8-23 40.1-61.2 90.5-61.2 90.5zM238.9 333.8s-16.3-77.3-9.5-112c6.8-34.8 21.4-70.3 53.4-62.4 31.9 7.8 19.4 60.1 2.4 95-17.2 34.9-46.3 79.4-46.3 79.4zM346.2 540.6s-7.5-117.8 10-167.8c17.5-50 46.7-99.3 92.3-80.9 45.6 18.4 15.8 93-16.9 141-32.8 48.1-85.4 107.7-85.4 107.7z" />
		</g>
		<g>
			<path d="M248.4 466.1c0 1.8-1.4 3.2-3.2 3.2h-25.8c-1.8 0-3.2-1.4-3.2-3.2v-1.4c0-1.8 1.5-3.2 3.2-3.2h25.8c1.8 0 3.2 1.5 3.2 3.2v1.4z" fill="#c1c1c1" />
			<path d="M50.2 496.1h-6.4c0-2.7 0-5.4.1-8.1l6.4.1c-.1 2.6-.1 5.3-.1 8z" fill="#d3d3d3" />
			<path d="M50.9 472.1l-6.4-.4c.3-5.5.8-11 1.3-16.2l6.4.7c-.5 5.1-1 10.4-1.3 15.9zm3.4-31.8l-6.4-1c.9-5.5 1.9-10.9 3.1-16l6.3 1.4c-1.1 5-2.1 10.2-3 15.6zm139.1-9.3H192l.2-6.4c4.7.1 9.7-.5 15-2l1.7 6.2c-5.4 1.5-10.6 2.2-15.5 2.2zm-18.3-4c-5.4-2.6-9.9-6.5-13.3-11.5l5.3-3.7c2.8 4.1 6.4 7.2 10.8 9.3l-2.8 5.9zm49.4-4.4l-3-5.7c4.6-2.4 9-5.2 13.1-8.3l3.9 5.1c-4.3 3.4-9.1 6.4-14 8.9zM61.4 409.2l-6.2-1.9c1.6-5.4 3.5-10.6 5.4-15.5l6 2.4c-1.9 4.8-3.7 9.8-5.2 15zm189.5-6.9l-4.8-4.3c3.6-4.1 6.6-8.3 8.8-12.5l5.7 3c-2.5 4.7-5.7 9.4-9.7 13.8zm-95.8-2.7c-1.2-5-1.8-10.6-1.9-16.7l6.4-.1c.1 5.6.6 10.8 1.7 15.3l-6.2 1.5zm-81.9-19.7l-5.7-3c2.6-5 5.5-9.7 8.6-14.1l5.3 3.7c-2.9 4.2-5.7 8.7-8.2 13.4zm192.7-7.8l-6.4-.8c.2-1.3.2-2.7.2-4 0-3.6-.6-7.1-1.8-10.4l6-2.2c1.5 4 2.2 8.3 2.2 12.6.1 1.6 0 3.2-.2 4.8zm-105.3-4.9l-6.4-.8c.6-5.2 1.6-10.7 2.8-16.2l6.3 1.4c-1.1 5.3-2 10.6-2.7 15.6zm-69.3-12.9l-4.7-4.4c3.8-4.1 8-7.8 12.3-11.2l3.9 5.1c-4.1 3.2-7.9 6.7-11.5 10.5zm158.6-9.7c-3.3-3.4-7.3-6.6-12-9.3l3.2-5.6c5.2 3 9.7 6.5 13.4 10.4l-4.6 4.5zm-82.4-8.4l-6.2-1.9c1.7-5.5 3.6-10.7 5.5-15.5l6 2.5c-1.9 4.6-3.7 9.7-5.3 14.9zm-51.6-.8l-3-5.7c4.5-2.3 9.7-4.4 15.5-6.3l1.9 6.1c-5.4 1.8-10.3 3.8-14.4 5.9zm107.9-6.4c-4.7-1.6-9.8-2.9-15.2-3.9l1.2-6.3c5.7 1.1 11.1 2.5 16.1 4.2l-2.1 6zm-78.2-3.2l-1.2-6.3c5.3-1 10.7-1.8 16.3-2.4l.7 6.4c-5.4.5-10.7 1.3-15.8 2.3zM193 323c-5.1-.4-10.5-.6-15.8-.5l-.1-6.4c5.5-.1 11.1.1 16.4.5l-.5 6.4zm-13.3-15.8l-5.6-3.2c2.7-4.7 5.9-9.4 9.2-13.7l5.1 3.9c-3.1 4.1-6.1 8.5-8.7 13zm19.2-24.7l-4.5-4.6c3.9-3.8 8.1-7.5 12.5-10.9l3.9 5.1c-4.2 3.2-8.2 6.7-11.9 10.4zm24.9-19.2l-3.3-5.5c4.7-2.8 9.6-5.3 14.7-7.6l2.6 5.9c-4.8 2.2-9.5 4.6-14 7.2zm28.8-12.8l-1.9-6.1c5.2-1.6 10.6-3 16-4.1l1.3 6.3c-5.3 1-10.5 2.3-15.4 3.9zm30.8-6.2l-.6-6.4c5.4-.5 11-.7 16.5-.7l-.1 6.4c-5.2 0-10.5.2-15.8.7z" fill="#7070f9" />
			<path class="st6" d="M306.3 376.8s8.7-14.3 19.5-3.4c10.5 10.5-20 32.7-20 32.7s-29.4-21.3-20.2-33.6c8.1-10.8 16.5-1.1 20.7 4.3z" />
			<path id="HEART1" class="st6" d="M26.3 366.3s4.5-11 13.3-4.6c8.6 6.2-10.4 25.2-10.4 25.2s-23-11.7-17.9-21.3c4.4-8.5 11.4-2.7 15 .7z" />
			<path class="st6" d="M249.5 205.9s12.2-8.7 17.2 4.1c4.9 12.4-28.1 19.9-28.1 19.9s-16.7-28-4.7-34.8c10.5-6.1 14 4.8 15.6 10.8z" />
			<g id="LIKE1">
				<path class="st7" d="M153.1 263.2c-.3-4.2-1.5-14-7-15.3-2.2-.5-9.5 1.6-13.2 2.8-.3-1.4-1-3.7-2-5.6-1.2-2.2-5.3-6.5-8.4-6.3-1.2.1-2.1.7-2.6 1.9-1.2 2.8-.2 4.4.9 6.2.6.9 1.2 1.9 1.7 3.4 1.1 2.9.6 3.9-.1 5.4-.2.5-.5 1-.7 1.6-.9 2.4-.5 4.2-.2 5.6.1.2.1.5.1.7-.3.2-1.2.5-1.9.6h-.1c-.3-.8-1.2-1.2-2.1-1l-9.2 2.8c-.9.3-1.4 1.2-1.2 2.1l6.2 20.5c.3.9 1.2 1.4 2.1 1.2l9.2-2.8c.9-.3 1.4-1.2 1.2-2.1l-.1-.3c.8-.1 1.7-.2 3-.4 2.6-.4 6.3-1.2 11.2-2.6 12.5-3.7 13.7-11.3 13.2-18.4z" />
				<path class="st8" d="M139.2 279c-7.7 2.2-12.2 2.8-14.2 3l-4.6-15.4c.9-.1 2.5-.6 3.4-1.6.4-.5.5-1.1.4-1.8-.1-.3-.1-.6-.2-1-.3-1.2-.5-2.4.1-4.1.2-.5.4-1 .6-1.4.8-1.7 1.7-3.5.2-7.4-.6-1.7-1.4-2.9-1.9-3.8-1-1.6-1.4-2.2-.7-3.8.1-.3.3-.3.4-.3 1.5-.1 4.9 2.9 6 5 1.4 2.6 2 6.2 2 6.2.1.4.3.7.6.9.3.2.7.2 1.1.1 5.4-1.8 12-3.5 13.2-3.2 2.6.7 4.6 5.8 5 13 .4 7.3-1.3 12.7-11.4 15.6z" />
				<path class="st9" d="M124.3 284.9c.1.4-.1.7-.4.8l-3.6 1.1c-.4.1-.7-.1-.8-.4l-.6-2c-.1-.4.1-.7.4-.8l3.6-1.1c.4-.1.7.1.8.4l.6 2z" />
			</g>
			<g id="LIKE2">
				<path class="st7" d="M298.8 302.3c1.1-2.9 3.4-9.9.2-12.6-1.3-1.1-6.9-1.9-9.8-2.3.2-1.1.5-2.8.4-4.4-.1-1.9-1.5-6.1-3.6-6.9-.8-.3-1.7-.2-2.4.4-1.7 1.5-1.5 2.9-1.4 4.4.1.8.2 1.7.1 2.8-.2 2.3-.8 2.8-1.8 3.6-.3.3-.6.5-1 .9a6.25 6.25 0 00-1.9 3.7c0 .2-.1.3-.1.5-.3.1-.9 0-1.5-.2h-.1c0-.6-.4-1.2-1.1-1.3l-7.1-1.1c-.7-.1-1.4.4-1.5 1.1l-2.4 15.8c-.1.7.4 1.4 1.1 1.5l7.1 1.1c.7.1 1.4-.4 1.5-1.1v-.2c.5.2 1.2.4 2.1.7 1.9.5 4.6 1.2 8.4 1.8 9.6 1.5 12.9-3.3 14.8-8.2z" />
				<path class="st8" d="M284.5 308.5c-5.9-1-9.1-2-10.5-2.5l1.8-11.8c.6.2 1.9.4 2.8 0 .4-.2.7-.6.9-1.1.1-.2.1-.5.2-.7.2-.9.4-1.8 1.4-2.7.3-.3.6-.5.9-.7 1.1-.9 2.2-1.8 2.5-4.9.1-1.3 0-2.4-.1-3.2-.2-1.4-.2-1.9.7-2.8.2-.2.3-.1.4-.1 1 .4 2.3 3.5 2.4 5.3.1 2.2-.6 4.8-.6 4.8-.1.3 0 .6.1.8.2.2.4.4.7.4 4.2.5 9.2 1.5 9.9 2.1 1.5 1.3 1.2 5.3-.8 10.4-2.2 4.8-5.1 8-12.7 6.7z" />
				<path class="st9" d="M272.5 307.7c0 .3-.3.5-.6.4l-2.7-.4c-.3 0-.5-.3-.4-.6l.2-1.5c0-.3.3-.5.6-.4l2.7.4c.3 0 .5.3.4.6l-.2 1.5z" />
			</g>
			<path class="st7" d="M115.5 419.7c-2.3-2-8.2-6.5-11.8-4.4-1.4.9-4.1 5.9-5.5 8.5-.9-.6-2.4-1.4-4-1.9-1.8-.5-6.2-.6-7.8 1.1-.6.7-.7 1.5-.4 2.4.8 2.1 2.2 2.4 3.7 2.8.8.2 1.6.4 2.7.9 2.1 1 2.4 1.7 2.8 2.9.1.4.3.8.5 1.2.8 1.8 1.9 2.5 2.8 3 .1.1.3.2.4.3 0 .3-.3.9-.7 1.3v.1c-.6-.2-1.3 0-1.6.6l-3.4 6.3c-.3.6-.1 1.4.5 1.7L108 454c.6.3 1.4.1 1.7-.5l3.4-6.3c.3-.6.1-1.4-.5-1.7l-.2-.1c.4-.4.8-1 1.3-1.8 1.1-1.6 2.6-4 4.5-7.3 4.7-8.5 1.3-13.1-2.7-16.6z" />
			<path class="st8" d="M116.5 435.3c-2.9 5.2-4.9 7.9-5.9 9.1l-10.6-5.6c.4-.5 1-1.6.9-2.6-.1-.5-.3-.9-.7-1.2-.2-.1-.4-.3-.6-.4-.8-.5-1.5-1-2.1-2.2-.2-.4-.3-.7-.4-1-.5-1.3-1-2.7-3.8-4-1.2-.6-2.2-.8-3-1-1.4-.3-1.9-.4-2.4-1.6-.1-.2 0-.3 0-.4.7-.8 4.1-1 5.8-.5 2.1.6 4.3 2.2 4.3 2.2.2.2.5.2.8.2.3-.1.5-.3.6-.5 1.9-3.8 4.4-8.2 5.2-8.6 1.7-1 5.4.6 9.5 4.2 4.2 3.3 6.2 7.1 2.4 13.9z" />
			<path class="st9" d="M111.8 446.3c.2.1.3.4.2.7l-1.3 2.5c-.1.2-.4.3-.7.2l-1.4-.7c-.2-.1-.3-.4-.2-.7l1.3-2.5c.1-.2.4-.3.7-.2l1.4.7z" />
		</g>
		<g id="MESSAGE2">
			<path class="st10" d="M557.8 190.6H350.7a9.5 9.5 0 00-9.5 9.5v68.4c0 5.2 4.2 9.5 9.5 9.5h12.6v11.3c0 1.9 1.5 3.4 3.4 3.4 1 0 1.9-.4 2.6-1.2l11.2-13.4h177.3c5.2 0 9.5-4.2 9.5-9.5V200c0-5.2-4.3-9.4-9.5-9.4z" />
			<path class="st11" d="M482.9 223.9h-59.5c-.9 0-1.6-.7-1.6-1.6s.7-1.6 1.6-1.6h59.5c.9 0 1.6.7 1.6 1.6 0 .9-.7 1.6-1.6 1.6z" />
			<path class="st8" d="M542.4 236.9h-119c-.9 0-1.6-.7-1.6-1.6 0-.9.7-1.6 1.6-1.6h118.9c.9 0 1.6.7 1.6 1.6.1.9-.6 1.6-1.5 1.6zM542.4 249.9h-119c-.9 0-1.6-.7-1.6-1.6 0-.9.7-1.6 1.6-1.6h118.9c.9 0 1.6.7 1.6 1.6.1.9-.6 1.6-1.5 1.6z" />
			<g>
				<path class="st8" d="M363.3 220.3h31.1v31.1h-31.1z" />
			</g>
		</g>
		<g id="MESSAGE1">
			<path d="M464.6 266.6h207.1c5.2 0 9.5 4.2 9.5 9.5v68.4c0 5.2-4.2 9.5-9.5 9.5h-12.6v11.3c0 1.9-1.5 3.4-3.4 3.4-1 0-1.9-.4-2.6-1.2l-11.2-13.4H464.6a9.5 9.5 0 01-9.5-9.5V276c.1-5.2 4.3-9.4 9.5-9.4z" fill="#232249" />
			<path d="M539.5 300H599c.9 0 1.6-.7 1.6-1.6s-.7-1.6-1.6-1.6h-59.5c-.9 0-1.6.7-1.6 1.6 0 .8.7 1.6 1.6 1.6z" fill="#eacdb8" />
			<path class="st8" d="M480.1 312.9H599c.9 0 1.6-.7 1.6-1.6s-.7-1.6-1.6-1.6H480.1c-.9 0-1.6.7-1.6 1.6s.7 1.6 1.6 1.6zM480.1 325.9H599c.9 0 1.6-.7 1.6-1.6 0-.9-.7-1.6-1.6-1.6H480.1c-.9 0-1.6.7-1.6 1.6-.1.9.7 1.6 1.6 1.6zM622.6 294.1h31.1v31.1h-31.1z" />
		</g>
		<g>
			<path class="st11" d="M482.5 500c-.9-14.3-4.2-16.9-8-20l-.6-.5c-4-3.3-9.2-3.3-9.4-3.3-.3 0-.5.1-.7.3-.2.2-.3.4-.3.7.1 3.4-1.3 22.7-1.3 23l.2 30.4v35.9c2.8 2.1 5.6 3.4 8.3 3.4h.2c7.2-.1 7.8-9.9 8.1-14.6.1-1 .1-1.8.2-2.2.6-3.4 4.3-38.4 3.3-53.1z" />
			<path class="st14" d="M446 859.6c-.2-.2-.5-.3-.8-.3l-21.6 2.2c-.5 0-.8.4-.8.9 0 .1-.2 3.1 0 5v.7c.1 2 .2 6.2 7.6 6.2h.4c8.1-.2 12.9-.9 13.7-4.5.6-2.8 1.7-9.2 1.7-9.4.1-.3 0-.5-.2-.8zM424.2 849.9c-1.6-.9-9.5-5.6-11.1-5.9-1.6-.3-7.3.7-8.4.9-.3 0-.5.2-.6.4-.1.2-.2.5-.1.8l1.7 5.9c-.2 1.1-.8 4.3.2 5.8.1.2.3.5.4.7.8 1.5 2 3.8 5.8 3.8.8 0 1.7 0 2.7.1 1 0 2 .1 2.9.1 2.6 0 4.9-.3 6-1.9.1-.1.1-.3.2-.4l.8-9.3c0-.4-.2-.8-.5-1z" />
			<path class="st11" d="M429.2 790v-.4c.5-11.8 1.7-39.3.3-49.7-.5-3.9-1-6.9-1.4-9.4-.7-4.1-1.1-6.5-.9-8.8.1-.8.2-1.6.4-2.7.7-4 1.9-10.1-.4-22.9-.1-.5-.5-.8-.9-.8-.2 0-20.4.5-32.6-1.9-.3-.1-.6 0-.8.3-.2.2-.3.5-.3.8 0 .2 4.2 22.2 4.7 27.4.5 5.3 4.7 30.8 6.9 41.3 2.2 10.5 9.6 43.9 9.7 44.3.1.2 1.4 3.8 6.4 3.8 4.6 0 9.5-2.8 9.7-2.9.4-.2.5-.6.4-1-.1 0-1.6-6.7-1.2-17.4z" />
			<path class="st11" d="M459.8 747.5c.3-10.5 3.3-51 3.3-51.4 0-.3-.1-.5-.2-.7a.9.9 0 00-.7-.3h-31.3c-.5 0-.9.4-.9.9 0 .8-.3 18.4 0 21.6.1 1.2.4 3.3.8 5.8.6 4.1 1.3 9.2 1.3 10.7 0 1-.2 3.3-.4 5.9-.3 4-.7 9.1-.7 12.4 0 5.5 1.1 57.5 1.1 58.1.1 1.3.1 4.9-1 6.6-.2.3-.2.6 0 .9.1.3 1.5 2.9 8 3h.6c6 0 8.4-2.4 8.5-2.5.4-.4.4-.9 0-1.3 0 0-1.1-1.5.2-6.6 1.5-5.4 11.1-52.1 11.4-63.1z" />
			<path class="st14" d="M448.8 822.3c1-1.6 1.7-4.9-1.3-7.9-.1-.2-.3-.2-.6-.3l-13.9-1.7c-.3 0-.5.1-.7.2-.2.1-3.9 3.6-3.9 8.6 0 5.3-1 7-1.3 7.4-.5.6-.6 1.9-.7 5.8-.1 3.2-.3 7.5-1 9.1-.1.3-.1.6.1.9.2.3.5.4.8.4.1 0 9.5.3 13.2.8 3.6.4 6.7 1.8 6.7 1.8.1.1.2.1.4.1s.4-.1.5-.2c.3-.2.4-.5.4-.8-.1-3-.3-8.2 0-9.3.3-1.4 1.3-6.6 1.3-7.3v-2.7c-.1-.5-.1-1.6 0-2.1.1-.6 0-2.1 0-2.8z" />
			<path class="st14" d="M448.7 816.3c-.4-.2-.8-.1-1.1.2-.3.3-.3.8-.1 1.1 1 1.5.1 2.7 0 2.9-.3.4-.3.9.1 1.3 1 1 2.7 2.4 4 2.4.2 0 .4 0 .6-.1.5-.2 1-.7 1-1.9.1-3.5-4.3-5.8-4.5-5.9z" />
			<path class="st11" d="M447.4 846.5c0-.4-.3-.7-.7-.8-.3-.1-6.7-2-10.9-2.2-3-.2-6.5-.3-8.4-.4.2-.6.3-1.2.3-1.8.2-2.3.4-6.1.4-6.3 0-.5-.3-.9-.8-1l-17.9-1.7c-.4 0-.8.2-.9.5l-3.6 8c-.1.3-.1.7.1 1 .2.3.6.4.9.3 2-.4 7.8-1.2 10-.1l8.3 4.4c-.3.9-.7 1.9-1.1 3-2.6-1.6-9-5.6-11.8-5.6h-.1c-3.2 0-6.7 1.2-6.8 1.2-.2.1-.4.2-.5.4-.5.9-1.1 2.8 0 4.1.3.8 1.8 3.9 3.9 4.3h1c.4.4 1.1.6 2.5.6 1.3 0 2.1-.6 2.5-1.3.8.5 1.9 1.1 3.6 1.3h.5c1.5 0 2.8-.6 3.9-1.3-.3 1.3-.5 2.5-.5 3.5.1 2.8.4 8.7 6.2 9.3 2 .2 3.3.1 4.1-.3.6.6 1.5 1.3 2.7 1.3 1.4 0 2.5-.7 3.1-1.2.5.2 1.3.4 2.3.3.9-.1 1.4-.6 1.6-.9.1-.1.1-.2.2-.3.3 0 .7-.1 1.1-.2 1.1-.4 1.5-1.1 1.7-1.6.7-.5 1.8-1.6 1.8-2.7 0-.1.1-.4.2-.7.7-1.8 1.7-5.4 1.1-13.1z" />
			<path class="st14" d="M446.7 854.1c-.4-.1-9.9-2.3-15.9-2.1-7.4.3-8.8 1.9-9 2.8-.7 3.2.2 5.5.3 5.6.1.4.5.6.9.6h.3l5.3-1.7c5-1.6 17.2 0 17.3 0 .5.1 1-.3 1-.8l.6-3.3c0-.5-.4-1-.8-1.1zM433.7 812.7c-.5-.6-1.7-2.3-2-3.6-.1-.4-.1-.8-.1-1.3-.1-1.5-.2-3.3-2.3-4.8-.2-.2-.5-.2-.8-.1l-14.1 3.6c-.2.1-.4.2-.5.4-.1.1-2.2 3.3-2.2 6.5 0 1.9.4 3.1.8 3.8-2.4 2.8-2.1 3.7-1.9 4 .1.3.1 1.5 0 2.4l-2 9.4c-.1.3 0 .5.2.8.2.2.4.4.7.4l17.9 1.7h.1c.4 0 .8-.3.9-.7l5.6-21.5c-.1-.5-.1-.8-.3-1z" />
			<path class="st14" d="M415.6 807.1l-.6-2.7c-.1-.3-.2-.5-.5-.6-.2-.1-.5-.1-.8 0l-3.5 1.4c-.1 0-.2.1-.3.2-.1.1-1.6 1.4-1.6 3.5 0 1.1.5 1.6.9 1.9.4.3.9.4 1.6.4.8 0 1.7-.2 2.9-.6.2-.1.4-.2.5-.5l1.2-2.4c.2-.1.3-.4.2-.6zM426 845.1c-.3-.2-7.2-4.7-10.7-5.3-3.4-.6-9.4.4-9.7.4-.3.1-.6.3-.7.6-.2.6-1.1 3.7-1 5.2 0 .3.2.6.5.7.3.1.6.1.9-.1 0 0 2.6-1.6 5.9-1 3.5.6 11.8 5.9 11.9 5.9.2.1.3.1.5.1.1 0 .2 0 .3-.1.3-.1.5-.3.6-.6l1.8-4.9c.2-.3 0-.7-.3-.9z" />
			<path class="st11" d="M439.4 465.2c-.1-.2-.4-.4-.7-.4l-22.2-2.7c-.5-.1-.9.3-1 .7l-4 18.2c-.1.5.2.9.6 1.1l18.5 5.9h.3c.4 0 .7-.2.9-.6l7.7-21.5c.1-.2 0-.5-.1-.7zM400.1 478.6c-.2-.3-.5-.5-.8-.5-.5 0-12.3.1-17.2 3.2-5.2 3.1-7.9 8.1-8.8 26.4-.4 7.6-1.2 15.8-2 23.1-1.1 10.2-2 19-1.4 23.7l.3 2.1c0 .4.3.7.7.8h.2c.3 0 .6-.2.8-.4 8.9-13.6 21.9-26.1 22-26.3.2-.2.3-.5.3-.8l-3-25.3c.3-1.1 2-8.4 4.4-14.8 2.6-6.9 4.5-10.3 4.5-10.3.2-.3.2-.6 0-.9z" />
			<path class="st10" d="M475.8 636.4c-.6-19.7-9.8-69.6-10.2-71.7-.1-1.8-1.9-41.3-1.1-50.3.9-9.3-1.7-27.1-1.8-27.9-.1-.5-.5-.8-.9-.8-.3 0-32.4.2-38.1-1.4-5.7-1.6-20.1-7.8-20.2-7.9h-.1c-.1 0-3.6-1-6.2 4.5-2.2 4.6-7.8 20.9-7.8 23.7 0 .9.4 4.2 1.1 9.8 1.1 8.8 2.7 20.9 2.8 26.9.1 6.6-3.6 23-6.6 36.2-1.2 5.1-2.3 9.9-3 13.4-2.6 13-5.4 32.1-4.2 49.6 1.3 17.6 1 45.6-.1 47.7-.6 1-.7 2-.3 3 .7 1.5 2.6 2.7 5 3l.4.1c11.4 1.5 31.9 4 41.1 3.1 7.4-.7 17.7-.3 24.5 0 2.5.1 4.4.2 5.6.2h.8c.4 0 .9 0 1.4-.1 3.1-.1 7.3-.2 9.2-3.5 2.1-3.7 3.7-12.2 4.5-18.3.2-1.6.6-3.7 1.1-6.1 1.3-7.2 3.5-18 3.1-33.2z" />
			<path class="st14" d="M466.5 517.8c0-.1-3-8.7-2.2-22.3.1-1.1.2-2.2.4-3.6.7-6.2 2-16.6-1.9-43.3-4.6-31.8-13.5-39.9-22.9-46-8-5.1-13.1-2.6-14.5-1.8-8.8-1.4-17.5 9.3-19.9 20-.4 1.8-.6 3.7-.6 5.5-.5 1.4-4 12.1-5.3 18.1-.2.8-.4 1.7-.6 2.7-1.6 6.8-3.9 16.2-1.3 22.2.6 1.4 1.5 2.8 2.4 4.4 2.2 3.6 4.7 7.8 3.6 11.4-.7 2.4-2.9 4.4-6.6 6.1-5.5 2.6-9.7.2-9.9 0-.4-.2-.9-.2-1.2.2-.3.4-.3.9 0 1.2.1.1 8.3 9.1 19.1 3 7.5-4.2 11.6-14.6 12.3-30.8 3.7 3.1 9.7 6.8 18.6 3.1-7.3 13.3-5.3 22.4-2.1 32.8 4.3 13.7 30.6 18 31.7 18.2h.1c.3 0 .5-.1.7-.3.2-.1.3-.5.1-.8z" />
			<path class="st15" d="M439.7 524.2h-20.3a2 2 0 01-2-2v-38c0-1.1.9-2 2-2h20.3a2 2 0 012 2v38c0 1-.9 2-2 2z" />
			<path class="st11" d="M436.4 418.6c-2.8-4-5.5-5.9-8-5.7a5.8 5.8 0 00-4.1 2.6c-2 0-8.3.5-10.7 7.9-1.3 3.6-3.1 7.8-3.8 8.3-.4.3-.7.9-.9 1.7-.6-.9-1.3-1.8-2.1-2.1-.5-.2-1.1-.1-1.5.2-.7.6-1.4 1.9 0 10 .8 4.5 3.1 6.5 4.1 7.1v.1c.7 4.6 4.1 19.6 17.7 21.1.7.1 1.4.1 2 .1 4.8 0 8.1-1.9 10.1-3.6 3.2-2.7 4.8-6.3 4.9-7.9.3-2.6-.5-29.6-7.7-39.8z" />
			<path class="st8" d="M407.7 444.9c-1.3 0-2.2 1.5-2.2 3.6s.9 3.6 2.2 3.6c1.3 0 2.2-1.5 2.2-3.6s-.9-3.6-2.2-3.6zM434.4 516.3h-.2c-.5-.1-.9-.6-.8-1.1l.5-3.3c.1-.5.6-.9 1.1-.8.5.1.9.6.8 1.1l-.5 3.3c-.1.5-.5.8-.9.8z" />
			<path class="st11" d="M453.9 519.2c-.4-1-3.2-8.1-3.8-11.8-.8-5.4-11.5-8.3-12.7-8.6-3.7-1-9.2-.9-11.6-.2-.8.2-1.3.7-1.7 1.4-.2.5-.3 1.1-.3 1.6-2.1-.6-4.5-.9-5.9-.1-.6.3-.9.9-1 1.5-.2 1.4.8 2.7 3 3.9-.7-.1-1.4-.2-2.1.2-.7.4-1.2 1-1.5 2a3.24 3.24 0 001.5 4c0 .9 1 1.8 2.4 3 .3.3.6.5.8.7 1.5 1.4 10.9 5.9 11.8 6.3.5.2 1.6 1.3 3 3.7 1 1.7 3.8 2.6 5 2.8l7 16.4c3.2 8 12.8 18.5 18.6 22.9l-2.1-30.9-10.4-18.8z" />
			<path class="st11" d="M437.9 519.5h-.3l-18.4-6.3c-.5-.2-.8-.7-.6-1.2.2-.5.7-.8 1.2-.6l18.4 6.3c.5.2.8.7.6 1.2-.2.4-.5.6-.9.6z" />
			<path class="st8" d="M435.4 516.8c0 .7-.4 1.4-1 1.4s-1-.6-1-1.4.4-1.4 1-1.4 1 .6 1 1.4z" />
			<path class="st11" d="M418.3 505.8v-5.3c0-.3-.1-.5-.3-.7a.9.9 0 00-.7-.3l-6.2.3c.3-1.6.8-4.5.8-5.3 0-1-.3-2.6-1.3-3.4-.6-.5-1.3-.7-2-.5-2.1.3-3.7 4.9-4.2 6.8-.1.3-.9 2.3-1.4 4.2-.5-1.3-1.1-2.9-1.1-3.8-.1-1.4-.8-2.7-1.9-3.6-.4-.3-1.1-.7-1.9-.6-2 .4-2.6 2.6-2 6.9.7 4.8 2.6 8.8 3.1 9.7 0 .3 0 .8-.1.9h-.4c-.9-.1-3.3-1.4-5-2.4-.9-.5-1.8-1-2.5-1.3-1-.5-1.5-.6-1.9-.6-.8.1-1.6.6-1.9 1.4-.3.8-.4 2.1 1.2 3.9.5.6 1.3 1.3 2.2 2 2.1 1.6 4.6 3.1 5.4 3.5l1.9 3.7-5.5 8.2c-1.1 1.1-13.6 13.3-22.2 26.5-.1.2-.2.4-.1.6.9 7 2 16.5 11.7 16.6 4.3 0 16-13.7 18.2-18.7 1.5-3.3 4.2-11.8 8.2-25.2l.3-.9c.6-2.2 1.8-4.1 2.5-4.5.7-.4 4.4-1.8 6.5-2.6.4-.1.6-.5.6-.9V511c0-.2-.1-.5-.3-.7l-2.7-2.7 2.4-1c.4-.1.6-.4.6-.8z" />
			<g>
				<path class="st11" d="M438.6 508.1c-.2 0-.3 0-.5-.1l-4.6-2.8-8.4-1.2c-.5-.1-.9-.5-.8-1.1.1-.5.5-.9 1.1-.8l8.6 1.2c.1 0 .2.1.4.1l4.8 2.9c.4.3.6.8.3 1.3-.3.4-.6.5-.9.5z" />
			</g>
			<g>
				<path class="st10" d="M627.7 610.1c-.3-2.5-2-14.3-2-14.4l-.9-8.9c0-.5-.5-.8-.9-.8h-80.4c-.4 0-.7.2-.9.6-.1.4-1.4 3.6-1.4 5.1v4.4c-.3 2-6.3 37-2.5 57 1.3 7.1 3.4 14.9 5.6 23.1 4.1 15.3 8.7 32.6 9.2 48.3.5 14.6-.3 20.6-.9 25-.4 2.8-.7 5.1-.5 8.5.5 8.5 3.7 38.3 3.8 38.6 0 .2.1.3.2.5.1.1 2.9 3.5 8.5 3 5.4-.5 15.1-7.8 15.5-8.2.2-.2.4-.4.4-.7 0-.1.1-3.1.2-7.3l.2 9.8c0 .3.2.7.5.8.4.2 9.2 4.7 13.1 5.6 1.3.3 2.8.4 4.2.4 2.6 0 4.8-.4 5-.4.4-.1.7-.4.8-.8.3-1.6 6.6-40.2 6.3-46.6-.1-1.3-.2-2.8-.3-4.6-.5-6.8-1.3-17.1.3-24.7.7-3.3 3-12.5 5.8-23.1 5.3-20.7 11.9-46.5 12.5-53.1.7-9.8-1-34.4-1.4-37.1z" />
				<path class="st16" d="M585.2 606.2c-24.8 0-39.9-9.6-40.6-10-.4-.3-.6-.9-.3-1.3s.9-.6 1.3-.3c.2.1 15.8 10 40.7 9.7 24.9-.3 38.2-7.2 38.3-7.3.5-.2 1-.1 1.3.4.2.5.1 1-.4 1.3-.5.3-13.7 7.2-39.1 7.5h-1.2z" />
				<path class="st16" d="M585.9 637.6h-.2c-.5-.1-.8-.6-.7-1.1 1.7-7.8-.5-27.8-.8-29.9-.4-.7-1.9-3.4-2.9-5.8-1.3-3.3 1.8-5.9 1.9-6 .4-.3 1-.3 1.3.1.3.4.3 1-.1 1.3-.1.1-2.1 1.8-1.3 3.9 1.1 2.6 2.9 5.7 2.9 5.7.1.1.1.2.1.4.1.9 2.7 22.3.8 30.8-.2.3-.6.6-1 .6zM547.3 612.8c-.8 0-1.7-.1-2.4-.3-3.7-1.1-5.1-2-5.1-2.1-.4-.3-.5-.9-.2-1.3s.9-.5 1.3-.2c0 0 1.3.8 4.6 1.8 2.9.8 7.6-.8 9.8-1.6.3-.1.5-.2.7-.3.7-.3 2.1-3.9 2.8-7.5a.92.92 0 111.8.4c-.5 2.4-1.9 8.2-4.1 8.9l-.7.2c-1.9.8-5.4 2-8.5 2zM616.5 614.5c-2.6 0-5.6-.2-7-1-1.9-1.2-3.4-7.1-3.8-8.9a.92.92 0 111.8-.4c.8 3.3 2.1 7.1 3 7.7 1.2.8 5.8.9 9.5.6 2.3-.1 6.6-1.6 6.6-1.6.5-.2 1 .1 1.2.6.2.5-.1 1-.6 1.2-.2.1-4.5 1.5-7.1 1.7-.7.1-2 .1-3.6.1z" />
				<path class="st16" d="M586.7 603.5c-1.4 0-2.6-1.4-2.6-3 0-1.7 1.2-3 2.6-3 1.4 0 2.6 1.4 2.6 3s-1.1 3-2.6 3zm0-4.2c-.3 0-.7.5-.7 1.2s.4 1.2.7 1.2c.3 0 .7-.5.7-1.2s-.3-1.2-.7-1.2zM563.5 607.3h-.2l-2.4-.7c-.3-.1-.5-.4-.4-.7 0 0 .2-2.3 0-3.9-.2-1.8 1.4-6.9 1.6-7.5.1-.3.3-.4.6-.4h1.9c.2 0 .3.1.5.2.1.1.2.3.2.5s-.5 4.6-1.1 6.2c-.4.9-.2 4 0 5.6 0 .2 0 .4-.2.6-.2.1-.3.1-.5.1zm-1.7-1.8l1 .3c-.2-1.5-.3-4.2.2-5.4.4-.9.8-3.6 1-5.1h-.8c-.5 1.8-1.6 5.4-1.4 6.5.1 1.4 0 2.9 0 3.7zM604.5 608.8h-2.7c-.2 0-.5-.1-.6-.4-.5-1.1-.1-3.2.4-5.7.1-.5.2-.9.2-1.3.4-2.4-.6-5.9-.6-5.9-.1-.3.1-.7.4-.8l2-.6c.3-.1.7.1.8.4 1.1 3.5.9 6.6.6 8.1-.3 1.9 0 5.4 0 5.5 0 .2 0 .3-.2.5 0 .1-.2.2-.3.2zm-2.2-1.2h1.5c-.1-1.2-.2-3.5.1-5.1.2-1.3.4-3.9-.4-6.9l-.9.3c.3 1.2.8 3.8.5 5.8-.1.4-.2.9-.2 1.4-.4 1.5-.7 3.5-.6 4.5z" />
				<path class="st14" d="M646.9 557.5l-1.1-3.9.7-.4c.3-.2.5-.5.4-.8 0-.8-.8-19.5-1.6-25.5-.6-4.7-6.3-34.3-11.4-37.4-1.7-1-2.6-1.7-3.3-2.1-1.1-.7-1.4-.9-2.6-1.3-1.7-.5-7.1-1.1-8-1.1-1.4-.5-9.7-3.6-11.1-3.9-1.4-.3-41.4-1.2-49.4-1.4h-.2l-13.6 3.3c-2.7.1-14.4 3.2-17.5 9.6-3.2 6.6-14.7 48.8-15.5 53.2-.9 4.6-1.5 6.2-1.5 6.2-.1.2-.1.5 0 .7.1.2.3.4.6.5l3.6 1.1-.9 3.8c-.1.4.1.9.5 1.1l24.7 12.4c-.3 2.8-1.2 12.2 2.2 15.4 3.6 3.5 24.4 10.9 31.8 10.9h.7c2.2-.2 4.3-.6 6.3-1 3.7-.7 7.1-1.4 10.9-.5 6.3 1.6 9.8.5 11.5-.8 1.1-.8 5.9-2.1 11.7-3.1 4.4-.8 11.7-5.2 13.6-7.1.4-.4.8-.8 1.3-1.1 1.5-1.3 3.5-2.8 2.3-5.3-1-2.2-2.1-5.7-2.1-5.7l-1.8-8.3c3.7-.8 14.1-3.2 15.7-4.3 1.7-1.3 2.8-2.2 2.9-2.2.2-.3.3-.7.2-1z" />
				<path class="st16" d="M580.7 729.4c-.1 0-.1 0 0 0-.6 0-1-.5-.9-1l2.7-72.8c0-.5.5-.9 1-.9s.9.5.9 1l-2.7 72.8c-.1.5-.5.9-1 .9z" />
				<path class="st11" d="M598.6 459h-29.2c-.5 0-.9.4-.9.9v26.7c.1.4 13.9 41.5 14.5 46.5.1.4.4.8.8.8h.1c.4 0 .8-.2.9-.6.6-1.7 14.6-42.2 14.8-51.1V460c-.1-.6-.5-1-1-1z" />
				<path class="st15" d="M584.2 862.6c0-1.4 0-19.6-3.6-28.7 0-.1-.1-.1-.1-.2-.4-.5-3.8-5.2-7.3-5.2-3.3 0-9.4 3.9-10 4.4-.1.1-.3.2-.3.4-.2.4-4 8.8-4.1 13.6 0 1.4-.4 2.9-.7 4.3-.7 3.2-1.4 6.5.7 9.8.1 1.5 1.3 8.2 13.1 9.7 1.1.1 2 .2 3 .2 3.3 0 5.8-.8 7.4-2.5 2.2-2.4 2-5.3 1.9-5.8z" />
				<path class="st10" d="M618.5 475.7l.1-1.6c0-.4-.2-.8-.6-.9-.4-.2-.8 0-1.1.3-.4.5-.8.9-1.3 1.4-.2-.2-.3-.3-.5-.6 3.6-6.9-.8-21.5-2.2-25.7-1.1-12.9-4.3-31.3-14.1-38.7l-.1-.1c-.4-.2-10.8-5.6-16.2-4.8-2.2.3-21.3 3.8-24.7 24.4-.5 3.1-1 5.6-1.5 7.7-1.5 2-5.2 7.6-4.3 12.6-.2.9-.3 1.8-.2 3 .2 4.1.9 7.1 1.3 8.5-.7 1.8-2.2 7-1.2 12.3-4.4 4.6-8 6.5-11 5.6-.4-.1-.7 0-1 .3-.2.3-.3.7-.1 1 .1.2 2.5 4.9 10 5 4.6.1 7.5-.8 9.1-1.5.2.7.5 1.6 1.3 2.3 1.1 1.1 2.7 1.7 4.8 1.7h.9c6.7-.5 10.1-4 10.7-6.3.2-.7 1.6-1.8 2.5-2.6 1.3-1.1 2-1.7 2.2-2.4.1-.4-.1-.8-.4-1-.5-.4-1.1-.2-1.8.1-1.8.8-4 1.5-5.9-.3-1.3-1.2-1.3-2.6-1.1-5.2.2-2.5.3-5.6-1.3-9.4h28.8c-2.3 3.5-7.5 11.9-6.2 16.5 1.7 6.4 7.8 7.1 14.1 6.8 8.5-.4 10.7-2.9 11-5 .3-1.7.1-3 0-3.4zm-5.2-.8c-.2-.8-.3-1.9-.3-3.1.2.9.5 1.7.8 2.4-.1.2-.3.5-.5.7zm1.5.7c-.3.2-.6.3-.8.4l.6-.6.2.2zm-.2-2.8c-.7-2.1-1.1-5.2-1.3-8.4.1-.7.1-1.4.2-2 0-.1.1-3.4-.1-8.2 1.5 5.7 3 13.8 1.2 18.6zm-61.2-26.7c.4-1.7 1-3.3 1.8-4.7-.7 2-1.3 3.5-1.8 4.7zm.3 17.8c.2 2.4.2 5.6-.6 7.8-.4-2.9 0-5.7.6-7.8zM622.9 532.1h-.2c-.3-.1-.5-.4-.4-.8 2.2-7.4 1.2-35.4 1.2-35.7 0-.3.3-.6.6-.6.4 0 .6.3.6.6 0 1.2 1 28.6-1.2 36.1-.1.2-.3.4-.6.4zM539.2 519.5c-.2 0-.4-.1-.5-.3-4.6-6.7-8.2-22.8-8.4-23.5-.1-.3.1-.7.5-.7.3-.1.7.1.7.5 0 .2 3.7 16.6 8.2 23.1.2.3.1.7-.2.9-.1-.1-.2 0-.3 0zM538.4 545.9c-.2 0-.3-.1-.4-.2-9.3-9.1-9.2-38-9.2-39.2 0-.3.3-.6.6-.6s.6.3.6.6-.1 29.5 8.9 38.3c.2.2.2.6 0 .9-.2.1-.4.2-.5.2zM525.6 556.5h-.1l-9.1-2.2c-.3-.1-.5-.4-.5-.8.1-.3.4-.5.8-.5l9.1 2.2c.3.1.5.4.5.8-.2.3-.4.5-.7.5z" />
				<path class="st15" d="M603.8 846.3c-1.5-2.2-5.8-12.4-5.9-12.5-.1-.3-.5-.6-.9-.6h-17.3c-.3 0-.5.1-.7.3-.2.2-.3.4-.3.7 0 .9.8 21.2 3.5 28.7 2.6 7.2 11.1 7.9 14.3 7.9h1.1c.9-.1 8.5-.7 10.4-6.8 1.9-5.6-2.8-15.6-4.2-17.7z" />
				<path class="st11" d="M597.8 820c.7-2.3 1.8-5.8 2-6.2.2-.3.2-.6 0-.9-.1-.3-.4-.5-.7-.5l-17.5-3.1c-.3-.1-.6 0-.8.3-.2.2-.3.5-.3.8 0 .1 1.2 7 .7 11.1-.2 2.2-.9 4.1-1.5 5.8-.5 1.5-1 2.9-1 4v2.9c0 .3.1.5.3.7.2.2.4.3.7.3H597c.3 0 .6-.1.7-.4.2-.2.2-.5.2-.8-1-4-1.9-8.9-1.6-9.8.4-.7.9-2.3 1.5-4.2z" />
				<path class="st11" d="M580 825c-.7-1.4-1.8-6.8-1.1-17 0-.3-.1-.6-.3-.8-.2-.2-.5-.3-.8-.2l-16.5 2.5c-.3 0-.5.2-.7.4-.1.2-.2.5-.1.8 0 .1 3.1 9.2 3.1 12.9 0 1.8-.5 3.4-1 4.8-.5 1.6-1 2.9-.4 4l1.6 3.1c.1.2.3.4.6.5h.2c.2 0 .4-.1.6-.2 0 0 3.8-2.7 7.6-2.3 4 .4 6.8 1.5 6.8 1.5.3.1.6.1.9-.1.3-.2.4-.4.4-.7-.2-.7 0-7.1-.9-9.2zM603.3 435.5c-.6-2.2-2.9-8.7-3-9-1-2.8-4.3-3.4-9.3-1.7-2.2.7-19.3 8.8-22.5 13.5-3.2 4.8-1.7 19 0 22.1 1.6 2.8 12.7 14.5 18.5 14.5 4.8 0 9.8-5.7 12.3-8.5.4-.4.7-.8.9-1 1.7-1.7 4.8-14.5 4.8-16.8-.1-2.2-1-10.8-1.7-13.1z" />
				<path class="st16" d="M579.9 790.4c-.3-.2-.7-.1-.9 0-.1.1-8.3 5.4-10.6 6.6-1.6.8-6.5.5-9.5-.5-.7-.2-1.5-.1-2.1.3-.6.4-1 1.1-1 1.9 0 1.1 0 2.1.1 3.1 0 .1 1.2 9.1 4.4 9.4.5 0 1.3.2 2.2.3 2.2.3 5 .7 7.2.7.6 0 1.2 0 1.7-.1 3.2-.5 8-4.2 8.2-4.4.2-.1.3-.3.3-.5 1.1-3.4 3.7-14.9 0-16.8z" />
				<path class="st16" d="M605.7 799.3c-.8-1-2.1-1-2.3-1-10.5.2-15.5-3-18.1-4.7-.6-.4-1.1-.7-1.6-.9-1.2-.5-2-.3-2.5 0-1 .6-1.2 1.7-1.2 1.8-.2 1-2 10.2-1.7 12.6.4 2.9 3.9 5.3 10.5 7 2.2.6 3.8.8 5.1.8 1.4 0 2.3-.2 3.2-.4.7-.2 1.2-.3 2-.3 3.3 0 4.1-2.5 4.2-2.6.1-.3 2.7-8.2 3-10.2 0-1-.3-1.7-.6-2.1z" />
				<path class="st10" d="M547.3 547.3c-.3 0-.5-.2-.6-.5 0 0-1.4-5.1-2.5-9.4-1.1-4.4-1.9-34.9-1.9-36.2 0-.3.3-.6.6-.6.4 0 .6.3.6.6s.8 31.7 1.9 36c1.1 4.3 2.5 9.3 2.5 9.3.1.3-.1.7-.4.8h-.2zM644.8 553.8l-5.9-.1c-.3 0-.6-.3-.6-.6s.3-.6.6-.6l5.9.1c.3 0 .6.3.6.6 0 .4-.3.6-.6.6z" />
				<path class="st17" d="M567.1 850.2c-4.5 0-6.3-7.5-6.4-7.8-.1-.3.1-.7.5-.8.3-.1.7.1.8.5 0 .1 1.7 7.1 5.3 6.9 4.1-.2 11.7-1.1 11.8-1.1.3 0 .7.2.7.6 0 .3-.2.7-.6.7-.1 0-7.7.8-11.8 1.1-.1-.1-.2-.1-.3-.1zM579 856.1c-1.1 0-1.8-.6-2.4-1.2-.7-.6-1.3-1.1-2.3-1.2-1-.1-1.8.5-2.6 1.1-.8.6-1.7 1.3-2.9 1.3-2.3 0-7.7-4.4-8.3-4.9-.3-.2-.3-.6-.1-.9.2-.3.6-.3.9-.1 2.2 1.8 6.1 4.6 7.5 4.6.8 0 1.4-.5 2.1-1 .9-.7 1.9-1.5 3.5-1.4 1.4.1 2.3.9 3 1.5.7.6 1.1.9 1.7.9.8 0 1.6-.4 2.1-1 .4-.4.6-.9.5-1.3 0-.3.2-.6.6-.7.4 0 .6.2.7.6.1.8-.2 1.6-.8 2.2-.7.9-1.8 1.4-3 1.4-.1.1-.1.1-.2.1zM571.4 866.4c-8.4 0-12.1-5.3-12.2-5.5a.65.65 0 111.1-.7c0 .1 3.6 5.1 11.5 4.9 8.3-.1 10-.6 11.2-2.3.2-.3.6-.3.9-.1.3.2.3.6.1.9-1.6 2.2-3.8 2.8-12.2 2.9-.3-.1-.3-.1-.4-.1zM598.2 866.8c-2.8 0-5.9-.2-7.6-.4-3.4-.4-5.9-2.7-6-2.8-.3-.2-.3-.6 0-.9.2-.3.6-.3.9 0 0 0 2.3 2.1 5.3 2.4 3.3.4 10.6.6 12.1 0s4.1-3.4 4.2-4.1c0-.3.3-.6.6-.6s.6.2.6.6c.1 1.5-3.3 4.7-5 5.3-.9.4-2.9.5-5.1.5zM600.8 856.3c-1.9 0-4.4-1.6-5.6-2.4-.7.7-2.4 2-4.7 2.2-3.1.2-7.7-5.3-8.3-5.9-.2-.3-.2-.7.1-.9.3-.2.7-.2.9.1 1.8 2.2 5.4 5.6 7.2 5.5 2.5-.2 4.2-2.2 4.3-2.2.2-.2.6-.3.8-.1 1.8 1.3 4.7 2.9 5.8 2.3 1.2-.6 2-3.9 2.3-5.9.1-.3.4-.6.7-.5.3.1.6.4.5.7-.1.6-.9 5.8-3 6.9-.2.1-.6.2-1 .2z" />
				<path class="st17" d="M591.2 849.8c-7.2 0-9.5-4-9.5-4.2-.2-.3 0-.7.3-.8.3-.2.7 0 .8.3.1.2 2.2 3.9 9.4 3.5 7.9-.4 9.3-.9 9.2-3.6 0-.3.2-.6.6-.7.3 0 .6.2.7.6.2 4.2-3.2 4.5-10.4 4.9-.4-.1-.7 0-1.1 0zM584.9 836.6c-2 0-3.4-.7-3.7-1.6-.1-.4 0-1.1.8-1.4 1.4-.6 7.3.2 8.5.4.1 0 .2 0 .2.1.2.1.4.4.3.7-.1.5-.4.9-4.1 1.6-.7.2-1.4.2-2 .2zm-2.4-1.8c.3.3 1.7.9 4.2.4.4-.1.8-.2 1.1-.2-2.3-.3-4.7-.5-5.3-.2zM599.7 835.7c-2.8 0-6.2-1-6.4-1-.2-.1-.4-.2-.4-.4-.1-.2 0-.4.1-.6.4-.5 4.2-4.5 7-4.1 1.8.2 2.8 2 2.8 3.6 0 1.5-1 2.5-2.4 2.6-.2-.1-.5-.1-.7-.1zm-5-2c1.4.3 3.8.8 5.6.7 1-.1 1.2-.9 1.2-1.4 0-1-.6-2.2-1.7-2.3-1.4-.2-3.7 1.7-5.1 3z" />
				<path class="st17" d="M588.6 845c-.3 0-.6-.3-.6-.6 0-3.9 3.5-9.4 3.6-9.7l.3-.3c3-1.1 11.1-4.3 12.3-6.2a.65.65 0 111.1.7c-1.6 2.6-10.9 6-12.7 6.7-.6 1-3.3 5.7-3.3 8.8-.1.3-.4.6-.7.6z" />
				<path class="st17" d="M588.6 839.7c-.2 0-.5-.1-.6-.4-.1-.3 0-.7.3-.8.2-.1 5.3-2.1 7.5.1.2.2.2.6 0 .9-.2.2-.6.2-.9 0-1.4-1.4-4.9-.4-6.2.1 0 .1 0 .1-.1.1z" />
				<path class="st17" d="M588.6 842c-.2 0-.5-.1-.6-.4-.1-.3 0-.7.3-.8.2-.1 5.3-2.1 7.5.1.2.2.2.6 0 .9-.2.2-.6.2-.9 0-1.4-1.4-4.9-.4-6.2.1 0 .1 0 .1-.1.1z" />
				<path class="st17" d="M589.1 844.2c-.2 0-.5-.1-.6-.4-.1-.3 0-.7.3-.8.2-.1 5.3-2.1 7.5.1.2.2.2.6 0 .9-.2.2-.6.2-.9 0-1.4-1.4-4.9-.4-6.2.1.1.1 0 .1-.1.1zM589.8 847.4c-.2 0-.5-.1-.6-.4-.1-.3 0-.7.3-.8.2-.1 5.3-2.1 7.5.1.2.2.2.6 0 .9-.2.2-.6.2-.9 0-1.4-1.4-4.9-.4-6.2.1 0 .1 0 .1-.1.1zM588.3 837.5c-.2 0-.5-.1-.6-.4-.1-.3 0-.7.3-.8.2-.1 5.3-2.1 7.5.1.2.2.2.6 0 .9-.2.2-.6.2-.9 0-1.4-1.4-4.9-.4-6.2.1.1.1 0 .1-.1.1zM567.5 836.6h-.5c-3.1-.1-5.4-1.1-6.2-2.9-.4-.9-.2-1.9.4-2.6 1.4-1.6 8.4 1.1 11.3 2.3.2.1.4.3.4.6 0 .1 0 .7-.6 1.3-.9.9-2.5 1.3-4.8 1.3zm-4.7-4.8c-.3 0-.5 0-.6.1-.3.3-.4.8-.2 1.3.4 1 2 2 5.1 2.1 2.8.1 4-.5 4.5-1-3.8-1.4-7.4-2.5-8.8-2.5z" />
				<path class="st17" d="M590.4 835.3c-.3 0-.6-.2-.6-.5-.1-.3.1-.7.5-.7l3.1-.6c.3-.1.7.1.7.5.1.3-.1.7-.5.7l-3.1.6h-.1zM576.1 835c-1.1 0-2.4-.1-3.9-.4-.2 0-.4-.2-.5-.5-.1-.2 0-.5.2-.6 1.5-1.2 5.1-3.9 6.6-2.8.7.6 1.6 1.8 1.1 2.9-.4 1-1.5 1.4-3.5 1.4zm-2.2-1.4c4 .5 4.6-.3 4.6-.5.2-.4-.3-1.1-.8-1.4-.3-.2-1.9.6-3.8 1.9z" />
				<path class="st17" d="M580.9 847c-.3 0-.6-.2-.6-.5-1.8-9-7.1-10.9-7.9-11.2-4.9 1.2-12.8 3.6-13.8 5.4-.2.3-.5.4-.8.2-.3-.2-.4-.5-.2-.8 1.6-2.9 13.4-5.8 14.8-6.1h.3c.3.1 6.9 1.7 9 12.2.1.3-.2.7-.5.7-.2.1-.3.1-.3.1z" />
				<path class="st17" d="M569.6 847.6c-.3 0-.5-.2-.6-.4-.1-.3.1-.7.4-.8.2-.1 4.8-1.6 7.6-.6.3.1.5.5.4.8-.1.3-.5.5-.8.4-2.4-.9-6.8.6-6.8.6h-.2zM569.6 844.6c-.3 0-.5-.2-.6-.4-.1-.3.1-.7.4-.8.2-.1 4.8-1.6 7.6-.6.3.1.5.5.4.8-.1.3-.5.5-.8.4-2.4-.9-6.8.6-6.8.6h-.2zM569.6 841.6c-.3 0-.5-.2-.6-.4-.1-.3.1-.7.4-.8.2-.1 4.8-1.6 7.6-.6.3.1.5.5.4.8-.1.3-.5.5-.8.4-2.4-.9-6.8.6-6.8.6 0-.1-.1 0-.2 0zM569.6 839.3c-.3 0-.5-.2-.6-.4-.1-.3.1-.7.4-.8.2-.1 4.8-1.6 7.6-.6.3.1.5.5.4.8-.1.3-.5.5-.8.4-2.4-.9-6.8.6-6.8.6 0-.1-.1 0-.2 0z" />
				<path class="st11" d="M568.3 442.7c-.4-.2-.7-.1-1 .2-.2.1-1 0-2.4-1.4-1.2-1.2-2.3-1-3.1-.4-2.1 1.6-1.9 7.3 2 13.6.1.2.4.4.7.4h.1c.2 0 .5-.1.7-.3l2.9-2.9c.2-.2.3-.4.3-.6l.3-7.7c0-.3-.2-.7-.5-.9z" />
				<path class="st8" d="M566.4 452.9c0 .9-.5 1.6-1.1 1.6-.6 0-1.1-.7-1.1-1.6s.5-1.6 1.1-1.6c.6 0 1.1.7 1.1 1.6z" />
				<path class="st11" d="M580.1 507.4c-.1-.3-.2-.5-.5-.6-.2-.1-.5-.1-.8 0l-2.7 1.1 1.9-3.2 2.3-1.8c.2-.1.3-.3.3-.6l.9-5c.1-.4-.1-.7-.4-.9a.9.9 0 00-1 0l-7.3 4.2-.3.3-2.9 4.6-.5-1.7.9-2.7c1.1-.3 2.8-.9 3.3-1.7.3-.4 1.5-2.4.6-3.8-.9-1.3-2.9-.8-3.6-.7-4.5 1.1-6.4 4-6.5 4.1l-1.5 2.6c-.7 0-1.5 0-2 .1-1.1.4-4.6 1.8-4.2 4.6.3 2.2.5 5.1.5 5.2 0 .2.1.3.1.4l3.8 6v11c-1 .9-3.3 3.2-3.4 4.9-1.2 3.3-17.4 19.4-19.1 19.7-.5.1-.6 0-.9-.3-1.2-1.1-2.7-1.8-9.8.4-.3.1-.6.4-.6.7-.2.9-1.6 8.6.4 11.8.4.6.9 1.9 1.4 3.4 1.7 4.9 4.1 12.2 10.7 12.2h.3c9.3-.4 25.7-34.5 26.6-36.8 1.5-4.1 7.2-9.7 9.2-10.9l.9-.6c2.4-1.5 5.3-3.3 6-5.2.7-1.8 1.5-4.6 1.5-4.8v-.5l-3.6-15.5zm-18-.8l.5-.3.4 2.3-.5-.3-.4-1.7z" />
				<path d="M585 483.1l17.7 1.2c1.5.1 2.6 1.5 2.4 3l-5.4 34.5c-.2 1.4-1.4 2.4-2.8 2.3l-17.2-1c-1.8-.1-3.1-1.7-2.8-3.5l5.1-34.2c.2-1.3 1.5-2.4 3-2.3z" fill="#4d31e2" />
				<path class="st11" d="M639.8 553c0-.4-.3-.7-.6-.8-1.5-.6-4-1.6-4.5-2.3-.2-.2-5.4-5.9-9.3-15.1-1.2-3-2.3-5.6-3.2-8-1.8-4.7-2.9-7.5-4.1-8.7-.6-1-4.9-8.2-5.6-10.1-.9-2.2-4.8-6.3-5.3-6.8l-1.5-1.4-6.1-5.4a3.2 3.2 0 00-3.8-.5c-.8.4-1.1 1-1.2 1.5-.2.8.1 1.8.9 2.9.6.8 1.2 1.6 1.9 2.3 2.1 2.5 4.1 4.9 3.5 7.2-.3 1.1-.6 1.3-.6 1.3-.2 0-.8-.4-1.1-.6-.4-.2-.8-.5-1.2-.7-1.2-.5-12-4.4-13.5-4.4-1.7 0-2.9.4-3.7 1.1-.5.5-.7 1.2-.7 2 .1 3 3.4 3.5 5.1 3.8 1.7.3 8.4 3.5 12.6 5.6.1.3.2.6.1.8-.1.1-.4.3-1.6.2-4.1-.4-7.7-1.3-8.9-2.2-1.5-1.1-2.4-1.5-3.7-1.4-.7.1-2 .5-2.4 1.5-.2.5-.3 1.4.7 2.5 1.5 1.7 5.4 4.3 7.6 5.1l-3.1.2c-.3 0-.7.2-.8.5-.1.3-.1.7.1 1 .3.4 2.7 3.5 4.7 4 .6.1 1.6.4 2.8.6 2 .4 5.8 1.2 6.3 1.5.7.6 5.1 1.8 7.9 2.5.5.7 1.8 3.3 2.5 8.8l.1 1c1.1 8.6 3.7 28.7 10.6 34.7 2.8 2.4 4.9 3.6 6.9 3.6h.3c2.2-.2 3.5-1.7 4.8-3.3.2-.3.5-.6.7-.8 1.1-.7 7.7-8.6 6.4-23.7z" />
			</g>
			<g>
				<path class="st14" d="M716.6 839.4c0-2.1-.8-5.7-.9-5.8-.1-.2-.2-.4-.4-.6l-11.9-8c-.2-.1-.5-.2-.7-.1l-9 2.1c-.3.1-.6.3-.7.6l-1 3.3c-.2.7-4.4 16.3-4.7 18.7-.1.6-.3 1.6-.6 2.7-.7 2.8-1.5 6.4-1 8.5.8 2.9 5.1 10.6 15.4 10.6 6.8 0 14.6-.9 14.6-7.9v-.5c.2-.7.9-3.7.8-6.4-.1-2.7-.8-6.4-.9-7.2.2-1.1 1-8.2 1-10zM775 861.1s-.6-2.4-1-4.4c-.4-2.2-3.3-6.7-3.7-7.2 0 0-3.3-4.7-5.1-7.7-1.7-3.1-4.2-8-4.3-8.1-.1-.1-.1-.2-.3-.3-.2-.2-4.8-3.8-11.7-2.6-6.7 1.2-11.4 4.7-11.6 4.9l-.2.2c-.1.1-2 3-1 5.6.6 1.5 1.2 2.4 1.6 2.9l-.9 4.2c-.1.4.1.7.3.9l5.7 4.3c.2 1.5.8 6.3 2.3 8.1.3.4.3.6.3 1.1 0 1.4.3 2.7 4 5 4.6 2.8 9.1 3.6 13.3 3.6 1.4 0 2.8-.1 4-.2 5.6-.5 8-2.3 8.2-6.4.2-1.5.3-3.4.1-3.9z" />
				<path class="st10" d="M755.5 845.3c-.4 0-.8-.3-.9-.7l-3.3-12.2c-.1-.5.2-1 .7-1.2.5-.1 1 .2 1.2.7l.9 3.3-.2-3.7c0-.5.4-1 .9-1s1 .4 1 .9l.8 12.9c0 .5-.3.9-.8 1h-.3z" />
				<path class="st10" d="M763.7 847.3c-.8 0-1.7-.3-2.9-.6l-1.2-.3c-1.9-.5-3.4-.2-5.2.2-.9.2-2 .4-3.2.6a8.8 8.8 0 01-8.5-4.7c-.8-1.7-3.6-4.1-4.7-4.9-.4-.3-.5-.9-.2-1.3s.9-.5 1.3-.2c.2.1 4 3.1 5.2 5.6 1 2.1 3.7 4 6.6 3.7 1.1-.1 2-.3 3-.5 2-.4 3.8-.8 6.1-.2.4.1.8.2 1.2.4.9.3 2 .5 2.4.6v-.3c-.3-1.7-2-5-2.7-6.1-.3-.4-.1-1 .3-1.3.4-.3 1-.1 1.3.3.1.2 2.5 4.3 2.9 6.7.1.3.2 1.4-.5 2.1-.2.1-.7.2-1.2.2zM743.8 854.2a.9.9 0 01-.9-.9c-.1-1.1-.5-4.2-.9-5.4-.4-.9-2.3-2.4-3.6-3.1-.4-.3-.6-.8-.3-1.3.3-.4.8-.6 1.3-.3.6.4 3.7 2.3 4.4 4 .7 1.6 1 5.5 1.1 5.9-.1.6-.5 1.1-1.1 1.1zM763.3 868.9h-.6c-9.1-.1-16.7-5.8-17-6-.4-.3-.5-.9-.2-1.3s.9-.5 1.3-.2c.1.1 7.4 5.6 15.8 5.7 6.5.1 9-.7 10.3-5.2.1-.5.7-.8 1.2-.7.5.1.8.7.7 1.2-1.7 5.8-6 6.5-11.5 6.5zM702.6 868.3c-1 0-2.1 0-3.2-.1-10.1-.6-13.5-8-13.6-8.3-.2-.5 0-1 .5-1.2.5-.2 1 0 1.2.5.1.3 3.1 6.7 12 7.2 11.2.6 13.5-2.1 14-3.3.2-.5.7-.7 1.2-.5.5.2.7.7.5 1.2-.9 2.1-3.8 4.5-12.6 4.5zM708.5 847.9h-.5c-2.2-.1-3-1.1-3.6-1.8-.1-.1-.2-.3-.3-.4-.2-.2-.9-.6-1.5-.5-.3 0-.5.1-.6.3-.8 1.2-2.7 2.5-7.1 2.4-.9 0-1.7-.4-2.2-1-1.4-1.7-.9-5.2-.6-7.3.1-.4.1-.8.1-1 0-.8-.3-1-.3-1-.4-.3-.6-.8-.3-1.3.3-.4.9-.6 1.3-.3.1.1 1.3.8 1.2 2.7 0 .3-.1.7-.2 1.2-.2 1.5-.7 4.7.2 5.8.1.2.3.3.8.3 2.8.1 4.8-.5 5.6-1.6.5-.6 1.2-1 2.1-1.1 1.1-.1 2.4.4 3 1.1.1.2.3.3.4.5.5.6.8 1 2.1 1.1 2.8.1 4.8-.6 4.9-1 .3-.8 1-4.9 1.3-7.3.1-.5.5-.9 1.1-.8.5.1.9.5.8 1.1-.1.6-.9 6.4-1.4 7.7-.8 2-4.7 2.2-6.3 2.2z" />
				<path class="st10" d="M702.7 845c-.1 0-.1 0 0 0-.5 0-.9-.3-.9-.8l-2.2-14.2c-.1-.5.3-1 .8-1.1.5-.1 1 .3 1.1.8l1.5 9.5 2.1-9.1a.92.92 0 111.8.4l-3.2 13.7c-.2.5-.6.8-1 .8z" />
				<path class="st10" d="M778 617.1c-1-5.8-1.3-11-1.3-11.1 0-.5-.5-.9-1-.9l-94.3 3.5c-.5 0-.8.4-.9.8-.2 1.2-3.9 28.5-2.8 40.8 1.1 12.1-.2 23.4-.2 23.5v.2c.1 1 3 24.7 4.7 32 1.7 7.4 3.1 32.1 1.5 36.1-1.8 4.7-1.8 24.4 1.9 33.8 3.7 9.3 4.2 39.7 3.9 42.2-.4 3 2.2 12.3 2.5 13.3.1.3.3.6.6.6.3.1.6 0 .9-.2 1.8-1.6 7.2-5.4 10.4-3.6 4.4 2.5 12.2 7.5 12.2 7.6.2.1.5.2.7.1.2-.1.5-.2.6-.4.4-.6 3.8-6.1 4.1-8.5.3-1.9-.7-7.2-1.8-12.3-.1-.5-.2-.9-.2-1.2-.1-.8-.3-10.1-.6-20-.5-21.1-1-37.4-1.4-39.5-.7-3.4-3.1-14.5-3.5-16.1.3-1.7 2.5-13.1 2.3-18.1-.2-4 7.8-41.9 12.2-62.1l1 .2.7 27.2c0 .5-.3 13.3 2.6 21.2 2.1 6 2.4 12.7 2.6 16.7 0 1.2.1 2.1.2 2.7.3 2.6 2.2 6.6 2.8 7.7-.5 3-4.2 25.7-3.2 32 1 6.3-1.6 38.6-2.6 41-1 2.5-3.2 11.3-2.9 14.3.4 3.6 1.1 7.9 2.6 9.7 1.3 1.5 3.3 3.6 3.8 4.2l1 2.3c.1.3.3.4.6.5h.3c.2 0 .4-.1.5-.2.1 0 7.1-4.6 12.7-4.7 5.4-.1 8.7 2.7 8.7 2.7.3.3.7.3 1.1.1.3-.2.5-.6.5-1 0-.1-.4-2.2 1.3-3.5 2.6-2 4.2-10.4 2.9-12.9-.4-.8-1-1.3-1.6-1.9-1.4-1.3-2.8-2.5-2-6.7.3-1.6.9-4.4 1.7-8 2.5-11.3 6.3-28.5 6.2-34-.1-3.6-.4-12.7-.7-21.5-.3-8.9-.7-17.3-.7-19.5 0-1.9.3-4.4.5-7.1.4-3.6.7-7.2.6-10.4-.1-2.3 1.4-10.8 3.1-20.5 2.2-12.5 4.7-26.7 5.1-34.7.5-6.6 1.5-28.7.1-36.4z" />
				<path class="st14" d="M731.4 642.7c-.5 0-.9-.4-.9-.8 0-.5.3-1 .8-1 5.7-.5 6.2-7.9 6.2-8.2l-1.1-20.6c0-.5.4-1 .9-1s1 .4 1 .9l1.1 20.7c-.2 3.3-2.1 9.4-8 10zM728.9 639.9a.9.9 0 01-.9-.9l-.8-25.9c0-.5.4-.9.9-1 .5 0 1 .4 1 .9l.8 25.9c-.1.5-.5 1-1 1zM774 614.1c-8.2 0-12.6-4-12.8-4.2-.4-.4-.4-.9 0-1.3s.9-.4 1.3 0c.1.1 5 4.4 14 3.5.5-.1 1 .3 1 .8s-.3 1-.8 1c-1.1.1-1.9.2-2.7.2zM687.9 617.2c-2.1 0-4.6-.3-7.4-.9a.92.92 0 11.4-1.8c8 1.7 11.1.5 12.2-.4.9-.7 1-1.5 1-1.5 0-.5.4-.9 1-.9.5 0 .9.4.9.9 0 .2 0 1.7-1.6 2.9-1.5 1.2-3.6 1.7-6.5 1.7z" />
				<path class="st15" d="M795.2 510.3c-.6-1.8-1.1-3.5-1.2-4.3-.1-.7-.2-5-.2-9.9-.3-16.4-.6-32.6-1.7-35.7-.2-.5-.3-1.1-.5-1.6-1.4-4.6-3.2-10.4-10.7-11.2-8.2-.9-22.1-3.6-23.4-4.4-1.1-1-2.2-1.1-3.6-1.2-.3 0-.6-.1-1.1-.1l-44.3-1.9h-.2c-.1 0-2.8.5-4.4 1.5-1.3.8-3.8 1.4-3.9 1.5-.2.1-17.1 5.5-20 5.9-.2 0-.5.1-.7.1-3.5.5-11.8 1.6-13.9 10.9-2.1 9.2-6.3 38.7 0 65.1 4.9 20.4 13.8 27.2 17.5 29.2 1.7.9 3.3 1.4 4.7 1.5-1.8 6.5-9.4 33.7-8.9 38.4.3 2.7 1 3.5 1.7 4.2.3.3.6.5.4 2.2-.3 4.2-.3 9.1-.3 9.1 0 .4.3.8.7.9.2 0 15.6 4.6 31 4.6 1.5 0 3.1 0 4.6-.1 7.9-.5 13.6-1.2 18.3-1.7 5.1-.6 8.5-1 11.1-.7 5.1.5 29.7-5.5 30.8-5.8.5-.1.8-.6.7-1l-1-7.3c.4-.2 1-.5 1.4-1.1.7-.9.9-2.2.7-3.8l-.1-.5c-2-11.9-2.9-19.2-2.7-21.7.3-4.2-1.1-13-2.3-15.9-.4-.9-.6-1.7-.8-2.4.2.1.3.1.5.1 2.5.5 5.7-.6 9.5-3.3 8.7-6.3 10.4-13.4 10.9-19.6.3-4.3 1.5-7.1 2.4-9.2.3-.8.6-1.5.8-2.2.4-1.6-.4-4.5-1.8-8.6z" />
				<path class="st11" d="M707.5 402.8c0-.1-.1-.3-.2-.4-.1-.1-1.6-2.1-3.8-1.9-.4 0-1 .2-1.5.9-1.1 1.6-1 5.6-.6 7.1.1.2.1.5.2.9 1 4.2 2.3 8.7 4.8 9l2.3.3h.1c.3 0 .5-.1.7-.3.2-.2.3-.5.3-.8l-2.3-14.8z" />
				<path class="st11" d="M753.6 442.3c-.2-.3-.5-.5-.8-.5 0 0-4.6-.1-7-2.7-1-1.1-1.5-4.7-1.4-6.5 0-.4-.2-.7-.5-.9L709 417.6c-.3-.2-.7-.1-1 .1-.3.2-.4.6-.3 1 2.2 8 3.8 19.9.6 21.2-.3.1-.5.3-.5.6-.1.3-.1.5.1.8.2.3 4.6 7.3 23.3 8h2.5c16.6 0 19.9-5.9 20-6.2.1-.2.1-.5-.1-.8z" />
				<path class="st11" d="M750.6 414.5c-.3-4.5-1.1-13.4-.8-15.5.3-2 5.2-25.1-19.7-28.7 0 0-14.4-2.5-23 11.4s5.5 52.2 9.5 57.2c4.1 5 10.5 6.9 17 5 6.6-1.9 9.5-9.2 12.5-13.6 3.1-4.4 4.8-11.3 4.5-15.8z" />
				<path class="st11" d="M752.4 399.7a3.1 3.1 0 00-3.1 0c-.3.1-.5.4-.5.7-.4 3.4 1 7.2 1.1 7.3.1.4.5.6.9.6s.7-.3.9-.7c2.2-6.9 1.1-7.6.7-7.9z" />
				<path class="st19" d="M693 517.3c-.2 0-.3 0-.5-.1-.5-.3-.6-.8-.4-1.3.5-.9 5-8.8 6.6-10.2 1.6-1.4 8.9-5.6 9.7-6.1.4-.3 1-.1 1.3.4.3.4.1 1-.4 1.3-2.2 1.2-8.1 4.7-9.4 5.8-1.1.9-4.4 6.5-6.2 9.8-.1.2-.4.4-.7.4zM693.7 552.3a.9.9 0 01-.8-.4c-.3-.4-.2-1 .3-1.3 4.8-3.2 15.5-14.6 18.3-18.8 2.7-4 4.2-16.5 4.2-16.6.1-.5.5-.9 1-.8.5.1.9.5.8 1-.1.5-1.6 13.1-4.5 17.4-2.9 4.3-13.7 15.9-18.9 19.3 0 .1-.2.2-.4.2z" />
				<path class="st19" d="M694.1 515.3c-.4 0-.8-.3-.9-.7l-13-47.3c-.1-.5.2-1 .7-1.2.5-.1 1 .2 1.2.7l13 47.3c.1.5-.2 1-.7 1.2h-.3zM787.3 527c-.4 0-.8-.3-.9-.7-.7-2.5-4.6-4.6-6-5.2-.2-.1-.4-.2-.5-.4-.2-.4-5.3-9.6-6.4-11.9-.7-1.4-4.1-2.9-6.1-3.6-.5-.2-.8-.7-.6-1.2.2-.5.7-.8 1.2-.6.6.2 6.1 1.9 7.3 4.6 1 2.1 5.3 10 6.2 11.5 1.3.6 5.9 2.9 6.8 6.3.1.5-.2 1-.7 1.2h-.3zM767.6 548.8c-.1 0-.2 0-.3-.1-1.3-.5-3.3-3.5-6.6-8.8-.4-.7-.8-1.2-1-1.6-.9-1.4-2.1-5.2-3.2-8.9-.7-2.4-1.5-4.8-1.8-5.5-1.1-2-.2-6.2-.1-6.7a.92.92 0 111.8.4c-.3 1.6-.7 4.4-.1 5.4.4.8 1 2.7 2 5.8 1 3.3 2.2 7.3 3 8.5.3.4.6 1 1 1.7 1.3 2.1 4.7 7.6 5.7 8.1.5.2.7.8.5 1.2-.2.3-.5.5-.9.5z" />
				<path class="st19" d="M771.7 507h-.2c-.5-.1-.8-.6-.7-1.1l8.1-36.7a.92.92 0 111.8.4l-8.1 36.7c-.1.4-.4.7-.9.7zM711.8 601.5h-.5c-3.4-.3-29.6-2.2-29.9-2.2-.5 0-.9-.5-.9-1s.5-.9 1-.9c.3 0 26.5 1.9 29.9 2.2 2.7.2 32.3-3 43.4-4.2h.2l18.7 1.1c.5 0 .9.5.9 1s-.5.9-1 .9l-18.6-1.1c-2.4.2-37.6 4.2-43.2 4.2z" />
				<path class="st20" d="M722.6 425.5c-.1 0-.2 0-.2-.1-.3-.1-.4-.5-.3-.8l.3-.7c.1-.3.5-.4.8-.3.3.1.4.5.3.8l-.3.7c-.1.2-.3.4-.6.4zM724.3 425.5c-.1 0-.2 0-.2-.1-.3-.1-.4-.5-.3-.8l.3-.7c.1-.3.5-.4.8-.3.3.1.4.5.3.8l-.3.7c-.1.2-.4.4-.6.4zM725.8 425.5c-.1 0-.2 0-.2-.1-.3-.1-.4-.5-.3-.8l.3-.7c.1-.3.5-.4.8-.3.3.1.4.5.3.8l-.3.7c-.2.2-.4.4-.6.4zM727.5 425.6h-.2c-.3-.1-.4-.5-.3-.8l.3-.7c.1-.3.5-.4.8-.3.3.1.4.5.3.8l-.3.7c-.1.2-.3.3-.6.3z" />
				<path class="st20" d="M728.7 425.8c-.1 0-.2 0-.2-.1-.3-.1-.4-.5-.3-.8l.3-.7c.1-.3.5-.4.8-.3.3.1.4.5.3.8l-.3.7c-.2.3-.4.4-.6.4zM734.3 425.8c-.1 0-.2 0-.2-.1-.3-.1-.4-.5-.3-.8l.3-.7c.1-.3.5-.4.8-.3.3.1.4.5.3.8l-.3.7c-.1.3-.4.4-.6.4zM736.1 425.5c-.1 0-.2 0-.2-.1-.3-.1-.4-.5-.3-.8l.3-.7c.1-.3.5-.4.8-.3.3.1.4.5.3.8l-.3.7c-.2.2-.4.4-.6.4zM737.5 425.5c-.1 0-.2 0-.2-.1-.3-.1-.4-.5-.3-.8l.3-.7c.1-.3.5-.4.8-.3.3.1.4.5.3.8l-.3.7c-.2.2-.4.4-.6.4z" />
				<path class="st20" d="M738.7 425.5h-.2c-.3-.1-.4-.5-.3-.8l.3-.7c.1-.3.5-.4.8-.3.3.1.4.5.3.8l-.3.7c-.1.1-.3.3-.6.3z" />
				<path class="st20" d="M740 425.5c-.1 0-.2 0-.2-.1-.3-.1-.4-.5-.3-.8l.3-.7c.1-.3.5-.4.8-.3.3.1.4.5.3.8l-.3.7c-.1.2-.4.4-.6.4zM741.2 426c-.1 0-.2 0-.2-.1-.3-.1-.4-.5-.3-.8l.3-.7c.1-.3.5-.4.8-.3.3.1.4.5.3.8l-.3.7c-.1.3-.3.4-.6.4z" />
				<path class="st20" d="M742.4 426c-.1 0-.2 0-.2-.1-.3-.1-.4-.5-.3-.8l.3-.7c.1-.3.5-.4.8-.3.3.1.4.5.3.8l-.3.7c-.1.3-.3.4-.6.4zM721 426c-.1 0-.2 0-.2-.1-.3-.1-.4-.5-.3-.8l.3-.7c.1-.3.5-.4.8-.3.3.1.4.5.3.8l-.3.7c-.2.3-.4.4-.6.4zM719.4 426.5c-.1 0-.2 0-.2-.1-.3-.1-.4-.5-.3-.8l.3-.7c.1-.3.5-.4.8-.3.3.1.4.5.3.8l-.3.7c-.2.3-.4.4-.6.4zM727.7 436c-.1 0-.2 0-.2-.1-.3-.1-.4-.5-.3-.8l.3-.7c.1-.3.5-.4.8-.3.3.1.4.5.3.8l-.3.7c-.2.3-.4.4-.6.4zM729 436.7c-.1 0-.2 0-.2-.1-.3-.1-.4-.5-.3-.8l.3-.7c.1-.3.5-.4.8-.3.3.1.4.5.3.8l-.3.7c-.2.3-.4.4-.6.4zM730.5 437.1c-.1 0-.2 0-.2-.1-.3-.1-.4-.5-.3-.8l.3-.7c.1-.3.5-.4.8-.3.3.1.4.5.3.8l-.3.7c-.2.3-.4.4-.6.4zM732.2 437.1c-.1 0-.2 0-.2-.1-.3-.1-.4-.5-.3-.8l.3-.7c.1-.3.5-.4.8-.3.3.1.4.5.3.8l-.3.7c-.2.3-.4.4-.6.4zM733.8 436.7c-.1 0-.2 0-.2-.1-.3-.1-.4-.5-.3-.8l.3-.7c.1-.3.5-.4.8-.3.3.1.4.5.3.8l-.3.7c-.1.3-.3.4-.6.4z" />
				<path class="st20" d="M734.8 436.5c-.1 0-.2 0-.2-.1-.3-.1-.4-.5-.3-.8l.3-.7c.1-.3.5-.4.8-.3.3.1.4.5.3.8l-.3.7c-.2.3-.4.4-.6.4z" />
				<path class="st14" d="M740 433.5c-.8 1-3.4 6.7-9.5 7.4-6.1.7-10.6-6.8-12.1-9.4s-4.2-3.8-5.1-5.5c-3.5-6.5-4-10.7-4.4-12.4-.4-1.7.4-5.5.4-7.9 0-2.3 1.4-6 2.8-7.7 1.5-1.7 0-6.4-.3-8.6-.3-2.3 2.7-6 5.9-6.2 1.9-.1 7 1.8 7.9 2.2.1 0 .2.1.2.1.6.4 2.4 2.3 5.3 2.1 2.7-.1 4.6-1.8 5.8-2.5 1.3-.7 6.2-2.6 7.6-2.7 1.3-.1 2.6 1.5 2.6 2.8 0 2.4.3 4.8.8 7.2.6 3 1.5 6.8 1.5 6.8 1.2 1.1 1.3-6.8.6-11.8-1-7.1-5.9-15.2-19.8-17.2 0 0-14.4-2.5-23 11.4s5.5 52.2 9.5 57.2c4.1 5 10.5 6.9 17 5 6.6-1.9 9.5-9.2 12.5-13.6 1.8-2.7 3.1-6.2 3.8-9.7-.8 1.4-2.1 3.9-2.4 5.3-.5 2.2-6.7 6.7-7.6 7.7z" />
				<path class="st19" d="M731.7 453c-18.8 0-25.3-7.7-25.6-8-.2-.3-.2-.7.1-.9.3-.2.7-.2.9.1.1.1 7 8.1 26.8 7.5 19.3-.6 20.6-5.7 20.6-5.8.1-.3.4-.6.7-.5.3.1.6.4.5.7-.1.6-1.4 6.2-21.8 6.8-.8.1-1.5.1-2.2.1zM711.8 520.8h-.2c-7.6-3-7.7-12.3-7.7-12.4 0-.3.3-.6.6-.6s.6.3.6.6c0 .1.1 8.5 6.9 11.2.3.1.5.5.3.8 0 .3-.3.4-.5.4zM763.7 524.7c-3.8 0-6.2-2.1-6.2-2.2-.3-.2-.3-.6 0-.9.2-.3.6-.3.9 0 .3.2 6.4 5.7 14.8-3l1.1-2.5c.1-.3.5-.5.8-.3.3.1.5.5.3.8l-1.2 2.6c0 .1-.1.1-.1.2-3.9 4.1-7.6 5.3-10.4 5.3z" />
				<path d="M734.2 468.6s.2-4.3 3.4-4.4c3.1-.1 18.4-.7 18.4-.7s2.4-.6 1.9 3.8c-.3 3.1-3.6 29.2-3.6 29.2h-22.9l2.8-27.9z" fill="#241a46" />
				<path class="st11" d="M768.6 504.2c-.1-.8-.5-1.7-.9-2.6-.3-.7-.6-1.3-.6-1.8l-.1-.6c-.4-3.6-1-7.4-2.7-8.9-1.8-1.6-3.5-4.2-4.1-5.6-.8-1.9-3.8-3.2-4.1-3.3l-9-4.3c-.2-.1-2.3-.9-4-.1-.8.4-1.3 1-1.5 1.9-.7 2.7 1.6 4.6 2.9 5.2 3.8 2 8.2 4.5 8.7 5.3.1.4-.1 1.1-.5 1.6l-14-5.2c-1.4-.4-3.9-.9-4.8-.4-.1 0-.3 0-.5.1-1.5.1-4.9.4-4.7 5.6.2 5.2 0 13.1 0 13.2 0 .4.2.8.6.9l8.9 3.2 11.2 4.8c.9.8 5.2 4.6 7.5 5 .4.1.8.1 1.2.1 2.2 0 4.3-1 5.2-1.8.9-.9 4-5.2 4.4-6.2.1-.8 1-4.5.9-6.1z" />
				<path class="st11" d="M752.1 498.2c-1.4-1.5-4.1-1.4-4.4-1.3-.1 0-7.8-.2-12.4-.8-1.3-.2-1.8-.4-2-.5 2-.1 12.1-.9 14.2-.8 3.9.1 4.5-1.9 4.6-2.5.2-1 .1-3.2-1.4-4.2-.9-.7-3.3-.6-7.5-.4-.4 0-.8 0-1.1.1h-8.6l.8-.4c.4 0 1.7 0 5.4.1 2.6 0 4.1-.3 4.9-1.1.8-.8.7-1.8.6-2.7v-.4c-.1-2.4-4.9-3-7.7-3.2H730c-.1 0-.3 0-.4.1-1.2.6-4.4 2.2-5.5 2.5-2 .7-3.9 1.9-5.8 3.9-1.6 1.7-3.2 5.4-4.4 8.1-.4.9-.8 2-1 2.2-.3.4-2.6 1.8-4.6 2.9-.3.1-.4.4-.5.7 0 .2-.7 4.6 0 9.3.8 5.1 8.2 6.6 8.6 6.6h.2c.4 0 .8-.3.9-.7l.5-1.6c1.1-.1 3.1-.4 3.8-.7.8-.3 7.9-3.8 9.4-4.5 1.7 0 12.1-.3 14.4-.8 2.3-.4 2.9-1.5 3-2.1.1-.7-.1-1.3-.7-1.8 1.7-.1 4.5-.5 4.8-3.5.3-1.1 0-1.9-.6-2.5z" />
			</g>
			<g>
				<path class="st10" d="M325.2 661.2c.1-.7 1.8-16.8 1.9-18.1.1-1.4-1.6-19.3-1.8-21.3l-3.9-9.4-89.7 4.3-.2.6c-.2.6-4.8 13.9-4.8 17.6 0 3 .2 19.4 1.1 24.8.8 5 8.8 60.2 9.3 63.7-.2 1-1.1 5.4-.8 7.3.2 1 .8 1.4 1.1 1.5 1.2.4 2.5-.6 2.9-1l.1-.1s1.1-1.4 2.4-.9c1.6.7 4.4 2.6 5.1 3.2.1.3.2.7.2 1-.9 0-2-.2-3-.3-1.1-.2-2.1-.3-2.7-.3-1.5 0-2.4.8-2.5.9l-.5.4.2.6c.8 2 1.9 5.8 1.5 7.3-.4 2-.3 3-.1 3.4l.3 3.5c-.5.9-1.8 4-1.3 10.2.5 7.1 4.6 39.6 4.7 39.8l.2 7.8.5.2c.2.1 5.2 2.4 11.5 2.5 6.2.1 13.6-2 13.9-2.1l.6-.2v-.7c.3-6.5.8-16.7 1-17.8.2-1.1.7-4 .7-6.6v-13.1l-1.3-11.6c.1-.6.3-3.2.2-4.8-.1-1.6-1.1-4-1.5-5 .4-.8 1.2-2.7 1.2-4.3 0-1-.4-2-.7-2.9-.3-.8-.6-1.6-.5-2.1.1-.6.7-1.5 1.2-2.3.7-1.1 1.3-2.1 1.4-3 .2-1.5.6-19.1.6-21.1v-.2c-.5-2.9-1.7-10.9-1.7-12.8.1-2.5.1-7.1.1-7.2l3.7-33.4 4.5 1.3 9.8 78.3c.1.8 1.4 7.7 2.4 9.5.8 1.5 1.6 3.6 1.9 4.2l-.5 39.8 2.2 5.5V813l25.3 1.1v-1c0-.1-.2-5.5.9-8.3.7-1.8 2.3-7 2.5-15.5.1-7.1.2-36.8 0-40.7-.1-2.2-1.1-5.7-2-9.1-.7-2.7-1.4-5.4-1.5-6.6-.1-2.6.7-11.7 1.4-15.4 1.1-3.7 2.4-54.2 2.5-56.3z" />
				<path class="st8" d="M240.2 730l.4 5.3s.6-.8 3.9-.4c3.2.4 5 .9 4.8-.4-.2-1.3-2.2-3.5-5.5-4.9-3.3-1.5-3.6.4-3.6.4z" />
				<path class="st16" d="M272.3 804.9l-1.6.8c-.1 0-6.4 3.2-13.5 2.7s-10.7-2.3-10.8-2.3l-1.4-.7v4.1c-.2.5-.6 1.5-.6 3.1 0 1.7.4 6.6 1.2 8 .5.8 1.3 1.8 1.7 2.2 0 1.2.1 3.6 1.5 4.4.8.5 2.2.5 4.1.6 1.5 0 3.2.1 4.7.4a14.23 14.23 0 008.7-.9c2.4-1.1 5.2-4 5.3-4.1l.2-.3v-.4c0-.1.1-1.7 0-2.9v-4.1c0-.7.3-4.2 0-5.3-.2-.6 0-2.4.1-3.4l.4-1.9zM322.2 818.9c0-.2.3-.7.4-1 .7-1.5 1.6-3.4.8-4.8-.4-.7-1.2-1.1-2.4-1.2-3.8-.2-23.5-.8-23.7-.8h-.7l-.2.6c-.1.2-.7 1.8-.6 3.2 0 1.1.4 2.3.6 2.7-.1 2.1-.4 7.2-.6 8.2l-.1.4c-.6 2.9-.8 4.7-.1 5.6.2.3.6.5 1 .6.8.1 1.5-.5 2.6-1.3 1.4-1.1 3.3-2.5 5.1-2.4 2.9.3 8.5 1 10.2 1.2.6 1.1 1.9 3 3.5 3.1h.1c1.9 0 3.9-2.5 4.1-4.5l.1-1.3c.1-1.4.3-4 .5-4.5.2-.7 0-1.6-.3-2.5-.1-.3-.3-1-.3-1.3z" />
				<path class="st22" d="M237 633.5c-4.2 0-7.9-.7-8.1-.7a.92.92 0 11.4-1.8s3.7.7 7.7.7c2.9 0 6-6 6.8-8.1.2-.5.7-.7 1.2-.5.5.2.7.7.5 1.2-.3.9-3.9 9.2-8.5 9.2zM310.5 633.6c-.6 0-1.2 0-1.9-.1-6.3-.6-11.4-8.2-11.6-8.5-.3-.4-.2-1 .3-1.3.4-.3 1-.2 1.3.3 0 .1 4.8 7.2 10.2 7.7 5.7.5 12.4-1.8 12.4-1.8.5-.2 1 .1 1.2.6.2.5-.1 1-.6 1.2-.2 0-5.8 1.9-11.3 1.9z" />
				<path class="st22" d="M297.8 626.5H295c-.4 0-.8-.3-.9-.7l-1.2-5.3a1 1 0 01.5-1.1l3.2-1.4c.3-.1.6-.1.8 0 .3.1.4.4.5.7l.8 6.7c0 .3-.1.5-.2.7-.2.3-.5.4-.7.4zm-2.1-1.9h1l-.5-4.4-1.4.6.9 3.8zM247.5 625.4h-.1l-3.4-.5c-.3 0-.5-.2-.6-.4-.1-.2-.2-.5-.1-.7l.6-2.8c.1-.5.6-.8 1.1-.7l4.4.7c.3 0 .6.2.7.5s.1.6 0 .9l-1.6 2.7c-.4.1-.7.3-1 .3zm-2.3-2.3l1.8.3.6-.9-2.2-.4-.2 1zM272.6 654.4c-.6 0-1-.5-.9-1 0-.1 1.1-12.3 1.2-16.1.1-3.7-2.3-13.7-2.4-13.8a.92.92 0 111.8-.4c.1.4 2.5 10.4 2.4 14.3-.1 3.8-1.2 15.7-1.2 16.2s-.4.8-.9.8z" />
				<path class="st8" d="M303.6 717.5c-.7 0-1.5-.2-2.1-.8-.5-.5-.7-1.1-.7-1.8.1-1.5 2.7-2.3 4.9-2.7 1.1-.3 1.7.1 2.1.5.9 1 .4 2.7.2 3-.1.3-.3.5-.5.6-.4.2-2.7 1.1-3.6 1.2h-.3zm2.3-4.3z" />
				<path class="st22" d="M265.9 808.1c-.4 0-.6-.3-.6-.7 0-.2.4-5.5.7-6.9.2-.9.1-5.6 0-8.5 0-.3-1.1-32.2-1.5-35.5-.4-3.4 3-15.6 3.1-16.1.1-.3.4-.5.8-.4.3.1.5.4.4.8 0 .1-3.5 12.4-3.1 15.6.4 3.3 1.5 34.2 1.5 35.6 0 .8.3 7.4 0 8.8-.3 1.3-.7 6.6-.7 6.7 0 .4-.3.6-.6.6z" />
				<path class="st23" d="M260 814.1h-.3c-3.5-.1-12.7-1-13.1-1-.5-.1-.9-.5-.8-1 .1-.5.5-.9 1-.8.1 0 9.5.9 13 1 3.3.1 9.1-1.7 9.2-1.7.5-.2 1 .1 1.2.6s-.1 1-.6 1.2c-.4-.1-6 1.7-9.6 1.7zM319.6 818.5c-.1 0-2.3 0-5.2-.6-2.2-.4-11.3-.1-14.7 0-.5 0-1-.4-1-.9s.4-1 .9-1 12.2-.6 15.1 0c2.7.5 4.8.5 4.8.5.5 0 .9.4.9.9.2.7-.2 1.1-.8 1.1z" />
				<path class="st14" d="M323.5 855.6c-.2-1.2-.4-2.5-.4-4.2v-.8c.1-2 .1-2.1-.3-4l-.3-1.4c-.7-3.8-2.5-7.3-2.5-7.4l-.5-1.1-.1-4.5c0-.2-.1-.4-.2-.6l-3.1-3.4c-.2-.2-.4-.3-.6-.3l-12.3-.8c-.2 0-.4 0-.6.2l-1 .6c-.2 0-.5 0-.7.1-.3 0-.6.2-.7.5-.1.1-.1.3-.1.4l-1.5 1c-.3.2-.5.6-.4.9v.1c-2.9 3-6.1 6.7-5.8 8.4.2 1.1.9 1.8 1.9 2.1.2.1.5.1.8.1.9 0 1.8-.4 2.5-1.1-2.2 5.7-5 10.1-5.1 10.2-.3.4-.2 1 .3 1.3.2.1.3.1.5.1.3 0 .6-.2.8-.4.2-.3 2.4-3.8 4.5-8.6-.4 4.4-1 10.5-1.2 11.2-.1.2-.2.4-.4.7-.8 1.3-1.4 2.4-1.4 3.3v1.1c-.6.9-2.5 4-2.4 6.4v.9c-.1 1.4-.2 3.6 1.4 5.2 1.4 1.4 3.8 2.1 7.3 2.1.7 0 1.5 0 2.3-.1 13.3-.9 17.3-5.8 18.2-7.3 1-1.7 1.1-4.2 1.2-6.3 0-.6 0-1.1.1-1.5.2-1.1 0-2-.2-3.1zm-28.6-16.2c-.3-.1-.5-.3-.6-.7 0-.7 1.9-3.1 4.2-5.6 0 .2 0 .4.1.7-.8 2.4-1.6 4.5-2.1 5-.4.5-1.1.8-1.6.6zM269.3 825.6c.1-.3 0-.6-.2-.8-.2-.2-.5-.4-.8-.3l-18.9 1.1c-.4 0-.8.3-.9.7 0 .1-.1.1-.1.2-.1.1-.1.3-.1.4-11.3 5.7-10.9 7.6-10.7 8.2.2.7.5 1.1 1 1.3.2.1.3.1.5.1.7 0 1.5-.6 2.6-1.4.6-.5 1.4-1 2.2-1.5 1.4-.8 2.8-2.1 3.9-3.1l-.7 3.6c-.5 1-3.8 7.3-5 10.4-1.3 3.1-8.9 12.6-12.5 15.7-3.3 2.8-3.5 3.1-3.7 6.1 0 .5-.1 1.1-.2 1.8-.2 1.7-.4 3.4.8 4.6 1.2 1.3 3.7 1.9 9.3 1.9 1.6 0 3.4 0 5.6-.1 13.9-.5 16.1-10.1 16.4-12.4l12-8.9c.2-.2.4-.4.4-.7 0-.3.5-8.3.5-9.3 0-1.1-.8-6.9-2-9.2-.9-1.5-.1-5.9.6-8.4z" />
				<path class="st22" d="M275.4 658.7h-.2c-12.7-3.2-22.8-7.1-22.9-7.1-.5-.2-.7-.7-.5-1.2.2-.5.7-.7 1.2-.5.1 0 10.1 3.9 22.7 7 .5.1.8.6.7 1.1-.2.4-.6.7-1 .7zM268.2 733.1c-.5 0-.9-.4-.9-1l1.4-72.1c0-.5.5-.9 1-.9s.9.4.9 1l-1.4 72.1c-.1.4-.5.9-1 .9z" />
				<path class="st10" d="M295.2 420l-.8-2.1c.3 0 .6-.2.7-.4.2-.3.2-.6.1-.8-.8-2-6-11.3-10.6-14.6-3.6-2.6-6.8-2.1-8.2-1.7-.8-1.3-2.3-3.6-3.6-4.1-2-.8-8.5-.9-18.6 1.8-10.1 2.7-14.8 12.3-17.3 17.4-.3.5-.5 1-.7 1.5-2.5 4.9-.1 9.3 0 9.5.1.3.4.4.7.5.2 0 .4 0 .6-.1.2.9.4 2 .5 2.7.3 1.7 1 3.7 2.1 5.4 1.1 1.8 5.4 8.5 5.4 8.5.2.3.5.4.8.4h.2l47.1-8.1c.4-.1.7-.4.8-.8l.9-6.1v-8.4c0-.3 0-.4-.1-.5z" />
				<path class="st14" d="M259.6 472.8s-4.9.9-6.4 2-5.7 3-5.7 3-8.7 2.3-11.5 3.2c-2.8.9-13.1 6.9-13.1 6.9l-1 1.4 16 25.4 1 64.4-9.8 37s14.1 8.1 39.8 6.4c25.7-1.8 42.9-6.9 46.8-6.9s6.7 1.9 7.6 4.7c.9 2.8 2.3 1.6 2.1.1-.2-1.5-3.4-7.8-3.1-10 .3-2.2-.2-6.6-.8-9.1l-1.4-5.9-1.8-15.8-6.2-61.3s11.1-12.9 22-10.9c0 0-5.7-23.4-14.1-27.5-8.3-4.1-13-4.2-13-4.2l-47.4-2.9z" />
				<path class="st11" d="M307.7 475.3a.9.9 0 00-.6-.6c-2.7-1-10.1-4.2-11.5-6.4-1.9-2.8-5.6-9.4-5.7-9.5-.2-.4-.7-.6-1.1-.4l-25.9 9.5c-.2.1-.4.2-.5.5-.7 1.3-2.1 3.3-3.1 3.5-.4.1-.7.4-.7.8 0 .2-1.4 15.8 17.8 18.3 1.2.2 2.5.2 3.7.2 16.8 0 27.4-15 27.5-15.2.2-.2.2-.5.1-.7z" />
				<path class="st11" d="M296.2 433.9c.1-5.8-1.2-6.1-1.7-6.2-1.1-.2-2.8 1-3.4 1.5-.7.6-2.1 1.8-2.8 3.3-1.3-1.4-3.6-4.6-5.5-7.3-6.2-8.5-8.3-11.1-9.7-11.2-2.2-.1-16.1 3.2-17.7 3.6-.2 0-.3.1-.5.3-.2.2-5.6 5.9-6.3 9.9-.6 3.7-3.3 14.8-3.3 14.9v.6c1 2.5 3.7 9.5 3.9 11.4.2 2.9 4.4 8.1 8 10.8.7.5 1.5 1.1 2.4 1.8 5 3.9 8.9 6.8 10.4 7.3.5.1 1 .2 1.5.2 1.8 0 3.8-.9 6.4-2.6 3.5-2.5 10.5-8.3 12-12.5 1.7-4.7 1.9-8 1.9-9.6v-4.4c.8-1.1 3.6-5.3 4.2-7.4.8-2.2.4-3.8.2-4.4z" />
				<path class="st15" d="M238.1 494.9l10.8 30.5c.5 1.4 1.8 2.3 3.2 2.3h19.2c1.4 0 2.4-1.4 1.9-2.7l-10.8-30.7s-.4-2.8-2.9-2.8h-19.4s-3.1.2-2 3.4z" />
				<path class="st14" d="M265.1 414.5h-.1c-.3-.1-.6-.4-.5-.7.3-1.4.8-5.4-.5-6.9-.3-.4-.8-.6-1.4-.6-4 0-8.4 2.3-8.5 2.3-.3.2-.7 0-.8-.3-.2-.3 0-.7.3-.8.2-.1 4.7-2.5 9-2.5 1 0 1.8.4 2.4 1.1 1.9 2.3.8 7.7.7 7.9 0 .3-.3.5-.6.5zM270.6 411.3h-.2c-.3-.1-.5-.4-.4-.8.4-1.3 1.1-5.3-.2-6.5-.3-.2-.3-.6-.1-.9.2-.3.6-.3.9-.1 2.2 1.8.8 7.2.6 7.8-.1.3-.4.5-.6.5z" />
				<path class="st14" d="M263 415.7c-.1 0-.2 0-.3-.1-.3-.2-.4-.5-.3-.8.4-.7 1.2-2.8.8-3.9-.1-.3-.2-.4-.5-.5-.3-.1-.5-.5-.3-.8.1-.3.5-.5.8-.3.6.2 1 .7 1.2 1.2.7 1.8-.7 4.6-.9 4.9-.1.1-.3.3-.5.3zM267.8 414.5h-.2c-.3-.1-.5-.5-.3-.8 0 0 2-4.8 1.2-7.9-.1-.3.1-.7.4-.8.3-.1.7.1.8.4.9 3.4-1.2 8.5-1.3 8.7-.1.3-.3.4-.6.4z" />
				<path class="st11" d="M256.3 519.9l-5.2-1.7c.5-.3 1-.4 1.2-.4.8.1 2.3.2 3.3-.8.6-.6.9-1.4.8-2.5-.1-1-.5-1.9-1.2-2.5-1-.9-2.7-1.2-5-1.1.7-.5 1.2-1.1 1.3-1.7.2-.9-.2-1.9-.8-2.8-.7-.8-1.5-1.4-2.4-1.4-.9-.1-9.1 1-10.2 2.4-.2.2-.4.5-.7.7-.8.9-1.8 1.8-2 2.8l-11.2-18c-.2-.3-.5-.5-.9-.4-.4 0-.7.3-.8.6-.1.3-3.3 8.5-2.7 17 .4 5.1 1.2 20.4 1.8 32.7.4 7.8.7 13.9.8 15.6.3 4.6 1 10.4 1.8 12.8l.2.6c1 2.8 2.9 8 6.1 9.6.6.3 1.2.4 1.8.4 2.5 0 5.4-2.2 8.3-6.6 2.6-3.8 5.4-8.4 5.6-12.8.2-3.9 2.1-20.8 2.4-23.7 1-.7 3-2.4 3-4.2v-2.9c1-.6 3.2-2.2 3.2-4.1 0-.7 0-1.3-.1-1.7.8-.5 1.8-1.2 2-2.1.3-1.1 0-2.8 0-2.9.1-.5-.1-.8-.4-.9z" />
				<path class="st11" d="M333.6 506.5c-.2-.2-.5-.3-.8-.2l-20.6 3.2c-.5.1-.8.5-.8.9l-.5 36.5c-5.1-5-20.7-20.2-21.9-21.3-1-.8-7.2-8.6-10.9-13.3 0-.1-.1-.1-.2-.2 0 0-3.7-2.9-4.9-4.1-1.4-1.4-4.2-1.8-4.5-1.8h-.2l-8.4.6c-.1 0-.3.1-.4.1-.4.2-3.6 2.1-3.6 4.6 0 1.3.6 2.4 1.1 3.1-.8.7-1.2 1.8-1.1 3.3.1 1.9 2.4 2.8 3.8 3.2-.1.4-.2 1-.4 1.6-.3 1.3.6 2.7 1.1 3.5-.2.5-.3 1.2-.2 2.2.1 2.2 2.8 3.2 3.2 3.3l6.6 1.9c3 3 7.9 4.7 9.2 5.1 1.2 1.7 7.4 10.6 11.2 15.8 3 4.2 10.4 11.8 15.8 17.4 2.3 2.4 4.3 4.4 5.3 5.6 3.5 3.9 5.6 4.2 6.2 4.2h.1c10.8-.8 12.1-22.1 12.2-23l3.6-51.4c.3-.3.2-.6 0-.8zM227.7 562.8h-.1c-.5-.1-.9-.5-.8-1 .6-5.7 4-11.3 4.5-12 2.4-5.8 8.8-21 9.3-23.3.4-1.9-2-7.8-3.5-11-.2-.5 0-1 .4-1.3.5-.2 1 0 1.3.4.4.9 4.4 9.1 3.7 12.2-.6 3-9.1 22.9-9.4 23.7 0 0 0 .1-.1.1 0 .1-3.6 5.7-4.2 11.3-.2.5-.6.9-1.1.9zm4.4-12.6z" />
				<path class="st11" d="M273 517.8c-.1 0-.3 0-.4-.1l-6.4-3.4-6.5 1.5a.92.92 0 11-.4-1.8l6.8-1.5c.2 0 .4 0 .6.1l6.7 3.5c.5.2.6.8.4 1.3-.1.2-.5.4-.8.4zM270.9 522.4c-.1 0-.3 0-.4-.1l-4.4-2.1-4 1.2c-.5.2-1-.1-1.2-.6-.2-.5.1-1 .6-1.2l4.4-1.3c.2-.1.5 0 .7.1l4.7 2.3c.5.2.7.8.4 1.3-.1.2-.4.4-.8.4zM270 528h-.1l-7.3-1c-.5-.1-.9-.5-.8-1.1.1-.5.5-.9 1.1-.8l7.3 1c.5.1.9.5.8 1.1-.2.5-.6.8-1 .8z" />
				<g>
					<path class="st24" d="M290.7 441.4c-.3 0-.6-.3-.6-.6v-4.7c0-2.4 2.2-4.3 2.3-4.4.3-.2.7-.2.9.1.2.3.2.7-.1.9 0 0-1.8 1.6-1.8 3.4v4.7c-.1.3-.4.6-.7.6z" />
				</g>
				<g>
					<path class="st24" d="M290.7 437.6c-.3 0-.6-.3-.6-.6 0-.8.4-1.3.6-1.6.8-.7 1.9-.6 2.1-.6.3 0 .6.4.5.7 0 .3-.3.6-.7.5-.2 0-.8 0-1.1.3-.1.1-.2.2-.2.6 0 .4-.3.7-.6.7z" />
				</g>
				<g>
					<path class="st10" d="M293.8 447.4c-1.5 0-2.7-1.6-2.7-3.6s1.2-3.6 2.7-3.6c1.5 0 2.7 1.6 2.7 3.6s-1.2 3.6-2.7 3.6zm0-6c-.8 0-1.5 1.1-1.5 2.4 0 1.3.7 2.4 1.5 2.4s1.5-1.1 1.5-2.4-.7-2.4-1.5-2.4z" />
				</g>
			</g>
		</g>
		<g>
			<path class="st8" d="M90.9 173h20.8v20.8H90.9z" />
		</g>
	</g>
</svg>
