<svg version="1.0" id="Layer_1" xmlns="http://www.w3.org/2000/svg" x="0" y="0" viewBox="0 0 1000 1000" xml:space="preserve"><style>@keyframes translate{0%{transform:translateY(0)}50%{transform:translateY(-100px)}}.st1{opacity:.5}.st2{fill:#d7d1fc}.st3{fill:#dbd9f9}.st4{fill:#f7f7fc}.st5{fill:#b8b3f3}.st6{fill:#e9e8fb}.st7{fill:#7167e6}.st12{fill:#4e41e0}.st13{fill:#8574f6}.st14{fill:#aea3f9}.st24{fill:#f7d2b3}.st27{fill:#2c1c23}.st29{fill:#483d93}.st33{fill:#958dec}.st35{fill:#f4f8f9}.st36{fill:#d0cbe2}.st37{fill:#e7e5f1}.st38{fill:#dbd8e9}.st40{fill:#fffeff}.st42{opacity:5.000000e-02}.st43{fill:#fff}</style><linearGradient id="SVGID_1_" gradientUnits="userSpaceOnUse" x1="498.8" y1="853.7" x2="498.8" y2="-216.4"><stop offset="0" stop-color="#e9e8fb"/><stop offset="1" stop-color="#f7f7fc"/></linearGradient><path d="M977.8 163.3l-59.2 563.3c-7.4 70.3-47.3 127.2-89.2 127.2H82.3c-17.9 0-33.2-10.4-44.4-27.8-14.9-23.3-22.3-59.2-18.1-99.4l18.1-172 7.8-74.4L79 163.3C86.4 93 126.3 36 168.2 36h747.1c41.9 0 69.9 57 62.5 127.3z" fill="url(#SVGID_1_)"/><g style="animation:spin 5000ms linear 0ms infinite;transform-origin:57.7% 42.8%"><g class="st1"><path class="st2" d="M446.4 301.2l-.8.8-2 2.4-3.1 3.6-.9 1.1-.9 1.2-2 2.6-2.2 2.8-1.1 1.5-1.1 1.6-2.3 3.3-1.2 1.7-1.1 1.8a188.4 188.4 0 00-16.2 31.6l-1.5 3.9-.7 1.9-.6 1.9-2.2 7-1.6 6-.7 2.5-.5 2.2-.9 4.1 22.6 4.6.8-3.6.4-1.9.6-2.2 1.4-5.2 2-6.1.5-1.6.6-1.6 1.3-3.4a142.5 142.5 0 0114-27.5l1-1.6 1-1.5 2-2.9 1-1.4 1-1.3 1.9-2.4 1.7-2.3.8-1.1.8-.9 2.7-3.2 1.7-2.1.7-.7-16.9-15.6zM400.1 404.8l-.1.5-.1 1.5-.4 5.5-.1 1.8-.1 1.9-.1 4.1c-.2 2.8 0 5.9.1 8.9v2.3l.1 2.3.3 4.4.4 4.1.4 3.7.4 3.1.4 2.4.4 2.1 22.7-3.8-.3-1.8a52.8 52.8 0 01-.6-4.8l-.4-3.2c-.2-1.1-.2-2.3-.3-3.6l-.3-3.8-.1-2v-2c0-2.7-.2-5.3-.1-7.8l.1-3.6v-1.7l.1-1.5.3-4.8.1-1.3.1-.5-22.9-2.4zM368.5 411.8v.6l-.1 1.6-.1 5.7-.1 3.8.1 4.2.1 4.5v1.2l.1 1.2.2 2.3c.3 6.3 1.2 12.5 1.8 17.2l1.3 7.8 5.9-1.1-1.3-7.5a203 203 0 01-1.7-16.7l-.2-2.3-.1-1.1v-1.1l-.1-4.4-.1-4.1.1-3.7.1-5.5.1-1.6v-.5l-6-.5zM479.5 322.5l-1.8 1.9-2.2 2.3-1.4 1.5-1.5 1.8a131.6 131.6 0 00-18.7 27.2l-2.2 4.4-.6 1.1-.5 1.2-1 2.4c-.7 1.6-1.5 3.2-2.1 5a136.1 136.1 0 00-9.8 49.8c-.1 4.8.1 9.7.5 14.7 0 1.3.3 2.5.4 3.8l.4 3.8.7 3.8.3 1.9.3 1.9a149 149 0 0010 31l.4 1 .5.9 1 1.9 1.9 3.8 2.1 3.7 1 1.9 1.2 1.8 2.3 3.7 1.2 1.8 1.3 1.8 1.3 1.8.6.9.7.9 2.8 3.5 2.9 3.5 3 3.5 3.2 3.3 1.6 1.7 1.7 1.6 3.4 3.2.4.4.4.4.9.8 1.8 1.5c2.3 2.1 4.9 3.9 7.3 5.9 5.1 3.7 10.3 7.3 16 10.3l2.1 1.2.5.3.5.3 1.1.5 4.3 2.2 4.5 1.9 2.2 1 2.3.8c12.2 4.7 25.3 7.8 38.7 9l5.1.4.6.1h1.9l2.5.1 2.6.1 2.6-.1 2.6-.1 2.6-.1 5.1-.4c.9 0 1.7-.2 2.6-.3l2.6-.3 2.6-.3 2.5-.5 2.5-.4 1.3-.2 1.3-.3 5-1.1.6-.1.6-.2 1.2-.3 2.5-.7 2.5-.7 2.5-.8 2.5-.8 1.2-.4 1.2-.5 4.8-1.8.6-.2.6-.3 1.2-.5 2.4-1 2.4-1 2.3-1.2 2.3-1.1 1.2-.6 1.1-.6 4.5-2.5.6-.3.5-.3 1.1-.7 2.2-1.4 2.2-1.4 2.1-1.5 2.1-1.5c.7-.5 1.5-.9 2.1-1.5l4.1-3.2 1-.8 1-.9 2-1.7 2-1.7 1-.9 1-.9 3.9-3.6 3.6-3.9.9-1 .9-1 1.7-2 1.7-2 .9-1 .8-1 3.2-4.1 1.5-2.1 1.5-2.1 1.5-2.1 1.4-2.2 1.4-2.2.7-1.1.3-.5.3-.6 2.5-4.5.6-1.1.6-1.2 1.1-2.3 1.2-2.3 1-2.4 1-2.4.5-1.2.3-.6.2-.6 1.8-4.8.5-1.2.4-1.2.8-2.5.8-2.5.7-2.5.7-2.5.3-1.2.2-.6.1-.6 1.1-5 .3-1.3.2-1.3.4-2.5.5-2.5.3-2.6.3-2.6c.1-.9.3-1.7.3-2.6l.4-5.1.1-2.6.1-2.6.1-2.6-.1-2.6-.1-2.6v-1.9l-.1-.6-.4-5.1a138.3 138.3 0 00-9-38.7l-.8-2.3-1-2.2-1.9-4.5-2.2-4.3-.5-1.1-.3-.5-.3-.5-1.2-2.1c-3-5.7-6.6-10.9-10.3-16-2-2.5-3.8-5-5.9-7.3l-1.5-1.8-.8-.9-.4-.4-.4-.4a51.4 51.4 0 01-4.8-5.1l-1.7-1.6-3.3-3.2-3.5-3-3.5-2.9-3.5-2.8-.9-.7-.9-.6-1.8-1.3-1.8-1.3-1.8-1.2-3.7-2.3-1.8-1.2-1.9-1-3.7-2.1-3.8-1.9-1.9-1-.9-.5-1-.4a149 149 0 00-31-10c-.6-.2-1.3-.2-1.9-.3l-1.9-.3-3.8-.7-3.8-.4c-1.3-.1-2.5-.4-3.8-.4a146.4 146.4 0 00-64.5 9.3c-1.7.6-3.4 1.4-5 2.1l-2.4 1-1.2.5-1.1.6-4.4 2.2-4.1 2.3c-10.6 6-18.2 12-23.1 16.4l-1.8 1.5-1.5 1.4-2.3 2.2-1.7 1.7 17.2 17.3 1.6-1.5 1.9-1.8 1.2-1.2 1.5-1.2c4.1-3.6 10.3-8.6 19.1-13.5l3.4-1.9a129 129 0 013.7-1.8l.9-.5a3 3 0 011-.4l2-.8c1.3-.6 2.7-1.3 4.1-1.7 5.6-2.3 12-4.2 18.9-5.6a129 129 0 0134.6-2.1l3.1.3 3.2.4 3.2.5 1.6.3c.5.1 1.1.1 1.6.3 8.5 1.7 17.2 4.5 25.7 8.2l.8.3.8.4 1.6.8 3.2 1.6 3.1 1.8 1.6.8 1.5 1 3.1 1.9 1.5 1 1.5 1.1 1.5 1 .8.5.7.6 2.9 2.3 2.9 2.4a64.5 64.5 0 015.7 5.2l1.4 1.3 1.3 1.4 2.7 2.8.3.3.3.4.6.7 1.3 1.5c1.8 1.9 3.2 4.1 4.9 6.1 3 4.2 6 8.6 8.5 13.2l1 1.7.3.4.2.5.4.9 1.8 3.6 1.6 3.7.8 1.8.7 1.9A118.3 118.3 0 01698 417v4.2l.1 2.1-.1 2.1v2.1l-.1 2.1-.3 4.3-.2 2.1-.3 2.1-.2 2.1-.4 2.1-.3 2.1-.2 1.1-.2 1-.9 4.2-.1.5-.1.5-.3 1-.6 2.1-.5 2.1-.7 2-.6 2-.3 1-.4 1-1.5 4-.2.5-.2.5-.4 1-.9 2-.8 2-1 1.9-.9 1.9-.5 1-.5.9-2.1 3.8-.3.5-.3.5-.6.9-1.1 1.8-1.1 1.8-1.3 1.8-1.2 1.8-1.3 1.8-2.7 3.4-.7.9-.7.8-1.4 1.7-1.4 1.7-.7.8-.8.8-3 3.2-3.2 3-.8.8-.8.7-1.7 1.4-1.6 1.4-.8.7-.9.7-3.4 2.7c-.5.5-1.2.8-1.8 1.3l-1.8 1.2-1.8 1.3-1.8 1.1-1.8 1.1-.9.6-.5.3-.5.3-3.8 2.1-.9.5-1 .5-1.9.9-1.9 1-2 .8-2 .9-1 .4-.5.2-.5.2-4 1.5-1 .4-1 .3-2 .6-2 .7-2.1.5-2.1.6-1 .3-.5.1-.5.1-4.2.9-1 .2-1.1.2-2.1.3-2.1.4-2.1.2-2.1.3-2.1.2-4.3.3-2.1.1h-2.1l-2.1.1-2.1-.1h-4.2l-4.2-.3c-11.2-1-22.1-3.5-32.1-7.4l-1.9-.7-1.8-.8-3.7-1.6-3.6-1.8-.9-.4-.5-.2-.4-.3-1.7-1a119 119 0 01-13.2-8.5c-2-1.7-4.2-3.1-6.1-4.9l-1.5-1.3-.7-.6-.4-.3-.3-.3-2.8-2.7-1.4-1.3-1.3-1.4-2.7-2.8-2.5-2.9-2.4-2.9-2.3-2.9-.6-.7-.5-.8-1-1.5-1.1-1.5-1-1.5-1.9-3.1-1-1.5a12 12 0 01-.8-1.6l-1.8-3.1-1.6-3.2-.8-1.6-.4-.8-.3-.8c-3.8-8.5-6.5-17.1-8.2-25.7l-.3-1.6-.3-1.6-.5-3.2a35 35 0 00-.4-3.2l-.3-3.1a126.4 126.4 0 012.1-34.6c1.4-6.9 3.3-13.3 5.6-18.9.5-1.5 1.2-2.8 1.7-4.1l.8-2 .4-1 .5-.9 1.8-3.7 1.9-3.4c4.9-8.8 9.9-15 13.5-19.1l1.2-1.5 1.2-1.2 1.8-1.9 1.5-1.6-17.5-17.1z"/><path class="st2" d="M472.2 315.2l-1.9 2-2.3 2.5-1.5 1.6-1.6 1.9a146.6 146.6 0 00-17.6 24.8l-2.5 4.4-2.3 4.7-.6 1.2-.6 1.3-1.1 2.6c-.7 1.7-1.6 3.5-2.2 5.3a151 151 0 00-9.9 69.2c0 1.4.3 2.7.4 4l.5 4.1.7 4.1.3 2.1.4 2.1c2.2 11 5.7 22.2 10.7 33.3l.4 1 .5 1 1 2 2 4.1 2.3 4 1.1 2 1.2 2 2.5 4 1.3 2 1.4 1.9 1.4 2 .7 1 .7.9 3 3.8c.9 1.3 2 2.5 3.1 3.7l3.2 3.7 3.4 3.6 1.7 1.8 1.8 1.7 3.6 3.5.5.4.5.4 1 .8 1.9 1.6c2.5 2.3 5.2 4.2 7.9 6.3 5.5 3.9 11.1 7.8 17.2 11l2.2 1.3.6.3.6.3 1.2.6 4.6 2.3 4.8 2.1 2.4 1.1 2.5.9a152 152 0 0047 10l.7.1H575.1l2.7.1 2.7.1 2.7-.1 2.7-.1 2.7-.1 5.5-.4 2.7-.3 2.7-.3 2.7-.3 2.7-.5 2.7-.5 1.4-.2 1.4-.3 5.4-1.2.7-.1.7-.2 1.3-.4 2.7-.7 2.7-.7 2.6-.9 2.6-.8 1.3-.4a7 7 0 001.3-.5l5.2-2 .7-.2.6-.3 1.3-.6 2.6-1.1 2.6-1.1 2.5-1.3 2.5-1.2 1.3-.6 1.2-.7 4.9-2.7.6-.3.6-.4 1.2-.8 2.4-1.5 2.4-1.5 2.3-1.6 2.3-1.6 2.3-1.6 4.4-3.4 1.1-.9 1.1-.9 2.1-1.8 2.2-1.8 1-1 1-1 4.1-3.9 3.9-4.1 1-1 1-1 1.8-2.2 1.8-2.1.9-1.1.9-1.1 3.4-4.4 1.6-2.3 1.6-2.3 1.6-2.3 1.5-2.4 1.5-2.4.8-1.2.4-.6.3-.6 2.7-4.9.7-1.2.6-1.3 1.2-2.5 1.3-2.5 1.1-2.6 1.1-2.6.6-1.3.3-.6.2-.7 2-5.2.5-1.3.4-1.3.8-2.6.9-2.6.7-2.7.7-2.7.4-1.3.2-.7.1-.7 1.2-5.4.3-1.4.2-1.4.5-2.7.5-2.7.3-2.7.3-2.7.3-2.7.4-5.5.1-2.7.1-2.7.1-2.7-.1-2.7-.1-2.7V415.8l-.1-.7-.4-5.4a152.8 152.8 0 00-9.6-41.6l-.9-2.5-1.1-2.4-2.1-4.8-2.3-4.6-.6-1.2-.3-.6-.3-.6-1.3-2.2c-3.2-6.1-7.1-11.7-11-17.2-2.1-2.6-4-5.4-6.3-7.9l-1.6-1.9-.8-1-.4-.5-.4-.5-3.5-3.6-1.7-1.8-1.8-1.7-3.6-3.4-3.7-3.2a35.7 35.7 0 00-3.7-3.1l-3.8-3-.9-.7-1-.7-2-1.4-1.9-1.4-2-1.3-4-2.5-2-1.2-2-1.1-4-2.3-4.1-2-2-1-1-.5-1-.4c-11-4.9-22.2-8.5-33.3-10.7l-2.1-.4-2.1-.3-4.1-.7-4.1-.5c-1.4-.1-2.7-.4-4-.4a153 153 0 00-69.2 9.9c-1.9.6-3.6 1.5-5.3 2.2l-2.6 1.1-1.3.6-1.2.6-4.7 2.3-4.4 2.5a141.1 141.1 0 00-24.8 17.6l-1.9 1.6-1.6 1.5-2.5 2.3-2.2 2.1 4.3 4.3 2-1.8 2.4-2.3c.5-.4.9-1 1.5-1.4l1.8-1.5c5.1-4.5 12.8-10.7 23.8-16.9l4.2-2.4 4.6-2.2 1.2-.6 1.2-.6 2.5-1.1c1.7-.7 3.3-1.5 5.1-2.1a141.7 141.7 0 0151.3-10.1c4.9-.1 10 .1 15.2.5 1.3 0 2.6.3 3.9.4l3.9.5 3.9.7 2 .3 2 .4c10.6 2.1 21.4 5.5 31.9 10.3l1 .4 1 .5 2 1 3.9 1.9 3.9 2.2 2 1.1 1.9 1.2 3.8 2.4 1.9 1.3 1.9 1.3 1.9 1.3.9.6.9.7 3.7 2.8c1.3.9 2.4 2 3.6 3l3.6 3.1 3.4 3.3 1.7 1.6 1.6 1.7 3.3 3.5.4.4.4.5.8.9 1.6 1.8c2.2 2.4 4 5 6.1 7.6 3.8 5.3 7.5 10.7 10.6 16.5l1.2 2.2.3.5.3.6.5 1.1 2.2 4.5 2 4.6 1 2.3.9 2.4c4.9 12.5 8 26 9.2 39.9l.4 5.2.1.7v2l.1 2.6.1 2.6-.1 2.6-.1 2.6-.1 2.6-.4 5.3c0 .9-.2 1.8-.3 2.6l-.3 2.6-.3 2.6-.5 2.6-.4 2.6-.2 1.3-.3 1.3-1.1 5.2-.1.7-.2.6-.4 1.3-.7 2.6a25 25 0 01-.7 2.6l-.8 2.5-.8 2.5-.4 1.3-.5 1.2-1.9 5-.2.6-.3.6-.5 1.2-1.1 2.4-1.1 2.5-1.2 2.4-1.2 2.4-.6 1.2-.7 1.2-2.6 4.7-.3.6-.4.6-.7 1.1-1.4 2.3-1.4 2.3-1.6 2.2-1.5 2.2-1.6 2.2-3.3 4.3-.8 1.1-.9 1-1.8 2-1.8 2.1-.9 1-.9 1a70 70 0 00-3.7 4l-4 3.7-1 .9-1 .9-2.1 1.8-2 1.8-1 .9-1.1.8-4.3 3.3-2.2 1.6-2.2 1.5-2.2 1.6-2.3 1.4-2.3 1.4-1.1.7-.6.4-.6.3-4.7 2.6-1.2.7-1.2.6-2.4 1.2-2.4 1.2-2.5 1.1-2.4 1.1-1.2.5-.6.3-.6.2a102 102 0 00-5 1.9l-1.2.5-1.3.4-2.5.8-2.5.8-2.6.7-2.6.7-1.3.4-.6.2-.7.1-5.2 1.1-1.3.3-1.3.2-2.6.4-2.6.5-2.6.3-2.6.3c-.9.1-1.7.3-2.6.3l-5.3.4-2.6.1-2.6.1-2.6.1-2.6-.1-2.6-.1h-2l-.7-.1-5.2-.4a150.7 150.7 0 01-39.9-9.2l-2.4-.9-2.3-1-4.6-2-4.5-2.2-1.1-.5-.6-.4-.5-.3-2.2-1.2c-5.8-3.1-11.2-6.8-16.5-10.6-2.5-2-5.2-3.9-7.6-6.1l-1.8-1.6-.9-.8-.5-.4-.4-.4-3.5-3.3-1.7-1.6-1.6-1.7-3.3-3.4-3.1-3.6c-1-1.2-2.1-2.3-3-3.6l-2.8-3.7-.7-.9-.6-.9-1.3-1.9-1.3-1.9-1.3-1.9-2.4-3.8-1.2-1.9-1.1-2-2.2-3.9-1.9-3.9-1-2-.5-1-.4-1a157.8 157.8 0 01-10.3-31.9l-.4-2-.3-2-.7-3.9-.5-3.9c-.1-1.3-.4-2.6-.4-3.9a156.4 156.4 0 012.6-43c1.8-8.6 4.1-16.5 7-23.5.6-1.8 1.4-3.5 2.1-5.1l1.1-2.5.6-1.2.6-1.2 2.2-4.6 2.4-4.2a141.9 141.9 0 0116.8-23.8l1.5-1.8 1.4-1.5a46.8 46.8 0 004.1-4.4l-4.3-4.1zM530.2 232.7l-4.2 1.1-2.2.6-2.6.8-6.2 2-7.2 2.7-1.9.7-1.9.9-4 1.7c-2.8 1.1-5.5 2.6-8.3 3.9-2.8 1.3-5.6 2.9-8.4 4.5l-2.1 1.2-1 .6-1 .6-4 2.5-2 1.2-1.9 1.3-3.7 2.6-3.6 2.5-3.3 2.6-3.2 2.4-1.5 1.2-1.4 1.2-4.9 4.2-1.1.9-1 .9-1.7 1.6-3.2 3 27.2 27.9 2.6-2.4 1.3-1.3.8-.7.9-.7 4-3.4 1.1-1 1.2-.9 2.5-2 2.7-2.1 2.9-2 3-2.1 1.6-1 1.6-1 3.2-2 .8-.5.8-.5 1.7-.9c2.2-1.2 4.4-2.6 6.7-3.6 2.3-1.1 4.4-2.3 6.6-3.2l3.2-1.4 1.6-.7 1.6-.6 5.8-2.2 5-1.6 2.1-.7 1.8-.5 3.4-.9-10.2-37.4z"/><path class="st2" d="M673.9 587.6l1-.5 1.2-.7 1.6-1 4.2-2.6 2.6-1.6 2.8-2 3-2.1 1.6-1.1 1.6-1.2a75 75 0 003.3-2.6l1.7-1.3 1.7-1.4 6.9-6 6.9-6.5 6.5-6.9 6-6.9 1.4-1.7 1.3-1.7 2.6-3.3 1.2-1.6 1.1-1.6 2.1-3 2-2.8 1.6-2.6 2.6-4.2 1-1.6.7-1.2.5-1-27.1-15.5-.5.8-.5 1-.8 1.3-2.2 3.5-1.3 2.2-1.6 2.3c-.6.8-1.1 1.7-1.8 2.5l-.9 1.3-1 1.3-2.1 2.8-1.1 1.4c-.4.5-.7 1-1.2 1.4l-5 5.8-5.5 5.7c-1.9 1.8-3.9 3.6-5.7 5.5l-5.8 5-1.4 1.2-1.4 1.1-2.8 2.1-1.3 1-1.3.9-2.5 1.8-2.3 1.6-2.2 1.3-3.5 2.2-1.3.8-1 .5-.8.5 15.2 27.4zM721.6 286.1l-1.2-1.3-3.7-3.6-2.6-2.5-3.2-2.9-3.7-3.2c-1.3-1.1-2.6-2.3-4.2-3.5-3-2.3-6.1-4.9-9.7-7.3l-2.7-1.9-2.8-1.9-5.9-3.7-1.5-.9-1.6-.9-3.2-1.8-3.2-1.8a12 12 0 00-1.6-.8l-1.7-.8-3.3-1.6-1.7-.8-1.7-.8-6.9-3c-9.3-3.8-18.9-6.9-28-9.2l-6.8-1.5-3.3-.7a42 42 0 00-3.2-.5l-6.2-1-5.8-.7-2.7-.3-2.6-.2-4.9-.3-2.2-.2-2.1-.1-3.6-.1-5.1-.1h-1.8l.6 39h1.5c.9-.1 2.3 0 4.1.1l2.9.1h1.7l1.8.1 3.9.3 2.1.2 2.2.3 4.7.5 5 .8 2.6.4 2.6.6 5.4 1.2c7.3 1.8 15 4.4 22.4 7.4l5.5 2.4 1.4.6 1.3.7 2.7 1.3 1.3.6 1.3.7 2.5 1.4 2.5 1.4 1.3.7 1.2.8 4.7 2.9c.8.4 1.5 1 2.2 1.5l2.2 1.5c2.9 1.9 5.4 4 7.8 5.8l3.3 2.8 3 2.6 2.5 2.3 2.1 2 3 2.9 1 1.1 28.1-27.1zM732.4 478.7l.6-1.5 1.4-4.3 1-3.1 1-3.7 1.1-4.2 1-4.7.6-2.5.2-1.3.2-1.3.9-5.5c.4-3.8 1-7.8 1.2-12l.2-3.2.1-3.2.1-3.3.1-1.6v-1.6l-.2-6.6-.5-6.7a161.4 161.4 0 00-11.7-47.4c-1.4-3-2.5-5.9-3.8-8.3l-1.7-3.4-.7-1.5-.8-1.3-3-5.3-3.4 2 2.9 5.2.7 1.3.7 1.5 1.6 3.3c1.3 2.3 2.3 5.1 3.7 8.1a153.3 153.3 0 0111.4 46.3l.5 6.5.2 6.5v1.6l-.1 1.6-.1 3.2-.1 3.1-.2 3.1c-.2 4.1-.8 8-1.2 11.7l-.9 5.4-.2 1.3-.2 1.3-.5 2.4-1 4.6-1.1 4.1-1 3.6-1 3-1.4 4.2-.6 1.5 4 1.1zM510.5 565l1.3.7 1.6.8 2.2 1 2.8 1.2 1.6.7.8.4.9.3 3.8 1.4 2 .8 2.2.7a251.7 251.7 0 007.1 2.2l2.6.7 2.6.7 1.3.3 1.4.3 5.6 1.2a172 172 0 0024.3 2.7l3.1.1h3.2l6.2-.1h.8l.8-.1 1.5-.1 3-.2 1.5-.1h.7l.7-.1 2.9-.4c3.9-.4 7.6-1.1 11.1-1.7l5.1-1.1 2.4-.5 2.3-.6 4.3-1.2 1-.3 1-.3 1.9-.6c2.4-.8 4.5-1.4 6.2-2.1l5.3-2 14.7 36.1-6.7 2.5c-2.1.9-4.7 1.6-7.7 2.6l-2.3.8-1.2.4-1.3.3-5.4 1.5-2.9.8-3 .7-6.4 1.4c-4.4.7-9 1.6-13.9 2.1l-3.7.4-.9.1-.9.1-1.9.1-3.8.3-1.9.1-1 .1h-1l-7.7.2h-1.9l-1.9-.1-3.9-.1a209.5 209.5 0 01-40.7-5.7l-3.3-.9-3.2-.9c-1-.3-2.1-.5-3.1-.9l-5.8-1.9-2.7-.9-2.5-1a118 118 0 01-4.7-1.8l-1.1-.4-1-.4-2-.9a38 38 0 01-3.4-1.5l-2.8-1.2-2-1-1.7-.8-1.7-.8-2-1-1.3-.6-1.4-.8-7.1-4-4.3-2.7-2.3-1.4-1.2-.7-1.2-.8-5-3.5-2.6-1.8-2.6-2-2.7-2.1-1.4-1.1-.7-.5-.7-.6-5.4-4.7-1.4-1.2a8 8 0 01-1.3-1.3l-2.7-2.6-2.8-2.6-.7-.7-.7-.7-1.3-1.4-5.3-5.6-5.1-5.9-1.3-1.5-1.2-1.5-2.4-3.1-2.4-3.1-2.2-3.2-2.2-3.1-2.1-3.1-3.9-6.3-.5-.8-.4-.8-.9-1.6-1.7-3.1-1.7-3-1.5-3-2.9-5.8a160.7 160.7 0 01-9.8-26.1l-.6-2.2-.5-1.8 37.6-10.4.4 1.4c.1.5.2 1.1.5 1.7l.8 2.3c1.1 3.5 2.8 8.4 5.2 14.1l1.9 4.5 2.3 4.7 1.2 2.4 1.4 2.4 1.4 2.5.7 1.3.3.6.4.6 3.1 5 1.7 2.5 1.8 2.5 1.7 2.5 1.9 2.4 1.9 2.5.9 1.2 1 1.2 4.1 4.8 4.3 4.5 1.1 1.1.5.6.6.5 2.2 2.1 2.2 2.1 1.1 1 1.1 1 4.4 3.8.5.5.6.4 1.1.8 2.2 1.7 2.1 1.6 2.1 1.5 4 2.8.9.7 1 .6 1.9 1.1 3.4 2.2 5.7 3.2 1.1.6 1 .5 1.6.8 1.7.9zm80.1 53.1l2.5-.2 2.9-.2 1.8-.1 1.9-.2 9.3-1.1 5.2-.9a83 83 0 0010.6-2.2c.9-.2 1.8-.3 2.6-.6l2.5-.7 4.7-1.3 4.2-1.3 6.3-2 2.3-.9-2.1-5.7-2.3.9-6.1 2-4.1 1.3-4.6 1.2-2.4.7-2.5.6-5.1 1.1-5.2 1-5 .9-9 1.1-1.9.2-1.7.1-2.8.2-2.4.2.4 5.9zm-25.1-.3l2.4.2 2.5.2 2.9.1 5.4.1h2.4v-6h-2.4l-5.2-.1-2.8-.1-2.4-.2-2.4-.2-.4 6zm-25.7-3.6a31.7 31.7 0 003.1.6l1.8.3 5 .8.9-6-4.8-.8-1.8-.3-1.5-.3-1.5-.3-1.2 6zm-16.1-4.1l.4.1 1.1.3 3.3.9 4.9 1.3 1.4-5.9-4.7-1.3-3.2-.9-1.1-.3-.4-.1-1.7 5.9zm-17.9-6.4l.4.2 1.1.4 3.2 1.2 4.7 1.8 2-5.7-4.6-1.7-3.1-1.2-1-.4-.4-.2-2.3 5.6zm-56.2-36l.3.3.9.8 2.8 2.4a46.2 46.2 0 004.1 3.5l3.2-3.9-1.3-1-2.7-2.4-2.7-2.3-.9-.8-.3-.3-3.4 3.7zm-19.4-20.2a132.2 132.2 0 003.9 4.5l2.3 2.6 4.5 4.7 1.5 1.5.6.6 3.6-3.6-.6-.5-1.4-1.5-4.3-4.6-2.2-2.5-1.9-2.2-1.9-2.2-4.1 3.2zM413 523.2l1.6 2.5 1.6 2.5 1.9 2.9 3.7 5.3 1.2 1.7.5.6 4.1-3-.5-.6-1.2-1.7-3.6-5.1c-.7-.9-1.2-1.9-1.8-2.8L419 523l-1.5-2.4-4.5 2.6zm-19-42.6l1.8 5.6.4 1.3.5 1.4 1.1 3 1.2 3.2.6 1.6.7 1.6 2.7 6.3.7 1.5.7 1.4 1.3 2.5 1.9 3.8.8 1.4 4.5-2.4-.8-1.4-1.8-3.7-1.2-2.5-.7-1.3-.7-1.4-2.7-6.1-.7-1.6-.6-1.6-1.2-3.1-1.1-2.9-.5-1.3-.4-1.3-1.7-5.4-4.8 1.4zM570.3 217.8l-4.2.3-4.8.3-2.9.3-3.2.4c-9 1.1-21 3.2-32.7 6.7l-2.2.7-2.2.7-4.3 1.4-2.1.7-2.1.8-4.1 1.5c-2.7.9-5.2 2.1-7.6 3.1a109.8 109.8 0 00-12.3 5.7l-1.2.6-1.1.6-1.9 1.1-3.6 2 3 5.2 3.5-2 1.9-1 1.1-.6 1.2-.6 5.4-2.7 6.5-2.9c2.3-1 4.7-2.1 7.3-3l3.9-1.5 2-.8 2.1-.7 4.2-1.3 2.1-.7 2.1-.6a201 201 0 0131.7-6.5l3.1-.4 2.8-.3a179.7 179.7 0 008.6-.6v-5.9zM691.3 603.8l1.8-1.1 2.1-1.3 2.7-1.7 6.6-4.6 3.6-2.7 3.7-2.9 1.9-1.4 1.8-1.5 3.4-3 3.2-2.8 2.8-2.6 4.1-3.9 1.2-1.1.4-.4-4.3-4.2-.4.4-1.1 1.1-4 3.8-2.7 2.5-3.1 2.7-3.3 2.9-1.7 1.5-1.8 1.4-3.6 2.8c-1.2.9-2.3 1.9-3.5 2.6l-6.4 4.5-2.6 1.7-2 1.3-1.8 1.1 3 4.9zM638.4 627.1l2.1-.6 5.4-1.7 3.6-1.2 1.9-.7 2-.8 4.2-1.6 2.2-.8 2.1-.9 4.3-1.9 2.1-.9 1-.4 1-.5 7.2-3.6 2.8-1.5a26 26 0 012.2-1.2l1.9-1-3-5.2-1.8 1-2.1 1.2-2.7 1.5-7 3.5-1 .5-1 .4-2 .9-4.2 1.8-2.1.9-2.1.8-4.1 1.5-2 .7-1.9.7-3.5 1.1-5.2 1.7-2 .5 1.7 5.8zM578 635.2l2.2.1 5.7-.1 3.8-.1 4.2-.3 4.5-.3 2.3-.2 2.3-.3 4.6-.6 4.5-.6 7.9-1.3 5.5-1.2 2.1-.5-1.3-5.9-2 .4-5.4 1.2-7.7 1.3c-1.4.3-2.9.4-4.4.6l-4.5.5-2.3.3-2.3.2-4.4.3-4.1.3-3.7.1-5.5.1-2.1-.1.1 6.1zM520.8 626.8l7.6 2 3.7.9 4.1.9 2.2.5 2.2.4 4.6.8 4.6.8 4.5.5c2.9.3 5.6.7 8 .8l7.8.6.3-6-7.6-.5c-2.3-.1-4.9-.5-7.8-.8l-4.4-.5-4.5-.8-4.5-.8-2.2-.4-2.1-.5-4-.9-3.6-.8-7.3-2-1.6 5.8zM374.4 474.5l2 7.6.5 1.8.6 1.9 1.3 4 .7 2.1.7 2.2 1.7 4.4 1.6 4.4 1.8 4.1 1.7 3.9.8 1.8.8 1.6 3.5 7 5.3-2.8-3.4-6.8-.8-1.6-.8-1.7-1.6-3.8-1.7-4-1.6-4.2-1.6-4.2-.7-2.1-.7-2.1-1.3-3.9-.6-1.8-.5-1.7-2-7.3-5.7 1.2z"/><path class="st2" d="M690.5 249.7l-3.5-2.2c-2.2-1.5-5.6-3.2-9.5-5.5l-1.5-.9-1.6-.8-3.4-1.7-3.6-1.8-3.8-1.7a191 191 0 00-16.6-6.5l-8.6-2.8-8.5-2.3a164.6 164.6 0 00-18.4-3.6l-1.5-.3-1.4-.2-4.8-.6-3.1-.4-1.1-.1-.6 6 1.1.1 3 .4 4.6.5 1.4.2 1.5.2 3.1.5c4.4.6 9.4 1.8 14.8 3l8.2 2.2 8.4 2.7c5.5 2 11.1 4 16.1 6.3l3.7 1.6a109 109 0 006.8 3.3l1.6.8 1.5.8c3.8 2.2 7.1 3.9 9.2 5.3l3.4 2.1 3.1-4.6zM771.8 332.4l-1.9-3.9-2.2-4.4-3.1-5.6a214 214 0 00-19.3-28.4l-1.5-1.8-1.5-1.8-3-3.5-1.5-1.7-1.6-1.7a95 95 0 00-3.1-3.2l-3-3.1-3-2.9-2.8-2.7-1.4-1.3-.7-.6-.7-.6-4.9-4.2-3.8-3.2-3.4-2.6-3.7 4.8 3.3 2.6 3.7 3.1a448.1 448.1 0 015.4 4.7l.6.6 1.3 1.3 2.8 2.6 2.9 2.8 2.9 3.1 3 3.2 1.5 1.6 1.5 1.7 2.9 3.4 1.5 1.7 1.5 1.8a205.9 205.9 0 0121.8 33c.9 1.6 1.5 3.1 2.1 4.3l1.9 3.7 5.5-2.8z"/><path class="st2" d="M430.6 273.6l-2.6 2.8-3.2 3.4-2.1 2.2-2.2 2.6a198.5 198.5 0 00-24.3 34.4l-3.4 6.1-3.3 6.6-.8 1.7-.8 1.7-1.5 3.6c-1 2.4-2.2 4.8-3.1 7.4a204.9 204.9 0 00-14.5 73.9c-.1 7.1.2 14.4.8 21.8.1 1.9.4 3.7.6 5.6l.7 5.7.9 5.7.5 2.9.5 2.9c3.1 15.3 7.9 30.9 14.8 46.2l.6 1.4.7 1.4 1.4 2.8 2.8 5.7 3.1 5.6 1.6 2.8 1.7 2.8a168 168 0 003.5 5.5l1.8 2.7 1.9 2.7 1.9 2.7.9 1.4 1 1.3 4.1 5.3c1.3 1.8 2.8 3.5 4.3 5.2l4.4 5.1 4.7 4.9 2.4 2.5 2.5 2.4 5 4.8.6.6.7.6 1.3 1.1 2.6 2.3c3.4 3.1 7.2 5.9 10.9 8.8 7.6 5.5 15.4 10.8 23.9 15.4l3.1 1.8.8.4.8.4 1.6.8 6.5 3.2 6.6 2.9 3.3 1.5 3.4 1.3a213 213 0 0065.1 13.8l.9.1h2.8l3.8.1 3.8.1 3.8-.1 3.8-.1c1.3 0 2.5 0 3.8-.2l7.6-.5 3.8-.4 3.8-.5 3.8-.5 3.8-.6 3.8-.6 1.9-.3 1.9-.4 7.5-1.6.9-.2.9-.3 1.9-.5 3.7-1 3.7-1 3.7-1.2 3.7-1.2 1.8-.6 1.8-.7 7.2-2.7.9-.3.9-.4 1.8-.8 3.5-1.5 3.5-1.6 3.5-1.7 3.5-1.7 1.7-.9 1.7-.9 6.8-3.8.8-.5.8-.5 1.6-1 3.3-2.1 3.3-2.1 3.2-2.2 3.2-2.2c1.1-.8 2.2-1.4 3.2-2.3l6.2-4.8 1.5-1.2 1.5-1.3 3-2.5 3-2.5 1.4-1.3 1.4-1.3 5.7-5.4 5.4-5.7 1.3-1.4 1.3-1.4 2.5-3 2.5-3 1.3-1.5 1.2-1.5 4.8-6.2 2.3-3.2 2.2-3.2 2.2-3.2 2.1-3.3 2.1-3.3 1-1.6.5-.8.5-.8 3.8-6.8.9-1.7.9-1.7 1.7-3.5 1.7-3.5 1.6-3.5 1.5-3.5.8-1.8.4-.9.3-.9 2.7-7.2.7-1.8.6-1.8 1.2-3.7 1.2-3.7 1-3.7 1-3.7.5-1.9.3-.9.2-.9 1.6-7.5.4-1.9.3-1.9.6-3.8.6-3.8.5-3.8.5-3.8.4-3.8.5-7.6.2-3.8.1-3.8.1-3.8-.1-3.8-.1-3.8v-2.8l-.1-.9-.5-7.5a213 213 0 00-13.3-57.6l-1.3-3.4-1.5-3.3-2.9-6.6-3.2-6.5-.8-1.6-.4-.8-.4-.8-1.8-3.1c-4.5-8.4-9.8-16.3-15.4-23.9-2.9-3.7-5.6-7.5-8.8-10.9l-2.3-2.6-1.1-1.3-.6-.7-.6-.6-4.8-5-2.4-2.5-2.5-2.4-4.9-4.7-5.1-4.4c-1.7-1.5-3.4-3-5.2-4.3l-5.3-4.1-1.3-1-1.4-.9-2.7-1.9-2.7-1.9-2.7-1.8-5.5-3.5a26 26 0 00-2.8-1.7l-2.8-1.6-5.6-3.1-5.7-2.8-2.8-1.4-1.4-.7-1.4-.6a211.8 211.8 0 00-49.1-15.3l-2.9-.5-5.7-.9-5.7-.7c-1.9-.2-3.7-.5-5.6-.6a209.3 209.3 0 00-95.7 13.7c-2.6.9-5 2.1-7.4 3.1L492 231l-1.7.8-1.7.8-6.6 3.3-6.1 3.4a202.5 202.5 0 00-34.4 24.3l-2.6 2.2-2.2 2.1a80 80 0 01-3.4 3.2l-2.7 2.5-.6-.6 2.8-2.6 3.4-3.2 2.2-2.1 2.6-2.2c7.3-6.4 18.6-15.5 34.5-24.4l6.1-3.4 6.6-3.3 1.7-.8 1.7-.8 3.6-1.6c2.4-1 4.9-2.2 7.5-3.1a210.6 210.6 0 0196.2-13.7c1.9.1 3.7.4 5.6.6l5.7.7 5.7.9 2.9.5 2.9.5c15.3 3.1 31 8 46.4 14.9l1.5.6 1.4.7 2.8 1.4 5.7 2.9 5.6 3.1 2.8 1.6 2.8 1.7 5.6 3.5 2.7 1.8 2.7 1.9 2.7 1.9 1.4.9 1.3 1 5.3 4.1c1.8 1.3 3.5 2.8 5.2 4.3l5.1 4.4 5 4.7 2.5 2.4 2.4 2.5 4.8 5 .6.6.6.7 1.1 1.3 2.3 2.6c3.1 3.5 5.9 7.2 8.8 10.9 5.5 7.6 10.9 15.5 15.4 24l1.8 3.1.4.8.4.8.8 1.6 3.2 6.5 2.9 6.7 1.5 3.4 1.3 3.4a211.7 211.7 0 0113.9 65.3l.1.9v2.8l.1 3.8.1 3.8-.1 3.8-.1 3.8c0 1.3 0 2.5-.2 3.8l-.5 7.6-.4 3.8-.5 3.8-.5 3.8-.6 3.8-.6 3.8-.3 1.9-.4 1.9-1.6 7.5-.2.9-.3.9-.5 1.9-1 3.7-1 3.7-1.2 3.7-1.2 3.7-.6 1.8-.7 1.8-2.7 7.3-.3.9-.4.9-.8 1.8-1.5 3.6-1.6 3.6-1.7 3.5-1.7 3.5-.9 1.7-.9 1.7-3.8 6.8-.5.9-.5.8-1 1.7-2.1 3.3-2.1 3.3-2.2 3.2-2.2 3.2-2.3 3.2-4.8 6.2-1.2 1.5-1.3 1.5-2.6 3-2.5 3-1.3 1.4-1.4 1.4-5.4 5.7-5.7 5.4-1.4 1.4-1.4 1.3-3 2.5-3 2.6-1.5 1.3-1.5 1.2-6.2 4.8-3.2 2.3-3.2 2.2-3.2 2.2-3.3 2.1-3.3 2.1-1.7 1-.8.5-.9.5-6.8 3.8-1.7.9-1.7.9-3.5 1.7-3.5 1.7-3.6 1.6-3.6 1.5-1.8.8-.9.4-.9.3-7.3 2.7-1.8.7-1.8.6-3.7 1.2-3.7 1.2-3.7 1-3.7 1-1.9.5-.9.3-.9.2-7.5 1.6-1.9.4-1.9.3-3.8.6-3.8.6-3.8.5-3.8.5c-1.3.1-2.5.4-3.8.4l-7.6.5-3.8.2-3.8.1-3.8.1-3.8-.1-3.8-.1h-2.8l-.9-.1-7.5-.5a210.9 210.9 0 01-57.8-13.4l-3.4-1.3-3.4-1.5-6.7-2.9-6.5-3.2-1.6-.8-.8-.4-.8-.4-3.1-1.8c-8.5-4.5-16.4-9.9-24-15.4-3.7-2.9-7.5-5.7-11-8.8l-2.6-2.3-1.3-1.1-.7-.6-.6-.6-5-4.8-2.5-2.4-2.4-2.5-4.7-5-4.4-5.1c-1.5-1.7-3-3.4-4.3-5.2l-4.1-5.3-1-1.3-.9-1.4-1.9-2.7-1.9-2.7-1.8-2.7-3.5-5.6a26 26 0 01-1.7-2.8l-1.6-2.8-3.1-5.6-2.9-5.7-1.4-2.8-.7-1.4-.6-1.5c-6.9-15.4-11.8-31-14.9-46.4l-.5-2.9-.5-2.9-.9-5.7-.7-5.7c-.2-1.9-.5-3.7-.6-5.6a210.6 210.6 0 0113.7-96.2c.9-2.6 2.1-5 3.1-7.5l1.6-3.6.8-1.7.8-1.7 3.3-6.6 3.4-6.1c9-15.9 18-27.2 24.4-34.5l2.2-2.6 2.1-2.2 3.2-3.4 2.6-2.8.5.8z"/><path class="st2" d="M841 455.4l-21.8-2.7.6-4.9.5-5.7.5-7.4.2-8.8.1-2.4v-2.4l-.1-5-.2-5.2-.4-5.3-.4-5.4-.6-5.4a246.6 246.6 0 00-7.9-39.1l-1.1-3.7-1.1-3.4-1.8-5.4-1.8-4.7-1.7-4.5c-.5-1.5-1.3-3.2-2.2-5.3l-3.1-7.1c-5-10.5-12.7-25.3-24.5-41.3l-4.7-6-2.4-3.1-2.6-3-5.3-6.2-5.8-6.1-3-3.1-3.2-3-3.2-3-1.6-1.5-1.7-1.5-6.9-5.9-1.7-1.5-1.8-1.4-3.7-2.8a230 230 0 00-68.3-36.8l-9.5-3.1-9.6-2.6c-1.6-.5-3.2-.8-4.8-1.1l-4.8-1.1-2.4-.5-1.2-.3-1.2-.2-4.8-.8-4.8-.8-4.8-.6-4.8-.6-2.4-.3-2.4-.2-9.5-.7-9.4-.2a257.2 257.2 0 00-48.2 4.5l-4 .9-7.7 1.7-7.4 2-3.6 1-3.4 1.1-6.6 2.1-6.2 2.3-5.8 2.2-10.4 4.5-8.6 4.3-1.9.9-1.7 1-3.2 1.8-5 2.8-3 1.9-1 .6-14.4-23.5 4.2-2.6 4.3-2.4 2.8 4.9 3.1-1.7 3.5-2 4.7-2.3 5.6-2.7 1.5-.7 1.6-.7 3.2-1.4 6.8-2.9 7.1-2.7c9.6-3.7 19.4-6.5 26.8-8.4l2.7-.7 2.4-.5a59 59 0 003.9-.9l3.4-.7-1.1-5.5 2.1-.4 4.6-.8 6.7-1.1.8 5.5.9-.2 1.1-.2 1.4-.2 7.5-.9 4-.5a159.9 159.9 0 006.9-.5l-.4-5.6 3.6-.3 1.7-.1 1.9-.1 4.2-.1c2.9-.1 5.7-.2 7.9-.1l3.6.1-.1 5.6 7.1.2 2.6.1 2.3.2 2.2.2.4-5.6a122 122 0 007.8.6l1.4.2-.6 5.6 7 .8 2.6.3 2.2.4 2.2.4.9-5.5 6.4 1.1 2.3.4 2 .4 2 .4-1.1 5.5 6.9 1.5c1.7.3 3.4.9 4.7 1.2l2.1.6 1.4-5.4 2.8.7a44 44 0 015.4 1.5l2.4.8 5.5 1.8 3.1 1 3.3 1.2 7.2 2.7 1.9.7 1.9.8 4 1.7 4.2 1.8 2.2 1 2.2 1.1 9 4.4 9.2 5.1 2.4 1.3 2.3 1.4 4.7 2.9a269 269 0 0193.6 100.5l1 1.9.9 1.9a421 421 0 013.4 6.9c.5 1.1 1.1 2.1 1.5 3.2l1.3 3 2.3 5.3 1 2.3.8 2 1.2 3.2 1 2.7 2-.8 2 5.2 2 6.1 1.2 3.8 1.3 4.2c3.4 11.7 7 27.7 8.8 43.9l.7 6.1.4 6 .4 5.9.2 5.8.1 5.6v2.7l-.1 2.7-.2 9.9-.6 8.3-.5 6.4-.7 5.6-1.7-.2.4-3.5.4-3.5.3-4.1.5-7.6.1-1.4V435v-1l-6-.2v2l-.1 1.4-.5 7.5-.3 4-.4 3.5c.2 1.9.1 3.2.1 3.2zM736.4 205l-6.4-4.4-2.3-1.6-2.1-1.3-2.1-1.3-2.7 4.3 2 1.3 2.1 1.3 2.3 1.6 6.2 4.4 3-4.3zm30.9 25.8l-3.1-2.9c-1.8-1.7-4.2-4.1-6.8-6.3l-7-6-2.4-1.9-.9-.7-3.2 4 .9.7 2.3 1.9 6.9 5.9c2.6 2.1 4.9 4.4 6.7 6.1l3 2.8 3.6-3.6zm28.2 32.2l-2.6-3.3-2.7-3.4-3.1-3.9-6-7a54.1 54.1 0 00-2.8-3.1l-3.8 3.4 2.8 3.1 5.9 6.9 3.1 3.8 2.6 3.4 2.5 3.3 4.1-3.2zm33.1 58.6l-3.4-7.8-1.6-3.7-2-4.1-2.2-4.4-2.3-4.5-4.8-8.7-1.2-2-1.2-1.9-2.2-3.5-3.3-5.2-1-1.4-.3-.5-4.2 2.8.3.5.9 1.4 3.2 5.1 2.1 3.4 1.2 1.9 1.1 2 4.7 8.5 2.3 4.4a174 174 0 002.1 4.3l2 4a104 104 0 011.6 3.7l3.3 7.6 4.9-1.9zm20.4 98.8l-.1-3.6-.1-4.1-.1-2.5-.2-2.8-.5-6.3-.3-3.4-.4-3.6a797.9 797.9 0 01-1.1-9.4l-.3-1.9-.6-3.9-1.3-7.7-1.6-7.4c-1-4.8-2.3-9.2-3.3-13l-.7-2.7-.3-1.3-.4-1.2-1.3-3.9-1.1-3.4-5.7 1.9 1.1 3.3 1.2 3.8.4 1.1.3 1.2.7 2.7c1 3.7 2.3 8 3.2 12.7l1.6 7.2 1.3 7.5.6 3.8.3 1.9.2 1.9.9 7.3.4 3.5.2 3.4.4 6.2.2 2.7.1 2.5.1 4 .1 3.5h6.1zM367.8 301.5l-3.1 5.6-.8 1.4-.9 1.6-1.9 3.7-2.1 4.4-1.2 2.4-1.1 2.6a314 314 0 00-2.4 5.6l-1.3 3-1.2 3.2-2.6 6.8a339 339 0 00-2.4 7.5l-1.3 3.9-1.1 4.1-1.1 4.2-.6 2.2-.5 2.2-2 9.1c-.4 1.5-.6 3.1-.9 4.7l-.8 4.9a240.5 240.5 0 002.5 90.2c3.5 16.2 8.8 32.7 15.9 48.6a236.8 236.8 0 0026.7 45.5 248.9 248.9 0 0077.7 68.1 241.4 241.4 0 0085.7 28.5l9.7 1.2 9.3.7 2.3.2 2.2.1 4.4.1c2.9.1 5.7.2 8.4.1l7.8-.2h.9l.9-.1 1.8-.1 3.6-.3 3.4-.2 3.3-.3 6.1-.7 2.8-.3 1.3-.2 1.3-.2 4.8-.8 4.1-.7 1.8-.3 1.6-.4 6.2-1.4-.9-3.8-6.1 1.3-1.6.3-1.8.3-4.1.7-4.7.8-1.3.2-1.3.2-2.8.3-6 .7-3.2.3-3.4.2-3.5.3-1.8.1-.9.1h-.9l-7.7.2c-2.7.1-5.4 0-8.2-.1l-4.3-.1-2.2-.1-2.2-.2-9.1-.7a240.9 240.9 0 01-170.3-96.2 235.7 235.7 0 01-42-92.6 250 250 0 01-5.4-46.8c-.3-15 .9-29.2 3-42.1l.8-4.8.9-4.7 2-9 .5-2.2.6-2.1 1.1-4.1 1.1-4 1.2-3.9 2.4-7.3 2.5-6.7 1.2-3.2 1.3-3 2.4-5.5 1.1-2.6 1.1-2.4a82.9 82.9 0 003.9-8l.8-1.6.8-1.4 3.1-5.5-3.3-1.5z"/><path class="st2" d="M356.9 295.2l-3.3 5.9-.8 1.5-.9 1.7-2 3.9-2.3 4.6-1.2 2.5-1.2 2.7-2.6 5.9-1.3 3.2-1.3 3.4-2.7 7.2-2.6 7.8-1.3 4.1-1.2 4.3-1.2 4.4-.6 2.3-.6 2.3a753 753 0 00-2.1 9.6c-.4 1.6-.6 3.3-.9 5l-.9 5.1a265 265 0 002.5 94.8 258.5 258.5 0 0044.8 99 260.4 260.4 0 0081.7 71.6 256.2 256.2 0 00100.4 31.2l9.8.7 2.4.2 2.3.1 4.6.1c3 .1 5.9.2 8.8.1l8.2-.2h1l1-.1 1.9-.1 3.7-.3 3.6-.3 3.4-.3 6.4-.8 3-.4 1.4-.2 1.4-.2 5-.8 4.3-.7a79 79 0 001.9-.3l1.7-.4 6.5-1.4-.1-.6-6.5 1.4-1.7.4-1.9.3-4.3.7-5 .8-1.4.2-1.4.2-2.9.4-6.4.8c-1.1.2-2.3.2-3.4.3l-3.6.3-3.7.3-1.9.1-1 .1h-1l-8.2.2c-2.8.1-5.8 0-8.8-.1l-4.6-.1-2.3-.1-2.4-.2-9.7-.7-10.2-1.2a257.7 257.7 0 01-199.4-149.3 259.8 259.8 0 01-22.4-100.8c-.3-16 1-31.1 3.2-44.8l.9-5.1c.3-1.7.5-3.4.9-5l2.1-9.5.6-2.3.6-2.3 1.2-4.4 1.2-4.3 1.3-4.1 2.5-7.8 2.7-7.2 1.3-3.4 1.3-3.2 2.6-5.9 1.2-2.7 1.2-2.5 2.3-4.6 1.9-3.9.9-1.7.8-1.5 3.3-5.8-.5-.1z"/><path class="st2" d="M363 298.7l-3.2 5.7-.8 1.5-.9 1.7-1.9 3.8-2.2 4.5-1.2 2.5-1.2 2.7-2.5 5.7-1.3 3.1-1.2 3.3-2.6 7-2.5 7.6-1.3 4-1.1 4.2-1.2 4.3-.6 2.2-.6 2.2-2 9.3c-.4 1.6-.6 3.2-.9 4.9l-.8 5a252.6 252.6 0 0018.8 142 248.1 248.1 0 0064 86.2 251.1 251.1 0 00140.3 60.5l9.5.7 2.3.2 2.3.1 4.5.1c2.9.1 5.8.2 8.5.1l8-.2h1l1-.1 1.9-.1 3.6-.3 3.5-.3 3.3-.3 6.2-.7 2.9-.3 1.4-.2 1.3-.2 4.9-.8 4.2-.7 1.8-.3 1.6-.4 6.4-1.4-.9-3.8-6.3 1.4-1.6.4-1.8.3-4.1.7-4.8.8-1.3.2-1.4.2-2.8.3-6.1.7-3.3.3-3.4.2-3.6.3-1.8.1-.9.1h-.9l-7.9.2c-2.7.1-5.5 0-8.4-.1l-4.4-.1-2.2-.1-2.3-.2-9.4-.7-9.8-1.2a245 245 0 01-128.4-58.4 240.8 240.8 0 01-79-133.8 253.2 253.2 0 01-1.7-95.7l.9-4.8 2-9.2.5-2.2.6-2.2 1.1-4.2 1.1-4.1 1.3-3.9a339 339 0 012.4-7.5l2.6-6.9 1.2-3.2 1.3-3.1 2.5-5.7 1.1-2.6 1.2-2.4 2.2-4.4 1.9-3.8.9-1.6.8-1.5 3.1-5.6-3.4-2zM614.1 675.7l1.5-.2 3.2-.5 4.6-.8-.4-2.1-4.6.8-3.2.5-1.4.2.3 2.1zM571.4 677.8l4.7.1 3.2.1h1.5v-2.2h-1.5l-3.2-.1-4.7-.1v2.2z"/><path class="st2" d="M487.9 660.8l4.4 1.7 3 1.1 1 .4.4.1.7-2-.4-.1-1-.4-3-1.1-4.4-1.6-.7 1.9zM468.3 652.2l4.2 2.1a55.1 55.1 0 004.4 1.9l.9-2-1.3-.6-2.9-1.3-4.2-2.1-1.1 2zM449.5 642a93 93 0 004.1 2.4l4.1 2.3 1-1.9-4.1-2.3-2.8-1.6-1.2-.8-1.1 1.9zM431.6 630.2l7.7 5.4 1.2-1.8-7.7-5.3zM384.7 586.7l6.1 7.1 1.6-1.5-6-7zM371.7 569.7a504.6 504.6 0 004.7 6.5l.9 1.2 1.7-1.3-.9-1.2c-.5-.7-1.3-1.6-1.9-2.6l-2.7-3.8-1.8 1.2zM360.1 551.7l.2.4.5.9 1.7 2.8 2.5 4 1.8-1.2-2.5-4-1.7-2.7-.5-.9-.2-.4-1.8 1.1zM350.1 532.8l4.1 8.4 1.9-1-4.1-8.4zM325.3 423.2l.2 9.5 2.2-.1-.2-9.4zM326.3 401.7l-.3 4.7-.2 3.2-.1 1.1v.4l2.1.1v-.4l.1-1.1.2-3.2.3-4.7-2.1-.1zM329 380.4l-.8 4.7a57 57 0 01-.3 1.7l-.2 1.5-.2 1.5 2.1.3.2-1.5.2-1.5.3-1.7.8-4.6-2.1-.4zM333.4 359.4l-.4 1.4-.4 1.5-.4 1.7-1 4.6 2.1.5 1-4.6.4-1.7.4-1.5.4-1.4-2.1-.5zM347.6 318.9l-1.9 4.3-1.3 3-.4 1-.1.4 2 .8.1-.4.4-1 1.3-3 1.9-4.3-2-.8z"/></g><g class="st1"><path class="st2" d="M492.7 343.4l-.5.5-1.3 1.5-2 2.4-.6.7-.6.8-1.3 1.7-1.4 1.8-.7 1-.7 1-1.5 2.1-.8 1.1-.7 1.2a121.4 121.4 0 00-10.6 20.7l-1 2.6-.5 1.2-.4 1.2-1.5 4.6-1.1 3.9-.4 1.6a32.5 32.5 0 01-.9 4.1l14.8 3 .5-2.3.3-1.2.4-1.4.9-3.4 1.3-4 .3-1.1.4-1.1.8-2.2a93.7 93.7 0 019.2-18l.6-1 .7-1 1.3-1.9.6-.9.6-.9 1.3-1.6 1.1-1.5.5-.7.5-.6 1.8-2.1 1.1-1.3.4-.5-10.9-10zM462.4 411.2v.4l-.1 1-.3 3.6-.1 1.2v1.2l-.1 2.7v7.3l.1 1.5.2 2.9.2 2.7.3 2.4.2 2 .3 1.5.2 1.3 14.9-2.5-.2-1.2-.2-1.4-.2-1.8a52.8 52.8 0 01-.5-4.4l-.2-2.5-.1-1.3v-1.3-5.1l.1-2.3V418l.1-1 .2-3.1.1-.9v-.3l-14.9-1.5zM441.7 415.7v1.4l-.1 3.7-.1 2.5.1 2.8.1 3v.8l.1.8.1 1.5c.2 4.1.8 8.2 1.2 11.2l.9 5.1 3.9-.7-.8-4.9c-.4-3-.9-6.9-1.1-10.9l-.1-1.5-.1-.7v-.7l-.1-2.9-.1-2.7.1-2.4.1-3.6v-1-.4l-4.1-.4zM514.4 357.3l-1.2 1.2-1.4 1.5-.9 1-1 1.2a84.7 84.7 0 00-10.7 15.1l-1.5 2.7-1.4 2.9-.4.7-.4.8-.7 1.6c-.4 1.1-1 2.1-1.4 3.3a87 87 0 00-6.3 32.6c-.1 3.1.1 6.4.3 9.6l.3 2.5.3 2.5.4 2.5.2 1.3.2 1.3a99.6 99.6 0 006.5 20.3l.3.6.3.6.6 1.2 1.2 2.5 1.4 2.5.7 1.2.8 1.2 1.5 2.4.8 1.2.8 1.2.8 1.2.4.6.5.6 1.8 2.3 1.9 2.3 1.9 2.3 2.1 2.2 1 1.1 1.1 1 2.2 2.1.3.3.3.2.6.5 1.2 1c1.5 1.4 3.2 2.6 4.8 3.9 3.3 2.4 6.8 4.8 10.5 6.7l1.4.8.3.2.4.2.7.3 2.8 1.4 2.9 1.3 1.5.6 1.5.6c8 3.1 16.5 5.1 25.3 5.9l3.3.2h5l1.7-.1h1.7l1.7-.1 3.4-.2 1.7-.2 1.7-.2 1.7-.2 1.7-.3 1.7-.3.8-.1.8-.2 3.3-.7.4-.1.4-.1.8-.2 1.6-.4 1.6-.4 1.6-.5 1.6-.5.8-.3.8-.3 3.2-1.2.4-.1.4-.2.8-.3 1.6-.7 1.6-.7 1.5-.8 1.5-.7.8-.4.7-.4 3-1.7.4-.2.4-.2.7-.5 1.4-.9 1.5-.9 1.4-1 1.4-1 1.4-1 2.7-2.1.7-.5.6-.6 1.3-1.1 1.3-1.1.6-.6.6-.6 2.5-2.4 2.4-2.5.6-.6.6-.6 1.1-1.3 1.1-1.3.6-.6.5-.7 2.1-2.7 1-1.4 1-1.4 1-1.4.9-1.5.9-1.4.5-.7.2-.4.2-.4 1.7-3 .4-.7.4-.8.7-1.5.8-1.5.7-1.6.7-1.6.3-.8.2-.4.1-.4 1.2-3.2.3-.8.3-.8.5-1.6.5-1.6.4-1.6.4-1.6.2-.8.1-.4.1-.4.7-3.3.2-.8.1-.8.3-1.7.3-1.7.2-1.7.2-1.7.2-1.7.2-3.4.1-1.7v-1.7l.1-1.7V418.1l-.2-3.3a92.5 92.5 0 00-5.9-25.3l-.6-1.5-.6-1.5-1.3-2.9-1.4-2.8-.3-.7-.2-.4-.2-.3-.8-1.4c-2-3.7-4.3-7.1-6.7-10.5-1.3-1.6-2.5-3.3-3.9-4.8l-1-1.2-.5-.6-.2-.3-.3-.3-2.1-2.2-1-1.1-1.1-1-2.2-2.1-2.3-1.9-2.3-1.9-2.3-1.8-.6-.5-.6-.4-1.2-.8-1.2-.8-1.2-.8-2.4-1.5-1.2-.8-1.2-.7-2.5-1.4-2.5-1.2-1.2-.6-.6-.3-.6-.3c-6.7-3-13.5-5.2-20.3-6.5l-1.3-.2-1.3-.2-2.5-.4-2.5-.3-2.5-.3c-3.3-.3-6.5-.4-9.6-.3a98 98 0 00-32.6 6.3l-3.3 1.4-1.6.7a3 3 0 00-.8.4l-.7.4-2.9 1.4-2.7 1.5a84.7 84.7 0 00-15.1 10.7l-1.2 1-1 .9-1.5 1.4-1.2 1.2 11.3 11.3 1-1 1.3-1.2.8-.8 1-.8c2.7-2.4 6.8-5.6 12.5-8.9l2.2-1.2 2.4-1.2.6-.3.6-.3a7 7 0 011.3-.5l2.7-1.1A77.6 77.6 0 01579 346c2.6-.1 5.3.1 8 .3l2 .2 2.1.2 2.1.4 1 .2 1 .2a78.1 78.1 0 0116.8 5.4l.5.2.5.3 1 .5 2.1 1 2 1.1 1 .6 1 .6 2 1.2 1 .7 1 .7 1 .7.5.3.5.4 1.9 1.5 1.9 1.6 1.9 1.6 1.8 1.7.9.9.9.9 1.8 1.8.2.2.2.2.4.5.8 1c1.2 1.2 2.1 2.7 3.2 4 2 2.8 4 5.6 5.6 8.7l.6 1.1.2.3.1.3.3.6 1.2 2.3 1 2.4.5 1.2.4 1.2a77.5 77.5 0 014.9 21l.2 2.8v4.1l-.1 1.4v1.4l-.1 1.4-.2 2.8-.2 1.4-.2 1.4-.2 1.4-.3 1.4-.2 1.4-.1.7-.2.7-.6 2.7-.1.3-.1.3-.2.7-.4 1.4-.4 1.4-.4 1.3-.4 1.3-.2.7-.3.7-1 2.6-.1.3-.1.3-.3.6-.6 1.3-.5 1.3-.6 1.2-.6 1.3-.3.6-.3.6-1.4 2.5-.2.3-.2.3-.4.6-.7 1.2-.7 1.2-.8 1.1-.8 1.2-.8 1.2-1.7 2.2-.4.6-.5.5-.9 1.1-.9 1.1-.5.5-.5.5-2 2.1-2.1 2-.5.5-.5.5-1.1.9-1.1.9-.5.5-.6.4-2.2 1.7-1.2.8-1.2.8-1.1.8-1.2.7-1.2.7-.6.4-.3.2-.3.2-2.5 1.4-.6.3-.6.3-1.3.6-1.2.6a7 7 0 01-1.3.5l-1.3.6-.6.3-.3.1-.3.1-2.6 1-.7.3-.7.2-1.3.4-1.3.4-1.4.4-1.4.4-.7.2-.3.1-.3.1-2.7.6-.7.2-.7.1-1.4.2-1.4.3-1.4.2-1.4.2-1.4.2-2.8.2-1.4.1h-1.4l-1.4.1h-4.1l-2.8-.2a77.5 77.5 0 01-21-4.9l-1.2-.4-1.2-.5-2.4-1-2.3-1.2-.6-.3-.3-.1-.3-.2-1.1-.6c-3.1-1.6-5.9-3.6-8.7-5.6-1.3-1.1-2.7-2-4-3.2l-1-.8-.5-.4-.2-.2-.2-.2-1.8-1.8-.9-.9-.9-.9-1.7-1.8-1.6-1.9-1.6-1.9-1.5-1.9-.4-.5-.3-.5-.7-1-.7-1-.7-1-1.2-2-.6-1-.6-1-1.1-2-1-2.1-.5-1-.3-.5-.2-.5a76.4 76.4 0 01-5.4-16.8l-.2-1-.2-1-.4-2.1-.2-2.1a82.6 82.6 0 014.8-36.9l1.1-2.7.5-1.3.3-.6.3-.6 1.2-2.4 1.2-2.2a70.9 70.9 0 0110.5-14.3l1.2-1.3 1-1-10.9-11.7z"/><path class="st2" d="M509.6 352.6l-1.2 1.3-1.5 1.6-1 1-1.1 1.2a91 91 0 00-11.5 16.2l-1.6 2.9-1.5 3.1-.4.8-.4.8-.7 1.7-1.5 3.5a97.3 97.3 0 00-6.8 34.9c-.1 3.4.1 6.8.4 10.3 0 .9.2 1.8.3 2.6l.3 2.7.5 2.7.2 1.4.2 1.4c1.5 7.2 3.8 14.6 7 21.8l.3.7.3.7.7 1.3 1.3 2.7 1.5 2.6.7 1.3.8 1.3 1.6 2.6.9 1.3.9 1.3.9 1.3.4.6.5.6 1.9 2.5c.6.9 1.3 1.6 2 2.4l2.1 2.4 2.2 2.3 1.1 1.2 1.2 1.1a51 51 0 012.4 2.3l.3.3.3.3.6.5 1.3 1.1c1.6 1.5 3.4 2.8 5.1 4.1 3.6 2.6 7.3 5.1 11.2 7.2l1.5.8.4.2.4.2.8.4 3 1.5 3.1 1.4 1.6.7 1.6.6c8.5 3.3 17.7 5.4 27.2 6.3l3.6.3h5.3l1.8-.1h1.8l1.8-.1 3.6-.3 1.8-.2 1.8-.2 1.8-.2 1.8-.3 1.8-.3.9-.1.9-.2 3.5-.8.4-.1.4-.1.9-.2 1.8-.5 1.8-.5 1.7-.6 1.7-.6.9-.3.8-.3 3.4-1.3.4-.2.4-.2.8-.4 1.7-.7 1.7-.7 1.6-.8 1.6-.8.8-.4.8-.4 3.2-1.8.4-.2.4-.2.8-.5 1.5-1 1.6-1 1.5-1.1 1.5-1 1.5-1.1 2.9-2.3.7-.6.7-.6 1.4-1.2 1.4-1.2.7-.6.7-.6 2.7-2.5 2.5-2.7.6-.7.6-.7 1.2-1.4 1.2-1.4.6-.7.6-.7 2.3-2.9 1.1-1.5 1-1.5 1.1-1.5 1-1.6 1-1.5.5-.8.2-.4.2-.4 1.8-3.2.4-.8.4-.8.8-1.6.8-1.6.7-1.7.7-1.7.4-.8.2-.4.2-.4 1.3-3.4.3-.8.3-.9.6-1.7.6-1.7.5-1.8.5-1.8.2-.9.1-.4.1-.4.8-3.5.2-.9.1-.9.3-1.8.3-1.8.2-1.8.2-1.8.2-1.8.3-3.6.1-1.8v-1.8l.1-1.8V417.7l-.3-3.6c-.9-9.4-3-18.6-6.3-27.2l-.6-1.6-.7-1.6-1.4-3.1-1.5-3-.4-.8-.2-.4-.2-.4-.8-1.5c-2.1-4-4.6-7.7-7.2-11.2-1.4-1.7-2.6-3.5-4.1-5.1l-1.1-1.3-.5-.6-.3-.3-.3-.3-2.3-2.4-1.1-1.2-1.2-1.1-2.3-2.2-2.4-2.1-2.4-2-2.5-1.9-.6-.5-.6-.4-1.3-.9-1.3-.9-1.3-.9-2.6-1.6-1.3-.8-1.3-.7a33.2 33.2 0 00-5.3-2.8l-1.3-.7-.7-.3-.7-.3a106.2 106.2 0 00-23.2-7.2l-1.4-.2-2.7-.5-2.7-.3-2.6-.3a101.2 101.2 0 00-45.2 6.4c-1.2.4-2.4 1-3.5 1.5l-1.7.7-.8.4-.8.4-3.1 1.5-2.9 1.6a91 91 0 00-16.2 11.5l-1.2 1.1-1 1-1.6 1.5-1.6 1.5 2.8 2.8 1.3-1.2 1.5-1.5 1-.9 1.2-1c3.3-2.9 8.4-7 15.6-11l2.8-1.5 3-1.5.8-.4.8-.4 1.6-.7 3.4-1.4a93.9 93.9 0 0133.6-6.6c3.2-.1 6.5.1 9.9.3l2.5.3 2.6.3 2.6.4 1.3.2 1.3.2c6.9 1.4 14 3.6 20.9 6.7l.7.3.6.3 1.3.6a31.5 31.5 0 015.1 2.7l1.3.7 1.2.8 2.5 1.6 1.2.8 1.2.9 1.2.8.6.4.6.5a39.8 39.8 0 014.7 3.9l2.3 2 2.2 2.2 1.1 1.1 1.1 1.1 2.2 2.3.3.3.3.3.5.6 1 1.2 4 4.9c2.5 3.4 4.9 7 6.9 10.8l.8 1.4.2.4.2.4.4.7 1.5 2.9 1.3 3 .7 1.5.6 1.5a94.6 94.6 0 016.2 29.5V423.2l-.1 1.8v1.7l-.1 1.7-.2 3.5-.2 1.7-.2 1.7-.2 1.7-.3 1.7-.3 1.7-.1.9-.2.8-.7 3.4-.1.4-.1.4-.2.8-.5 1.7-.4 1.7-.5 1.7-.7 1.8-.3.8-.3.8-1.2 3.3-.2.4-.2.4-.4.8-.7 1.6-.7 1.6-.8 1.6-.8 1.6-.4.8-.4.8-1.7 3.1-.2.4-.2.4-.5.7-.9 1.5-.9 1.5-1 1.4-1 1.4-1 1.4-2.2 2.8-.5.7-.6.7-1.2 1.3-1.1 1.4-.6.7-.6.6-2.4 2.6-2.6 2.4-.6.6-.7.6-1.4 1.1-1.3 1.2-.7.6a3 3 0 01-.7.5l-2.8 2.2-1.4 1-1.4 1-1.4 1-1.5.9-1.5.9-.7.5-.4.2-.4.2-3.1 1.7-.8.4-.8.4-1.6.8-1.6.8-1.6.7-1.6.7-.8.4-.4.2-.4.2-3.3 1.2-.8.3-.7.2-1.7.5-1.7.5-1.7.4-1.7.5-.8.2-.4.1-.4.1-3.4.7-.8.2-.9.1-1.7.3-1.7.3-1.7.2-1.7.2-1.7.2-3.5.2-1.7.1h-1.7l-1.7.1H575.3l-3.4-.2a98.3 98.3 0 01-26.1-6l-1.5-.6-1.5-.7-3-1.3-2.9-1.5-.7-.4-.4-.2-.4-.2-1.4-.8c-3.8-2-7.3-4.5-10.8-6.9-1.7-1.3-3.4-2.5-4.9-4l-1.2-1-.6-.5-.3-.3-.3-.3-2.3-2.2-1.1-1.1-1.1-1.1-2.2-2.2-2-2.3-2-2.3-1.9-2.4-.5-.6-.4-.6-.8-1.2-.9-1.2-.8-1.2-1.6-2.5-.8-1.2-.7-1.3-1.4-2.5-1.3-2.6-.6-1.3-.3-.6-.3-.7a99.5 99.5 0 01-6.9-22.2l-.2-1.3-.4-2.6-.3-2.6-.3-2.5c-.3-3.4-.4-6.7-.3-9.9a93.9 93.9 0 016.6-33.6l1.4-3.4.7-1.6.4-.8.4-.8 1.5-3 1.5-2.8c4-7.2 8.1-12.2 11-15.6l1-1.2.9-1 1.5-1.5 1.2-1.3-3-2.6zM547.5 298.6l-2.8.7-1.5.4-1.7.5-4.1 1.3-4.7 1.8-1.3.5-1.3.6-2.6 1.1c-1.8.7-3.6 1.7-5.4 2.6l-5.5 2.9-1.4.8-.7.4-.7.4-2.6 1.6-1.3.8-1.3.8-2.4 1.7-2.4 1.6-2.2 1.7-2.1 1.6-1 .8-.9.8-3.2 2.8-.7.6-.6.6-1.1 1-2.1 2 17.8 18.2 1.7-1.6.9-.8.5-.5.6-.5 2.6-2.2.7-.6.8-.6 1.7-1.3 1.7-1.4 1.9-1.3a23 23 0 001.9-1.4l1-.7 1-.6 2.1-1.3.5-.3.5-.3 1.1-.6c1.5-.8 2.9-1.7 4.4-2.3l4.3-2.1 2.1-.9 1-.5 1-.4 3.8-1.4 3.2-1 1.4-.4 1.2-.3 2.2-.6-6-24.7zM641.5 530.7l.6-.4.8-.4 1-.6 2.8-1.7a46 46 0 001.7-1.1l1.8-1.3 2-1.4 1-.7 1-.8 2.2-1.7 1.1-.9 1.1-.9 4.5-3.9 4.5-4.3 4.3-4.5 3.9-4.5.9-1.1.9-1.1 1.7-2.2.8-1 .7-1 1.4-2 1.3-1.8 1.1-1.7 1.7-2.8.6-1 .4-.8.4-.6-17.7-10.1-.3.5-.4.7-.5.9a34 34 0 00-1.4 2.3l-.9 1.4-1.1 1.5a10 10 0 00-1.1 1.7l-.6.9-.7.9-1.4 1.8-.7.9-.8.9-3.3 3.8-3.6 3.8-3.8 3.6-3.8 3.3-.9.8-.9.7-1.8 1.4-.9.7-.9.6-1.7 1.1-1.5 1.1-1.4.9-2.3 1.4-.9.5-.7.4-.5.3 10.3 17.5z"/><path class="st2" d="M672.6 333.5l-.8-.9-2.4-2.3-1.7-1.6-2.1-1.9-2.4-2.1-2.7-2.3c-2-1.5-4-3.2-6.4-4.8l-1.8-1.2-1.8-1.2-3.8-2.4-1-.6-1-.6-2.1-1.1-2.1-1.2a11 11 0 00-1.1-.6l-1.1-.5-2.2-1.1-1.1-.5-1.1-.5-4.5-2c-6.1-2.5-12.3-4.5-18.3-6l-4.4-1-2.1-.5-2.1-.4-4.1-.7-3.8-.5-1.8-.2-1.7-.1-3.2-.2-1.5-.1H585l-2.4-.1h-4.5l.4 25.5h6.6l1.2.1 2.6.2 1.4.1 1.4.2 3.1.4 3.3.6 1.7.3 1.7.4 3.6.8c4.8 1.2 9.8 2.9 14.7 4.8l3.6 1.6.9.4.9.4 1.7.9.9.4.9.4 1.7.9 1.7.9.8.5.8.5 3.1 1.9 1.5 1 1.4 1c1.9 1.2 3.5 2.6 5.1 3.8l2.2 1.8 2 1.7 1.7 1.5 1.4 1.3 1.9 1.9.7.7 17.9-17.7zM679.7 459.5l.4-1 .9-2.8.7-2 .7-2.4.7-2.7.7-3.1.4-1.6.2-.8.1-.9.6-3.6c.3-2.5.7-5.1.8-7.9l.2-2.1.1-2.1.1-2.1v-1.1-1.1l-.1-4.3-.3-4.4a112.5 112.5 0 00-7.6-31.1c-.9-2-1.6-3.9-2.5-5.4l-1.1-2.2-.5-1-.5-.9-1.9-3.5-2.2 1.3 1.9 3.4.5.9.5 1 1.1 2.2c.8 1.5 1.5 3.4 2.4 5.3 1.6 4 3.4 8.6 4.6 13.8a120.7 120.7 0 013.2 20.8l.1 4.2v2.1l-.1 2.1-.1 2.1-.2 2c-.1 2.7-.5 5.2-.8 7.7l-.6 3.5-.1.8-.2.8-.4 1.6-.6 3-.7 2.7-.6 2.3-.6 2-.9 2.7-.4 1 2.1.8zM534.6 515.9l.9.4 1 .5 1.5.6 1.8.8 1 .5.5.2.6.2 2.5.9 1.3.5 1.4.5 3 1 1.6.5 1.7.4 1.7.5.9.2.9.2 3.7.8c5 .9 10.5 1.6 15.9 1.8h4l4.1-.1h1l1-.1 2-.1 1-.1h.5l.5-.1 1.9-.2c2.6-.2 5-.7 7.3-1.1l3.3-.7 1.6-.3 1.5-.4 2.8-.8.7-.2.6-.2 1.2-.4c1.6-.5 3-.9 4.1-1.4l3.5-1.3 9.6 23.6-4.4 1.6c-1.4.6-3.1 1.1-5.1 1.7l-1.5.5-.8.3-.8.2-3.5.9-1.9.5-2 .4-4.2.9c-2.9.5-5.9 1.1-9.1 1.4l-2.4.3-.6.1h-.6l-1.2.1-2.5.2-1.2.1h-1.2l-5 .1h-2.6l-2.5-.1c-6.8-.3-13.6-1-19.8-2.2l-4.6-1-1.1-.2-1.1-.3-2.1-.6-2.1-.6c-.7-.2-1.4-.3-2-.6L539 545l-1.8-.6-1.7-.6-3.1-1.2-.7-.3-.7-.3-1.3-.6-2.3-1-1.8-.8-1.3-.7-1.1-.5-1.1-.5-1.3-.6-.8-.4-.9-.5-4.7-2.6-2.8-1.7-1.5-.9-.8-.5-.8-.5-3.3-2.3a25 25 0 01-1.7-1.2l-1.7-1.3-1.8-1.4-.9-.7-.5-.3-.4-.4-3.6-3.1-.9-.8-.9-.8-1.8-1.7-1.8-1.7-.5-.4-.4-.5-.9-.9-3.5-3.7-3.3-3.9-.8-1-.8-1a28 28 0 00-1.6-2 28 28 0 00-1.6-2l-1.4-2.1-1.4-2c-.5-.7-1-1.3-1.4-2.1l-2.6-4.1-.3-.5-.3-.5-.6-1-1.1-2-1.1-2-1-2-1.9-3.8-1.6-3.6a135.4 135.4 0 01-4.9-13.4l-.4-1.4-.3-1.2 24.6-6.8.2.9.3 1.1.5 1.5a88 88 0 003.4 9.2l1.3 2.9 1.5 3 .8 1.6.9 1.6.9 1.6.5.8.2.4.3.4 2.1 3.3a9 9 0 001.1 1.6l1.1 1.6 1.1 1.7 1.3 1.6 1.2 1.6.6.8.7.8 2.7 3.1 2.8 3 .7.7.3.4.4.3 1.5 1.4 1.4 1.4.7.7.7.6 2.9 2.5.3.3.4.3.7.5 1.4 1.1 1.4 1.1 1.4 1 2.6 1.8.6.4.6.4 1.2.8 2.2 1.4 3.7 2.1.7.4.7.3 1.1.5 1.4.8zm52.4 34.8l1.6-.1 1.9-.1 1.2-.1 1.3-.1 6.1-.7 3.4-.6 3.5-.6 3.5-.8 1.7-.4 1.6-.4 3.1-.8 2.7-.8 4.1-1.3 1.5-.6-1.4-3.7-1.5.6-4 1.3-2.7.8-3 .8-1.6.4-1.6.4-3.4.7c-1.1.3-2.3.4-3.4.6l-3.3.6-5.9.7-1.2.1-1.1.1-1.8.1-1.6.1.3 3.8zm-16.4-.2l1.6.1 1.6.1 1.9.1 3.5.1h1.6V547h-1.5l-3.4-.1h-1.8l-1.6-.1-1.5-.1-.4 3.8zm-16.8-2.4l1 .2 1 .2 1.2.2 3.3.5.6-3.9-3.2-.5-1.2-.2-1-.2-1-.2-.7 3.9zm-10.5-2.7l.3.1.7.2 2.2.6 3.2.9.9-3.8-3.1-.8-2.1-.6-.7-.2-.3-.1-1.1 3.7zm-11.8-4.1l.3.1.7.3 2.1.8 3.1 1.2 1.3-3.7-3-1.1a29 29 0 00-2.1-.8l-.7-.3-.3-.1-1.4 3.6zm-36.7-23.6l.2.2.6.5 1.8 1.6 1.8 1.6.8.7 2.1-2.6-.8-.7-1.8-1.5-1.8-1.5-.6-.5-.2-.2-2.1 2.4zm-12.7-13.2l1.3 1.5 1.3 1.5 1.5 1.7 2.9 3.1 1 1 .4.4 2.3-2.4-.4-.4-.9-1-2.8-3-1.5-1.6-1.2-1.5-1.2-1.4-2.7 2.1zm-11.2-15.9l1 1.6 1 1.7 1.2 1.9 2.4 3.5.8 1.1.3.4 2.7-2-.3-.4-.8-1.1-2.3-3.4-1.2-1.8-1-1.6-1-1.6-2.8 1.7zm-12.5-27.9l1.2 3.6.3.9.3.9.7 1.9.8 2.1.4 1.1.5 1.1 1.8 4.1.4 1 .5.9.8 1.7 1.2 2.5.5.9 2.9-1.6-.5-.9-1.2-2.4-.8-1.6-.4-.9-.4-.9-1.7-4-.4-1-.4-1-.8-2-.7-1.9-.3-.9-.3-.8-1.1-3.6-3.3.8zM573.7 288.9l-2.7.2-3.1.2-1.9.2-2.1.3c-5.9.7-13.8 2.1-21.4 4.4l-1.4.4-1.4.5-2.8.9-1.4.5-1.3.5-2.6 1c-1.8.6-3.4 1.4-5 2l-4.4 2-3.6 1.8-.8.4-.7.4-1.3.7-2.4 1.3 2 3.4 2.3-1.3 1.2-.7.7-.4.8-.4 3.5-1.7c1.3-.7 2.7-1.3 4.2-1.9l4.8-2 2.6-1 1.3-.5 1.3-.4 2.7-.9 1.4-.4 1.4-.4a131 131 0 0122.8-4.4l1.9-.2 3-.2 2.6-.2-.2-4.1zM652.9 541.3l1.2-.7 1.4-.9 1.8-1.1 4.3-3 2.4-1.8 2.4-1.9 1.2-.9 1.2-1 2.2-1.9 2.1-1.8 1.8-1.7 2.7-2.6.8-.7.3-.3-2.8-2.8-.2.3-.7.7-2.6 2.5-1.7 1.7-2 1.7-2.2 1.9-1.1 1-1.2.9-2.3 1.8-2.3 1.7-4.2 2.9-1.7 1.1-1.3.8-1.2.7 1.7 3.4zM618.3 556.5l1.4-.4 3.5-1.1 2.4-.8 1.3-.5 1.3-.5 2.8-1 1.4-.5 1.4-.6 2.8-1.2 1.4-.6.7-.3.7-.3 4.7-2.3 1.8-1 1.4-.8 1.2-.7-1.9-3.4-1.2.7-1.4.8-1.8 1-4.6 2.3-.6.3-.7.3-1.3.6-2.7 1.2-1.4.6-1.4.5-2.7 1-1.3.5-1.2.4-2.3.7-3.4 1.1-1.3.4 1 3.6zM578.8 561.8h1.4l3.7-.1 2.5-.1 2.8-.2 3-.2 1.5-.1 1.5-.2 3-.4 2.9-.4a135.7 135.7 0 0010.2-2l-.9-3.8-1.3.3-3.5.8-5 .8-2.8.4-2.9.4-1.5.2-1.5.1-2.9.2-2.7.2-2.4.1-3.6.1h-1.4l-.1 3.9zM541.3 556.3l4.9 1.3 2.4.6 2.7.6 1.4.3 1.5.3 3 .5 3 .5 2.9.3 5.2.6 5.1.4.2-3.9-5-.4-5.1-.5-2.9-.3-2.9-.5-2.9-.5-1.4-.3-1.4-.3-2.6-.6c-.8-.2-1.6-.3-2.3-.6l-4.8-1.3-1 3.8zM445.6 456.8l1.3 4.9.3 1.2.4 1.2.8 2.6.4 1.4.5 1.4 1.1 2.9 1.1 2.9 1.2 2.7 1.1 2.5.5 1.2.5 1.1 2.3 4.6 3.5-1.8-2.2-4.5-.5-1-.5-1.1-1.1-2.5-1.1-2.6-1-2.8-1.1-2.8-.5-1.4-.4-1.4-.8-2.6-.4-1.2-.3-1.1-1.3-4.8-3.8 1z"/><path class="st2" d="M652.3 309.7l-2.3-1.4c-1.4-1-3.6-2.1-6.2-3.6l-1-.6-1.1-.5-2.2-1.1-2.3-1.2-2.5-1.1c-3.4-1.5-7.1-2.9-10.8-4.3l-5.6-1.8-5.5-1.5c-3.6-.8-7-1.6-10-2l-2.1-.4-1-.2-.9-.1-3.1-.4-2-.2-.7-.1-.4 3.9.7.1 1.9.2 3 .4.9.1.9.2 2 .3c2.9.4 6.1 1.2 9.7 2l5.4 1.5 5.5 1.8c3.6 1.3 7.2 2.6 10.5 4.1l2.4 1.1 2.3 1.1 2.2 1.1 1 .5 1 .5c2.5 1.4 4.7 2.5 6 3.5l2.2 1.4 2.1-3.3zM705.5 363.8l-1.2-2.5-1.4-2.9-2-3.7a133 133 0 00-13.6-19.8l-1-1.2-2-2.3-1-1.1-1-1.1-2-2.1a36 36 0 01-1.9-2.1l-2-1.9-1.9-1.8-.9-.8-.4-.4-.4-.4-3.2-2.7-2.5-2.1-2.2-1.7-2.4 3.1a137.8 137.8 0 004.6 3.7l3.1 2.7.4.4.4.4.9.8 1.8 1.7 1.9 1.8 1.9 2 2 2.1 1 1.1 1 1.1 1.9 2.2 1 1.1c.3.4.7.7.9 1.2 5.1 6.2 9.3 12.9 12.3 18.1l2 3.6 1.4 2.8 1.2 2.4 3.3-1.7z"/><path class="st2" d="M482.3 325.3l-1.7 1.8a49 49 0 00-2.1 2.2l-1.3 1.4-1.5 1.7a128.9 128.9 0 00-15.9 22.5l-2.2 4-2.1 4.3-.6 1.1-.5 1.1-1 2.3-2 4.9a142.9 142.9 0 00-9 62.7l.4 3.7.4 3.7.6 3.7.3 1.9.3 1.9c2 10 5.2 20.2 9.7 30.2l.4.9.5.9.9 1.9 1.9 3.7 2 3.7 1 1.8 1.1 1.8 2.3 3.6 1.2 1.8 1.2 1.8 1.2 1.8.6.9.7.9 2.7 3.4a46 46 0 002.8 3.4l2.9 3.4 3.1 3.2 1.5 1.6 1.6 1.6 3.3 3.1.4.4.4.4.9.7 1.7 1.5c2.3 2 4.7 3.8 7.1 5.7a133.4 133.4 0 0017.6 11.1l.5.3.5.3 1.1.5 4.2 2.1 4.3 1.9 2.2.9 2.2.8c11.9 4.6 24.6 7.6 37.7 8.7l4.9.4h2.4l2.5.1 2.5.1 2.5-.1 2.5-.1 2.5-.1 5-.4 2.5-.3 2.5-.3 2.5-.3 2.5-.4 2.5-.4 1.2-.2 1.2-.3 4.9-1.1.6-.1.6-.2 1.2-.3 2.4-.7 2.4-.7 2.4-.8 2.4-.8 1.2-.4 1.2-.4 4.7-1.8.6-.2.6-.3 1.2-.5 2.3-1 2.3-1 2.3-1.1 2.3-1.1 1.1-.6 1.1-.6 4.4-2.5.6-.3.5-.3 1.1-.7 2.2-1.3 2.2-1.3 2.1-1.5 2.1-1.5 2.1-1.5 4-3.1 1-.8 1-.8 1.9-1.7 1.9-1.7.9-.9.9-.9 3.7-3.5 3.5-3.7.9-.9.9-.9 1.7-1.9 1.7-1.9.8-1 .8-1 3.1-4 1.5-2.1 1.5-2.1 1.5-2.1 1.3-2.2 1.3-2.2.7-1.1.3-.5.3-.6 2.5-4.4.6-1.1.6-1.1 1.1-2.3 1.1-2.3 1-2.3 1-2.3.5-1.2.3-.6.2-.6 1.8-4.7.4-1.2.4-1.2.8-2.4.8-2.4.7-2.4.7-2.4.3-1.2.2-.6.1-.6 1.1-4.9.3-1.2.2-1.2.4-2.5.4-2.5.3-2.5.3-2.5.3-2.5.4-5 .1-2.5.1-2.5.1-2.5-.1-2.5-.1-2.5v-2.4l-.4-4.9a140 140 0 00-9.5-39.9l-.9-2.2-1.9-4.3-2.1-4.2-.5-1.1-.3-.5-.3-.5-1.1-2c-3-5.5-6.4-10.6-10-15.6-1.9-2.4-3.7-4.9-5.7-7.1l-1.5-1.7-.7-.9-.4-.4-.4-.4-3.1-3.3-1.6-1.6-1.6-1.5a95 95 0 01-3.2-3.1l-3.4-2.9a46 46 0 00-3.4-2.8l-3.4-2.7-.9-.7-.9-.6-1.8-1.2-1.8-1.2-1.8-1.2-3.6-2.3-1.8-1.1-1.8-1a67 67 0 00-3.7-2l-3.7-1.9-1.9-.9-.9-.5-.9-.4c-10-4.5-20.2-7.7-30.2-9.7-.6-.2-1.3-.2-1.9-.3a79 79 0 00-1.9-.3l-3.7-.6-3.7-.4-3.7-.4a138.6 138.6 0 00-62.7 9l-4.9 2-2.3 1-1.1.5-1.1.6a174 174 0 00-4.3 2.1l-4 2.2a128.9 128.9 0 00-22.5 15.9l-1.7 1.5-1.4 1.3-2.2 2.1-2.1 2-.4-.4 1.8-1.7a49 49 0 012.2-2.1l1.4-1.3 1.7-1.5c4.8-4.2 12.2-10.1 22.6-16l4-2.2 4.3-2.1 1.1-.6 1.1-.5 2.3-1 4.9-2a133 133 0 0148.6-9.5c4.7-.1 9.5.1 14.3.5l3.7.4 3.7.4 3.7.6 1.9.3 1.9.3c10 2 20.3 5.2 30.3 9.7l1 .4.9.5 1.9.9 3.7 1.9 3.7 2.1 1.9 1 1.8 1.1 3.6 2.3 1.8 1.2 1.8 1.2 1.8 1.2.9.6.9.7 3.5 2.7 3.4 2.8 3.4 2.9a95 95 0 013.2 3.1l1.6 1.5 1.6 1.6 3.1 3.3.4.4.4.4.7.9 1.5 1.7c2 2.3 3.8 4.7 5.7 7.2a140.2 140.2 0 0111.3 17.8l.3.5.3.5.5 1.1 2.1 4.2 1.9 4.4 1 2.2.8 2.2c4.6 11.9 7.6 24.7 8.8 37.8l.4 4.9v2.4l.1 2.5.1 2.5-.1 2.5-.1 2.5-.1 2.5-.4 5-.3 2.5-.3 2.5-.3 2.5-.4 2.5-.4 2.5-.2 1.2-.3 1.2-1.1 4.9-.1.6-.2.6-.3 1.2-.7 2.4-.7 2.4-.8 2.4-.8 2.4-.4 1.2-.4 1.2-1.8 4.7-.2.6-.3.6-.5 1.2-1 2.3-1 2.3-1.1 2.3-1.1 2.3-.6 1.1-.6 1.1-2.5 4.5-.3.6-.3.5-.7 1.1-1.4 2.2-1.4 2.2-1.5 2.1-1.5 2.1-1.5 2.1-3.1 4-.8 1-.8 1-1.7 1.9-1.7 1.9-.9.9-.9.9-3.5 3.7-3.7 3.5-.9.9-.9.9-1.9 1.7-1.9 1.7-1 .8-1 .8-4 3.1-2.1 1.5-2.1 1.5-2.1 1.5-2.2 1.4-2.2 1.4-1.1.7-.5.3-.6.3-4.5 2.5-1.1.6-1.1.6-2.3 1.1-2.3 1.1-2.3 1-2.3 1-1.2.5-.6.3-.6.2-4.7 1.8-1.2.4-1.2.4-2.4.8-2.4.8-2.4.7-2.4.7-1.2.3-.6.2-.6.1-4.9 1.1-1.2.3-1.2.2-2.5.4-2.5.4-2.5.3-2.5.3-2.5.3-5 .4-2.5.1-2.5.1-2.5.1-2.5-.1-2.5-.1h-2.4l-4.9-.4a137 137 0 01-40-9.6l-2.2-1-4.4-1.9-4.2-2.1-1.1-.5-.5-.3-.5-.2-2.1-1.2a150 150 0 01-15.7-10.1c-2.4-1.9-4.9-3.7-7.2-5.7l-1.7-1.5-.9-.7-.4-.4-.4-.4-3.3-3.1-1.6-1.6-1.5-1.6a95 95 0 00-3.1-3.2l-2.9-3.4a46 46 0 01-2.8-3.4l-2.7-3.5-.7-.9-.6-.9-1.2-1.8-1.2-1.8-1.2-1.8-2.3-3.6-1.1-1.8-1-1.9-2.1-3.7-1.9-3.7-.9-1.9-.5-.9-.4-.9a144 144 0 01-9.7-30.3c-.2-.6-.2-1.3-.3-1.9l-.3-1.9-.6-3.7-.4-3.7-.4-3.7a139.6 139.6 0 019-62.9l2-4.9 1-2.3.5-1.1.6-1.1a174 174 0 012.1-4.3l2.2-4a135.5 135.5 0 0116-22.6l1.5-1.7 1.3-1.4 2.1-2.2 1.7-1.8.4.2z"/><path class="st2" d="M750.7 444.3l-14.2-1.8.4-3.2a141.2 141.2 0 00.6-8.5l.1-5.7v-1.5-1.6l-.1-3.3-.1-3.4-.2-3.5-.3-3.5-.4-3.5c-1.1-9.4-3.1-18.7-5.1-25.5l-.7-2.4-.7-2.2-1.2-3.6-1.1-3.1-1.1-2.9-1.4-3.5-2-4.6a159 159 0 00-16-27l-3-3.9a28 28 0 00-1.6-2l-1.7-2a140 140 0 00-7.3-8.1l-1.9-2-2.1-2-2.1-2-1.1-1-1.1-1-4.5-3.9-1.1-1-1.2-.9-2.4-1.9a161.4 161.4 0 00-44.7-24.1l-6.2-2-6.3-1.7-3.1-.8-3.2-.7-1.6-.3-.8-.2-.8-.1-3.2-.5-3.2-.5a35 35 0 00-3.2-.4l-3.1-.4-1.6-.2-1.6-.1-6.2-.4-6.1-.1c-8.1 0-16 .5-23.4 1.6l-5.4.9-2.7.5-2.6.6-5 1.1-4.8 1.3-2.3.6-2.2.7-4.3 1.4-4.1 1.5-3.8 1.5-6.8 3-5.6 2.8-1.2.6-1.1.6-2.1 1.2-3.3 1.8-2 1.2-.7.4-9.4-15.3 2.8-1.7 2.8-1.6 1.8 3.2 2-1.1 2.3-1.3 3.1-1.5 3.6-1.8 1-.5 1-.5 2.1-.9 4.4-1.9 4.7-1.8c6.3-2.4 12.7-4.3 17.5-5.5l1.7-.5 1.6-.4 2.6-.6 2.2-.5-.7-3.6 1.4-.3 3-.5 4.4-.7.6 3.6.6-.1.7-.1.9-.1a133 133 0 017.5-.9l2.3-.2 2.2-.2-.2-3.6 2.3-.2 1.1-.1h1.3l2.7-.1 5.1-.1 2.3.1-.1 3.7a121.3 121.3 0 006.3.2l1.5.1 1.4.1.3-3.6 3 .2 2.1.2.9.1-.4 3.6 4.6.6 1.7.2 1.5.2 1.4.2.6-3.6a105.4 105.4 0 005.7 1l1.3.3 1.3.3-.8 3.6 4.5 1 3.1.8 1.4.4.9-3.5 1.8.5 2.2.6 1.4.4 1.5.5 3.6 1.2 2 .7 2.2.8 4.7 1.8 1.3.5 1.3.5 2.6 1.1 2.7 1.2 1.4.6 1.4.7 5.9 2.9 6 3.3 1.5.9 1.5.9 3.1 1.9a179.5 179.5 0 0159.9 63.2l1.4 2.5.7 1.2.6 1.2 2.2 4.5 1 2.1.9 2 1.5 3.5.6 1.5.5 1.3.8 2.1.7 1.8 1.3-.5 1.3 3.4 1.3 4 .8 2.5.8 2.7c2.3 7.7 4.6 18.1 5.8 28.7l.5 4 .3 3.9.3 3.9.1 3.8.1 3.7v3.5l-.2 6.4-.4 5.4a43 43 0 01-.4 4.2l-.4 3.6-1.1-.1.3-2.3.3-2.3.2-2.7.4-5 .1-.9v-.7-.6l-3.9-.2V431.5l-.1.9-.3 4.9-.2 2.6-.3 2.3-.1 2.1zm-68.3-163.8l-4.2-2.9-1.5-1.1-1.4-.9a93 93 0 00-1.3-.8l-1.8 2.8a93 93 0 002.7 1.6l1.5 1 4.1 2.8 1.9-2.5zm20.1 16.9l-2-1.9c-1.2-1.1-2.8-2.7-4.5-4.1l-4.6-4-1.6-1.3-.6-.5-2.1 2.6.6.5 1.5 1.2 4.5 3.9c1.7 1.4 3.2 2.9 4.4 4l2 1.9 2.4-2.3zm18.5 21l-1.7-2.2-1.7-2.2-2-2.5-4-4.6-1.8-2.1-2.5 2.2 1.8 2 3.9 4.5a43.8 43.8 0 013.7 4.7l1.7 2.1 2.6-1.9zm21.7 38.3l-2.2-5.1-1.1-2.5-1.3-2.7-1.4-2.9c-.5-1-.9-2-1.5-2.9l-3.2-5.7-.8-1.3-.8-1.2-1.4-2.3-2.1-3.4-.6-.9-.2-.3-2.8 1.9.2.3.6.9 2.1 3.3 1.4 2.2.8 1.2.7 1.3 3.1 5.6 1.5 2.9 1.4 2.8 1.3 2.6 1.1 2.4 2.2 5 3-1.2zm13.3 64.7l-.1-2.3-.1-2.7v-1.7l-.1-1.8-.3-4.1-.2-2.3-.3-2.3-.6-4.9-.2-1.3-.2-1.3-.4-2.5-.9-5-1.1-4.8c-.6-3.1-1.5-6-2.1-8.5l-.5-1.8a3 3 0 01-.2-.8l-.2-.8-.8-2.6-.7-2.2-3.7 1.2.7 2.2.8 2.5.2.8.2.8.5 1.7c.6 2.4 1.5 5.2 2.1 8.3l1 4.7.9 4.9.4 2.5.2 1.2.2 1.2.6 4.8.3 2.3.2 2.2.3 4 .1 1.8v1.6l.1 2.6.1 2.3 3.8.1zM441.3 343.6l-2 3.6-.5.9-.6 1.1-1.2 2.4-1.4 2.8-.8 1.6-.7 1.7-1.6 3.7a12 12 0 00-.8 2l-.8 2.1-1.7 4.5-1.6 4.9-.8 2.6-.7 2.7-.7 2.8-.4 1.4-.4 1.4-1.3 6-.6 3.1-.5 3.2a164.7 164.7 0 001.6 59.1 159.7 159.7 0 00134.8 124.7l6.3.8 6.1.4 1.5.1h1.5l2.9.1h5.5l5.1-.1h1.2l1.2-.1 2.3-.2 2.2-.2 2.1-.2 4-.5 1.8-.2.9-.1.8-.1a49 49 0 013.1-.5l2.7-.5 1.2-.2 1.1-.2 4.1-.9-.6-2.5-4 .9-1 .2-1.2.2-2.6.4-3.1.5-.8.1-.9.1-1.8.2-3.9.5-2.1.2-2.2.2-2.3.2-1.2.1h-1.2l-5 .1h-5.4l-2.8-.1h-1.4l-1.4-.1-6-.4-6.2-.7a160.8 160.8 0 01-55.1-18.3 155.9 155.9 0 01-50-43.8 157.2 157.2 0 01-29-118.7l.5-3.1c.2-1 .3-2.1.6-3.1l1.3-5.9.3-1.4.4-1.4.7-2.7.7-2.6.8-2.5a54 54 0 011.6-4.8l1.7-4.4.8-2.1.8-2 1.6-3.6.7-1.7.7-1.5 1.4-2.8 1.2-2.4.5-1 .5-.9 2-3.6-2.5-1.5z"/><path class="st2" d="M434.1 339.5l-2.1 3.8-.6 1-.6 1.1-1.3 2.6-1.5 3-.8 1.7-.8 1.8-1.7 3.9-.9 2.1-.8 2.2-1.8 4.7-1.7 5.1-.9 2.7-.8 2.8-.8 2.9-.4 1.5-.4 1.5-1.4 6.3-.6 3.3-.6 3.3a164.3 164.3 0 001.7 62.1 167 167 0 00113 124.6A167 167 0 00557 590l6.7.8 6.4.5 1.5.1h1.5l3 .1h5.7l5.4-.1h1.2l1.3-.1 2.5-.2 2.4-.2 2.2-.2 4.2-.5 1.9-.2.9-.1.9-.1 3.3-.6 2.8-.5 1.2-.2 1.1-.2 4.3-.9-.1-.4-4.3.9-1.1.2-1.2.2-2.8.5-3.3.6-.9.1-.9.1-1.9.2-4.2.5-2.2.2-2.3.2-2.4.2-1.3.1h-1.2l-5.4.1h-5.7l-3-.1h-1.5l-1.5-.1-6.4-.5-6.6-.8a160.7 160.7 0 01-58.8-19.6c-10-5.5-19.7-12.3-28.7-20.2a161.1 161.1 0 01-42.9-57.8 167 167 0 01-12.5-95.3l.6-3.3.6-3.3 1.4-6.2.4-1.5.4-1.5.8-2.9.8-2.8.9-2.7 1.7-5.1 1.8-4.7.8-2.2.9-2.1 1.7-3.9.8-1.8.8-1.7 1.5-3 1.3-2.6.6-1.1.5-1 2.1-3.8h-.6z"/><path class="st2" d="M438.1 341.8l-2.1 3.7-.5 1-.6 1.1-1.2 2.5-1.4 2.9-.8 1.6-.8 1.7-1.6 3.8-.9 2-.8 2.1-1.7 4.6-1.6 5-.8 2.6-.8 2.7-.8 2.8-.4 1.4-.4 1.5-1.3 6.1-.6 3.2-.5 3.3a161.9 161.9 0 001.7 60.4 164.5 164.5 0 0028.5 63 168.7 168.7 0 0052 45.6 162.2 162.2 0 0057.4 19.1l6.5.8 6.2.4 1.5.1h1.5l2.9.1h5.6l5.2-.1h1.2l1.2-.1 2.4-.2 2.3-.2 2.2-.2 4.1-.5 1.9-.2.9-.1.9-.1a42 42 0 013.2-.5l2.8-.5 1.2-.2 1.1-.2 4.2-.9-.6-2.5-4.1.9-1.1.2-1.2.2-2.7.5-3.1.5-.9.1-.9.1-1.8.2-4 .5-2.2.2-2.3.2-2.3.2-1.2.1h-1.2l-5.2.1h-5.5l-2.9-.1h-1.5l-1.5-.1-6.1-.4-6.4-.8a158.7 158.7 0 01-56.4-18.8 159 159 0 01-68.7-74.9 161.8 161.8 0 01-12.1-91.5l.5-3.2c.2-1.1.3-2.1.6-3.1l1.3-6 .4-1.4.4-1.4.7-2.8.7-2.7.8-2.6 1.6-4.9 1.7-4.5.8-2.1.8-2a104 104 0 001.6-3.7l.7-1.7a8 8 0 01.8-1.6l1.4-2.9 1.2-2.5.6-1.1.5-.9 2-3.7-2.2-1.2zM602.4 588.4l1-.1 2.1-.3 3-.5-.2-1.4-3 .5-2.1.3-.9.1.1 1.4zM574.4 589.7l3.1.1h3.1v-1.4h-3.1l-3.1-.1v1.4zM519.8 578.6l2.9 1.1 2 .7.7.2.3.1.5-1.3-.2-.1-.7-.2-2-.7-2.9-1.1-.6 1.3zM507 572.9l2.8 1.4 1.9.9.9.4.6-1.3-.9-.4-1.9-.9-2.7-1.4-.7 1.3zM494.7 566.3a22 22 0 002.6 1.5l2.7 1.5.7-1.2-2.7-1.5-1.8-1-.8-.5-.7 1.2zM483 558.6l5.1 3.5.7-1.2-5-3.5zM452.3 530.1l4.1 4.7 1-1-4-4.6zM443.8 519l1.8 2.5 1.3 1.7.6.8 1.1-.9-.6-.8-1.3-1.7-1.8-2.5-1.1.9zM436.2 507.2l.1.2.4.6 1.1 1.8 1.6 2.6 1.2-.8-1.6-2.6-1.1-1.8-.3-.6-.1-.2-1.3.8zM429.7 494.8l2.7 5.6 1.3-.7-2.8-5.5zM413.5 423.2l.1 6.2 1.4-.1-.1-6.1zM414.1 409.2l-.2 3.1-.1 2.1v1l1.4.1v-.3-.7l.1-2.1.2-3.1-1.4-.1zM415.9 395.2l-.5 3.1-.2 1.1-.1 1-.1 1 1.4.2.1-1 .1-1 .2-1.1.5-3-1.4-.3zM418.8 381.5l-.3.9-.3 1-.3 1.1a56 56 0 01-.7 3l1.4.3.7-3 .2-1.1.3-.9.2-.9-1.2-.4zM428.1 355l-1.2 2.8-.8 2-.3.6-.1.2 1.3.5.1-.2.3-.6.8-1.9 1.2-2.8-1.3-.6zM444.9 280.3L441 284l-20.2-20.2 4.4-4.3zM452.8 273.1l-4 3.5-19.1-21.3 4.6-4zM461.2 266.4l-4.2 3.3-18-22.3 4.9-3.8zM469.9 260.1l-4.4 3.1-16.7-23.3 5.1-3.5zM479 254.3l-4.6 2.8-15.3-24.1 5.2-3.2zM488.4 249l-4.7 2.6-14-24.9 5.4-3zM498.1 244.2l-.8.3-1.7.8-2.4 1.2-12.6-25.7 2.8-1.4 1.9-.9.9-.4 11.9 26.1zM508 240l-.8.3-1.7.7-2.5 1.1-11.2-26.3 2.8-1.2 2-.8.9-.3L508 240zM518.1 236.4l-2.6.8-1.7.6-.8.3-9.7-26.9.9-.3 2-.7 2.9-1 9 27.2zM528.4 233.3l-2.6.7-1.8.5-.8.3-8.3-27.4.9-.3 2-.6 3-.8 7.6 27.6zM538.9 230.7l-5.3 1.2-6.7-27.8 6-1.3zM549.4 228.8l-5.3.9-5.2-28.2 6.1-1zM560.1 227.4l-5.4.6-3.6-28.4 6.1-.7zM570.8 226.5l-5.4.4-2.1-28.5 6.1-.4zM581.5 226.3h-2.7l-2.7.1-.6-28.6 3.1-.1h3.1l-.2 28.6zM592.3 226.7l-2.7-.2-2.7-.1 1-28.6a56.4 56.4 0 006.2.3l-1.8 28.6zM603 227.7l-2.7-.3-1.8-.2-.8-.1 2.5-28.5 1 .1 2.1.2 3.1.4-3.4 28.4zM613.6 229.2l-2.7-.4-1.8-.3-.8-.1 4.1-28.3.9.1a52.8 52.8 0 005.1.8l-4.8 28.2zM624.1 231.3l-5.2-1.1 5.6-28.1 6 1.3zM634.6 234l-5.2-1.4 7.1-27.7 5.9 1.6zM644.8 237.2l-5.1-1.7 8.6-27.2 5.9 1.9zM654.9 241l-.8-.3-1.7-.7-2.5-1 10.1-26.8a93.7 93.7 0 005.8 2.3L654.9 241zM664.7 245.4l-.8-.4-1.7-.8-2.5-1.1 11.6-26.2 2.8 1.2 1.9.9.9.4-12.2 26zM674.3 250.3l-2.4-1.3-1.7-.8-.8-.4 13-25.5.9.4 1.9 1 2.7 1.5-13.6 25.1zM683.6 255.7l-2.3-1.4-1.6-1-.7-.4 14.4-24.7.8.5 1.8 1.1 2.6 1.6-15 24.3zM692.6 261.6l-2.2-1.5-1.5-1.1-.7-.5 15.7-23.9.8.5 1.7 1.2 2.5 1.8-16.3 23.5zM701.3 268l-4.3-3.3 17-23 4.9 3.8zM709.6 274.9l-4.1-3.5 18.2-22.1 4.7 4zM717.4 282.1l-3.8-3.7 19.4-21 4.4 4.2zM724.9 289.8l-3.7-3.9 20.5-19.9 4.2 4.4zM732 297.9l-3.5-4.1L750 275l4 4.6zM738.6 306.3l-3.3-4.2 22.6-17.6 3.7 4.8zM744.8 315.2l-.5-.7-1.1-1.5-1.5-2.2 23.5-16.4a93.8 93.8 0 003.5 5l-23.9 15.8zM750.4 324.3l-.4-.7-1-1.6-1.4-2.3 24.3-15 1.6 2.6 1.1 1.8.5.8-24.7 14.4zM755.6 333.8l-.4-.8-.8-1.7-1.3-2.4 25.1-13.7 1.5 2.7 1 1.9.4.9-25.5 13.1zM760.2 343.5l-1.1-2.5-.8-1.7-.4-.8 25.8-12.3.4.9.9 1.9 1.2 2.8-26 11.7zM764.3 353.5l-1-2.5-.7-1.7-.3-.8 26.5-10.8.4.9.8 2 1.1 2.9-26.8 10zM767.8 363.7l-1.6-5.2 27-9.3 1.9 5.8zM770.8 374l-1.4-5.2 27.5-7.9 1.6 6zM773.2 384.5l-1.1-5.3 27.8-6.3 1.3 6zM775 395.1l-.1-.8-.3-1.8-.4-2.7 28.2-4.8a53.8 53.8 0 00.8 5.1l.1.9-28.3 4.1zM776.2 405.7l-.1-.8-.2-1.8-.3-2.7 28.4-3.3.4 3.1.2 2.1.1 1-28.5 2.4zM776.9 416.5l-.1-2.7-.2-2.7 28.5-1.7a849.5 849.5 0 00.3 6.2l-28.5.9zM777 427.2l.1-2.7v-2.7l28.6-.2v3.1l-.1 3.1-28.6-.6zM776.4 437.9l.4-5.3 28.6 1.3-.4 6.2zM775.4 448.6l.6-5.3 28.4 2.9-.7 6.1zM773.7 459.2l.9-5.3 28.2 4.5-1 6.1zM771.5 469.8l1.1-5.3 28 6-1.3 6zM768.6 480.1l.3-.8.5-1.8.7-2.6 27.6 7.5-.8 3-.6 2-.3.9-27.4-8.2zM765.2 490.3l.3-.8.6-1.7.8-2.6 27.1 9-1 2.9-.7 2-.3.9-26.8-9.7zM761.3 500.4l1.1-2.5.7-1.7.3-.8 26.6 10.5-.3.9-.8 2-1.2 2.8-26.4-11.2zM756.8 510.1l1.2-2.4.8-1.7.3-.8 26 11.9-.4.9-.9 1.9-1.4 2.8-25.6-12.6zM751.8 519.7l2.6-4.7 25.3 13.3-3 5.4zM746.2 528.9l2.9-4.6 24.5 14.8-3.3 5.2zM740.2 537.8l3.1-4.4 23.7 16.1-3.6 5zM733.7 546.4l3.3-4.2 22.8 17.3-3.8 4.8zM726.7 554.6l3.6-4.1L752 569l-4 4.7zM719.4 562.4l3.7-3.9 20.7 19.7-4.2 4.4zM711.6 569.7l.2-.2.5-.4a8 8 0 001.3-1.3l1.9-1.8 19.7 20.8-2.2 2.1-1.5 1.4-.5.5-.2.2-19.2-21.3zM703.4 576.7l.7-.5 1.4-1.2 2-1.7 18.5 21.8-2.3 2-1.6 1.3-.8.6-17.9-22.3zM694.8 583.2l.7-.5 1.5-1.1 2.1-1.6 17.3 22.8-2.4 1.9-1.7 1.2-.8.6-16.7-23.3zM685.9 589.2l2.3-1.4 1.5-1 .7-.5 16 23.7-.8.5-1.8 1.2-2.6 1.6-15.3-24.1zM676.7 594.8l2.3-1.3c1.2-.6 2.3-1.4 2.3-1.4l14.7 24.5-2.7 1.6-2.7 1.5-13.9-24.9zM667.2 599.8l2.4-1.2 1.7-.8.7-.4 13.3 25.3-.9.4-1.9 1-2.8 1.4-12.5-25.7zM657.4 604.3l4.9-2.2 11.9 26-5.6 2.5zM647.3 608.2l5.1-1.9 10.5 26.6-5.8 2.2zM637.1 611.6l5.2-1.6 9 27.1-5.9 1.9zM626.8 614.5l.2-.1.6-.2 1.8-.5 2.6-.7 7.5 27.6-3 .8-2 .5-.9.2-6.8-27.6zM616.2 616.7l.8-.1 1.8-.4 2.6-.6 6 28-3 .6-2.1.4-.9.2-5.2-28.1zM605.6 618.4l2.7-.3 2.7-.4 4.5 28.3-3 .5-3.1.4-3.8-28.5zM594.9 619.4l2.7-.2 2.7-.3 2.9 28.5-3.1.3-3.1.2-2.1-28.5zM584.2 619.9l5.4-.1 1.3 28.6-6.1.1zM573.5 619.9l5.3.1-.2 28.6-6.1-.1zM562.8 619.2l5.3.4-1.7 28.6-6.2-.5zM552.1 618l5.3.7-3.3 28.4-6.1-.8zM541.5 616.2l.8.2 1.8.3 2.6.5-4.8 28.2-3-.5-2.1-.4-.9-.2 5.6-28.1zM531 613.8l.8.2 1.8.5 2.6.6-6.4 27.9-3-.7a21 21 0 00-3-.7l7.2-27.8zM520.7 610.8l2.6.8.9.3.8.2.8.2-7.9 27.5-.9-.3-1-.3-1.1-.3-2.9-.9 8.7-27.2zM510.5 607.3l2.5.9 1.7.6.6.2.2.1-9.4 27-.3-.1-.7-.2-2-.7-2.9-1.1 10.3-26.7zM500.5 603.2l5 2.1-10.9 26.5-5.6-2.4zM490.8 598.6l4.8 2.4-12.2 25.8-5.6-2.7zM481.3 593.4l4.7 2.7-13.6 25.1-5.4-3zM472.2 587.8l4.5 2.8-15 24.4-5.2-3.3zM463.3 581.6l.2.1.5.4 1.5 1.1 2.2 1.5-16.4 23.5-2.5-1.8-1.7-1.2-.6-.4-.2-.2 17-23zM454.9 575l.6.5 1.4 1.2 2.1 1.7-17.6 22.5-2.4-1.9-1.7-1.3-.7-.6 18.3-22.1zM446.8 567.9l.6.6 1.4 1.2 2 1.8L432 593l-2.3-2-1.6-1.4-.7-.7 19.4-21zM439.1 560.4l1.9 1.9 1.9 1.9-19.9 20.5-2.2-2.1a72.7 72.7 0 01-2.1-2.2l20.4-20zM431.9 552.6l1.8 2 1.2 1.4.6.6-21 19.4-.7-.7-1.4-1.6-2-2.3 21.5-18.8zM425 544.3l1.7 2.1c.4.5.8 1.1 1.2 1.4l.5.6-22 18.2-.6-.7-1.3-1.7-1.9-2.4 22.4-17.5zM418.6 535.6l1.5 2.2 1.1 1.5.4.5.1.2-23 17-.2-.2-.4-.6-1.2-1.7-1.8-2.5 23.5-16.4zM412.7 526.6l2.9 4.6-23.9 15.7-3.3-5.2zM407.3 517.3l2.6 4.7-24.7 14.4-3-5.4zM402.4 507.7l2.4 4.9-25.5 12.9-2.7-5.5zM398 497.9l2.2 4.9-26.2 11.6-2.4-5.7zM394.2 487.8l.1.2.2.6.6 1.7.9 2.5-26.7 10.2-1.1-2.9-.7-2-.2-.7-.1-.3 27-9.3zM391 477.5l.2.8.2.8.3.9.8 2.6-27.3 8.6-.9-2.9-.3-1.1-.3-1-.3-.9 27.6-7.8zM388.3 467.1l.6 2.6.5 1.8.2.8-27.7 7.1-.2-.9-.5-2.1a56 56 0 00-.7-3l27.8-6.3zM386.2 456.6a40.8 40.8 0 001 5.2l-28 5.6-.2-.9-.4-2.1-.5-3 28.1-4.8zM384.7 445.9l.6 5.4-28.3 4-.7-6.1zM383.7 435.3l.4 5.3-28.5 2.5-.4-6.1zM383.4 424.5l.1 5.4-28.6 1-.1-6.2zM383.6 413.8l-.2 5.3-28.6-.5.2-6.2zM384.4 403.1l-.3 2.7-.2 2.7-28.5-2.1.2-3.1.3-3.1 28.5 2.9zM385.8 392.4l-.4 2.7-.3 2.7-28.4-3.7.4-3.1.5-3 28.2 4.4zM387.7 381.9l-.6 2.6-.4 1.8-.1.8-28.1-5.2.2-.9.4-2.1.6-3 28 6zM390.3 371.4l-.7 2.6-.5 1.8-.2.6-.1.2-27.8-6.7.2-.9.5-2 .8-3 27.8 7.4zM393.4 361.1l-1.7 5.1-27.3-8.2 1.8-5.9zM397 351l-1.9 5-26.9-9.7 2.2-5.8zM401.2 341.1l-2.1 4.9-26.3-11.2 2.5-5.7zM406 331.4l-.4.7-.8 1.7-1.2 2.4-25.7-12.6 1.4-2.8 1-1.9.4-.9 25.3 13.4zM411.3 322l-1.4 2.3-1.3 2.3-24.9-14 1.5-2.7c.7-1.4 1.6-2.7 1.6-2.7l24.5 14.8zM417.1 312.9l-.5.7-1 1.5-1.4 2.3-24.2-15.3 1.6-2.6 1.2-1.8.5-.8 23.8 16zM423.4 304.2l-1.6 2.1-1.1 1.5-.5.7-23.2-16.7.6-.8 1.2-1.7 1.9-2.4 22.7 17.3zM430.1 295.8l-1.7 2-1.2 1.4-.5.7-22.3-17.9.6-.8 1.3-1.6 2-2.3 21.8 18.5zM437.3 287.9l-1.8 1.9-1.3 1.3-.4.5-.2.2-21.3-19.1.2-.2.5-.5 1.4-1.5 2.1-2.2 20.8 19.6zM447 278.3l-.4.4-19.5-21 .5-.5zM455 271.2l-.4.4-18.2-22 .4-.4zM463.5 264.6l-.4.3-17-22.9.4-.4zM472.4 258.5l-.5.2-15.8-23.8.6-.4zM481.5 252.8l-.4.3-14.5-24.7.6-.3zM491 247.7l-.5.2-13-25.4.5-.3zM500.7 243.1l-.5.2-11.6-26.2.6-.2zM510.7 239l-.5.2-10.2-26.7.6-.3zM520.9 235.5l-.5.1-8.7-27.2.6-.2zM531.2 232.5l-.5.2-7.2-27.7.6-.2zM541.7 230.1l-.5.1-5.7-28 .6-.1zM552.3 228.3h-.6l-4.1-28.3h.6l4.1 28.3zM563 227.1h-.6l-2.5-28.4.6-.1zM573.7 226.5h-.5l-1.1-28.6h.6zM584.4 226.4h-.5l.5-28.6h.6zM595.2 226.9h-.6l2.1-28.5h.6zM605.8 228h-.5l3.6-28.4.6.1zM616.5 229.7l-.6-.1 5.2-28.1.6.1zM627 231.9l-.6-.1 6.7-27.8.6.2zM637.3 234.8l-.5-.2 8.2-27.4.6.2zM647.6 238.2l-.6-.2 9.7-26.9.6.2zM657.6 242.2l-.5-.2 11.1-26.4.6.3zM667.3 246.7l-.4-.3 12.6-25.6.5.2zM676.9 251.7l-.5-.3 14-24.9.5.3zM686.1 257.3l-.5-.3 15.4-24.2.5.4zM695 263.3l-.4-.3 16.6-23.3.5.4zM703.6 269.8l-.4-.3 17.8-22.3.5.3zM711.8 276.8l-.4-.4 19-21.3.5.4zM719.5 284.1l-.2-.2-.2-.2 20.2-20.3.2.2.2.2-20.2 20.3zM726.9 291.9l-.4-.4 21.3-19.1.4.4zM733.8 300.1l-.3-.4 22.3-18 .3.5zM740.3 308.7l-.3-.4 23.2-16.8.4.5zM746.3 317.6l-.2-.4 24-15.5.4.6zM751.9 326.9l-.3-.5 24.9-14.1.3.6zM756.9 336.4l-.3-.5 25.7-12.7.2.6zM761.4 346.2l-.3-.5 26.3-11.2.3.5zM765.3 356.2l-.2-.5 26.9-9.8.2.6zM768.7 366.4l-.2-.5 27.4-8.3.2.6zM771.5 376.8l-.1-.3-.1-.3 27.8-6.8.1.3.1.3-27.8 6.8zM773.7 387.3l-.1-.5 28.2-5.3.1.6zM775.4 398l-.1-.6 28.4-3.7.1.6zM776.5 408.6l-.1-.5 28.5-2.2.1.6zM777 419.4l-.1-.6 28.6-.6.1.6zM776.9 430.1v-.5l28.6.9v.6zM776.2 440.8l.1-.5 28.5 2.5-.1.6zM775 451.5v-.3-.3l28.3 4v.6l-28.3-4zM773.2 462.1l.1-.5 28 5.5-.1.6zM770.7 472.6l.2-.6 27.7 7.1-.2.6zM767.8 482.9l.1-.5 27.3 8.6-.2.6zM764.2 493.1l.2-.5 26.8 10-.2.6zM760.1 503l.2-.5 26.2 11.6-.2.5zM755.5 512.8l.2-.5 25.5 12.9-.2.6zM750.3 522.2l.3-.5 24.7 14.4-.3.5zM744.7 531.4l.3-.5 23.9 15.7-.3.5zM738.5 540.2l.3-.4 23.1 16.9-.4.5zM731.9 548.6l.3-.4 22.1 18.2-.4.5zM724.8 556.7l.3-.4 21.1 19.4-.4.4zM717.3 564.4l.4-.4 20 20.5-.5.4zM709.4 571.6l.4-.3 18.9 21.5-.5.4zM701.1 578.5l.4-.4 17.7 22.5-.5.4zM692.5 584.9l.4-.4 16.4 23.5-.5.3zM683.5 590.8l.4-.3 15.1 24.3-.5.3zM674.1 596.2l.5-.3 13.7 25.1-.5.3zM664.5 601.1l.5-.3 12.4 25.8-.6.3zM654.7 605.4l.5-.2 10.9 26.5-.6.2zM644.6 609.2l.5-.2 9.4 27-.5.2zM634.3 612.4l.6-.1 7.9 27.5-.6.1zM623.9 615.1l.5-.1 6.5 27.8-.6.2zM613.4 617.2l.5-.1 4.9 28.2-.6.1zM602.7 618.7l.6-.1 3.3 28.4-.6.1zM592 619.6h.6l1.8 28.5-.6.1zM581.3 620h.5l.3 28.6h-.6zM570.6 619.8h.6l-1.3 28.6h-.6l1.3-28.6zM559.9 619h.5l-2.9 28.5-.6-.1zM549.2 617.6h.5l-4.4 28.3-.6-.1zM538.7 615.6l.5.1-6 28-.6-.2zM528.2 613l.5.2-7.4 27.6-.6-.2zM517.9 609.9l.5.2-8.9 27.1-.6-.1zM507.8 606.2l.5.2-10.5 26.7-.5-.3zM497.9 602l.5.2-11.9 26.1-.6-.3zM488.2 597.3l.5.2-13.3 25.3-.6-.3zM478.8 592l.5.2-14.7 24.6-.5-.3zM469.8 586.1l.4.3-16 23.8-.5-.4zM461 579.8l.5.4-17.3 22.8-.5-.4zM452.7 573.1l.4.4-18.5 21.8-.5-.4zM444.7 565.9l.4.4-19.6 20.8-.5-.4zM437.1 558.3l.4.4-20.7 19.7-.4-.4zM430 550.4l.3.4-21.7 18.5-.4-.4zM423.2 542l.4.4-22.8 17.4-.3-.5zM417 533.2l.3.5-23.7 16.1-.3-.6zM411.2 524.2l.3.4-24.5 14.8-.4-.6zM405.9 514.8l.3.4-25.3 13.4-.3-.5zM401.2 505.1l.2.5-26 12-.2-.6zM397 495.2l.2.5-26.6 10.5-.3-.6zM393.3 485l.2.6-27.2 9-.1-.6zM390.2 474.7l.2.6-27.6 7.5-.2-.6zM387.7 464.3l.1.5-27.9 6-.2-.6zM385.7 453.7l.1.6-28.2 4.5-.1-.7zM384.3 443.1l.1.5-28.4 3-.1-.7zM383.5 432.4v.6l-28.6 1.4v-.3-.3l28.6-1.4zM383.4 421.6l-.1.6-28.6-.2.1-.6zM383.7 410.9v.5l-28.5-1.7v-.6zM384.7 400.2l-.1.5-28.4-3.2.1-.6zM386.3 389.6l-.1.5-28.2-4.8.1-.6zM388.4 379l-.2.5-27.8-6.3.1-.6zM391 368.6l-.1.5-27.5-7.8.2-.6zM394.3 358.3l-.2.5-27-9.3.2-.6zM398.1 348.3l-.2.5-26.5-10.8.3-.6zM402.5 338.4l-.2.5-25.9-12.2.3-.6zM407.4 328.8l-.3.5-25.1-13.6.3-.6zM412.8 319.5l-.3.5-24.3-15 .3-.5zM418.8 310.6l-.4.4-23.4-16.3.3-.5zM425.2 301.9l-.4.4-22.5-17.6.3-.4zM432 293.6l-.3.4-21.6-18.7.4-.5zM439.3 285.8l-.4.3-20.5-19.9.4-.4z"/></g></g><path class="st3" d="M78 467.1h160.9V852H78z"/><path class="st4" d="M78 467.1h8.9V852H78zM96.9 467.1h8.9V852h-8.9zM115.9 467.1h8.9V852h-8.9zM134.8 467.1h8.9V852h-8.9zM153.8 467.1h8.9V852h-8.9zM172.7 467.1h8.9V852h-8.9zM191.7 467.1h8.9V852h-8.9zM210.7 467.1h8.9V852h-8.9zM229.6 467.1h8.9V852h-8.9z"/><g><path transform="matrix(-1 -1.224647e-16 1.224647e-16 -1 414.7721 997.4482)" class="st5" d="M203.7 495.1h7.3v7.3h-7.3z"/><path transform="matrix(-1 -1.224647e-16 1.224647e-16 -1 351.6554 997.4482)" class="st5" d="M172.2 495.1h7.3v7.3h-7.3z"/><path transform="matrix(-1 -1.224647e-16 1.224647e-16 -1 288.5385 1033.9375)" class="st5" d="M140.6 513.3h7.3v7.3h-7.3z"/><path transform="matrix(-1 -1.224647e-16 1.224647e-16 -1 414.7721 1143.4056)" class="st5" d="M203.7 568.1h7.3v7.3h-7.3z"/><path transform="matrix(-1 -1.224647e-16 1.224647e-16 -1 320.0971 1143.4056)" class="st5" d="M156.4 568.1h7.3v7.3h-7.3z"/><path transform="matrix(-1 -1.224647e-16 1.224647e-16 -1 288.5385 1143.4056)" class="st5" d="M140.6 568.1h7.3v7.3h-7.3z"/><path transform="matrix(-1 -1.224647e-16 1.224647e-16 -1 423.278 1260.1469)" class="st5" d="M208 626.4h7.3v7.3H208z"/><path transform="matrix(-1 -1.224647e-16 1.224647e-16 -1 391.7197 1260.1469)" class="st5" d="M192.2 626.4h7.3v7.3h-7.3z"/><g><path transform="matrix(-1 -1.224647e-16 1.224647e-16 -1 320.0971 1289.3632)" class="st5" d="M156.4 641h7.3v7.3h-7.3z"/><path transform="matrix(-1 -1.224647e-16 1.224647e-16 -1 256.9802 1289.3632)" class="st5" d="M124.9 641h7.3v7.3h-7.3z"/></g><g><path transform="matrix(-1 -1.224647e-16 1.224647e-16 -1 383.2138 1398.8313)" class="st5" d="M188 695.8h7.3v7.3H188z"/><path transform="matrix(-1 -1.224647e-16 1.224647e-16 -1 288.5385 1398.8313)" class="st5" d="M140.6 695.8h7.3v7.3h-7.3z"/><path transform="matrix(-1 -1.224647e-16 1.224647e-16 -1 256.9802 1398.8313)" class="st5" d="M124.9 695.8h7.3v7.3h-7.3z"/></g><g><path transform="matrix(-1 -1.224647e-16 1.224647e-16 -1 288.5385 1435.3206)" class="st5" d="M140.6 714h7.3v7.3h-7.3z"/></g><g><path transform="matrix(-1 -1.224647e-16 1.224647e-16 -1 383.2138 1471.8099)" class="st5" d="M188 732.3h7.3v7.3H188z"/><path transform="matrix(-1 -1.224647e-16 1.224647e-16 -1 288.5385 1471.8099)" class="st5" d="M140.6 732.3h7.3v7.3h-7.3z"/><path transform="matrix(-1 -1.224647e-16 1.224647e-16 -1 225.4219 1471.8099)" class="st5" d="M109.1 732.3h7.3v7.3h-7.3z"/><path transform="matrix(-1 -1.224647e-16 1.224647e-16 -1 193.8635 1471.8099)" class="st5" d="M93.3 732.3h7.3v7.3h-7.3z"/></g></g><g><path class="st3" d="M161.5 239.4L262.2 92.1v760H161.5z"/><path class="st6" d="M179.2 213.4l-17.7 26v612.7h17.7z"/><path transform="matrix(-1 -1.224647e-16 1.224647e-16 -1 506.3747 416.7235)" class="st5" d="M250.4 205.5h5.7v5.7h-5.7z"/><path transform="matrix(-1 -1.224647e-16 1.224647e-16 -1 457.2014 416.7235)" class="st5" d="M225.8 205.5h5.7v5.7h-5.7z"/><path transform="matrix(-1 -1.224647e-16 1.224647e-16 -1 408.0279 445.1519)" class="st5" d="M201.2 219.7h5.7v5.7h-5.7z"/><path transform="matrix(-1 -1.224647e-16 1.224647e-16 -1 506.3747 530.4371)" class="st5" d="M250.4 262.4h5.7v5.7h-5.7z"/><path transform="matrix(-1 -1.224647e-16 1.224647e-16 -1 432.6148 530.4371)" class="st5" d="M213.5 262.4h5.7v5.7h-5.7z"/><path transform="matrix(-1 -1.224647e-16 1.224647e-16 -1 408.0279 530.4371)" class="st5" d="M201.2 262.4h5.7v5.7h-5.7z"/><path transform="matrix(-1 -1.224647e-16 1.224647e-16 -1 513.0017 621.3887)" class="st5" d="M253.7 307.9h5.7v5.7h-5.7z"/><path transform="matrix(-1 -1.224647e-16 1.224647e-16 -1 488.4151 621.3887)" class="st5" d="M241.4 307.9h5.7v5.7h-5.7z"/><path transform="matrix(-1 -1.224647e-16 1.224647e-16 -1 377.7747 621.3887)" class="st5" d="M167.6 307.9h42.5v5.7h-42.5z"/><g><path transform="matrix(-1 -1.224647e-16 1.224647e-16 -1 432.6148 644.1506)" class="st5" d="M213.5 319.2h5.7v5.7h-5.7z"/><path transform="matrix(-1 -1.224647e-16 1.224647e-16 -1 383.4412 644.1506)" class="st5" d="M188.9 319.2h5.7v5.7h-5.7z"/></g><g><path transform="matrix(-1 -1.224647e-16 1.224647e-16 -1 481.7881 729.4357)" class="st5" d="M238.1 361.9h5.7v5.7h-5.7z"/><path transform="matrix(-1 -1.224647e-16 1.224647e-16 -1 408.0279 729.4357)" class="st5" d="M201.2 361.9h5.7v5.7h-5.7z"/><path transform="matrix(-1 -1.224647e-16 1.224647e-16 -1 383.4412 729.4357)" class="st5" d="M188.9 361.9h5.7v5.7h-5.7z"/></g><g><path transform="matrix(-1 -1.224647e-16 1.224647e-16 -1 408.0279 757.864)" class="st5" d="M201.2 376.1h5.7v5.7h-5.7z"/></g><g><path transform="matrix(-1 -1.224647e-16 1.224647e-16 -1 481.7881 786.2924)" class="st5" d="M238.1 390.3h5.7v5.7h-5.7z"/><path transform="matrix(-1 -1.224647e-16 1.224647e-16 -1 408.0279 786.2924)" class="st5" d="M201.2 390.3h5.7v5.7h-5.7z"/><path transform="matrix(-1 -1.224647e-16 1.224647e-16 -1 358.8546 786.2924)" class="st5" d="M176.6 390.3h5.7v5.7h-5.7z"/><path transform="matrix(-1 -1.224647e-16 1.224647e-16 -1 334.268 786.2924)" class="st5" d="M164.3 390.3h5.7v5.7h-5.7z"/></g></g><g><path class="st3" d="M310.1 385.9l-102.5-96.6-1.7 562.8h102.5z"/><path class="st6" d="M232.6 323.2l-25-23.6-1.7 552.5h25z"/><path class="st5" d="M213.8 404.9h5.8v5.8h-5.8zM238.9 404.9h5.8v5.8h-5.8zM263.9 419.4h5.8v5.8h-5.8zM276.4 419.4h30.8v5.8h-30.8zM213.8 462.8h5.8v5.8h-5.8zM251.4 462.8h5.8v5.8h-5.8zM263.9 462.8h5.8v5.8h-5.8zM210.4 509.2h5.8v5.8h-5.8zM223 509.2h5.8v5.8H223zM260.5 509.2h43.3v5.8h-43.3z"/><g><path class="st5" d="M251.4 520.7h5.8v5.8h-5.8zM276.4 520.7h5.8v5.8h-5.8z"/></g><g><path class="st5" d="M226.3 564.2h5.8v5.8h-5.8zM263.9 564.2h5.8v5.8h-5.8zM276.4 564.2h5.8v5.8h-5.8z"/></g><g><path class="st5" d="M263.9 578.7h5.8v5.8h-5.8z"/></g><g><path class="st5" d="M226.3 593.1h5.8v5.8h-5.8zM263.9 593.1h5.8v5.8h-5.8zM288.9 593.1h5.8v5.8h-5.8zM301.5 593.1h5.8v5.8h-5.8z"/></g></g><g style="animation:translate 10000ms ease 0ms infinite"><path class="st7" d="M641.8 895.5H515.7c-5.6 0-10.1-4.1-10.1-9.2s4.5-9.2 10.1-9.2h126.1c5.6 0 10.1 4.1 10.1 9.2s-4.5 9.2-10.1 9.2zM637.6 921.6H519.9c-5.6 0-10.1-4.1-10.1-9.2s4.5-9.2 10.1-9.2h117.7c5.6 0 10.1 4.1 10.1 9.2s-4.5 9.2-10.1 9.2zM519.9 929.3l.1.2a30.2 30.2 0 0030.1 22.5h.9c3 6.9 9.9 11.7 19.9 12.6h15.8c8.8-1.5 17.3-6.3 19.9-12.6h.9c14.6 0 27.2-9.4 30.1-22.5l.1-.2H519.9z"/><g><linearGradient id="SVGID_2_" gradientUnits="userSpaceOnUse" x1="445.2" y1="890.4" x2="552.5" y2="694.2"><stop offset="0" stop-color="#807ffd"/><stop offset=".4" stop-color="#a7a6fd"/><stop offset=".8" stop-color="#c3c2fd"/><stop offset="1" stop-color="#cdcdfd"/></linearGradient><path d="M512.6 863.2c0 5.1 4.6 9.3 10.2 9.3H634c5.8 0 10.8-3.9 10.8-9.3l.1-5.8c.4-17.3 2.9-34.3 7.5-50.8a223.2 223.2 0 0148.9-89 133.8 133.8 0 0034.9-86.9 132.3 132.3 0 00-19.1-71.3 146.7 146.7 0 00-50.2-50.2 146.2 146.2 0 00-28.4-13.9 172.3 172.3 0 00-131 4.9 164.6 164.6 0 00-40 26.5 145.5 145.5 0 00-27.2 33 133.6 133.6 0 00-19 71.3 135.2 135.2 0 0034.9 86.6 222.4 222.4 0 0148.9 88.9c4.6 16.5 7.1 33.6 7.5 50.8v5.9z" fill="url(#SVGID_2_)"/></g><g><path class="st7" d="M550.6 692.4a51 51 0 0016.8-3.2 44 44 0 0013.9-8.3 46.5 46.5 0 0028.4 11.5c-8.4 39-7.4 136.1-4.5 180.2h4.8c-3-44.1-3.9-141.2 4.5-180.1 6.9-.3 13.8-1.9 20.2-5 9.6-4.5 16.5-12 17.7-18.9.7-4-.5-7.4-3.5-10.1a12.6 12.6 0 00-10.6-2.9c-7.6 1-15.9 7.3-21 15.9a56.6 56.6 0 00-6.8 16.5 41.8 41.8 0 01-26.1-10.3c4-4.4 7.1-9.6 9.1-15.4 3.2-9.3 2.2-19-2.4-24.7a12.9 12.9 0 00-9.9-5c-4-.1-7.5 1.6-10 4.7-4.6 5.6-5.5 15.2-2.4 25 2 5.8 5.1 11 9 15.4a40.4 40.4 0 01-12.5 7.5 46 46 0 01-15.1 2.9 41.4 41.4 0 00-5.6-16.6c-5.1-8.6-13.3-14.9-21-15.9-4.2-.6-7.9.4-10.6 2.9a10.8 10.8 0 00-3.5 10.1c1.1 7 8.1 14.4 17.7 18.9a52.4 52.4 0 0018.4 4.9c.4 12.2 3.8 144.6 7.7 180.2h4.8c-3.6-35.1-7-167.2-7.5-180.2zm71.1-18.9c4.4-7.5 11.3-12.8 17.5-13.7 2.7-.4 4.9.2 6.6 1.7a6.6 6.6 0 012.1 6.3c-.9 5.6-6.9 11.8-15.1 15.7-5.4 2.6-11.2 4-17 4.4 1.1-4.8 3.1-9.6 5.9-14.4zM573.6 661c-2.7-8.4-2.1-16.7 1.6-21.1a7.6 7.6 0 016.1-2.9h.1c2.4 0 4.4 1.1 6.1 3.2 3.7 4.7 4.4 12.8 1.7 20.8a38.1 38.1 0 01-7.8 13.4c-3.4-3.9-6-8.4-7.8-13.4zm-44 22.5c-8.3-3.9-14.2-10.1-15.1-15.7-.4-2.5.3-4.7 2.1-6.3a7.8 7.8 0 016.6-1.7c6.2.8 13 6.2 17.5 13.7 2.7 4.5 4.4 9.5 5 14.3-5.6-.4-11-1.9-16.1-4.3z"/></g><g><linearGradient id="SVGID_3_" gradientUnits="userSpaceOnUse" x1="452.9" y1="416.5" x2="714.5" y2="605.7"><stop offset="0" stop-color="#605ffc"/><stop offset="1" stop-color="#a09ffd"/></linearGradient><path d="M579.2 411.6c-64.7.5-128.4 12.9-149.5 33l.1 117c0 21.6 60.4 54.7 149.6 54.7 89.2 0 149.5-33.3 149.5-54.8l-.1-117c-21.2-20.1-85-32.4-149.6-32.9z" fill="url(#SVGID_3_)"/><path fill="#e6e3fd" d="M317 438.8v-7l261.5-91.9 261.6 91.6v7L578.6 535z"/><linearGradient id="SVGID_4_" gradientUnits="userSpaceOnUse" x1="423.3" y1="355.8" x2="817.1" y2="548.1"><stop offset="0" stop-color="#807ffd"/><stop offset="1" stop-color="#cdcdfd"/></linearGradient><path fill="url(#SVGID_4_)" d="M317 431.8l261.5-98.9 261.6 98.6-261.5 96.4z"/><g><path class="st2" d="M579.9 426l-1.9.1c.3.2 1.1.1 1.9-.1zM582.6 427.2l-1.1.1 1.1-.1zM804.4 598.9l.5 1.3-.5-1.3zM803.5 602.5c.1.6.1 1.2.5 1.6l-.5-1.6z"/><path class="st12" d="M584.9 427.1l.6-.1-.6.1zM583.8 425.9l1.7.1c-.6-.2-1.1-.1-1.7-.1z"/><path class="st12" d="M802.7 591.9c.2-.6.5-4.1-.7-4.1.2-.5.6-4.2-.5-4.2.2-.5.8-4.1-.4-4.2.2-.5.9-4.1-.3-4.2.2-.5.9-4.1-.3-4.2.2-.5 1-4.1-.2-4.2.2-.5 1-4.1-.2-4.2.2-.5 1.1-4.1-.1-4.2.3-.5 1.1-4.1-.1-4.2.3-.5 1.1-4.1-.1-4.2.3-.5 1.2-4.1 0-4.2.3-.5 1.2-4.1 0-4.2.3-.5 1.2-4.1 0-4.2.3-.5 1.2-4.1 0-4.2.5-.9.8-2.8.5-3.9 0-.6-.4-.3-.5-.4.3-.5 1.2-4.1 0-4.2.3-.5 1.2-4.1 0-4.2.3-.6 1.2-3.9 0-3.9.3-.7 1.3-4 0-4.2a6 6 0 00.5-2.3v-1.3a5 5 0 00-.6-.7c-.1-.7 1.6-4 0-4.2.4-.9.9-2.7.5-3.6-.2-.5-.4-.4-.4-.9 0-.6.3-1.4.4-2 .1-.7-.1-1.1-.3-1.8-.1-.2-.3-.1-.3-.3l.2-.7c.2-.6.8-3.3-.4-3.4.3-.7 1.1-4.1-.2-4.2.3-.7 1-4.2-.2-4.2.3-.7 1-4.2-.3-4.2.3-.7.9-4.2-.4-4.2.3-.7.8-4.2-.5-4.2.3-.7.6-4.3-.7-4.2.2-.7.2-1.6.1-2.4 0-.4-.1-1-.3-1.3-.1-.2-.6-.4-.7-.5-.2-.5 0-1.6-.1-2.2-.1-1-.5-1.3-1-1.9-.6-.9-.3-2.8-1.3-4l-.6-.3-.3-1.2c-.2-.8-.7-2-1.4-2.4l-.7-.1-.5-.9a6.7 6.7 0 00-1.9-2.2l-.8-.3-.4.2-.3-.3c-.9-.4-1.6-1.3-2.7-1.5h-1.1l-.3.3-.4-.2c-.9-.2-1.6-1-2.6-1.1l-.9.1-.6-.1c-.9-.3-1.7-1-2.7-1l-.9.3-.9-.4c-.9-.5-1.8-.9-2.8-.8-.5 0-.2.3-.7.2-.4-.1-.9-.5-1.3-.7-.5-.2-2.2-1-2.5-.1-.6-.5-1.4-.8-2.1-1l-1.2-.3-.8.4c-.5 0-1.6-.8-2.1-1l-1.2-.3-.8.4c-.5 0-1.4-.8-1.9-1-.4-.1-.9-.4-1.4-.3l-.8.3c-.6 0-3.7-2.2-4.2-.7-.8-.6-2.5-1.4-3.5-1.2-.5.1-.5.3-.9.2-.6-.1-1.3-.6-1.8-.8-.7-.2-1.1-.2-1.8-.1-.2 0-.1.2-.4.2l-.6-.3c-.6-.3-3.1-1.5-3.4-.4a5.6 5.6 0 00-3.2-1.1c-.4 0-.9.4-1 .4-.5 0-1.3-.6-1.9-.8-.6-.2-1.2-.3-1.8-.2-.2 0-.4.4-.4.4l-.5-.3c-.6-.1-1.2-.5-1.8-.7-.8-.2-1.1 0-1.8.1s-2-.8-3-.8h-.8c-.2 0-.4.4-.4.4-.4 0-1.3-.6-1.7-.7-.5-.2-1.3-.5-1.9-.3-.5.1-.5.3-.9.3l-1.7-.7c-.7-.2-1.2-.2-2-.1-.2 0-.1.2-.3.2l-.6-.3a7 7 0 00-1.9-.6c-.6-.1-1 .2-1.4.2a5 5 0 01-1.4-.4c-.5-.2-1.1-.4-1.6-.4l-.8.1c-.2 0-.4.4-.4.4-.3 0-1-.5-1.3-.6-.6-.2-1.6-.6-2.2-.4-.5.2-.5.3-.9.3-.5 0-1.2-.5-1.7-.6-.6-.1-1.2-.2-1.8-.1l-.4.4-.8-.3-1.9-.5c-.6-.1-.9.2-1.4.3-.8.1-2.2-.9-3.4-.7-.6.1-.8.4-1.2.4-.7 0-1.4-.5-2.1-.6-.8-.1-1.1.2-1.8.2-.3.1-.9-.2-1.4-.3-.6-.2-1.6-.5-2.2-.3l-.6.3h-.6c-.7-.1-3.5-1.4-3.7-.1-.8-.5-2.7-1.1-3.6-.7-.5.2-.5.4-.9.4-.6 0-1.3-.4-1.9-.5-.7-.1-1.1 0-1.8.1-.2 0-.1.3-.3.3l-.7-.2c-.6-.2-3.2-1.1-3.4.1-.8-.5-2.7-1-3.6-.7-.5.2-.5.4-.9.4-.6 0-1.3-.4-1.9-.5-.7-.1-1.1 0-1.8.1-.2 0-.1.3-.3.3l-.7-.2c-.6-.2-3.3-1-3.4.1-.6-.4-1.5-.5-2.2-.6-.4-.1-.9-.2-1.3 0l-.7.5c-.7.1-4-1.8-4.2-.1-.7-.4-3.5-1.2-3.9-.2 0-.7-.2-.3-.4.1-.7-.4-4-1.4-4.2-.1-.7-.4-4-1.4-4.2-.1-.6-.3-3.7-1.4-3.8-.2 0-.7-.3-.1-.4.1-.7-.4-4-1.4-4.2-.1-.7-.4-4-1.4-4.2-.1-.7-.4-4-1.4-4.2-.1-.8-.5-6.5-1.6-6.7-.2-.6-.4-1.5-.5-2.2-.6-.4-.1-1-.2-1.4 0l-.7.5c-.6.1-1.7-.5-2.3-.6h-1.3c-.3.1-.4.4-.6.4-.7.1-1.7-.5-2.4-.6l-1.3.1c-.3.1-.3.4-.5.4-.5.1-4.2-1.5-4.1-.1-.4-.3-5.1-1.1-4.1.1l-2.7-.7c.8 1.1 2.5.3 3.4 1.2a7.8 7.8 0 00-3.4 0l1.4.1-2.1.6 2-.1-.7.1c1.6-.1 3.6-.6 4.6.4-1-.1-2.1-.1-3.1-.3.7.4.1.2-.2.3-.4.2-1.1.2-1.6.3 1-.1 2.1-.4 3.2-.1-.7.1-1.6-.2-2.3.1.1 0 1.1 0 .6.2.4-.1 1.5.2 1.6.2l.8.1-1.2-.4h1.2c.2 0 1.2 0 .4.1.8 0 1.9-.1 2.5.5-1 0-1.9-.2-2.8-.3l1 .4-1 .2c1.7-.1 3.3.2 4.9.5.5.1 2.3.4 2.1-.6.7.4 4.2 1.7 4.2.1.7.4 4.2 1.7 4.2.1.7.4 4.2 1.7 4.2.1.8.5 6.9 1.7 6.8.2.9.6 3.9 1.8 4.2 0 .4 1.2 4 1.2 4.2 0 .3 1.3 3.8 1.6 4.2.2.4.8 4.4 1.5 4.2.2.7.4 4.2 1.7 4.2.1.6.4 4.3 1.6 4.2.1.7.4 4.2 1.7 4.2.1.7.5 4.2 1.7 4.2.1.7.5 4.2 1.7 4.2.1.7.4 4.2 1.7 4.2.2.7.5 4.2 1.7 4.2.2.7.5 4.2 1.7 4.2.2.7.5 4.2 1.8 4.2.2.7.5 4.2 1.8 4.2.2.7.5 4.2 1.8 4.2.2.6.5 4.1 1.8 4.2.3.6.5 4.1 1.9 4.2.3.6.5 4.1 1.9 4.2.3.6.5 4.1 1.9 4.2.4.6.5 4.1 1.9 4.2.4.6.5 4.1 1.9 4.2.4.6.5 4.1 2 4.2.5.6.5 4 2 4.2.5.6.5 4 2 4.2.5.6.5 4 2.1 4.2.6.6.5 4 2.1 4.2.6.6.5 4 2.1 4.2.6.6.5 4 2.2 4.1.7.6.5 3.9 2.2 4.1.7.6.5 3.9 2.2 4.1.7.6.5 3.9 2.3 4.1.8.6.5 3.9 2.3 4.1.8.6.6 3.9 2.3 4.1.8.6.5 3.9 2.3 4.1.8.6.6 3.8 2.4 4.1.9.6.6 3.8 2.4 4.1.9.6.6 3.8 2.4 4.1.9.6.6 3.8 2.4 4.1.9.6.6 3.8 2.5 4.1 1 .6.6 3.8 2.5 4.1 1 .6.6 3.8 2.5 4.1 1 .5.5 2.9 2.5 3.5 1.3.2.7 1.7 3.4 2.7 2.5.1.8.7 4.1 2 3.4-.1.8.1 4.2 1.5 3.8-.2.8-.3 4.3 1.1 3.9-.2.7-.6 4.4.8 4-.3.7-.8 4.3.7 4.1-.3.7-1 4.3.5 4.1-.3.7-1.1 4.3.4 4.2-.4.7-1.2 4.3.3 4.2-.4.7-1.3 4.3.2 4.2-.4.7-1.4 4.3.2 4.2-.4.7-1.4 4.3.1 4.2-.4.7-1.5 4.3.1 4.2-.4.7-1.5 4.3.1 4.2-.4.7-1.5 4.3 0 4.2-.4.7-1.5 4.3 0 4.2-.4.7-1.6 3.8-.1 4.2-.2.5-1.3 4 .1 3.9-.4.7-1.4 3.5-.4 4.1.5.3 1.9.1 2.4.1-.5 0-1.4-.2-1.8 0-.8.3-.9 1.7-.9 2.5-.1 1.3.2 1.8 1.5 1.8-1.2-.1-1.4 1-1.5 2.2-.1.6-.3 2.1.7 2.1-.3.5-1.5 4.3 0 4.2-.3.5-1.5 4.3 0 4.2-.3.5-1.5 4.3 0 4.2-.3.5-1.5 4.3 0 4.2-.3.5-1.5 4.3.1 4.2-.3.5-1.4 4.3.1 4.2-.3.5-1.4 4.4.1 4.2-.3.5-1.3 4.4.2 4.2-.3.6-1.3 4.4.2 4.2-.3.6-1.3 4.4.3 4.2-.3.5-1.2 4.4.4 4.2-.3.5-1.1 4.4.5 4.2-.3.5-1 4.5.6 4.2-.4 1-.6 2.6-.1 3.6.3.7.6.6 1.3.5l3-.5-1.3-.1zM583.8 424.5c-.1-.1-.2-.3 0 0zm-1.3 1.3c-.4 0-.3 0 .3-.1l-.3.1zm1.6-.1c.5 0 .8-.1 1.2.2l-1.2-.2zm.9.8c.5 0 1.1-.2 1.5.1l-1.5-.1zm.9.2c.4-.1.8-.1 1.1.2l-1.1-.2zm1 .3l.3.1-.3-.1zm.7.6c.4-.1.6 0 .9.1l-.9-.1zm4.4.1zm28.1-1.9v0zm8.4-.1v-.2.2zM799.2 525h-.3.3z"/><path class="st12" d="M804.5 600.6c-.3-1-.6-2.1-1.1-3l-.2-.8.2-.5v-.1a83 83 0 001 2.7l-1-2.7c.2-.7.3-1.5.1-2.2l-.3-1.6v-.1h-1.4l-1.3.2h-.4l-.3.1v.1a5 5 0 00-.2 2.4l.3 1.2.1.1.3.3.2.1H800.8v.1c-.2.8-.3 1.6-.1 2.4l.3 1.2.1.1.3.3.2.1h.2l.4 2.2c.1-.5-.2-1.5-.4-2.2l.2-.1c.1.5.5 1.5 1.6 2.9l-1.5-3 .1-.2.1-.4c.1.9.4 1.6 1.2 2.8l-.6-1.7.6 1.3c0-.7-.3-1.4-1-2.4l-.1-.2.2-.6c.1.7.4 1.5.9 2.4l-.8-2.5.1-.4 1 3.4v-.1c-.2-1.2-.5-2.3-1-3.4l.2-.6.7 3.5.4.8-1.1-4.4.2-.7 1.3 5.7-.3-1.8-.9-4 .1-.2 1.4 5.1.1-.9v-.5c-.3.1-.3-.1-.4-.2zm-3.7-3.4c-.2.5-.2 1-.2 1.6l.2-1.6.6-1.9-.6 1.9zm.8-2.3l.8-2.1.2-.4v.1l.1.6v-.3l-.1-.3v-.1l-.2.4-.8 2.1zm1.5 2.2l.1-.3.1.6-.2-.3z"/><path class="st2" d="M799.7 592.8h.1z"/><g><path class="st13" d="M842.4 665.8c.1.4 0 .9-.3 1.3s-.7.3-.8 0a177 177 0 00-10.7-22l-3-5.1v-.1l-2.4-4-1.3-2.5-1.5-2.9c-2.1-4.1-4.4-9.4-7.1-16.1l-.3-.8a.8.8 0 01-.2-.5v-.2c-.1-.3.1-.4.4-.1.4.3.8 1 1 1.5l.8 2 .5 1.2a311 311 0 004.8 10.4c4.9 9.9 8 14.1 9.7 17.1 2.1 3.1 9.7 17.9 10.4 20.8zM835.6 663.7c.1 0 .1 0 0 0l.1.5c0 .3-.1.5-.3.7-.3.2-.7 0-1-.4l-.6-1.3-2.8-6.2-2.7-6-6.7-15.1-3.9-10-1.9-5.4-1.1-3.1-.6-2-.7-2.2-.3-1v-.1l-.1-.4c-.1-.3 0-.5.2-.4l.2.1h.1c.4.3.8.9.9 1.4l.1.3.9 2.8.8 2.5.8 2.3 3.2 8.5.8 1.9 1.1 2.7 4 9.2.2.5 8.9 19.5.1.2c.2 0 .2.3.3.5zM832.4 678.9l.7 2.7c.1.4 0 .7-.2.9l-.2.1h-.1-.1c-.4 0-.7-.4-.8-.8l-.4-1.8s-.1 0 0-.1l-1.9-5.9-.1-.2c-2.3-6.3-6-14.9-9.8-23.9l-3.6-8.5-.3-.8-3.8-9-2.3-5.8-2.3-5.9-1.5-4.1-.2-.5-.6-1.8-.6-2.1-.2-.8v-.9l.2-.4v-.1c.2-.2.3-.2.5-.1l.1.2.1.2.3 1.3a55 55 0 001.2 4l1.4 3.9 2.4 6.2.1.2a43 43 0 001.3 3.2l1.4 3.5 3.6 8.6.4.9c4.8 11.1 9.8 22.5 12.9 30.7 1.1 2.8 1.9 5.1 2.4 6.9z"/><path class="st13" d="M834 666.3l1.8 5.9a1372 1372 0 013.8 14.4l.5 2c.1.3 0 .7-.1 1 0 .2-.2.4-.3.5-.2.2-.3.2-.5.1l-.3-.4-1.6-5.9-.2-.7-.9-3.4-1.3-4.7-.6-2.1-.3-1.1-.1-.2-1.5-4.7a401.3 401.3 0 00-10.4-26.4l-1.2-2.8-2.4-5.8c-2.2-5.1-4.2-10.3-6-15.6l-1.7-5.6-.1-.4c-.1-.3 0-.6.1-.6l.3.1.4.4.1.1.4.7.1.3 1.1 3.6.8 2.2c2.2 6.5 4.9 12.7 7.6 18.9a864 864 0 019.8 23.1c1 2.3 1.9 4.7 2.7 7.1zM839 691.1c.2.4.1 1-.2 1.4l-.2.1-.2.1c-.2.1-.4-.1-.5-.3l-.5-1v-.1c-1.3-3-2.4-6.4-3.5-9.5l-3.4-9.9-1.6-4.6-2.5-6.6-1.4-3.9-6.3-16c-2.5-6.5-5.1-13.4-7.1-19.3l-.7-2-1-3.1c-.9-2.7-1.5-5.1-1.9-7v-.4c0-.3.1-.5.3-.5l.3.1c.2.2.4.5.5.9l1.1 4.4.1.2a253 253 0 007.3 20.5l2 5.1 3.3 8.2.4 1a85 85 0 011.4 3.5l.1.2 1.6 3.9.9 2.4.4.9c2.9 7.8 5.5 15.1 7.5 21.2l1.7 4.8c.6 1.9 1.3 3.7 2.1 5.3z"/><path class="st13" d="M830.6 670.8c.2.4.1.8-.1 1.1l-.2.2H830l-.3-.1h-.1l-.4-.4a467.5 467.5 0 01-14.8-34.5c-1.4-3.8-2.7-7.5-3.8-11l-.3-1c-2.4-7.6-3.7-13.6-4.2-15.5-.1-.5 0-1 .3-1.1.2 0 .4.1.6.4l.1.3.4 1.6.3 1.3c.5 2 1.2 4.8 2.2 8.1v.1l.3.8 1.5 4.8c1.1 3.4 2.5 7.1 4 10.9l1.7 4.5c3.8 9.2 8 18.8 11.4 26l1.7 3.5z"/><path class="st13" d="M833.8 687.6l.1-.1c.3-.2.4-.8.2-1.2-9.4-19.2-27.1-59.2-28.5-76.7-.1-.5-.4-.9-.7-.8-.3.1-.4.6-.3 1.1 1.3 17.6 18.5 57.4 28.3 77.1.2.4.6.7.9.6z"/><path class="st13" d="M836.4 696.5c.2.5.1 1-.2 1.2h-.1c-.3.1-.6-.2-.8-.6l-2.6-5.1a332 332 0 01-6.7-14.4l-.3-.5-4.1-9.5-.1-.2a535.4 535.4 0 01-11.8-30.3l-.1-.3-2.2-6.3-1.6-4.8c-2.6-8.3-3.9-13.9-2.9-14.2v-.7l.1-.3.1-.2c.3-.3.5 0 .6.5-.3.1-.4.8-.3 2 .1 1.2.6 2.9 1.1 5l.6 2.3.1.4 1.3 4.3c1.5 4.5 3.3 9.9 5.5 15.7a790 790 0 0015 36.9l1.9 4.2 7.5 14.9z"/><path class="st13" d="M828.1 685.6c.3.4.2.9-.1 1h-.2c-.3 0-.7-.4-1-.8-1.4-2.4-4.1-8.4-7.3-15.9-2.6-6.3-5.6-13.6-8.3-21l-4.5-12.9-.6-2c-2.9-9.4-4.4-17.1-4.9-19.4a3 3 0 01.2-1.6v-.1c.2-.4.4-.3.5 0 .4 1.9 1.4 6.9 3.2 13.7l2.6 8.6.6 1.7c1.3 3.9 2.8 8 4.4 12.2l.1.3c2.5 6.5 5 13 7.4 18.7 3.5 8.4 6.5 15 7.9 17.5zM808 608.7l.1.3.8 2.9v.1l2.5 8.9.1.5 3.3 12.5.8 2.9 1 3.7.3.9.8 3.1a40 40 0 011 3.7l.5 1.8 1.6 5.8 1.2 4.3 1.7 5.9 1 3.5.4 1.5.3.8 1.7 5.6 1.4 4.4c1.1 3.4 2.4 6.6 3.9 9.7.1.2.2.5.1.7 0 .2-.1.3-.3.3l-.2.1c-.3 0-.7-.3-.9-.7a109 109 0 01-5.4-14l-.1-.3-1.7-5.6-.1-.2-.7-2.2-.4-1.3-.8-2.9-1.6-5.3-.3-1.3-.1-.3-.7-2.5v-.1l-1.7-6.5a40 40 0 01-1-3.8l-1-3.8-.2-.8a40 40 0 00-1-3.7l-.8-3a16 16 0 01-.5-2.1l-2.8-10.9-.2-.7v-.1l-2.2-8.1-.3-1.3-.5-1.9c-.1-.5 0-.9.3-1 .2-.3.6.1.7.5zM842.1 687.5c.2-.3.4-.9.3-1.4a194.5 194.5 0 00-2.9-18.5c-.6-2.2-1.4-4.3-2-6.1-7.3-18.6-17.4-32.9-24.8-50.1-.2-.6-.7-1.2-1-1.2-.3-.1-.3.4-.1 1 7 16.8 17.1 31.8 24.6 51.1a64 64 0 012.1 6.2c.6 2.1.9 4.3 1.3 6.4.6 3.9 1.2 8 1.6 12.1.1.6.4.9.7.6l.2-.1z"/></g><g><path class="st14" d="M802.9 610.8l.1.2 2.1 9.8v.1c.8 3.5 1.5 6.7 2.3 9.6l2 7.5c1.2 4.3 2.3 7.9 3.4 11.1l.1.3c1.6 5.1 3.1 8.9 4.1 12.1.7 2.2 1.3 4 1.6 5.6l.9 2.6c1.3 4.1 2.1 6.6 4 11.2.3.7.1 1.2-.3 1-.5-.2-1-.9-1.3-1.5-2.3-5.5-3.1-8-4.9-13.7-.8-3.9-3-9.2-5.7-18a211 211 0 01-5.9-22.3c-1-4.4-2-9.2-3-14.6-.1-.7 0-1.6.2-1.9 0-.1.2.2.3.9z"/><path class="st14" d="M823.3 667.2c.1.4.1.7-.1.8l-.3.2c-.4 0-.9-.3-1.1-.8-4.1-11.5-7.3-19.5-10.1-27.3a220.8 220.8 0 01-6.3-19.7l-.1-.4-.6-2.5-.3-1.3-.8-3.6-.5-2.2-.1-.2c-.1-.5 0-1.1.3-1.4.2-.2.5 0 .6.4l.1.4.2.9.6 2.8.4 2 .4 1.5.4 1.6c2.4 8.6 4.7 15.3 7.3 22.3l6.7 17.5.1.3 1.1 3.1.2.4 1.9 5.2zM836.8 678.2c.2.4.1.9-.1 1.3l-.1.1h-.1l-.1.1c-.3.2-.6 0-.8-.4l-4.2-10.2-.6-1.5-3.1-7.7-.4-.9-.9-2.4-1.6-3.9-.2-.5-4.8-12.6-.7-2-2.7-7.9-2-6.6a179.1 179.1 0 01-1.8-6.8l-.5-2.3-.4-2.5-.1-1.1v-.2-.3l.1-.2c.1-.2.3-.1.6.1.3.4.7 1 .8 1.4l.1.7v.5c.1.9.2 1.9.5 2.9l.2.9.2 1a114 114 0 004.6 14.7c.6 1.9 1.3 3.9 2.1 5.8l.2.5 2.7 7.1.1.1 2.7 7.1.8 1.8c1.4 3.7 2.9 7.2 4.2 10.3l.2.6 2.6 6.4.1.2 1.6 3.9c.1 0 0 .1 0 .1l.8 2.4z"/><path class="st14" d="M835.5 690.6c.2.5 0 1-.4 1.1-.4.1-.8-.2-.9-.7l-1.4-4.2a149 149 0 00-5.1-12.5l-2.7-5.9-1.2-2.5-4.5-10.1v-.1a268 268 0 01-5.9-14.8 168.1 168.1 0 01-8.6-31.5v-.3-.4a1 1 0 01.1-.8c0-.2.1-.3.3-.3.2-.1.6.3.7.7 0 .2.1.3 0 .4l2.1 10c1.1 4.3 2.3 8.6 3.8 12.9a158.8 158.8 0 004.9 13.6c1.3 3.5 2.8 6.9 4.3 10.4l5.5 12.2 2.7 5.9.1.2c1.2 2.8 2.5 5.6 3.6 8.5 1 2.8 1.9 5.5 2.6 8.2z"/><path class="st14" d="M837.2 695.2c.3-.1.5-.6.4-1-.2-3.8-1.3-7.8-2.4-11.4-2.2-7.1-5.8-15.6-9.9-24.6a248.8 248.8 0 01-14.4-36.3c-.1-.5-.5-.9-.9-.9-.3 0-.5.4-.3.9 2.6 10.2 8.4 23.7 14.3 36.8 4.1 9.1 7.7 17.7 10 24.8 1.2 3.6 2.2 7.4 2.4 10.9 0 .5.4.9.7.9l.1-.1z"/><path class="st14" d="M835 675a41 41 0 011.7 5.5 51.8 51.8 0 012.5 9.8l.9 5c.1.7 0 1.4-.4 1.6l-.1.1c-.3.2-.7-.3-.8-1l-.5-3a172.2 172.2 0 00-7-23.6l-.6-1.5a309 309 0 00-6-14.9l-.2-.5-1.3-3.2-.4-1-3.4-8.1-2.9-7.1-.5-1.2c-2.7-7-4.6-13.2-5.8-17.5l-.1-.2c-.6-2.3-1-4-1.1-5.1-.1-.6 0-1 .3-.9h.1c.4.2.7 1 .9 1.7a127 127 0 004 13.4v.1l3.2 8.6.5 1.2 2.4 5.7 2 4.8 3.8 8.8.8 1.8 4.2 10.3.2.6c1.3 3.2 2.5 6.6 3.6 9.8z"/><path class="st14" d="M838.5 682.2l.1.6c.1.5-.1 1-.4 1.2H837.9c-.2 0-.4-.1-.4-.3l-.1-.4-.1-.3-.5-2.7-.1-1-.9-3.7v-.1a167 167 0 00-7.7-22.5l-3.8-9.1-2.9-6.9-4.8-11.4-.1-.2a158.2 158.2 0 01-5.5-15.8l-.1-.2c-.2-.5 0-.7.3-.6h.1l.5.6.3.6.1.2 1.5 4.7 1 2.6c.9 2.6 2 5.3 3.2 8.1l4.1 9.3 7.5 17.4a129.5 129.5 0 013.5 9c2.6 7.7 4.7 14.7 5.5 20.9z"/><path class="st14" d="M835.3 662.8l.4 1.3a124.3 124.3 0 015.9 27.9c0 .5-.2 1-.4 1.3l-.2.1c-.3.2-.6-.1-.7-.6l-.3-3.2-.4-3c-1.1-7.5-3.1-15.3-5.6-22.9l-.2-.6-2.5-7.2-4.9-12.6-.2-.5-4-9.4-1.1-2.5-1.4-3.1a215.2 215.2 0 01-6.2-15v-.1l-.1-.6v-1-.1c-.2-.5 0-.6.4-.3.3.2.6.6.7.9l.3.5-.1.3v.5c.1.6.4 1.6.9 2.8l.1.2c.6 1.5 1.4 3.4 2.5 5.6v.1l3 6.4 1.3 2.8c1.9 3.9 3.8 8.4 5.8 13.1l.6 1.4c2.1 5.7 4.4 11.5 6.4 17.5z"/><path class="st14" d="M843.7 674.2c.2.2.2.8 0 1.4l-.1.3c-.2.3-.5.4-.6.2l-2.8-5.8-5.9-12.9-.2-.5-4.4-9.5-.2-.5-1.3-2.7-5.2-11-.6-1.4a239.4 239.4 0 01-4.2-9.9v-.1c-1.2-3-2.2-5.5-2.8-7.4l-.3-.8-.2-.7-.1-.3-.1-.4c-.1-.2-.1-.3 0-.4 0-.1.2-.1.4.1l.1.1c.3.4.8.9 1 1.4l1.1 2.9.5 1.2c1.2 3 2.8 7 4.9 11.6l2.1 4.6 3 6.3v.1l2 4.1 6.8 14.4.2.4c3.3 7.6 6.1 13.8 6.9 15.2zM841.4 677.7c.4 1.7.8 3.4 1 5.2 0 .3 0 .7-.2 1l-.2.4-.1.1c-.3.3-.6.1-.7-.5a37 37 0 00-3-11.2c-.9-2.3-2-4.6-3.1-6.9l-.7-1.5a.8.8 0 01-.2-.4l-.1-.3-1.2-2.1-.1-.1-1.3-2.4-3.5-6-1.7-2.9-2.8-4.8-.1-.1-1-1.7-2.4-4.2-.9-1.7-1.5-2.9-.9-1.8a94.5 94.5 0 01-5.8-13.4l-1-3.1c-.4-1.4-.8-2.9-1-4.3v-.1l-.4-2.6c-.1-.3 0-.6.2-.6h.2l.2.2.5.9c.8 6.1 3.4 12.9 6.8 19.9l1.6 3.3 2.5 4.6.2.4 1.4 2.4 2 3.5a329 329 0 004.1 7l1 1.6 2 3.4 4.1 7.1.3.5v.1l.6 1.3a82.8 82.8 0 015.2 12.7zM829.2 680.6c.2.4.2.8 0 1l-.2.2h-.2-.2c-.3 0-.6-.3-.8-.6l-2.1-3.7-.2-.2-3.5-5.9-1.9-3.2-1.4-2.5-1.9-4.1a178 178 0 01-8.7-24.8l-.3-1.2c-.8-3.4-1.6-6.7-2.1-9.9a39.7 39.7 0 01-.7-4.9l-.4-3.1v-.2l-.4-6.1v-.8-1.2-.5c0-.5.2-.9.5-.9l.2.1c.2.1.3.4.3.8v.1l.1 2 .1 1a25.3 25.3 0 00.4 4.3v.7c.2 2.5.6 5 1.1 7.7l.2 1c.6 3.6 1.5 7.4 2.6 11.2l.1.3.4 1.6a170 170 0 0011.5 29l1.9 3.2.6 1 3.2 5.4 1.8 3.2z"/></g><path d="M819.9 620.6l-.1.8-.1 1.1v.5l-.1.5-.2.8-.2.5v.1l-.4 1.1-.2.5-.4.8-.3.5-.2.3-.1.1-.4.4-.4.5-.3.2-.2.2-.1.1-1 .7-.9.4-.3.1-.4.1h-.1l-.4.1-.4.1h-.4-1l-1.1-.2h-.1l-.4-.1-.6-.2-.5-.2-1.3-.7-.2-.1-.7-.4-.9-.7-.1-.1-.7-.6-1.1-1.2c-2-6.5-2.7-11.9-2.9-13.5 0-.3.1-.8.4-1.2v-.1c.2-.3.4-.3.5 0 .2 1.3.7 4.8 1.9 9.5a118 118 0 01-1.5-10.2c0-.5.1-1.1.4-1.4.2-.2.4 0 .5.5l.2-.2v-.1c0-.4.1-.8.4-1 .3-.2.5-.1.5.3l.1.3.2-.3v-.4c0-.3.3-.7.5-.7l.2.1.3-.3c.2-.1.5.2.6.5v.3c.2 2.3.6 4.7 1.1 7l1.8 4.2c-1.6-5.2-2.3-9.4-2.6-10.7-.1-.3.1-.7.4-.8.2 0 .4.1.5.3-.1-.3.1-.7.4-.7.3 0 .5.2.6.5l.1.2c0-.2.2-.4.4-.4h.5l.2.1c-.1-.4.1-.7.4-.7h.1c.3.1.6.7.7 1.1.2 1.3 1 4.8 2.6 9.2l-1.1-4.7-1.1-3.8-.1-.3c-.1-.2 0-.4.1-.4v-.1c-.1-.3.1-.5.4-.4h.1l.4.4h.5c.3.2.6.7.6.9v.5c0-.2 0-.3.2-.3v-.1c-.1-.3.1-.5.4-.3.3.1.5.3.6.6 0-.1.2-.1.4 0l.1.1c.3.2.7.6.8.9l.8 2 .4.8a39 39 0 003.3 6.8z" opacity=".2" fill="#0d063c"/><g><path d="M818.6 609.3c2.3 7-2.1 10.2-8.1 12.2-6.1 2-11.5 2-13.8-4.9-2.3-7 .7-14.2 6.8-16.2 6-2.1 12.8 2 15.1 8.9z" fill="#1a0c78"/><path class="st13" d="M818.5 608.9c2.2 6.7-2.2 9.9-8.2 11.9-6.1 2-11.5 2.1-13.7-4.6-2.2-6.7.9-13.8 6.9-15.8 6-2.1 12.8 1.8 15 8.5z"/><path d="M798.3 615.2c-2.2-6.5 0-12.7 5.7-14.9l-.5.1c-6.1 2-9.2 9.1-6.9 15.8 2.2 6.7 7.6 6.6 13.7 4.6l.5-.2c-5.9 1.8-10.3 1.1-12.5-5.4z" opacity=".4" fill="#d7d1fc"/><path d="M814.1 609.8c-1.7-5-5.2-10.8-11.2-9.2l.5-.2c6.1-2 12.8 1.8 15 8.5 2.2 6.7-2.2 9.9-8.2 11.9l-.5.2c5.7-2.1 6.1-6.1 4.4-11.2z" opacity=".3" fill="#3418f0"/><path d="M816 609.4c-2.2-6.5-7.1-10.5-13-8.8l.5-.2c6.1-2 12.8 1.8 15 8.5 2.2 6.7-2.2 9.9-8.2 11.9l-.5.2c5.7-2.1 8.4-5.1 6.2-11.6z" opacity=".5" fill="#2914b4"/></g><g><path d="M808.7 598.7l-.1-.2c.9 2.9-1.2 4.3-4.1 5.3-2.8.9-5.4 1-6.4-1.8v.2c1.1 3.2 3.7 3.2 6.5 2.2 3.1-1 5.2-2.5 4.1-5.7z" opacity=".6" fill="#3418f0"/><path d="M804.6 603.8l-.4.1c-2 .6-3.9.8-5.1-.4l-.3-.3c-.3-.3-.5-.7-.7-1.2l-.1-.2c-.8-2.3 0-4.7 1.7-6.2.6.6 1.6.5 2.4.1.7-.3 1.4-.9 1.4-1.4 2.2.1 4.2 1.7 5 4v.2l.1.6c.6 2.5-1.4 3.8-4 4.7z" opacity=".6" fill="#8574f6"/><path class="st14" d="M804.6 603.8l-.4.1c-2 .6-3.9.8-5.1-.4l-.3-.3c-.3-.3-.5-.7-.7-1.2l-.1-.2c-.8-2.3 0-4.7 1.7-6.2.5.6 1.4.8 2.3.6.7-.2 1.3-.8 1.4-1.4l.1-.4c2.2.1 4.2 1.7 5 4v.2l.1.6c.6 2.4-1.4 3.7-4 4.6z"/><path d="M804.6 603.8l-.4.1c2.7-1 4.7-2.4 3.7-5.3a5.5 5.5 0 00-4.4-3.8l.1-.4c2.2.1 4.2 1.7 5 4v.2l.1.6c.5 2.4-1.5 3.7-4.1 4.6z" opacity=".5" fill="#5d46f3"/></g></g><g><path d="M600.8 430.4c0 7.6-10 13.8-22.3 13.8s-22.3-6.2-22.3-13.8c0-7.6 10-13.8 22.3-13.8 12.4 0 22.3 6.2 22.3 13.8z" fill="#544dad"/><path class="st2" d="M599.6 428.9c0 6.8-8.7 12.3-21 12.4-12.3 0-22.3-5.5-22.3-12.3 0-6.8 10-12.3 22.3-12.4 12.3 0 21 5.5 21 12.3z"/></g></g><g><path class="st24" d="M527.6 275.5L504.8 286l-19.1-38.1 20.4-8.1z"/><path d="M492.2 261c1.8-1.2 3.4-2.5 4.8-3.9 1.7 3.8 1.2 15.8 1.2 15.8l-6-11.9z" opacity=".3" fill="#ef7629"/><path class="st24" d="M462.7 256.2c2.2 3.2 4.1 6.9 8.1 10.7 2.5 2.3 7.5 1.4 11.7-.5a47 47 0 0019.7-15.2 81 81 0 008.2-14.7 43.8 43.8 0 00-5-37.9c-12.5-19-50.1-5.4-56.3 15.6a28 28 0 001.2 11.7l.1.5c1.4 4.4 3.8 9.4 8.1 14.2.9 1 1.3 2.3.9 3.5-.9 2.5-2.9 5.9-4.2 7.7-1.8 2.5 7.5 4.4 7.5 4.4z"/><path d="M443.7 222.9c-3.6.1-8-3.9-9.3-9-.9-3.5 1.6-8.3 5.3-9.2-4.2-7.2 3.2-13.7 9.4-13.5.7-4.2 3.9-6.3 7.9-7.5 4-1.2 7.6-.2 11.1 2.2a6 6 0 016.2-4.2c.6.1 1.3.2 1.9.1 1.2-.2 1.9-1.4 2.8-2.3 3-3.3 8.3-3.7 12-1 2.8-3.4 11-3.4 14.1.4 2.2-1.4 10.7 1.5 12 8.2 3.5-.5 7.3.4 10.1 2.7 2.8 2.3 4.4 5.9 4.2 9.5 1.9.1 3.4 1.5 4.3 3.2.9 1.6 1.9 4.8.2 6.7 5.7 1.8 7.9 10.4 4.5 15.3 3.6 3 4.6 8.7 2.3 12.8a10.6 10.6 0 01-12.1 4.8 11.5 11.5 0 01-13.2 2.9c-2 1.7-5 1.8-7.5.8-3.3-.7-7.7-2.5-8.8-5.2 6.6-4.1 6.4-14.1-.3-17.1-5.8-2.5-9 5.3-8.3 7.9l-4.1-.6s-1-3.2-1.7-3.7c-2.3-1.7-5.7-2.2-6.9-3.3 4.7-4.3-4.4-3.2-5.2-4.2-1.3-1.5-3.4-2.1-5.3-1.5-7.3 2.3-16.4.9-18.2-1.8-.7 1.8-2.3 9.1 2.9 17.9-2.9 4.3-8.4.5-7-3.7-2.7 1.3-7.1-4.4-3.3-7.6z" fill="#d03d2f"/><g><path class="st27" d="M454.5 229.2c1.5-1.5 4.7-1.9 5.7-2l3 .3a8 8 0 012.7 1.1l-.1.2c-.9-.2-1.8-.4-2.8-.4-.9 0-1.8 0-2.7.2-.9.2-4.4 1.1-5.5 1.1l-.3-.5z"/><path d="M467.1 256l1.1-.5 5.3-2.6s3.6 6.1.9 7.8c-2.7 1.7-7.3-4.7-7.3-4.7z" fill="#f18b62"/><path class="st27" d="M461.2 239c1 1.4 2.6 2 3.5 1.4 1-.7.9-2.4-.1-3.8s-2.6-2-3.5-1.4c-.9.7-.9 2.4.1 3.8z"/></g><g><path class="st24" d="M397.4 538.6l-27.4 3.7s11.9 70.6 3.1 78c-.8 2.3-26.8 19.4-24.2 21.2 2.6 1.8 55.7-14.3 56.1-16.2.1-.4-8-30.3-8.1-30.7l.5-56z"/><path class="st29" d="M375.8 609.6s-10 12.1-11.2 14.1c-1.2 1.8-10 5.9-16.2 8.8-9.2 4.3-10.2 9.1-10.7 11-.4.1-.7.6-.6 1.1l.3 1.8s27.8-3.5 38.7-6.6c0 0 8-8.1 9.6-1.8l22.5-3.8-1.3-6.9h-1.2c0-3.9-1-11-3.4-17.2l-1.1-.1s1.3 3.2-6.7 5.3c-8 2.1-12.5 1.9-13.5.5l-.6-.8s-.1-4.2-4.6-5.4z"/><path d="M405.6 457.5l129.8 6.1 10.6-59L384.3 417c-15.5.8-24.5 8.5-23.7 18.8 0 0 14 162.5 14.3 168.8l6.9 3.3 19-3.6 7.9-95.9c1.3-17 .2-34.1-3.1-50.9z" fill="#161928"/><g><path class="st24" d="M309.6 552.6l-5.6 15c-4.2 11.4-12.4 43.3-20 50.8-2.1 1.2 14 18.3 15.6 17.3.4-.3 13.3-33 13.5-33.4l9.3-19.7c2.7-5.7 5.6-11.2 8.7-16.7l5.9-10.8-27.4-2.5z"/><path class="st29" d="M283.6 616.3s-7.3 13.8-8.2 16c-.8 2-8.6 7.7-14.1 11.8-8.1 6-8.1 11-8.3 12.9-.4.2-.6.7-.4 1.2l.7 1.7s26.5-8.9 36.6-14.1c0 0 6.2-9.5 9.1-3.7l21.3-8.2-2.7-6.5-1.1.2a54.8 54.8 0 00-6.7-16.1h-.3s-1 3.3-6.4 6.6c-7.1 4.3-11.8 4.4-13.1 3.2-1.2-1.2-.8-.7-.8-.7s-.9-4-5.6-4.3z"/><path d="M569.1 442.6c0-17.8.9-24.4-2.9-50.8l-64.5 1.8-.4 14.7-131.7 17.1c-1.4.1-13.2 1.9-15.8 8.9 0 0-61.8 164.4-65.2 172.8l9 4.4 16.1-2.8 50.4-87.7a141.7 141.7 0 0015.8-41.1l3-14.2s123.5 8 157.6 4.2c21.1-2.4 28.6-19.3 28.6-27.3z" fill="#2c3350"/></g><path fill="#202246" d="M501.8 392.9l-.2 8.6 66.1.1-1.5-9.8z"/></g><g><path class="st4" d="M387.9 411.2l-46.6.2-41-90.6 48.3 10.2z"/><path class="st29" d="M443.9 416.3H343.1c-1 0-1.8-.8-1.8-1.8v-3.3h104.4v3.3c0 1-.8 1.8-1.8 1.8zM336.1 410.6L297.4 325c-.6-1.3 0-2.9 1.3-3.5l41 90.4c-1.4.6-3 0-3.6-1.3z"/><path class="st2" d="M341.3 411.1l-41-90.3-1.6.7 40.9 90.4z"/><g><path class="st33" d="M351.8 337.6l-39.7-7.6-3.4-7.5 39.9 8.5z"/><path fill="#c4bedb" d="M353.7 341.5l-39.6-7.2-2-4.3 39.7 7.5z"/><path class="st33" d="M359.6 353.5l-39.5-6.1-4.3-9.4 39.6 6.9z"/><path class="st35" d="M349.6 349.4l-29.2-4.7-1.7-3.7 29.2 4.9zM354.6 350.2l-2.5-.4-1.7-3.5 2.6.4z"/><path class="st36" d="M359.7 373.8l-9.6-.9-8-17 9.6 1.4z"/><path class="st37" d="M357.1 357.5c-1.2-.2-1.2 1.9-.1 5.2l5.4 5.8-5.3-11z"/><path class="st37" d="M357 362.7a52 52 0 005.3 10.8l.1-4.9-5.4-5.9zM362.6 363.5c-2.1-3.4-4.3-5.8-5.5-6l5.3 11 .2-5z"/><path class="st38" d="M362.6 363.5l-.1 5 5.1 5.5a44.6 44.6 0 00-5-10.5z"/><path class="st36" d="M362.6 374.7c2 3.1 4 5.2 5.1 5.3l-5-10.3-.1 5zM367.4 378.7c1.1.1 1.1-1.8.2-4.8l-5.1-5.5 4.9 10.3z"/><g><path class="st36" d="M336.5 355.9l-7.1-1-.7-1.7 7 1zM336.4 361.1l-9.1-1.1-.8-1.8 9 1.2zM340.4 365.1l-10.1-1.2-.5-1.1 10.1 1.2zM341.3 367l-11.4-1.3-.5-1.1 11.4 1.3zM342.2 368.8l-11.4-1.2-.5-1.1 11.4 1.3zM341.5 370.6l-9.8-1.1-.5-1.1 9.8 1.1zM343.9 372.6l-10.1-1-.5-1.1 10.1 1zM344.8 374.5l-11.3-1.1-.5-1.1 11.3 1.1zM345.7 376.4l-11.3-1-.5-1.1 11.3 1zM346.6 378.3l-11.3-1-.5-1.1 11.3 1zM347.5 380.2l-11.3-.9-.5-1.1 11.3.9zM348.4 382.1l-11.3-.8-.5-1.1 11.3.9zM346.2 383.9l-8.2-.7-.5-1.1 8.2.7zM350.2 386l-4.2-.3-.5-1.1 4.2.3zM350.8 387.9l-3.1-.2-.5-1.1 3.1.2zM352.9 393l-10.1-.5c-.3 0-1-.9-1.5-1.9-.5-1.1-.6-1.9-.3-1.9l10.1.6c.3 0 .9.9 1.4 1.9.6 1 .7 1.8.4 1.8z"/></g><g><path class="st38" d="M365.8 404.7h-.9l-6.4-13.5h.9zM366.8 404.7h-.8l-4.7-9.9h.9zM367 404.7l-7.6-16.1.9.1 7.6 16zM369 404.8l-.9-.1-5.4-11.4h.9zM370 404.8h-.8l-8.9-18.7h.9zM371.1 404.8h-.9l-6.9-14.6.9.1zM372.1 404.8h-.8l-9.3-19.4.9.1zM373.2 404.8h-.9l-11.2-23.5h.8zM374.2 404.9h-.8l-9.8-20.5.9.1z"/><g><path class="st38" d="M383.3 405.1h-.8l-7.9-16.2h.9zM382.3 405.1l-.8-.1-5.4-11h.9zM381.3 405h-.8l-6.3-12.9h.9zM380.3 405h-.8l-4-8.2h.9zM379.3 405h-.8l-7.9-16.4.8.1zM378.3 405l-.8-.1-6.9-14.2h.8zM377.3 404.9h-.8l-9.2-19.1h.8zM376.3 404.9h-.8l-11.3-23.4.9.1zM375.3 404.9h-.9l-7.6-15.8h.9z"/></g></g><path class="st33" d="M341 411.2l-40.7-90.4 8.4 1.7 40.6 88.7z"/><path fill="#fdf3fa" d="M313.1 337l-3.6-.6-4.4-9.7 3.6.7z"/><g><path class="st40" d="M312.1 343.3l-1-.1-1.7-3.8 1 .1zM317.9 344.3l-5.6-.9-1.7-3.8 5.6.9zM319.2 347.1l-6.8-1.1-.4-.8 6.8 1zM320.7 350.3l-6.8-1-.4-.9 6.8 1.1z"/></g><g><path class="st40" d="M315.6 352.3l.1.6-.5-.6-.1-.6c.1 0 .4.2.5.6zM316.1 352.3l.1.6-.5-.6-.1-.6c.2 0 .4.3.5.6zM316.6 352.4l.1.6-.5-.6-.1-.6c.2 0 .4.3.5.6zM317.1 352.5l.1.6-.5-.6-.1-.6c.2 0 .4.2.5.6zM317.6 352.5l.1.6-.5-.6-.1-.6c.2 0 .4.3.5.6zM318.2 352.6l.1.6-.5-.6-.1-.6.5.6zM318.7 352.7l.1.6-.5-.6-.1-.6.5.6zM319.2 352.8l.1.6-.5-.6-.1-.6c.1 0 .3.2.5.6zM319.7 352.8l.1.6-.5-.6-.1-.6.5.6zM320.2 352.9l.1.6-.5-.6-.1-.6.5.6zM320.7 353l.1.6-.5-.6-.1-.6.5.6z"/></g><g><path class="st40" d="M316.6 354.6l.1.6-.5-.6-.1-.6c.2 0 .4.2.5.6zM317.2 354.6l.1.6-.5-.6-.1-.6.5.6zM317.7 354.7l.1.6-.5-.6-.1-.6.5.6zM318.2 354.8l.1.6-.5-.6-.1-.6c.1 0 .3.2.5.6zM318.7 354.8l.1.6-.5-.6c-.2-.3-.2-.6-.1-.6l.5.6zM319.2 354.9l.1.6-.5-.6-.1-.6.5.6zM319.7 355l.1.6-.5-.6-.1-.6.5.6zM320.2 355l.1.6-.5-.6-.1-.6c.1 0 .4.3.5.6zM320.7 355.1l.1.6-.5-.6-.1-.6c.1 0 .4.3.5.6zM321.2 355.2l.1.6-.5-.6-.1-.6c.2 0 .4.3.5.6zM321.7 355.3l.1.6-.5-.6-.1-.6c.2-.1.4.2.5.6z"/></g><path class="st35" d="M326.7 365.1l-5.2-.6c-.4 0-1.2-1.1-1.8-2.4-.6-1.3-.7-2.3-.3-2.2l5.3.7c.4.1 1.2 1.1 1.8 2.4.5 1.1.6 2.1.2 2.1z"/></g></g><g><path class="st12" d="M522.8 259.5l-29 21.9-4.9-12.1 30-16.7z"/><path d="M482.1 351.8l-44.8 37.6-.7.6-24.9 3.7-21.8 13.3 2.6 1.6 23.8-3.3 19.1 1.3c2.1.1 8.1-4.4 10.5-8.7l50.8-31.3-14.6-14.8z" fill="#e6b08c"/><path class="st42" d="M464.3 366.3l10-8.3 10.8 16.5-25 15.4z"/><path class="st7" d="M512.4 272.5c-12.4-1.6-20 10.6-20 22-.1 23.5-3.4 51.2-3.4 51.2l-16 12.1 12.9 18.1 24.4-15.4s9.6-45.4 11.9-60.3c2-12.2-2.5-26.8-9.8-27.7z"/><path class="st43" d="M480.9 381.3l10.4-6-14.6-24.7-9.3 7.8z"/><path class="st12" d="M487.9 327c2.1 11.1 6 35.9 8.9 54.3l3 19.3a8.7 8.7 0 003.4 5.6 50 50 0 0035.4 8.4c9.2-.7 18.9-2.8 29-5.4a5.7 5.7 0 004.3-5.5c.1-10.4-3.2-25.1-9.1-41.2l-7.6-55.9a61.7 61.7 0 00-19.8-39.9 38.2 38.2 0 00-12.7-8.3c-5-1.9-19.8 10.1-29 21.9-3.7 4.9-8.9 30-5.8 46.7z"/><g opacity=".3"><path d="M492.5 354.2l4.3 27.1 3 19.3a8.7 8.7 0 003.4 5.6 50 50 0 0035.4 8.4 407 407 0 01-26.1-22.3c-1.6-1.7-5-8.1-3-9.1l22.4-7.2c5.8-2.2 7-7 8.2-13.1l8.8-43.3c-1.5-15.5.1-30.6-11.5-41-2.7-2.4-27.9-1-29.1 23.8-1.1 24.1-3.6 41.4-15.8 51.8z" fill="#2914b4"/></g><path class="st43" d="M522.8 258.5l-29 21.9-2.1-13.2 27.2-14.6z"/><g><path d="M496 355.1l-47.7 37.6-.7.6-26.5 3.7-23.2 13.3 2.8 1.6 25.4-3.3 20.4 1.3c2.2.1 8.7-4.4 11.1-8.7l54-31.3-15.6-14.8z" fill="#eac4ab"/><path class="st42" d="M481.8 366.3l10.6-8.3 11.5 16.5-26.6 15.4z"/><path class="st33" d="M532.9 272.5c-13.2-1.6-21.3 10.6-21.3 22a289 289 0 01-5.8 50.2l-14.8 13 13.8 18.1 10.4-6.2a41.4 41.4 0 0019.5-27.1c3.2-14.4 7.3-33.7 8.7-42.5 2.1-12-2.7-26.6-10.5-27.5z"/><path class="st43" d="M499.4 381.3l11-6-15.4-24.7-10 7.8z"/></g></g></g></g></svg>