<svg version="1.0" id="Layer_1" xmlns="http://www.w3.org/2000/svg" x="0" y="0" viewBox="0 0 1000 1000" xml:space="preserve"><style>.st1{fill:#9685d2}.st2{fill:#7766bc}.st4{fill:#ddd}.st6{fill:#fff}.st7{fill:#a7b6d4}.st8{fill:#4d6ca7}.st9{fill:#fc6051}.st11{fill:#402e90}.st12{fill:#030303}.st14{fill:#f2d78b}.st15{fill:#1d0c65}.st20{fill:#382449}.st21{fill:#261633}.st22{fill:#f7dda3}.st23{fill:#957ef1}.st24{fill:#f17187}.st25{fill:#e55978}.st26{fill:#211c3e}.st27{fill:#bebdc1}.st29{fill:#f1dfac}.st30{fill:#f16093}.st31{fill:#e53f5b}
    @keyframes translate{
		0%{transform: translateY(-20px);}
		50%{transform: translateY(20px);}
		100%{transform: translateY(-20px);}
		}
    #DUDE {
		animation:translate 10000ms ease-out 0ms infinite;
	  }
    #QUESTION {
		animation:translate 3000ms ease-out 500ms infinite;
	  }
    </style><path d="M875.5 844.3c35.7 0 126.6-50.2 90.1-130s-68.1-134.1-46.8-189c21.3-54.8 40.8-236.9-110.6-307.2-142.3-66.1-224.4 70.2-324.5 14.8-133.7-74-327.7-60.8-310 127.3C187 500.6 64.8 542.7 27.3 655.6c-31 93.4 59.5 188.7 128.4 188.7h719.8z" opacity=".8" fill="#e4d9ff"/><path class="st1" d="M952.4 603.4l-2.2-2.2a422.2 422.2 0 00-119.5 223.5l2.6.5a419.5 419.5 0 01119.1-221.8z"/><path class="st1" d="M949.7 602.4l-.1 1.6 1.6-.1c16.4-1 33.5-28.9 34.7-30.1l2.5-3.9-4.4 1.6c-1.3 0-33.3 13.5-34.3 30.9zM839.4 792.7l-.5 1.7 1.3.3c31.8 7 67.9-22.6 70-22.7l2.8-1.9-3.1-.7c-2-.8-60.6-12.2-70.5 23.3zM856.9 741.8l-.7 1.6 1.3.5c27.8 10.3 63-11.7 64.8-11.7l3-1.6-3.1-1.1c-1.8-1-52.9-17.3-65.3 12.3zM879.4 695.7l-.9 1.5 1.3.7c23.4 12.3 56.2-3.3 57.8-3.2l3.2-1.3-3-1.4c-1.6-1-44.7-20.2-58.4 3.7zM906 654.6l-1 1.4 1.2.9c18.8 13 48.1 2.8 49.4 2.9l3.4-1-3-1.8c-1.2-1-36.3-21.1-50-2.4zM932.6 621.8l-1.2 1.3 1.1 1c14.4 12.3 39.1 6.1 40.2 6.2l3.6-.8-2.9-2c-.9-.8-28.2-19.6-40.8-5.7z"/><path class="st1" d="M799.3 724.9l-2.6-1.9.3 4.2c-.7 2.9 7.5 59.3 40.7 66.8l1.3.3.5-1.7c9.5-32.7-37.9-65.7-40.2-67.7zM827.6 678.1l-2.5-2.2-.1 4.2c-.8 2.5 1.1 52 29.9 62.7l1.3.5.7-1.6c11.9-27.5-27.5-61.7-29.3-63.6zM859.5 637.9l-2.3-2.5-.5 4.1c-.8 2-3.5 44.2 20.6 56.9l1.3.7.9-1.5c13-22.4-18.6-55.9-20-57.7zM893.9 604.1l-2.1-2.7-.9 4c-.7 1.6-6.4 36.3 12.9 49.7l1.2.9 1-1.4c13.2-17.7-11.1-48.9-12.1-50.5zM926.1 580l-1.9-2.9-1.2 3.9c-.6 1.2-7.4 28.6 7.3 41.1l1.1 1 1.2-1.3c12.2-13.3-5.7-40.5-6.5-41.8z"/><g><path class="st2" d="M882.7 565.9l-1.2-.8A266.2 266.2 0 00834 725.7h1.3a265 265 0 0147.4-159.8z"/><path class="st2" d="M896.4 546.6c-3.6-3.2-16.3 7.8-15.2 20.1 11.5-3.4 18.7-17 15.2-20.1zM874.4 577.1c9.5 7.4 24.8 3.5 24.9-1.2.2-4.8-15.5-8.4-24.9 1.2zM863.4 596.7c11.8 7.7 29.4 1.7 29.2-3.7-.2-5.7-19-8.7-29.2 3.7zM834.6 707.9c15 2.3 29.8-13 27.3-18.6-2.5-6.1-22.9-.3-27.3 18.6zM852.6 620.9c14.7 7.6 34.7-1.3 33.9-7.6-.7-6.7-23.3-8.6-33.9 7.6zM837.2 679.3c16.8 4.4 35.4-10.3 33.3-16.7-2.1-7-26-3.6-33.3 16.7zM843.5 648.6c17.2 6.6 38.5-5.8 37-12.7-1.4-7.4-27-7.2-37 12.7z"/><path class="st2" d="M866.3 553c-5.1 2.4-3 19.3 8.2 24.1 4.3-12.3-3.3-26.3-8.2-24.1zM851.7 568.7c-5.9 3.4-2 23.5 11.7 28 4-15-5.9-31.1-11.7-28zM810.7 683c-4.4 6.7 8.5 27.1 24 24.9-2.9-18.4-19.6-31.2-24-24.9zM836.1 588.6c-6.6 4.8 0 28.7 16.5 32.2 3-18.3-10-36.5-16.5-32.2zM813 648.5c-5.9 6.9 6.4 31.3 24.2 30.8-1-20.6-18.4-37.2-24.2-30.8zM821.6 613.7c-7 6.4 3 33 21.9 34.8 1.3-21.1-15-40.6-21.9-34.8z"/></g><g><path transform="rotate(-33.9 150 735)" class="st2" d="M148.6 631.7h2.8v206.4h-2.8z"/><path class="st2" d="M70.6 616.6l.9 3.6c.3 1.1 6.6 27.5 20.7 30.3l1.4.3.3-1.4c2.8-14.1-19.3-30-20.2-30.7l-3.1-2.1zM192.8 798.6l.8 1.2 1.2-.8c28.9-19.4 28.7-63 28.7-64.9v-3.2l-2.3 2.2c-1.9 1.7-44.3 41.9-28.4 65.5zM168.6 762.7l.8 1.2 1.2-.8c25.3-17 25.2-55.3 25.2-56.9V703l-2.3 2.2c-1.7 1.4-38.8 36.7-24.9 57.5zM145.5 728.3l.8 1.2 1.2-.8c21.8-14.6 21.7-47.5 21.7-48.9v-3.2l-2.3 2.2c-1.4 1.2-33.4 31.5-21.4 49.5zM123.5 695.4l.8 1.2 1.2-.8c18.3-12.3 18.2-39.8 18.2-41v-3.2l-2.3 2.2c-1.3 1.1-28.1 26.5-17.9 41.6zM104.6 667.2l.8 1.2 1.2-.8c14.7-9.9 14.7-32.1 14.7-33v-3.2l-2.3 2.2c-1.1.8-22.7 21.3-14.4 33.6zM121.4 800l-2.9 1.3 2.9 1.2c1.7.7 42 17.4 70.9-2l1.2-.8-.8-1.2c-15.8-23.5-69 .5-71.3 1.5z"/><path class="st2" d="M106 763.8l-2.9 1.3 2.9 1.2c1.5.6 36.9 15.2 62.2-1.8l1.2-.8-.8-1.2c-14-20.6-60.6.4-62.6 1.3zM91.6 729.2l-2.9 1.3 2.9 1.2c1.3.5 31.7 13.1 53.5-1.5l1.2-.8-.8-1.2c-12-17.9-52.2.2-53.9 1zM78.2 696.1l-2.9 1.3 2.9 1.2c1.1.5 26.5 11 44.8-1.3l1.2-.8-.8-1.2c-10.1-15-43.7.2-45.2.8zM68 667.7l-2.9 1.3 2.9 1.2c.9.4 21.4 8.8 36.1-1.1l1.2-.8-.8-1.2c-8.2-12.2-35.3.1-36.5.6z"/></g><path d="M829.7 823.2H201.5a14 14 0 01-14-14V410.8a14 14 0 0114-14h628.3a14 14 0 0114 14v398.4a14 14 0 01-14.1 14z" fill="#717171"/><path class="st4" d="M805.6 789.4H225.5a4 4 0 01-3.2-1.5c-.6-.7-1-1.7-1-2.8V434.9c0-1.2.5-2.2 1.2-3a4 4 0 013-1.2h580.1c1.2 0 2.2.5 3 1.2a4 4 0 011.2 3v350.2c0 1.2-.5 2.2-1.2 3a4 4 0 01-3 1.3z"/><g><path class="st4" d="M805.6 430.6H225.5c-1.2 0-2.2.5-3 1.2a4 4 0 00-1.2 3V785c0 1 .4 2 1 2.8l.2.2 586.1-356.2a4.3 4.3 0 00-3-1.2z"/></g><g><path d="M321.6 261.3h-21.2a37.7 37.7 0 00-38.4 37v98.4h86.9v-98.4l-27.3-37z" fill="#b0b0b0"/><path class="st6" d="M664.1 261.3H300.4a37.7 37.7 0 0138.4 37v491h363.7v-491c0-20.4-17.2-37-38.4-37z"/><path class="st7" d="M550.2 368.9h85v5.9h-85z"/><path class="st8" d="M417.7 400.9h-38a3 3 0 01-3-2.9v-37.7a3 3 0 013-2.9h38a3 3 0 013 2.9V398a3 3 0 01-3 2.9zm-35.1-5.8h32.1v-31.8h-32.1v31.8z"/><path class="st9" d="M398.6 390.1c-1.1 0-2-.6-2.6-1.5a66.2 66.2 0 00-25-21.9 2.8 2.8 0 01-1.3-3.9c.7-1.5 2.5-2 4-1.3.7.3 15.5 7.7 24.6 19.9a106.6 106.6 0 0146.4-44.3 3 3 0 013.9 1.6 3 3 0 01-1.6 3.8c-14.6 6-35.5 24.2-45.7 46a3 3 0 01-2.6 1.7l-.1-.1z"/><path class="st7" d="M449.8 354.4h219.3v5.9H449.8zM449.8 368.9h72.3v5.9h-72.3zM449.8 383.5h121.1v5.9H449.8zM585.9 383.5H669v5.9h-83.1zM449.8 398h52.5v5.9h-52.5zM535 398h134v5.9H535z"/><g><path class="st8" d="M417.7 489.4h-38a3 3 0 01-3-2.9v-37.7a3 3 0 013-2.9h38a3 3 0 013 2.9v37.7a3 3 0 01-3 2.9zm-35.1-5.8h32.1v-31.8h-32.1v31.8z"/><path class="st9" d="M398.6 478.6c-1.1 0-2-.6-2.6-1.5a66.2 66.2 0 00-25-21.9 2.8 2.8 0 01-1.3-3.9c.7-1.5 2.5-2 4-1.3.7.3 15.5 7.7 24.6 19.9a106.6 106.6 0 0146.4-44.3 3 3 0 013.9 1.6 3 3 0 01-1.6 3.8c-14.6 6-35.5 24.2-45.7 46a3 3 0 01-2.6 1.7l-.1-.1z"/><g><path transform="rotate(-180 528.4 489.5)" class="st7" d="M449.8 486.5H607v5.9H449.8z"/><path transform="rotate(-180 595.6 475)" class="st7" d="M559.4 472h72.3v5.9h-72.3z"/><path transform="rotate(-180 492.3 475)" class="st7" d="M449.8 472h85v5.9h-85z"/><path transform="rotate(-180 608.5 460.4)" class="st7" d="M547.9 457.4H669v5.9H547.9z"/><path transform="rotate(-180 491.3 460.4)" class="st7" d="M449.8 457.4h83.1v5.9h-83.1z"/><path transform="rotate(-180 642.8 445.8)" class="st7" d="M616.5 442.9H669v5.9h-52.5z"/><path transform="rotate(-180 516.8 445.8)" class="st7" d="M449.8 442.9h134v5.9h-134z"/></g></g><g><path class="st8" d="M417.7 577.9h-38a3 3 0 01-3-2.9v-37.7a3 3 0 013-2.9h38a3 3 0 013 2.9V575a3 3 0 01-3 2.9zm-35.1-5.8h32.1v-31.8h-32.1v31.8z"/><path class="st9" d="M398.6 567.1c-1.1 0-2-.6-2.6-1.5a66.2 66.2 0 00-25-21.9 2.8 2.8 0 01-1.3-3.9 3 3 0 014-1.3c.7.3 15.5 7.7 24.6 19.9a106.6 106.6 0 0146.4-44.3 3 3 0 013.9 1.6 3 3 0 01-1.6 3.8c-14.6 6-35.5 24.2-45.7 46a3 3 0 01-2.6 1.7l-.1-.1z"/><g><path transform="rotate(-180 559.4 534.3)" class="st7" d="M449.8 531.4h219.3v5.9H449.8z"/><path transform="rotate(-180 597.3 548.9)" class="st7" d="M561.1 545.9h72.3v5.9h-72.3z"/><path transform="rotate(-180 492.3 548.9)" class="st7" d="M449.8 545.9h85v5.9h-85z"/><path transform="rotate(-180 608.5 563.4)" class="st7" d="M547.9 560.5H669v5.9H547.9z"/><path transform="rotate(-180 491.3 563.4)" class="st7" d="M449.8 560.5h83.1v5.9h-83.1z"/><path transform="rotate(-180 642.8 578)" class="st7" d="M616.5 575H669v5.9h-52.5z"/><path transform="rotate(-180 516.8 578)" class="st7" d="M449.8 575h134v5.9h-134z"/></g></g><g><path class="st8" d="M417.7 666.4h-38a3 3 0 01-3-2.9v-37.7a3 3 0 013-2.9h38a3 3 0 013 2.9v37.7a3 3 0 01-3 2.9zm-35.1-5.8h32.1v-31.8h-32.1v31.8z"/><path class="st9" d="M398.6 655.6c-1.1 0-2-.6-2.6-1.5a66.2 66.2 0 00-25-21.9 2.8 2.8 0 01-1.3-3.9c.7-1.5 2.5-2 4-1.3.7.3 15.5 7.7 24.6 19.9a106.6 106.6 0 0146.4-44.3 3 3 0 013.9 1.6 3 3 0 01-1.6 3.8c-14.6 6-35.5 24.2-45.7 46a3 3 0 01-2.6 1.7l-.1-.1z"/><g><path class="st7" d="M449.8 663.5h219.3v5.9H449.8zM449.8 649h72.3v5.9h-72.3zM550.2 649h85v5.9h-85zM449.8 634.4h121.1v5.9H449.8zM585.9 634.4H669v5.9h-83.1zM449.8 619.9h52.5v5.9h-52.5zM522.1 619.9h134v5.9h-134z"/></g></g><g><path class="st8" d="M417.7 754.9h-38a3 3 0 01-3-2.9v-37.7a3 3 0 013-2.9h38a3 3 0 013 2.9V752a3 3 0 01-3 2.9zm-35.1-5.8h32.1v-31.8h-32.1v31.8z"/><path class="st7" d="M449.8 708.4h219.3v5.9H449.8zM449.8 722.9h72.3v5.9h-72.3zM557.2 722.9h85v5.9h-85zM449.8 737.5h121.1v5.9H449.8zM585.9 737.5H669v5.9h-83.1zM449.8 752h52.5v5.9h-52.5zM523.9 752h101.2v5.9H523.9z"/></g></g><path d="M854.4 823.2H134.6c0 11.7 9.5 21.1 21.1 21.1h719.8c11.7 0 21.1-9.5 21.1-21.1h-42.2z" fill="#3f3f3f"/><g id="DUDE"><path class="st11" d="M822.9 327c1.4-19.6-24.5-52.8-40.7-42.8-18.7 11.5 23.3 28.3 25 41.6 1.8 13.3-16.1 19.7-26.1 24.6.7 3.9 1.9 7.9 4.1 11 15.7-4 36.6-19.6 37.7-34.4z"/><path class="st12" d="M788.8 242.7c-.9-4.1-4.4-9.7-16.2-9.7-11.8 0-15.3 5.6-16.2 9.7-3.4 13.4 6.3 25.8 6.3 25.8h19.8c.1 0 9.8-12.4 6.3-25.8z"/><path d="M779.1 269.9h-12.9s-.3 6.5-1.7 11.6c2.5 1.4 2.1 3.3 8.1 3.3s5.6-1.8 8.1-3.3c-1.3-5.1-1.6-11.6-1.6-11.6z" fill="#e0bc5f"/><path class="st14" d="M784.8 255.2l-2.2 11.9s6-1.6 7-8.4-4.8-3.5-4.8-3.5zM755.8 258.7a10 10 0 007 8.4l-2.2-11.9s-5.7-3.3-4.8 3.5z"/><path class="st14" d="M786.4 246.8a23.4 23.4 0 01-13.8 4.6c-3.9 0-8.4-.9-13.8-4.6-1.1 18.4 4.8 30.5 13.8 30.5s14.9-12.1 13.8-30.5z"/><path class="st11" d="M722.5 327c-1.4-19.6 24.5-52.8 40.7-42.8 18.7 11.5-23.3 28.3-25 41.6-1.8 13.3 16.1 19.7 26.1 24.6-.7 3.9-1.9 7.9-4.1 11-15.7-4-36.6-19.6-37.7-34.4z"/><path class="st15" d="M743.7 306.6c-.6.1-1 .8-.8 1.4l2 7.8 1.9-1.7-1.7-6.6c-.2-.7-.8-1-1.4-.9zM801.4 306.6c-.6-.1-1.2.3-1.3.9l-1.5 6.5 1.9 1.7 1.8-7.8c.1-.6-.3-1.2-.9-1.3z"/><path class="st11" d="M799.1 316.3c2.6-9.7 4.1-20.8 4.1-23.4 0-6.1-10.6-12.2-23.1-14.2 0 1.2-.6 4.7-7.5 4.7s-7.5-3.6-7.5-4.7c-12.4 1.9-24.2 8.1-24.2 14.2 0 2.6 2.6 13.7 5.3 23.4 2.4 8.9 3.7 23.4 3.7 35.2 0 14.2-5 28.3-5 28.3h55.4s-4.9-14.1-5-28.3c.1-11.8 1.4-26.3 3.8-35.2z"/><path d="M799.3 334.1h-53.1c-.7 0-1.4.3-1.8.8-.4.4-.6 1-.6 1.6v37.4c0 1.4 1.1 2.5 2.5 2.5h53.1c1.4 0 2.5-1.1 2.5-2.5v-37.4c0-.6-.2-1.2-.6-1.6-.6-.5-1.3-.8-2-.8z" fill="#424bba"/><path class="st12" d="M738.3 398.8c0 4-4.2 5.2-8.7 4.9-2.2-.1-5 .1-8.4.7-6.5 1.3-12.2-1.3-12.2-4s4.7-5.5 12.5-4.5c3.7.5 3.8-.2 7.7-.6 5.5-.4 9.1.2 9.1 3.5zM808.4 398.8c0 4 4.2 5.2 8.7 4.9 2.2-.1 5 .1 8.4.7 6.5 1.3 12.2-1.3 12.2-4s-4.7-5.5-12.5-4.5c-3.7.5-3.8-.2-7.7-.6-5.6-.4-9.1.2-9.1 3.5z"/><path class="st14" d="M815.1 396s2.3.8 2 3.4c-.4 3.1-2.9 2.9-2.9 2.9l-12.7-1.2 2.4-10.8 11.2 5.7z"/><g><path d="M729 384.8a1329 1329 0 0074.9 19.3l4.3-15.3s-66.8-26.7-83.1-32.8c-16.2-5.9-32.2 20.7 3.9 28.8z" fill="#0b0038"/></g><path class="st14" d="M731.6 396s-2.3.8-2 3.4c.4 3.1 2.9 2.9 2.9 2.9l12.7-1.2-2.4-10.8-11.2 5.7z"/><g><path d="M817.7 384.8a1329 1329 0 01-74.9 19.3l-4.3-15.3s66.8-26.7 83.1-32.8c16.1-5.9 32.1 20.7-3.9 28.8z" fill="#0d0053"/></g><path d="M782 357h-18.7c-.5 0-1-.2-1.3-.6-.3-.3-.4-.7-.4-1.2 0-.6.3-1.1.7-1.4a2 2 0 011-.3H782c.4 0 .8.2 1.1.4.4.3.6.8.6 1.4 0 .4-.2.8-.4 1.2a2 2 0 01-1.3.5z" fill="#0d0f96"/></g><g><path class="st20" d="M824.6 649.8l3.3 22.4-6.5 126.6-11-2.3-18.2-143.9z"/><path class="st20" d="M770.7 645.6l-2.1 83.9 21.3 72.5 12.4-4.7-10.4-64.6 9.6-87.9z"/><path class="st21" d="M802.4 790.6l-14.9 6.8 5 10.4-7.8 4.9s-.7 4.3 1.9 6.2c2.6 1.8 19.6-12.4 19.6-12.4l-3.8-15.9z"/><path class="st21" d="M824.6 793l-16.1 2.7 2.1 11.3-8.8 2.7s-1.8 4 .2 6.4c2.1 2.4 22.1-6.9 22.1-6.9l.5-16.2z"/><path class="st20" d="M793.3 508.7c1.2 3.7 2.8 7.3 4.9 10.6 0-6.9 1-13.7 3-20.3.1-.5.3-1.1 0-1.5-.2-.4-.8-.6-1.2-.7-8.6-2.1-8.7 5.3-6.7 11.9z"/><g><path class="st22" d="M797.9 519.4c.9 2.8 2.4 6 5.3 7.7 3.4 2 7.1 1 9.7-.6 8.5-5.1 23.2-33.5 1.1-40.4-20.1-6.3-19.7 21.6-16.1 33.3z"/><path class="st20" d="M815.4 519.5c1.3 2 4.3 1.5 6.5.5a22.9 22.9 0 0012.4-24.1c-1.4-8-11.3-14.2-13.6-4.4-.8 3.5 1.2 8.4.6 12.2a49.5 49.5 0 01-5.9 15.8z"/><path class="st20" d="M793.8 475.9c-10.1 5.6-14.6 17.9-23.8 24.8 8.3 3.8 18.1 4 26.6.7 8.3-3.3 28-5.3 25.4-16.8-2.6-11.8-19.4-13.6-28.2-8.7z"/></g><g><path class="st23" d="M832.9 548.4c5.8 10 5.7 21.4 5 32.2-1.8 24.6.5 53.1-7.9 76.6-16 0-46.7-7.4-62.6-9-3.1-21.4-1.3-33.9.5-58.1.9-11.9 2.7-27.9 6.9-39.3 3.5-9.3 12.7-21.3 26.6-20.9a41 41 0 0131.5 18.5z"/></g><path class="st22" d="M806.9 534.9c-1.5.6-3.2.4-5-1.3-1.5-1.4-1-1.9-.7-4 .5-3.1 1.3-6.2 1.9-9.3l8.6 1.8-1.9 9a5.4 5.4 0 01-2.9 3.8z"/><g><path class="st22" d="M720.7 557.1l-6.7-6.6-10.6.2-1.2 5.4 16 6.9z"/></g><g><path class="st23" d="M799.8 537.1l-7.7-6.9-41.2 32.8-29.7-10.4-9.5 12.2 39.7 23.3 41.9-26.9z"/></g></g><g><path class="st24" d="M688.6 587.6c-5.8-.8-11 .5-15.6 4a20 20 0 00-8.1 13.9c-.8 5.8.5 11 4 15.6a20 20 0 0013.9 8.1 20 20 0 0015.6-3.9 20 20 0 008.1-13.9c.8-5.8-.5-11-4-15.6a20.2 20.2 0 00-13.9-8.2z"/><path class="st25" d="M702.4 595.7a20 20 0 00-13.9-8.1c-1.9-.3-3.7-.3-5.4-.1 3.8 1.3 6.9 3.7 9.4 7 3.4 4.6 4.8 9.8 4 15.6a20.3 20.3 0 01-8.1 13.9 20 20 0 01-9 3.9l-1.2.2a21.8 21.8 0 0011 1.1 20 20 0 009-3.9 20 20 0 008.1-13.9c.9-5.9-.4-11.1-3.9-15.7z"/><path class="st24" d="M781.3 433.6a72.8 72.8 0 00-48-24.8 74.4 74.4 0 00-53.3 10.4 58.9 58.9 0 00-24.5 36.8 10 10 0 008.2 12l12.4 1.8c4.9.7 9.6-2.4 10.9-7.3a31.4 31.4 0 0112.6-19.2c7.6-5.2 17.5-7 29.4-5.3a39.1 39.1 0 0126.5 13.6c5.7 7.3 7.7 17 6.1 28.6-2.3 16.1-8.4 26.3-18.3 30.3-10.4 4.2-25.8 4.8-45.9 1.7l-5.4-.8a9.8 9.8 0 00-11.1 8.3l-6.6 46.7c-.4 2.6.3 5.2 1.9 7.3a10 10 0 006.5 3.8l12.6 1.8h3c4.1-.7 7.5-4 8.1-8.3l4.3-30.2c.1-.4.4-.6.8-.6 23.5 2.7 42.2 0 55.7-7.9 14.3-8.4 23.1-23.7 26.2-45.5 3-21.7-1-39.6-12.1-53.2z"/><path class="st25" d="M781.3 433.6a72.8 72.8 0 00-48-24.8 83.3 83.3 0 00-35.2 1.9c5.8-.3 11.8 0 18.1.9a72.6 72.6 0 0148 24.8c11.1 13.6 15.1 31.5 12 53.2-3.1 21.8-11.9 37.1-26.2 45.5a58 58 0 01-13.9 5.8 69.8 69.8 0 0031-8.6c14.3-8.4 23.1-23.7 26.2-45.5 3.1-21.7-.9-39.6-12-53.2z"/></g><g><path class="st26" d="M210.9 816.7l9.3 6 3.2 4.7s-3.3 1.7-5.2 2.1c-1.9.5-16.6-1.1-16.6-1.1l-.4-8.6 9.7-3.1zM164.3 823.3l4.6 5.2s3.7 7 1.9 6.9c-1.9-.1-12.1.4-12.8-.7-.7-1.2-6.1-5.3-6.8-6-.7-.8 0-7.4 0-7.4l13.1 2z"/><path class="st27" d="M190.7 685.9l-11.6 70.4-14.8 67-13.2-.8 2.5-70.7s-9.5-65-9.5-84.2l46.6 18.3z"/><path class="st27" d="M219.7 689.3l-5.3 129.9-13.5.7-7.2-66-10.5-58.3 28-36z"/><path fill="none" d="M151 577.5z"/><path class="st23" d="M212.6 621c-7.1-34.5 1.9-51.2-13.6-60.8 0 0-25.3-7-41.4 4.6l-.7.5-5.9 12.2-4.4 54.6s-12.4 71.7-5.8 72.3c7.5.7 41.8-15.3 48.3-15 6.5.4 26.5 3.9 45.3-2.5 16.1-5.4-14.7-31.4-21.8-65.9z"/><path class="st6" d="M181.1 559.1l-4.9.2-.5 5 18.1 50.5 4-21.9-4.4-31.8zM196 634.3l-7 55 14.7 2.1 10.2-.8-12.9-47.8z"/><g><path class="st29" d="M187.8 561.3l-10.1.4c-.4-2.7-.6-5.4-.6-8-2.9-.6-6.3-1.6-7.2-4.4-.3-.9-.3-1.8-.2-2.8.1-3.9-1-7.8.4-11.6.4-1.3.1-2.7.6-3.9 1-2.1 3.3-3.3 5.5-4.1a21 21 0 0117.3 1.7c1.3.8 2.6 1.9 3.4 3.3 1.1 2.2.9 4.8.6 7.2l-.8 6.8c-.3 2.6-.9 5.6-3.1 6.8-1.2.7-2.7.7-3.8 1.6-1.9 1.7-1.2 4.7-2 7z"/><path class="st20" d="M202.3 511.1l-2.3-.4c-2.5-.9-4.4-2.8-7.1-3.6A23.6 23.6 0 00176 509c-4.7 2.5-11.4 3.8-15.5 7a14 14 0 00-3.9 5.1 20.4 20.4 0 006.6 24.8c2.7 2.2 6 5 9.4 5.5-.3-2.9-4.3-11.7-2.4-14.4 2.5-3.6 8-3.9 11.9-3.9 4.7 0 8.4-1.8 13.1-1.9 2.4-.1 5.1.2 6.8-1.5 2-1.9 5.9-7.9 6.8-10.5.7-2.2-.1-4.8-1.9-6.4-1.5-1.5-3-1.6-4.6-1.7z"/></g><g><path class="st23" d="M234 587.2l-30.7-27.8-7.4 6.2 25.4 42.4 11.5 1.1s3.3-11.8 4-13l-2.8-8.9z"/></g><g><path class="st30" d="M161.1 688.1a27.7 27.7 0 00-20.6-7.4c-7.8.4-14.4 3.6-19.7 9.5a27.7 27.7 0 00-7.4 20.6c.4 7.8 3.6 14.4 9.5 19.7a28 28 0 0040.3-2.1 27.7 27.7 0 007.4-20.6 27.5 27.5 0 00-9.5-19.7z"/><path class="st31" d="M170.6 707.8a27.5 27.5 0 00-9.5-19.7 29.6 29.6 0 00-6-4.2c3.2 4.4 5 9.4 5.3 15.1.4 7.8-2.1 14.7-7.4 20.6a28.6 28.6 0 01-32.8 7.1l-1.5-.7a30.1 30.1 0 0011.7 9.6 28.6 28.6 0 0040.2-27.8z"/><path class="st30" d="M382.7 585c-2.2-23.6-14-45.3-35.2-64.4-21.2-19.1-44.1-28.8-68-28.7a79.9 79.9 0 00-55.6 22.9 13 13 0 00-4.2 9.9c0 3.7 1.6 7.3 4.4 9.8l12.6 11.4c5 4.5 12.7 4.6 17.8.1 9-8 18.4-11.9 28.8-12 12.5-.1 25 5.4 37.2 16.4a53.3 53.3 0 0119.6 35.5c.8 12.6-4.2 25-14.9 36.9-14.8 16.4-29.5 23.2-43.6 20.2-14.9-3.1-32.7-14.2-53.1-32.9L223 605a13.3 13.3 0 00-18.8 1l-43 47.6a13 13 0 00-3.4 9.6 13 13 0 004.4 9.2L175 684a13.4 13.4 0 0018.9-1l27.8-30.8c.3-.4.9-.4 1.3-.1 24.5 20.9 47.6 32.2 68.8 33.4 22.5 1.4 44.1-9.2 64.1-31.5 20-22.1 29-45.3 26.8-69z"/><path class="st31" d="M382.7 585c-2.2-23.6-14-45.3-35.2-64.4a111.2 111.2 0 00-41.2-24.6c6.7 4 13.3 9 19.7 14.8 21.2 19.1 33.1 40.8 35.2 64.4 2.2 23.7-6.9 47-26.9 69.1-20.1 22.2-41.6 32.8-64.1 31.5a77.1 77.1 0 01-20-4 95 95 0 0041.5 13.8c22.5 1.4 44.1-9.2 64.1-31.5 20.1-22.2 29.1-45.4 26.9-69.1z"/></g><g><path class="st23" d="M162.9 561.7l-14.5 4.5-34.8 59.2 2.4 11.5 45 22.5 6.4-12.2-28.5-21.8 17.4-23.7 6.7-37.9z"/></g><g><path class="st22" d="M202.8 559.9l-7.4-7.9-7.1 2-2 7.1 6.3 1.1 6 1.2z"/></g><g><path class="st29" d="M166.7 648.4l7.1 1.4-1.1 4.2 6.1 7.2-8.4 3.1-8.2-7.1z"/></g></g><g id="QUESTION"><path class="st24" d="M215.8 459a11.8 11.8 0 00-12.3 11.6 11.8 11.8 0 0011.6 12.3c1.3 0 2.6-.1 3.7-.4 1.8-.5 3.4-1.4 4.8-2.8 2.4-2.2 3.6-5.1 3.7-8.4a11.8 11.8 0 00-11.5-12.3z"/><path class="st25" d="M224.2 462.7a11.5 11.5 0 00-8.4-3.7c-1.1 0-2.1.1-3.1.3a11.8 11.8 0 019 12 12 12 0 01-8.5 11.2l-.7.2a14.5 14.5 0 006.3-.1c1.8-.5 3.4-1.4 4.8-2.8 2.4-2.2 3.6-5.1 3.7-8.4a11 11 0 00-3.1-8.7z"/><path class="st24" d="M258.7 365.7a41 41 0 00-28.8-11c-12-.4-21.9 2.8-29.6 9.3a33.9 33.9 0 00-11.6 22.5c-.2 1.6.3 3.1 1.3 4.3 1 1.2 2.5 1.9 4.1 1.9l7.1.2c2.9.1 5.3-2 5.7-4.8.7-5 2.7-8.8 5.9-11.7 4-3.4 9.5-5.1 16.4-4.9 6.9.2 12.2 2.2 15.9 6a21 21 0 015.3 15.9c-.3 9.3-3.1 15.4-8.4 18.3-5.6 3-14.3 4.4-25.9 3.9l-3.1-.1a5.6 5.6 0 00-5.8 5.4l-.8 26.9c0 1.5.5 2.9 1.5 4s2.4 1.7 3.9 1.8l7.2.2 1.7-.2c2.3-.6 4-2.7 4.1-5.2l.5-17.4c0-.2.2-.4.4-.4 13.5 0 24-2.7 31.1-8 7.6-5.7 11.6-15 12-27.5.5-12.5-3-22.4-10.1-29.4z"/><path class="st25" d="M258.7 365.7a41 41 0 00-28.8-11c-7.4-.2-14.1.9-19.9 3.3 3.3-.5 6.7-.7 10.3-.6 12 .4 21.7 4.1 28.8 11 7.1 7 10.6 16.9 10.2 29.4-.4 12.6-4.4 21.8-12 27.5-2.2 1.6-4.7 3-7.5 4.2a40.5 40.5 0 0017-6.9c7.6-5.7 11.6-15 12-27.5.5-12.5-3-22.4-10.1-29.4z"/></g></svg>