<svg width="150" height="150" viewBox="0 0 150 150" fill="none" xmlns="http://www.w3.org/2000/svg" style="width: 150px; height: 150px;"><style>
     .technology6-a {animation:technology6-a 4s infinite; transform: translate3d(0, -5px, 0);}
     .technology6-b {animation:technology6-a 4s 300ms infinite; transform: translate3d(0, -5px, 0);}
     .technology6-c {animation:technology6-a 4s 600ms infinite; transform: translate3d(0, -5px, 0);}
     @keyframes technology6-a {
         0%{transform: translate3d(0, -5px, 0);}
         50%{transform: translate3d(0, 4px, 0);}
         100%{transform: translate3d(0, -5px, 0);}
     }
    </style><path class="fillCls1" d="M86.3715 102H99.6285C118.611 102 134 117.389 134 136.372V143H52V136.372C52 117.404 67.3886 102 86.3715 102Z" fill="#B7E3F0" stroke-width="2px" style="animation-duration: 4s;"></path><path class="fillCls5" d="M48.0345 73.8125L54.3407 92H94C94 90.625 92.8789 89.125 91.5086 89.125H82.0103L76.1712 73.2031C76.0311 72.5 75.4082 72 74.7075 72H49.4826C48.5483 72 47.832 72.8906 48.0345 73.8125Z" fill="#072A3D" stroke-width="2px" style="animation-duration: 4s;"></path><path class="fillCls3" d="M53.242 98.7487C53.242 98.7487 56.2978 124.786 55.5843 135.044C55.5688 135.342 55.4136 135.608 55.1655 135.765L50 139.059L52.8387 140L60.455 137.851L60.1913 136.142C60.0517 135.169 60.0362 134.181 60.1448 133.193C60.393 131.075 60.9824 126.934 62.3009 121.57C64.2399 113.618 63.6815 103.611 62.9524 101.65L65 100.678L60.2689 95H56.2978L53.242 98.7487Z" fill="#FDC485" stroke-width="2px" style="animation-duration: 4s;"></path><path class="fillCls3" d="M81.3309 85L78 85.586L79.6654 88H82L81.3309 85Z" fill="#FDC485" stroke-width="2px" style="animation-duration: 4s;"></path><path class="fillCls3" d="M86.9499 42.9771C86.9499 42.9771 84.574 50.7532 86.9499 55.5875H89.6128V59.0064H84L85.0524 67.5459L92.3713 64.3178L97.6997 59.315L94.2847 59.1019V55.2535L98 49.322L96.9476 45.6168L88.5763 41.5459L86.9499 42.9771Z" fill="#FDC485" stroke-width="2px" style="animation-duration: 4s;"></path><path class="fillCls6" d="M103.96 43.096C103.837 41.9397 103.513 40.7675 102.772 39.8647C102.047 38.9777 100.859 38.4233 99.7482 38.6767C98.6373 38.9301 97.7578 40.1498 98.0355 41.2744C96.9709 39.5479 94.965 38.4708 92.9746 38.55C91.7866 38.5975 90.6448 39.0569 89.4567 39.1044C88.3766 39.1519 87.2811 38.8193 86.1857 38.9777C82.9609 39.4053 82.5443 43.3969 83.3621 45.9629C83.6706 46.9133 84.7661 47.7528 85.445 48.4181C84.8587 47.4835 84.797 46.2164 85.2907 45.2343C85.0439 46.1847 85.3062 47.2776 86.0005 47.9746C85.7845 47.1826 85.8462 46.2956 86.2165 45.5669C86.5097 44.9967 87.0034 44.5215 87.5897 44.2681C87.7132 44.2206 87.9292 44.1731 88.1452 44.1097C88.2069 44.8542 89.1944 45.0759 89.7807 45.2818C90.3825 45.4877 90.9688 45.7412 91.478 46.1372C92.2186 46.7074 92.666 47.5627 92.7432 48.5131C92.8358 47.7528 93.3604 47.04 94.1781 47.0242C94.7027 47.0083 95.1656 47.4519 95.3045 47.9746C95.4279 48.4973 95.2736 49.0517 94.9959 49.511C94.7182 49.9704 94.317 50.3188 93.9158 50.6673C92.9438 51.5226 92.0952 52.6156 92.7432 53.9778C93.0364 54.6114 93.561 55.1024 94.0856 55.5459C94.0393 55.2291 94.0238 54.9123 94.0701 54.6114C94.1936 54.7381 94.3324 54.8648 94.4867 54.9598C94.9959 54.1995 95.7828 53.661 96.4926 53.0908C97.5726 52.2196 98.5447 51.19 99.1619 49.9387C99.5476 49.1467 99.671 48.4181 99.671 47.6578C99.779 47.0559 99.7173 46.4223 99.5476 45.8204L99.5013 45.8362C99.4859 45.7253 99.4705 45.6303 99.455 45.5194C99.8716 46.2639 100.659 46.7707 101.507 46.7866C102.356 46.8024 103.189 46.3272 103.621 45.5669C103.652 45.5036 103.698 45.4402 103.729 45.3769C104.022 44.6641 104.038 43.8563 103.96 43.096Z" fill="#0A2A3C" stroke-width="2px" style="animation-duration: 4s;"></path><path class="fillCls2" d="M60.4558 137.603V139.933C60.4558 140.503 60.0933 140.989 59.5573 141.123L58.5641 141.374C54.1344 142.464 50.1543 143 45.5984 143C45.094 143 44.621 142.816 44.2269 142.464C43.9117 142.179 43.9274 141.642 44.2585 141.374L44.7787 140.955C45.6772 140.251 46.6546 139.682 47.695 139.246L53.1494 137L52.8184 138.19C52.7711 138.374 52.913 138.559 53.1022 138.542L60.4558 137.603Z" fill="#21B787" stroke-width="2px" style="animation-duration: 4s;"></path><path class="fillCls3" d="M47.2204 90.4663C47.2204 90.4663 40.0295 107.912 36.9696 111.706C34.9349 114.214 32.2633 117.295 30.679 119.092C29.8403 120.052 28.6753 120.655 27.4172 120.795L22.7109 121.321L24.1865 123.164L33.8501 124.322L34.2359 122.947C34.4534 122.281 34.7795 121.646 35.2144 121.089C36.5658 119.355 39.7809 115.375 43.167 112.356C47.6092 108.392 55.7326 99.9845 56.9131 96.7019L58.0003 93.791L50.405 89.7188L47.2204 90.4663Z" fill="#FDC485" stroke-width="2px" style="animation-duration: 4s;"></path><path class="fillCls2" d="M27.7982 120.751C27.7982 120.751 21.9421 120.787 17.3591 121.851C16.5689 122.038 16 122.742 16 123.555C16 123.805 16.1896 123.993 16.4425 124.055C18.4653 124.618 19.5399 125.338 26.1299 126.51C27.41 126.729 28.9587 127.042 31.187 126.995C32.4513 126.964 33.4896 126.402 33.7108 125.182L33.8688 124.322L26.3986 122.711C25.9403 122.617 25.8771 122.007 26.3038 121.819L27.7982 120.751Z" fill="#21B787" stroke-width="2px" style="animation-duration: 4s;"></path><path class="fillCls4" d="M98.57 85.9077C98.57 85.9077 106.286 98.5195 98.57 104.818C90.8538 111.116 65.1696 101.779 65.1696 101.779C65.1696 101.779 61.2411 95.418 56.8743 96.5257L57.7508 94.247C57.7508 94.247 51.0363 88.9617 46.9199 90.8448L50.5667 81.6668C50.8641 80.9389 51.4432 80.3692 52.1788 80.116C52.8049 79.8945 53.4779 79.9103 54.0883 80.1635L80.6177 91.2246L82.4333 87.6167L98.57 85.9077Z" fill="#F26C5D" stroke-width="2px" style="animation-duration: 4s;"></path><path class="fillCls2" d="M85.9369 59H85.0676H84.0586C83.3601 59 82.6927 59.2988 82.2425 59.8335C80.4419 61.9094 76.3439 68.5303 74 75.7488L76.0955 79.5546L80.6281 73.8302L82.3822 78.611V83.5806L81.0007 84.0524L82.0252 87.9998C82.0252 87.9998 96.6009 88.047 100.575 86.6159C100.823 86.5215 101.025 86.3171 101.102 86.0497C101.708 83.8795 104.409 73.1382 102.049 61.9723C101.879 61.1388 101.32 60.4468 100.559 60.1166C99.752 59.7706 99.1466 59.4875 97.0821 59.2202C97.0821 59.2202 91.3077 63.4978 87.396 64.7559C86.7751 64.9604 86.1231 64.5515 85.999 63.9067L85.9369 59Z" fill="#21B787" stroke-width="2px" style="animation-duration: 4s;"></path><path class="fillCls5" d="M96.629 71L96.9469 71.0546C96.9469 71.0546 96.605 75.0298 96.629 77.5819C96.6509 79.9082 97 83.5266 97 83.5266C97 83.5266 92.8592 83.5155 90.2086 83.6176C87.7814 83.7112 84 84 84 84V83.6905C84 83.6905 87.7808 83.3733 90.2086 83.2717C92.6935 83.1677 96.576 83.1716 96.576 83.1716C96.576 83.1716 96.3186 79.7674 96.3111 77.5819C96.3022 75.0084 96.629 71 96.629 71Z" fill="#072A3D" stroke-width="2px" style="animation-duration: 4s;"></path><path class="fillCls5" d="M83 64.0896L82.5921 64C82.5921 64 81.3149 67.3985 80.4243 69.705C79.5088 72.0769 80.3597 74 80.3597 74L80.7678 73.9104C80.7678 73.9104 80.0131 72.3685 80.8428 69.705C81.6905 67.4474 83 64.0896 83 64.0896Z" fill="#072A3D" stroke-width="2px" style="animation-duration: 4s;"></path><path class="fillCls5" d="M49.7311 78.6406C54.7588 78.1719 59.9266 79.2031 64.5963 80.9687C67.4604 82.0469 70.1377 83.4844 72.7061 85.1563C74.0447 86.0156 75.3367 86.9531 76.5664 87.9531C77.2357 88.5 77.905 89.0625 78.5121 89.6875C79.1192 90.3125 79.6173 91.0156 80.2399 91.6094C80.3644 91.7344 80.3956 91.875 80.3644 92H94C94 90.625 92.8793 89.125 91.5095 89.125H82.0144L76.1772 73.2031C76.0372 72.5 75.4145 72 74.7141 72H49.4976C48.5481 72 47.8321 72.875 48.0344 73.8125L49.7311 78.6406Z" fill="#072A3D" stroke-width="2px" style="animation-duration: 4s;"></path><g class="technology6-c" style="animation-duration: 4s;"><path class="fillCls7" d="M42.225 61.6254H13.8811C12.9025 61.6254 12.1074 60.8356 12.1074 59.8587V39.8917C12.1074 38.917 12.9003 38.125 13.8811 38.125H42.2271C43.2057 38.125 44.0008 38.9148 44.0008 39.8917V59.8587C43.9986 60.8334 43.2057 61.6254 42.225 61.6254Z" fill="#0061FE" stroke-width="2px"></path><path class="fillCls8" d="M29.0841 54.0717H20.3106C19.4881 54.0717 18.8223 53.4453 18.8223 52.6715V47.0789C18.8223 46.3051 19.4881 45.6787 20.3106 45.6787H29.0841C29.9066 45.6787 30.5725 46.3051 30.5725 47.0789V52.6715C30.5725 53.4433 29.9066 54.0717 29.0841 54.0717Z" fill="#FFFFFF" stroke-width="2px"></path><path class="fillCls8" d="M31.4102 48.044V49.6463V50.1041V51.7064L37.2853 54.911V50.1041V49.6463V44.8394L31.4102 48.044Z" fill="#FFFFFF" stroke-width="2px"></path></g><g class="technology6-b" style="animation-duration: 4s;"><path class="fillCls9" d="M114 55.7502H137.5V44H114V55.7502Z" fill="#C572ED" stroke-width="2px"></path><path class="fillCls10" d="M114 44L125.618 49.8751L137.5 44H114Z" fill="#DE99FF" stroke-width="2px"></path></g><g class="technology6-a" style="animation-duration: 4s;"><path class="fillCls11" d="M69.3277 7.04785C62.6083 7.04785 57.1603 12.4065 57.1603 19.0215C57.1603 22.2645 58.4764 25.2095 60.602 27.3649L57.945 29.9821H64.426C65.9258 30.6327 67.5845 31.0002 69.3326 31.0002C76.052 31.0002 81.5 25.6416 81.5 19.0265C81.5 12.4114 76.047 7.04785 69.3277 7.04785Z" fill="#90D1BF" stroke-width="2px"></path><path class="fillCls12" d="M63.831 20.5651C62.9643 20.5651 62.2617 19.8736 62.2617 19.0206C62.2617 18.1676 62.9643 17.4761 63.831 17.4761C64.6978 17.4761 65.4004 18.1676 65.4004 19.0206C65.4004 19.8736 64.6978 20.5651 63.831 20.5651Z" fill="#259D92" stroke-width="2px"></path><path class="fillCls12" d="M69.3252 20.5651C68.4584 20.5651 67.7558 19.8736 67.7558 19.0206C67.7558 18.1676 68.4584 17.4761 69.3252 17.4761C70.1919 17.4761 70.8945 18.1676 70.8945 19.0206C70.8945 19.8736 70.1919 20.5651 69.3252 20.5651Z" fill="#259D92" stroke-width="2px"></path><path class="fillCls12" d="M74.8155 20.5651C73.9487 20.5651 73.2461 19.8736 73.2461 19.0206C73.2461 18.1676 73.9487 17.4761 74.8155 17.4761C75.6822 17.4761 76.3848 18.1676 76.3848 19.0206C76.3848 19.8736 75.6822 20.5651 74.8155 20.5651Z" fill="#259D92" stroke-width="2px"></path></g></svg>